<svg xmlns="http://www.w3.org/2000/svg" xmlns:xlink="http://www.w3.org/1999/xlink" version="1.1" x="0px" y="0px" enable-background="new 0 0 100 100" xml:space="preserve" viewBox="17.73 23.58 65.88 57.92"><path fill="#9a1d71" d="M83.482,40.628c-0.414-4.681-1.619-7.458-4.604-10.614c-4.031-4.259-8.359-6.419-12.867-6.419  c-7.008,0-12.449,5.204-15.345,8.757c-2.897-3.553-8.337-8.757-15.346-8.757c-4.507,0-8.835,2.16-12.866,6.419  c-2.986,3.155-4.191,5.933-4.599,10.564c-2.129,19.669,26.13,37.336,31.089,40.275c0.148,0.133,0.313,0.249,0.492,0.345  c0.37,0.198,0.775,0.296,1.18,0.296c0.221,0,0.441-0.029,0.655-0.087c0.215-0.052,0.426-0.132,0.625-0.238  c0.131-0.069,0.252-0.151,0.367-0.242C56.85,78.225,85.625,60.421,83.482,40.628z M69.477,41.344  c-0.318-0.671-1.01-1.166-2.059-1.471c-1.326-0.385-2.088-1.771-1.703-3.098c0.385-1.325,1.771-2.092,3.098-1.703  c3.092,0.896,4.525,2.741,5.184,4.131c0.963,2.035,0.928,4.482-0.1,6.892c-0.406,0.949-1.33,1.52-2.301,1.52  c-0.328,0-0.66-0.065-0.98-0.201c-1.27-0.542-1.859-2.011-1.318-3.281C69.756,43.058,69.82,42.068,69.477,41.344z"></path></svg>