<svg xmlns="http://www.w3.org/2000/svg" xmlns:xlink="http://www.w3.org/1999/xlink" version="1.1" width="451" enable-background="new 0 0 640 427" xml:space="preserve" height="945"><rect id="backgroundrect" width="100%" height="100%" x="0" y="0" fill="none" stroke="none" style="" class=""/><defs><linearGradient id="svg_11"><stop stop-color="#eeaad7" stop-opacity="1" offset="0"/><stop stop-color="#115528" stop-opacity="1" offset="0.5499999523162842"/></linearGradient><linearGradient id="svg_12" spreadMethod="pad"><stop stop-color="#eeaad7" stop-opacity="1" offset="0"/><stop stop-color="#115528" stop-opacity="1" offset="0.5265624523162842"/><stop stop-color="#115528" stop-opacity="1" offset="0.6828124523162842"/><stop stop-color="#115528" stop-opacity="1" offset="0.8820312023162842"/><stop stop-color="#115528" stop-opacity="1" offset="1"/></linearGradient><linearGradient id="svg_3"><stop stop-color="#eeaad7" stop-opacity="1" offset="0"/><stop stop-color="#115528" stop-opacity="1" offset="1"/></linearGradient><linearGradient id="svg_16"><stop stop-color="#8ae9e9" stop-opacity="1" offset="0"/><stop stop-color="#751616" stop-opacity="1" offset="0.7609374523162842"/></linearGradient><linearGradient id="svg_21"><stop stop-color="#8ae9e9" stop-opacity="1" offset="0"/><stop stop-color="#751616" stop-opacity="1" offset="1"/></linearGradient></defs>








































































































































































































<g class="currentLayer" style=""><title>Layer 1</title><path fill="#eeaad7" opacity="0.42" stroke="none" d="M454.73015240855847,605.8541774397604 C395.00934415421125,606.2380880643743 335.28856272160385,606.2380880643743 275.5677544672566,606.2380880643743 C275.51040439624467,605.8681905353244 275.45305432523276,605.4982938258975 275.3957033890033,605.1284028538319 C280.98344269952526,603.8693905168471 286.51282828683605,602.2324204775788 292.1738402644237,601.4479592408596 C299.1033423000973,600.4877134451194 306.1753482393658,600.468140846297 313.1202182667315,599.5813398342784 C316.13081406876387,599.1968972742945 319.3685406895695,598.1863446539933 321.8217158471057,596.5458289253402 C327.8834653826284,592.4920830691008 334.5181627543436,590.7062711202453 341.75416719340114,589.6892303637516 C345.3063951525752,589.189953694446 348.7665259094259,587.066335738077 351.88239617498357,585.1226611081673 C354.72487677277513,583.3494951236013 357.1843879174276,580.9527148309546 359.5687523340975,578.60818223029 C364.44790540500543,573.8105186119271 372.8899009223116,574.0811392970761 379.14017787128597,577.6296932643409 C381.9751059862782,579.2391805225744 384.8169523797059,580.8551264105702 387.7627260931467,582.2677402082877 C391.78922903385006,584.198621341756 395.85919444086704,584.6131137422184 400.12381213540306,582.5465464689995 C409.71466063821197,577.8989353434924 418.5569983090955,579.9371026774654 426.68869052292183,585.8272025389413 C430.9051995336356,588.8813762650982 435.6706552495015,590.1664608118208 440.44561537865053,588.5638559284746 C445.4666649705293,586.878654350249 449.70804725143574,587.7249823752556 454.40685786562045,589.8204511970371 C454.73015240855847,595.0538370925244 454.73015240855847,600.2620474459087 454.73015240855847,605.8541774397604 z" id="svg_5" class="" fill-opacity="1"/><path fill="#eeaad7" opacity="0.46" stroke="none" d="M-2.9734887869313837,754.5653324804643 C3.4604491965040083,754.5988751200346 9.366337495629441,753.4284614537577 14.766498016175877,748.9537367787175 C18.237244033627164,746.0777811303619 22.49308764440025,744.959910274549 27.07647615122045,744.5270893638567 C30.435919396791114,744.2098312439159 59.40744165895666,728.1265986059575 36.82386526573385,739.7816142155984 C14.240288872511037,751.4366298252395 39.361606987555874,737.0631614295581 40.63902066793407,735.696145829759 C47.02034629765714,728.8671814751772 54.084840665130265,715.8912498129611 60.1833936200806,733.0749149012283 C66.28194657503093,750.2585799894956 52.22201378366913,754.0970696979193 65.38760790070617,736.448328142424 C78.55320201774325,718.7995865869287 72.5552367492124,739.5295107502463 76.3078922421416,737.5668032994179 C84.35759662788357,733.3566448205761 92.63997959378567,720.1753841740183 99.40906005383816,725.9176109557012 C103.1664025049218,729.1049857619385 106.39575947660174,743.7059225397686 110.45687674067224,742.9925646159558 C118.77133362417305,741.5321020790104 121.26540887588347,742.6822755797629 125.174888419207,751.1259169934134 C126.33861661229577,753.6393311736016 127.26261081941809,756.2870964176182 128.6308387727126,759.7097876732878 C84.51180254487957,759.7097876732878 -4.827862022406208,759.6688756985382 -2.639159572459804,759.7127071543173 C-0.45045712251340575,759.7565386100963 -2.9734887869313837,756.5110096252874 -2.9734887869313837,754.5653324804643 z" id="svg_6" class="" fill-opacity="1" transform="rotate(-3.2262158393859863 62.82867431640638,742.1025390624999) "/><path fill="#eeaad7" opacity="0.27" stroke="none" d="M202.56301507785773,171.9804482349896 C209.61962253272984,172.0083155459034 216.09707623317695,171.03593287257195 222.0198583745191,167.3183201452881 C225.82649939029668,164.92896882249775 230.4942188846204,164.00023885074975 235.5211827112958,163.64065012896774 C239.2057491948316,163.37707126989181 270.9811036512373,150.01508037819445 246.21191346874213,159.6980972146892 C221.442723286247,169.38111405118403 248.99525505500768,157.4395996735388 250.3962954323194,156.30387961001037 C257.3951987675092,150.63035852381466 265.14338716266604,139.8499212457633 271.83215139331793,154.12615423722684 C278.52091562396976,168.40238722869034 263.1002779358289,171.59141431524637 277.5400238322447,156.92879460297047 C291.97976972866036,142.26617489069457 285.40132795055365,159.48864900961573 289.51716133209203,157.85802662968814 C298.34590729206064,154.36021617620287 307.4298502103422,143.40919105176926 314.85403486366255,148.1798477774465 C318.9750088020323,150.82792693467076 322.5168994045637,162.9584226271325 326.97104714961984,162.36576303592503 C336.0901680641172,161.15240701754155 338.8256171871183,162.10797410948635 343.11345187889077,169.12297303424717 C344.38980441196423,171.21112397620857 345.40322176647163,173.41089412629665 346.90386532257054,176.25447479274868 C298.5150370888136,176.25447479274868 200.5291776316068,176.22048501928265 202.92970030754066,176.2569003050697 C205.3302229834745,176.29331559085665 202.56301507785773,173.5969217930448 202.56301507785773,171.9804482349896 z" class="" fill-opacity="1" transform="rotate(-3.2262158393859863 274.7334289550788,161.62635803222588) " id="svg_10"/><path fill="#eeaad7" opacity="0.44" stroke="none" d="M451.9418087903541,877.2261254672297 C418.5880129903688,877.6454922530021 385.23426760997984,877.6454922530021 351.8804718099945,877.6454922530021 C351.8197456077232,877.2221650986442 351.7590185651253,876.798824519308 351.6982915225274,876.3754973649501 C356.59028143760594,875.3068825207328 361.47360254340435,874.1900737945728 366.3790805408555,873.1968563132381 C368.0094191997024,872.8667495228957 369.70048406082054,872.6823037466335 371.35682578620157,872.7264003252124 C377.69712701210244,872.8952641767119 383.2531614993973,870.8699370520343 388.5233076313208,867.0624100538978 C390.53349576512625,865.6100592111986 393.6538444216994,866.0354206972618 396.0594742906605,865.035403016941 C399.17551375239174,863.7400617699412 402.37089937335725,862.2818236267775 405.0125627007361,860.1600129733695 C408.96641703346575,856.9842260720347 412.101844510679,852.185230419731 417.9320204277028,853.5216512051962 C420.3133388075903,854.0675188760814 422.7316374404819,855.0318520691985 424.80511645336384,856.3785563880081 C429.5861151898332,859.4837789186324 434.1402610360687,860.7358156607703 439.82964779299107,858.4924874741782 C443.22480509861936,857.1537593824501 447.4052039217179,858.0738447422332 451.587193483084,857.9670365102253 C451.9418087903541,864.2392642164077 451.9418087903541,870.5230051839428 451.9418087903541,877.2261254672297 z" id="svg_7" class="" fill-opacity="1"/><path fill="#eeaad7" opacity="0.6" stroke="none" d="M453.8465657410484,618.2769026134325 C424.29537266107184,618.5978693058947 394.74422425244956,618.5978693058947 365.19303117247296,618.5978693058947 C365.1392282488389,618.2738715045108 365.0854245806823,617.9498634281813 365.0316209125257,617.6258656267973 C369.36588437665137,616.8079902401407 373.6924673459288,615.953229169141 378.03868114185053,615.1930599313876 C379.4831479960056,614.9404092965492 380.9814177737947,614.7992418203589 382.44892313440425,614.8329915913364 C388.06637869584563,614.9622332807859 392.9889802755175,613.4121282881729 397.65828708659507,610.497998250903 C399.43929750068384,609.386426562131 402.2039011512008,609.711981360256 404.3352697415386,608.94660752011 C407.09605548030856,607.9552047439133 409.92714127385335,606.8391271490425 412.2676335976596,605.2151774931315 C415.77071653002696,602.7845562511345 418.54867989356813,599.1115954590114 423.7141685608063,600.1344388834341 C425.8239973686262,600.5522243323303 427.96659038125284,601.2902866823476 429.80367600186395,602.3210007150215 C434.03960218021496,604.6976147884944 438.0745385341917,605.6558740154981 443.1152891452675,603.9389196629218 C446.12337103427274,602.9143103178662 449.82717055123044,603.6185071325201 453.53237944941617,603.5367603511382 C453.8465657410484,608.3372744822601 453.8465657410484,613.1466004066407 453.8465657410484,618.2769026134325 z" class="" fill-opacity="1" id="svg_1"/><path fill="#eeaad7" opacity="1.000000" stroke="none" d=" M1.000000,427.500000   C1.321282,427.103729 1.583857,427.290161 1.893863,427.779633   C1.666667,428.000000 1.333333,428.000000 1.000000,427.500000  z" id="svg_13" class="" fill-opacity="1"/><path fill="#CEE8C1" opacity="1.000000" stroke="none" d=" M640.500000,428.000000   C640.090820,427.670044 640.276367,427.406982 640.778320,427.105408   C641.000000,427.333344 641.000000,427.666656 640.500000,428.000000  z" id="svg_14" class=""/><path fill="#eeaad7" opacity="0.52" stroke="none" d="M29.049638931012353,54.12144190081595 C32.450273566408356,63.65080667681693 34.039916619502506,48.75184468876838 35.91804407441994,42.924058246107094 C40.80107080367108,27.772130197610846 43.221725962404214,35.258566405630106 48.55463680000802,36.629934083404535 C53.88754763761183,38.001301761178965 55.88562317332407,46.0571425340557 60.24519940324207,40.13154782639502 C64.02299024516961,34.99673267733573 67.60485832314987,41.12128908433914 70.79121169510981,47.53905255342483 C72.91787868483087,51.82247261969566 74.95044575581213,53.72623026662826 77.56493060780902,51.37023475544929 C81.3259579709794,47.981023980789175 83.29772512126345,50.437209623107904 85.42625822219631,60.23474217586516 C86.46341887686869,65.00872109957695 108.70873801606078,64.13321044686316 83.37639810035726,79.84265352341652 C58.04405818465372,95.552103197937 -0.956906086686651,108.7480374935913 -1.416757498504917,76.7007675472927 C-1.876608910323183,44.6534976009941 1.5178662971880037,120.04782819640158 -1.5179814228842659,74.79911465188026 C-4.553829142956536,29.550401107358923 6.51864716567417,59.49607336179733 11.824650697021683,56.664298439588535 C14.39746957267185,55.29120209442137 19.504101816988193,63.003849606103884 22.019676470331152,60.466370410556785 C24.26072472936054,58.20581449417113 25.649004295616347,44.59207712481498 29.049638931012353,54.12144190081595 z" id="svg_18" class="" fill-opacity="0.5"/><path fill="#eeaad7" opacity="0.49" stroke="none" d="M354.9662599553004,366.74786613120534 C335.8754038701114,342.83994394024944 375.08541154652033,353.9252634898207 376.807455669522,352.4779183716432 C379.5641932426212,350.1608958419762 377.2280870298455,335.6713285189239 385.20434232740854,346.3798419252858 C393.1805976249716,357.08835533164773 391.81078173854445,342.69744416790223 394.1204930858407,336.80353763091597 C399.1644688930819,323.93252232597445 403.9868924635843,326.19598498403343 409.0789733147064,332.8532602158348 C412.896471275287,337.84415695346866 416.7596181652376,339.4886297010473 421.07760132359124,335.3743884151468 C425.863410718374,330.8143876700703 430.101479807587,335.5924260753826 433.79775145140917,341.06076851707496 C436.1882134191099,344.59726982659555 438.48415178639686,345.0733424065093 440.9921726301149,344.44235572718594 C447.9319476040808,342.69641633228514 456.8066522666929,337.7768658404139 452.1753505441526,356.90104032040335 C447.54404882161236,376.0252228303585 478.2871806151894,351.19297931092774 453.94668426762496,365.7233950697926 C429.6061879200605,380.2538108286575 396.02771619662553,385.9057584374139 366.1258203540549,378.74644171643655 C336.22392451148426,371.5871169654933 374.0571160404894,390.6557883221612 354.9662599553004,366.74786613120534 z" class="" fill-opacity="1" id="svg_9"/><path fill="#eeaad7" opacity="0.56" stroke="none" d="M199.80381897235148,176.1230250256106 C174.34145058749434,151.91421353296005 312.35943782459975,164.02108699625097 234.01587806255336,177.82803599911534 C155.6723107095527,191.6349789536538 238.21967264642234,175.35421627261067 240.32951766751285,174.11783563787426 C241.83755942235703,173.23410264451945 243.33046481431955,172.08398928204144 244.90258181444162,171.6953843432065 C247.75946783047195,170.9892181015142 250.3224548687243,169.8724189180728 252.43501745145554,166.61261319302287 C256.81725259814255,159.8507058075186 259.0900450443172,159.34308796002296 264.5201886597728,163.99109334813141 C267.6277583507299,166.6510744973972 270.54937243410825,167.62502431982065 274.0595056137013,165.4304981382277 C277.093116636877,163.53391853861058 280.1967086677789,164.0055427986976 283.08361690808056,167.08911845210815 C285.35354756448265,169.51369875749134 287.801448144536,171.31920266576253 290.9297715045595,170.13088807692372 C294.44145323883055,168.79694189715468 297.1304197547078,170.9444423449042 298.7965051781559,176.3657443438276 C298.8739708668256,177.23085454174782 298.87882148662567,177.58623602643453 298.74918316902637,178.15533510666575 C293.16367549183605,181.28930541144396 287.6612280366373,182.36826021975244 281.75110838055605,178.85416472904586 C282.0152508174633,180.27306569435382 298.2143624835563,169.340438413867 282.06999677990194,181.9054362738445 C265.92562348529333,194.47044018214788 228.82110716719384,216.93467255328022 189.74302623061888,196.5794974705007 C150.66493770308966,176.22432843604707 225.266194948163,200.3318244216093 199.80381897235148,176.1230250256106 z" id="svg_20" class="" fill-opacity="0.7" transform="rotate(9.020442962646484 238.51458740234392,182.85665893554688) "/><path fill="#eeaad7" opacity="0.29" stroke="none" d="M189.14710539416922,456.65887653264326 C186.5798654746474,457.9504745950609 184.10464490510117,459.39601161308155 181.4243972282256,460.4984674179864 C177.13371448881517,462.2633721545469 172.8768727069987,464.4738107974249 168.29535937529218,465.26552197272645 C162.44992134580266,466.2756388669329 158.10286623402726,460.31291811419715 154.54776843373668,472.29496010769003 C150.9926706334461,484.2770021011829 139.33570566876065,480.0803251277839 130.72824057057272,476.4009570447695 C124.27527844848525,473.64256238070243 124.21975648360383,458.8152068213593 111.26712996453178,476.0844484000438 C98.31450344545972,493.3536899787282 96.73552469272983,476.9110953168713 90.4478484705175,473.83681121925224 C86.38146289667259,471.8486005864745 82.6579668804587,471.79206889969464 78.66230540115009,472.46061056351596 C67.60614894006859,474.3105001225149 65.55860443097484,473.68119810010546 59.89348785635363,465.7517250573628 C58.841945852278585,464.2798524530059 89.70193590237032,503.84441155026184 56.49359380535971,460.3435423112546 C23.2852517083491,416.8426730722474 208.32528455371508,456.84782003101395 184.94344476488243,451.98224974300376 C161.56160497604978,447.1166794549936 188.01490618546615,455.140968253129 189.14710539416922,456.65887653264326 z" id="svg_19" class="" fill-opacity="1" transform="rotate(176.54647827148438 120.81919097900392,461.8502197265625) "/></g></svg>