<svg xmlns="http://www.w3.org/2000/svg" xmlns:xlink="http://www.w3.org/1999/xlink" version="1.1" width="892.8947291678014" enable-background="new 0 0 640 427" xml:space="preserve" height="565.4210520834145" style=""><rect id="backgroundrect" width="100%" height="100%" x="0" y="0" fill="none" stroke="none" style="" class=""/><defs><linearGradient id="svg_11"><stop stop-color="#eeaad7" stop-opacity="1" offset="0"/><stop stop-color="#115528" stop-opacity="1" offset="0.5499999523162842"/></linearGradient><linearGradient id="svg_12" spreadMethod="pad"><stop stop-color="#eeaad7" stop-opacity="1" offset="0"/><stop stop-color="#115528" stop-opacity="1" offset="0.5265624523162842"/><stop stop-color="#115528" stop-opacity="1" offset="0.6828124523162842"/><stop stop-color="#115528" stop-opacity="1" offset="0.8820312023162842"/><stop stop-color="#115528" stop-opacity="1" offset="1"/></linearGradient><linearGradient id="svg_3"><stop stop-color="#eeaad7" stop-opacity="1" offset="0"/><stop stop-color="#115528" stop-opacity="1" offset="1"/></linearGradient><linearGradient id="svg_16"><stop stop-color="#8ae9e9" stop-opacity="1" offset="0"/><stop stop-color="#751616" stop-opacity="1" offset="0.7609374523162842"/></linearGradient><linearGradient id="svg_21"><stop stop-color="#8ae9e9" stop-opacity="1" offset="0"/><stop stop-color="#751616" stop-opacity="1" offset="1"/></linearGradient></defs>








































































































































































































<g class="currentLayer" style=""><title>Layer 1</title><path fill="#eeaad7" opacity="0.42" stroke="none" d="M893.1260798377577,369.11230655963345 C833.4052715834105,369.49621718424737 773.6844901508031,369.49621718424737 713.9636818964558,369.49621718424737 C713.9063318254439,369.12631965519745 713.848981754432,368.7564229457705 713.7916308182025,368.3865319737049 C719.3793701287245,367.1275196367202 724.9087557160353,365.49054959745183 730.5697676936229,364.7060883607327 C737.4992697292965,363.7458425649925 744.571275668565,363.7262699661701 751.5161456959307,362.83946895415147 C754.526741497963,362.4550263941676 757.7644681187687,361.4444737738663 760.2176432763049,359.8039580452132 C766.2793928118276,355.7502121889738 772.9140901835428,353.9644002401184 780.1500946226004,352.9473594836246 C783.7023225817744,352.44808281431904 787.1624533386251,350.32446485795003 790.2783236041828,348.3807902280404 C793.1208042019744,346.60762424347433 795.5803153466268,344.21084395082767 797.9646797632968,341.8663113501631 C802.8438328342047,337.0686477318002 811.2858283515109,337.33926841694915 817.5361053004851,340.8878223842139 C820.3710334154774,342.4973096424475 823.2128798089052,344.1132555304432 826.158653522346,345.52586932816075 C830.1851564630492,347.4567504616291 834.2551218700662,347.87124286209144 838.5197395646023,345.80467558887256 C848.1105880674112,341.1570644633655 856.9529257382947,343.19523179733847 865.0846179521211,349.0853316588143 C869.3011269628348,352.13950538497124 874.0665826787008,353.42458993169384 878.8415428078497,351.82198504834764 C883.8625923997286,350.13678347012205 888.103974680635,350.9831114951287 892.8027852948196,353.0785803169101 C893.1260798377577,358.31196621239746 893.1260798377577,363.52017656578175 893.1260798377577,369.11230655963345 z" id="svg_5" class="" fill-opacity="1"/><path fill="#eeaad7" opacity="0.46" stroke="none" d="M129.20695593047583,258.82598311523 C135.64089391391124,258.8595257548002 141.54678221303666,257.6891120885233 146.9469427335831,253.2143874134831 C150.4176887510344,250.33843176512755 154.67353236180747,249.2205609093146 159.25692086862767,248.78773999862233 C162.61636411419835,248.47048187868154 191.58788637636388,232.38724924072312 169.00430998314107,244.04226485036406 C146.42073358991826,255.69728046000512 171.54205170496311,241.32381206432376 172.8194653853413,239.9567964645246 C179.20079101506437,233.1278321099428 186.26528538253748,220.1519004477267 192.36383833748783,237.33556553599396 C198.46239129243816,254.51923062426124 184.40245850107635,258.35772033268495 197.5680526181134,240.7089787771896 C210.73364673515047,223.06023722169436 204.7356814666196,243.79016138501197 208.48833695954883,241.8274539341835 C216.5380413452908,237.61729545534172 224.82042431119288,224.43603480878392 231.5895047712454,230.17826159046683 C235.34684722232902,233.36563639670408 238.57620419400897,247.96657317453423 242.63732145807947,247.25321525072138 C250.95177834158028,245.79275271377605 253.44585359329068,246.94292621452848 257.3553331366142,255.38656762817902 C258.519061329703,257.8999818083672 259.44305553682534,260.5477470523838 260.8112834901198,263.9704383080534 C216.6922472622868,263.9704383080534 127.35258269500102,263.9295263333038 129.54128514494744,263.9733577890829 C131.72998759489383,264.0171892448619 129.20695593047583,260.77166026005307 129.20695593047583,258.82598311523 z" id="svg_6" class="" fill-opacity="1" transform="rotate(-3.2262158393859863 195.00912475586057,246.3631896972658) "/><path fill="#eeaad7" opacity="0.27" stroke="none" d="M397.2998486502454,106.71729348988768 C404.35645610511756,106.74516080080147 410.83390980556464,105.77277812747002 416.7566919469068,102.05516540018618 C420.5633329626844,99.66581407739582 425.2310524570081,98.73708410564782 430.2580162836835,98.3774953838658 C433.9425827672193,98.11391652478989 465.717937223625,84.75192563309253 440.9487470411298,94.43494246958727 C416.17955685863467,104.1179593060821 443.73208862739534,92.17644492843687 445.1331290047071,91.04072486490844 C452.1320323398969,85.36720377871274 459.88022073505374,74.58676650066138 466.56898496570557,88.86299949212491 C473.2577491963575,103.13923248358842 457.8371115082166,106.32825957014444 472.27685740463244,91.66563985786854 C486.71660330104805,77.00302014559264 480.13816152294135,94.2254942645138 484.25399490447967,92.59487188458621 C493.0827408644484,89.09706143110094 502.16668378272993,78.14603630666733 509.5908684360502,82.91669303234457 C513.71184237442,85.56477218956883 517.2537329769514,97.69526788203058 521.7078807220075,97.1026082908231 C530.827001636505,95.88925227243962 533.562450759506,96.84481936438442 537.8502854512785,103.85981828914524 C539.1266379843519,105.94796923110664 540.1400553388594,108.14773938119473 541.6406988949582,110.99132004764675 C493.25187066120134,110.99132004764675 395.2660112039945,110.95733027418072 397.66653387992835,110.99374555996778 C400.0670565558622,111.03016084575472 397.2998486502454,108.33376704794287 397.2998486502454,106.71729348988768 z" class="" fill-opacity="1" transform="rotate(-3.2262158393859863 469.470306396484,96.3632049560552) " id="svg_10"/><path fill="#eeaad7" opacity="0.27" stroke="none" d="M642.6134419249423,543.1002521814293 C648.2864364643457,543.129068173226 653.4938338868145,542.1235828852948 658.2553160807421,538.2794122660232 C661.3155761042843,535.8087207690905 665.0680800337021,534.8483742422916 669.1093900429216,534.4765441188496 C672.0715111010705,534.2039923012585 697.6165642263284,520.3871220221516 677.7039530247906,530.3997757220869 C657.7913418232531,540.4124294220223 679.9415554025844,528.0643926339914 681.0678890495675,526.8900094961537 C686.6944937114055,521.0233459495969 692.9234685746234,509.87591255960433 698.3007441561983,524.6381482860127 C703.6780197377735,539.400384012421 691.2809586913153,542.697974463473 702.8894547206902,527.536198336064 C714.4979507500649,512.3744222086551 709.209366324242,530.183197316732 712.5181943195473,528.4970640091822 C719.6158581673645,524.8801783453296 726.9186816418492,513.5563498235216 732.8871812738827,518.4894129919592 C736.2001418996371,521.2276401394504 739.0475620198326,533.7710916926283 742.6283699359585,533.1582563181878 C749.9594739378379,531.9035942813505 752.1585742897904,532.8916915386678 755.6056787160818,540.1455005658629 C756.631772486606,542.304737982063 757.4464856692542,544.5793944351296 758.6528929625296,547.5197785077576 C719.7518261122398,547.5197785077576 640.9783858728093,547.4846316277301 642.9082299401429,547.5222865912738 C644.8380740074766,547.5599415548172 642.6134419249423,544.771755001801 642.6134419249423,543.1002521814293 z" class="" fill-opacity="1" transform="rotate(-3.2262158393859863 700.6331787109399,532.393676757811) " id="svg_2"/><path fill="#eeaad7" opacity="0.44" stroke="none" d="M451.9418087903541,877.2261254672297 C418.5880129903688,877.6454922530021 385.23426760997984,877.6454922530021 351.8804718099945,877.6454922530021 C351.8197456077232,877.2221650986442 351.7590185651253,876.798824519308 351.6982915225274,876.3754973649501 C356.59028143760594,875.3068825207328 361.47360254340435,874.1900737945728 366.3790805408555,873.1968563132381 C368.0094191997024,872.8667495228957 369.70048406082054,872.6823037466335 371.35682578620157,872.7264003252124 C377.69712701210244,872.8952641767119 383.2531614993973,870.8699370520343 388.5233076313208,867.0624100538978 C390.53349576512625,865.6100592111986 393.6538444216994,866.0354206972618 396.0594742906605,865.035403016941 C399.17551375239174,863.7400617699412 402.37089937335725,862.2818236267775 405.0125627007361,860.1600129733695 C408.96641703346575,856.9842260720347 412.101844510679,852.185230419731 417.9320204277028,853.5216512051962 C420.3133388075903,854.0675188760814 422.7316374404819,855.0318520691985 424.80511645336384,856.3785563880081 C429.5861151898332,859.4837789186324 434.1402610360687,860.7358156607703 439.82964779299107,858.4924874741782 C443.22480509861936,857.1537593824501 447.4052039217179,858.0738447422332 451.587193483084,857.9670365102253 C451.9418087903541,864.2392642164077 451.9418087903541,870.5230051839428 451.9418087903541,877.2261254672297 z" id="svg_7" class="" fill-opacity="1"/><path fill="#eeaad7" opacity="0.6" stroke="none" d="M898.7588200745445,379.37966292837393 C869.2076269945679,379.70062962083614 839.6564785859457,379.70062962083614 810.105285505969,379.70062962083614 C810.051482582335,379.3766318194522 809.9976789141783,379.0526237431227 809.9438752460218,378.72862594173876 C814.2781387101475,377.91075055508213 818.6047216794249,377.0559894840824 822.9509354753466,376.29582024632896 C824.3954023295016,376.0431696114906 825.8936721072907,375.90200213530034 827.3611774679003,375.9357519062778 C832.9786330293417,376.0649935957273 837.9012346090136,374.5148886031143 842.5705414200911,371.60075856584444 C844.3515518341799,370.48918687707237 847.116155484697,370.8147416751974 849.2475240750347,370.0493678350514 C852.0083098138047,369.05796505885473 854.8393956073494,367.9418874639839 857.1798879311557,366.3179378080729 C860.682970863523,363.8873165660759 863.4609342270642,360.2143557739528 868.6264228943023,361.2371991983755 C870.7362517021222,361.6549846472717 872.878844714749,362.39304699728905 874.7159303353601,363.42376102996286 C878.951856513711,365.80037510343584 882.9867928676878,366.75863433043946 888.0275434787636,365.04167997786317 C891.0356253677688,364.01707063280764 894.7394248847265,364.7212674474615 898.4446337829122,364.63952066607965 C898.7588200745445,369.4400347972015 898.7588200745445,374.2493607215821 898.7588200745445,379.37966292837393 z" class="" fill-opacity="1" id="svg_1"/><path fill="#eeaad7" opacity="1.000000" stroke="none" d=" M1.000000,427.500000   C1.321282,427.103729 1.583857,427.290161 1.893863,427.779633   C1.666667,428.000000 1.333333,428.000000 1.000000,427.500000  z" id="svg_13" class="" fill-opacity="1"/><path fill="#CEE8C1" opacity="1.000000" stroke="none" d=" M640.500000,428.000000   C640.090820,427.670044 640.276367,427.406982 640.778320,427.105408   C641.000000,427.333344 641.000000,427.666656 640.500000,428.000000  z" id="svg_14" class=""/><path fill="#eeaad7" opacity="0.52" stroke="none" d="M29.049638931012353,54.12144190081595 C32.450273566408356,63.65080667681693 34.039916619502506,48.75184468876838 35.91804407441994,42.924058246107094 C40.80107080367108,27.772130197610846 43.221725962404214,35.258566405630106 48.55463680000802,36.629934083404535 C53.88754763761183,38.001301761178965 55.88562317332407,46.0571425340557 60.24519940324207,40.13154782639502 C64.02299024516961,34.99673267733573 67.60485832314987,41.12128908433914 70.79121169510981,47.53905255342483 C72.91787868483087,51.82247261969566 74.95044575581213,53.72623026662826 77.56493060780902,51.37023475544929 C81.3259579709794,47.981023980789175 83.29772512126345,50.437209623107904 85.42625822219631,60.23474217586516 C86.46341887686869,65.00872109957695 108.70873801606078,64.13321044686316 83.37639810035726,79.84265352341652 C58.04405818465372,95.552103197937 -0.956906086686651,108.7480374935913 -1.416757498504917,76.7007675472927 C-1.876608910323183,44.6534976009941 1.5178662971880037,120.04782819640158 -1.5179814228842659,74.79911465188026 C-4.553829142956536,29.550401107358923 6.51864716567417,59.49607336179733 11.824650697021683,56.664298439588535 C14.39746957267185,55.29120209442137 19.504101816988193,63.003849606103884 22.019676470331152,60.466370410556785 C24.26072472936054,58.20581449417113 25.649004295616347,44.59207712481498 29.049638931012353,54.12144190081595 z" id="svg_18" class="" fill-opacity="0.5"/><path fill="#eeaad7" opacity="0.49" stroke="none" d="M432.25894900510167,386.70589084052966 C414.4277019078741,367.59174562796517 472.34717737292505,374.78078453957835 452.659076633921,375.29720717101617 C432.970975894917,375.813629802454 453.05195210796506,361.8605049489896 460.5019404033587,370.42185261746926 C467.9519286987523,378.9832082808499 466.6724962427763,367.4778182895438 468.8298103507772,362.76569562852666 C473.54098562239443,352.4754426364712 478.0452282822332,354.28506447995585 482.80133981325605,359.60748589927005 C486.36695726578506,363.5976610103373 489.97522030072184,364.9123984855215 494.00830644315215,361.6231043604223 C498.478351407384,357.9774295309393 495.2163786245659,349.95313133832735 498.6687700250605,354.3250149999623 C500.90151401463066,357.1524117180471 504.24936281596575,367.60067593231724 518.625935958669,344.59204657805844 C533.0025091013721,321.5834092288987 574.2848462684836,353.9870705371503 569.9591220780877,369.27666300655886 C565.6333897647236,384.56625547596735 547.4432293229846,374.26991036939427 524.7087068820713,385.8868372237401 C501.97417631818985,397.5037560831849 470.61119349614415,402.0224341210131 442.68221167486524,396.2986286999135 C414.75322173061824,390.5748232788138 450.09020422529727,405.8200360530941 432.25894900510167,386.70589084052966 z" class="" fill-opacity="1" id="svg_9" transform="rotate(10.035615921020508 499.53814697265705,367.68130493164074) "/><path fill="#eeaad7" opacity="0.56" stroke="none" d="M766.1195614650272,68.75461348462548 C740.6571930801701,44.54580199197494 878.6751803172756,56.652675455265864 800.3316205552292,70.45962445813024 C721.9880532022285,84.2665674126687 804.5354151390982,67.98580473162556 806.6452601601886,66.74942409688916 C808.1533019150328,65.86569110353435 809.6462073069954,64.71557774105634 811.2183243071174,64.3269728022214 C814.0752103231478,63.620806560529104 816.6381973614001,62.5040073770877 818.7507599441313,59.24420165203776 C823.1329950908183,52.4822942665335 825.405787536993,51.97467641903785 830.8359311524487,56.622681807146314 C833.9435008434057,59.28266295641208 836.865114926784,60.256612778835546 840.3752481063771,58.0620865972426 C843.4088591295529,56.16550699762547 846.5124511604547,56.6371312577125 849.3993594007563,59.720706911123045 C851.6692900571584,62.14528721650623 854.1171906372117,63.950791124777425 857.2455139972353,62.76247653593862 C860.7571957315063,61.428530356169574 863.4461622473837,63.57603080391908 865.1122476708317,68.9973328028425 C865.1897133595014,69.86244300076271 865.1945639793014,70.21782448544943 865.0649256617021,70.78692356568064 C859.4794179845119,73.92089387045885 853.9769705293131,74.99984867876734 848.0668508732318,71.48575318806076 C848.3309933101391,72.90465415336871 864.530104976232,61.972026872881884 848.3857392725777,74.53702473285938 C832.241365977969,87.10202864116278 795.1368496598697,109.56626101229512 756.0587687232946,89.2110859295156 C716.9806801957654,68.85591689506197 791.5819374408388,92.96341288062419 766.1195614650272,68.75461348462548 z" id="svg_20" class="" fill-opacity="0.7" transform="rotate(9.020442962646484 804.8303833007814,75.48825073242169) "/><path fill="#eeaad7" opacity="0.29" stroke="none" d="M238.62078779773367,461.92203390034956 C236.05354787821184,463.2136319627672 233.57832730866562,464.65916898078785 230.89807963179004,465.7616247856927 C226.60739689237963,467.5265295222532 222.35055511056316,469.7369681651312 217.76904177885663,470.52867934043275 C211.92360374936712,471.5387962346392 207.5765486375917,465.57607548190344 204.02145083730113,477.55811747539633 C200.46635303701055,489.5401594688892 188.8093880723251,485.3434824954902 180.20192297413718,481.6641144124758 C173.74896085204972,478.9057197484087 173.69343888716827,464.0783641890656 160.74081236809621,481.3476057677501 C147.78818584902416,498.6168473464345 146.20920709629428,482.1742526845776 139.92153087408195,479.09996858695854 C135.85514530023704,477.1117579541808 132.13164928402315,477.05522626740094 128.13598780471455,477.72376793122226 C117.07983134363305,479.5736574902212 115.03228683453929,478.94435546781176 109.36717025991808,471.0148824250691 C108.31562825584304,469.5430098207122 139.1756183059348,509.10756891796814 105.96727620892416,465.6066996789609 C72.75893411191356,422.1058304399537 257.7989669572795,462.11097739872025 234.41712716844688,457.24540711071006 C211.03528737961423,452.3798368226999 237.4885885890306,460.4041256208353 238.62078779773367,461.92203390034956 z" id="svg_19" class="" fill-opacity="1" transform="rotate(176.54647827148438 170.2928771972656,467.1133728027344) "/></g></svg>