<svg id="visual" viewBox="0 0 540 960" width="540" height="960" xmlns="http://www.w3.org/2000/svg" xmlns:xlink="http://www.w3.org/1999/xlink" version="1.1"><g><g transform="translate(69 702)"><path d="M34.5 -10.2C39.8 4.9 35.7 24.2 22.3 34.8C9 45.5 -13.6 47.6 -27.3 37.6C-41.1 27.6 -46 5.5 -40 -10.7C-34 -27 -17 -37.4 -1.2 -37C14.6 -36.6 29.3 -25.4 34.5 -10.2Z" fill="#eeaad7" fill-opacity="0.2"></path></g><g transform="translate(403 71)"><path d="M32.9 -11.2C37.9 4.5 33.7 22.6 21.3 32.4C8.8 42.2 -11.9 43.6 -25.4 34C-38.8 24.5 -44.9 4 -39.4 -12.4C-34 -28.8 -17 -40.9 -1.5 -40.5C14 -40 28 -26.8 32.9 -11.2Z" fill="#eeaad7" fill-opacity="0.2"></path></g><g transform="translate(474 338)"><path d="M4.6 -1.7C5.3 0.6 4.7 3 3 4.3C1.3 5.5 -1.3 5.5 -3.2 4.2C-5 3 -5.9 0.4 -5.2 -1.9C-4.6 -4.1 -2.3 -6 -0.2 -5.9C2 -5.9 4 -3.9 4.6 -1.7Z" fill="#eeaad7" fill-opacity="0.2"></path></g><g transform="translate(35 71)"><path d="M25.5 -7.3C29.2 3 25.6 16.6 16.6 23.3C7.5 30 -6.9 29.7 -16.4 22.8C-26 15.8 -30.5 2.2 -26.9 -7.9C-23.4 -18 -11.7 -24.7 -0.4 -24.6C10.9 -24.5 21.9 -17.6 25.5 -7.3Z" fill="#eeaad7" fill-opacity="0.2"></path></g><g transform="translate(118 215)"><path d="M32.9 -9.1C37.4 3.2 32.2 20.2 20.5 28.8C8.8 37.5 -9.4 37.7 -19.5 29.7C-29.6 21.7 -31.6 5.4 -27 -7C-22.4 -19.3 -11.2 -27.8 1.5 -28.3C14.2 -28.7 28.4 -21.3 32.9 -9.1Z" fill="#eeaad7" fill-opacity="0.2"></path></g><g transform="translate(452 870)"><path d="M28 -9.6C31.2 0.7 25.1 13.5 14.9 21C4.7 28.5 -9.7 30.8 -19.6 24.3C-29.5 17.7 -35 2.3 -30.9 -9.2C-26.9 -20.7 -13.5 -28.2 -0.5 -28C12.4 -27.8 24.8 -20 28 -9.6Z" fill="#eeaad7" fill-opacity="0.2"></path></g><g transform="translate(160 535)"><path d="M12 -4.2C13.6 0.9 11.5 6.9 7.1 10.1C2.8 13.3 -3.7 13.7 -7.9 10.7C-12.2 7.7 -14.1 1.2 -12.4 -4.1C-10.7 -9.4 -5.4 -13.6 -0.1 -13.5C5.2 -13.5 10.5 -9.3 12 -4.2Z" fill="#eeaad7" fill-opacity="0.2"></path></g><g transform="translate(282 38)"><path d="M10.3 -2.9C11.8 1.1 10.2 6.4 6.6 9.1C3 11.7 -2.6 11.5 -6.3 8.8C-9.9 6.1 -11.6 0.9 -10.3 -3C-8.9 -6.9 -4.4 -9.5 0 -9.5C4.5 -9.5 8.9 -6.9 10.3 -2.9Z" fill="#eeaad7" fill-opacity="0.2"></path></g><g transform="translate(402 622)"><path d="M19.4 -6.5C22.3 2.7 19.9 13.4 13.2 18.4C6.4 23.3 -4.7 22.5 -11.8 17.2C-18.9 11.8 -21.9 1.8 -19.3 -6.9C-16.6 -15.7 -8.3 -23.2 0 -23.2C8.2 -23.2 16.5 -15.6 19.4 -6.5Z" fill="#eeaad7" fill-opacity="0.2"></path></g><g transform="translate(342 428)"><path d="M37 -10.4C42.1 3.5 36.2 22.6 23.2 32.1C10.2 41.6 -10 41.5 -22 32.3C-34.1 23.1 -38.1 4.7 -33 -9.1C-28 -23 -14 -32.3 1 -32.6C16 -32.9 32 -24.3 37 -10.4Z" fill="#eeaad7" fill-opacity="0.2"></path></g><g transform="translate(227 803)"><path d="M30.9 -10.3C34.9 2.3 29.5 17.7 18.1 26.3C6.7 34.9 -10.6 36.8 -20.8 29.2C-30.9 21.7 -33.7 4.9 -29.1 -8.6C-24.4 -22.1 -12.2 -32.3 0.6 -32.6C13.4 -32.8 26.9 -22.9 30.9 -10.3Z" fill="#eeaad7" fill-opacity="0.2"></path></g><g transform="translate(288 178)"><path d="M23.9 -7.9C27.2 2.4 23.5 14.9 14.8 21.5C6 28.2 -7.8 29 -15.5 23C-23.3 17 -24.9 4.2 -21.3 -6.5C-17.7 -17.2 -8.9 -25.9 0.7 -26.1C10.3 -26.3 20.6 -18.2 23.9 -7.9Z" fill="#eeaad7" fill-opacity="0.2"></path></g><g transform="translate(514 466)"><path d="M29.8 -9.6C33.1 0.3 26.3 13.5 15.6 21.1C5 28.8 -9.4 30.8 -18.7 24.4C-27.9 18 -32 3.1 -28 -7.7C-24.1 -18.5 -12 -25.4 0.6 -25.6C13.3 -25.8 26.6 -19.4 29.8 -9.6Z" fill="#eeaad7" fill-opacity="0.2"></path></g><g transform="translate(193 684)"><path d="M18.8 -6.5C21.2 1.5 18 10.9 11.4 15.7C4.8 20.6 -5.2 20.8 -12 16C-18.8 11.2 -22.3 1.4 -19.7 -6.7C-17.2 -14.7 -8.6 -21.1 -0.2 -21C8.2 -20.9 16.3 -14.4 18.8 -6.5Z" fill="#eeaad7" fill-opacity="0.2"></path></g><g transform="translate(104 925)"><path d="M16.6 -4.9C18.8 1.3 15.9 9.6 10.1 13.8C4.4 17.9 -4.3 17.9 -9.6 13.9C-14.9 9.9 -16.8 1.9 -14.6 -4.2C-12.5 -10.3 -6.2 -14.6 0.5 -14.8C7.2 -14.9 14.5 -11 16.6 -4.9Z" fill="#eeaad7" fill-opacity="0.2"></path></g><g transform="translate(12 493)"><path d="M13.2 -4.3C14.8 0.7 12.3 7.1 7.9 10.2C3.4 13.2 -2.9 13 -7.3 9.9C-11.7 6.7 -14 0.7 -12.5 -4.2C-10.9 -9.1 -5.5 -12.8 0.2 -12.9C5.8 -12.9 11.6 -9.3 13.2 -4.3Z" fill="#eeaad7" fill-opacity="0.2"></path></g><g transform="translate(331 898)"><path d="M33.1 -10.9C38.4 5.5 35 24.6 23.5 33.1C12 41.7 -7.7 39.7 -21.3 29.7C-34.8 19.8 -42.2 1.8 -37.7 -13.6C-33.1 -29.1 -16.5 -42.1 -1.3 -41.6C13.9 -41.2 27.8 -27.4 33.1 -10.9Z" fill="#eeaad7" fill-opacity="0.2"></path></g><g transform="translate(498 739)"><path d="M9.6 -3.2C10.8 0.7 9.1 5.4 5.9 7.6C2.7 9.8 -2 9.5 -5 7.2C-8.1 4.9 -9.6 0.6 -8.5 -3C-7.4 -6.7 -3.7 -9.9 0.3 -9.9C4.2 -10 8.4 -7.1 9.6 -3.2Z" fill="#eeaad7" fill-opacity="0.2"></path></g><g transform="translate(411 228)"><path d="M20.1 -6.5C22.8 1.9 19.6 12.2 12.2 17.8C4.8 23.4 -6.7 24.3 -13.5 19.2C-20.2 14.2 -22.1 3.2 -19.1 -5.7C-16 -14.5 -8 -21.3 0.3 -21.4C8.7 -21.5 17.3 -15 20.1 -6.5Z" fill="#eeaad7" fill-opacity="0.2"></path></g><g transform="translate(27 318)"><path d="M33.5 -11.9C37.7 2.1 31.5 18.5 19.5 27.4C7.4 36.3 -10.4 37.6 -22.9 29.2C-35.3 20.7 -42.2 2.4 -37.5 -12.3C-32.8 -27 -16.4 -38 -0.9 -37.7C14.6 -37.4 29.2 -25.8 33.5 -11.9Z" fill="#eeaad7" fill-opacity="0.2"></path></g><g transform="translate(537 143)"><path d="M6.1 -1.8C6.9 0.6 5.9 3.7 3.9 5.1C1.9 6.5 -1.2 6.2 -3.5 4.6C-5.7 3 -7.1 0.1 -6.4 -2.1C-5.6 -4.3 -2.8 -5.9 -0.1 -5.9C2.6 -5.9 5.2 -4.2 6.1 -1.8Z" fill="#eeaad7" fill-opacity="0.2"></path></g><g transform="translate(218 418)"><path d="M4.2 -1.4C4.8 0.2 4 2.3 2.4 3.4C0.8 4.6 -1.5 4.9 -3 3.8C-4.6 2.8 -5.4 0.4 -4.8 -1.4C-4.1 -3.1 -2.1 -4.2 -0.1 -4.2C1.9 -4.2 3.7 -3 4.2 -1.4Z" fill="#eeaad7" fill-opacity="0.2"></path></g><g transform="translate(3 825)"><path d="M40 -12.7C44.5 0.8 35.7 19 21.5 29.3C7.2 39.6 -12.6 42.1 -25.9 33C-39.3 23.9 -46.3 3.3 -40.9 -11.4C-35.5 -26.1 -17.7 -35 0 -35C17.7 -35 35.5 -26.1 40 -12.7Z" fill="#eeaad7" fill-opacity="0.2"></path></g><g transform="translate(172 102)"><path d="M8.5 -2.3C9.9 1.4 9 6.3 6 8.5C3 10.8 -2.1 10.4 -5.3 7.9C-8.4 5.5 -9.6 1 -8.4 -2.5C-7.2 -6 -3.6 -8.5 0 -8.5C3.6 -8.5 7.2 -6 8.5 -2.3Z" fill="#eeaad7" fill-opacity="0.2"></path></g><g transform="translate(325 724)"><path d="M20.2 -6.4C22.6 0.9 18.6 10.5 11.7 15.2C4.9 20 -4.8 19.9 -10.8 15.4C-16.7 11 -19 2 -16.6 -5.3C-14.2 -12.6 -7.1 -18.3 0.9 -18.5C8.9 -18.8 17.8 -13.8 20.2 -6.4Z" fill="#eeaad7" fill-opacity="0.2"></path></g></g></svg>