<svg xmlns="http://www.w3.org/2000/svg" viewBox="0 0 789.55 600" x="0px" y="0px"><title>Fichier 1-giftcard</title><g data-name="Calque 2"><g data-name="Calque 1"><path d="M788.54,383.17,729.44,53A64.29,64.29,0,0,0,654.85,1L53,108.76A64.34,64.34,0,0,0,1,183.35L60.12,513.56a64.24,64.24,0,0,0,74.59,51.94L736.6,457.76A64.34,64.34,0,0,0,788.54,383.17ZM56.83,130.41,658.72,22.68a42.86,42.86,0,0,1,7.54-.67,42.28,42.28,0,0,1,41.52,34.83l49.11,274.37-206.14,36.9-29-161.9-69.67,12.47a176.24,176.24,0,0,0,17.54-13.4c8.13-7.09,13.12-20.59,12.41-33.59-.65-11.83-5.83-21.71-14.6-27.81-20.72-14.44-48.28-5.84-61.94,10.4-8.71,10.37-18.46,29.7-26.29,51.31-14.85-17.56-30.7-32.3-42.47-39-18.43-10.5-47.27-9-61.7,11.73-6.1,8.76-7.54,19.82-4,31.14,3.84,12.44,13.2,23.37,23.28,27.21a176.83,176.83,0,0,0,21.11,6.48l-66.47,11.9,29,161.89L71.78,453.84,22.67,179.47A42.32,42.32,0,0,1,56.83,130.41ZM274.47,272.83l86.2-15.43c-12.62,25.09-30.93,51.51-31.18,51.87l18.05,12.57c1.06-1.52,19-27.37,32.26-53.61l30.54,170.63L307.48,457.27Zm27.65-56.73c-2.86-1.08-8-6.25-10.08-13.13-1-3.33-1.68-8.13,1.07-12.08,4.23-6.07,11.44-8.78,18.71-8.78a28.81,28.81,0,0,1,14.05,3.6c9.62,5.47,25.93,20.45,41.83,40.48A163.34,163.34,0,0,1,302.12,216.1ZM432,435,401.71,265.74c21.28,19.52,46.07,36.86,47.55,37.89l12.57-18.05c-.36-.25-26.7-18.67-47.23-37.83l89.4-16,33,184.44ZM397.18,220.91c8-24.3,18.07-44,25.19-52.48a28.7,28.7,0,0,1,21.08-10,19.74,19.74,0,0,1,11.44,3.45c3.95,2.75,5,7.48,5.2,11,.39,7.19-2.59,13.8-4.9,15.82A163.44,163.44,0,0,1,397.18,220.91Zm335.54,215.2L130.83,543.84a42.32,42.32,0,0,1-49.06-34.16l-6.12-34.19L281.79,438.6l7.91,44.2L562.54,434l-7.91-44.21,206.14-36.9,6.11,34.19A42.32,42.32,0,0,1,732.72,436.11Z"/><path d="M572.37,169.06q.79,4.32,1.88,8.48L567,178.88,566.72,194l12-2.21q10,25.38,29,37.46,21,13.34,49.84,8a94.89,94.89,0,0,0,34.34-13.95l-3.74-20.33-1.48.27q-12.65,12.35-32.34,16Q636,222.57,621.63,213q-12.64-8.34-20.58-25.39l65.31-12,.16-15.06-70.57,13q-1.1-4.15-1.89-8.48c-.37-2-.67-4.05-.89-6l73.73-13.59.16-15.05-74.67,13.76q.61-19.72,9.19-32.84Q611.62,96,631,92.48a59.38,59.38,0,0,1,35.8,4l1.69-.32L664.7,75.6a86.87,86.87,0,0,0-36.77-1q-28.65,5.28-43.79,25.93-14,19.14-13.77,47.62l-8.74,1.61-.27,15.08,10-1.84Q571.8,166,572.37,169.06Z"/></g></g></svg>