<svg xmlns="http://www.w3.org/2000/svg" xmlns:xlink="http://www.w3.org/1999/xlink" version="1.1" x="0px" y="0px" viewBox="0 0 100 100" enable-background="new 0 0 100 100" xml:space="preserve"><g><path d="M87.324,23.628c-2.482,0-4.51,1.99-4.566,4.459l-1.451,11.216c-0.705-1.523-2.246-2.583-4.031-2.583   c-1.705,0-3.258,0.982-3.998,2.516c-2.479,3.551-6.682,9.169-8.313,10.391c-2.221,1.67-5.361,2.837-5.393,2.849   c-0.168,0.062-0.32,0.151-0.451,0.264c-1.455,0.572-2.701,1.6-3.553,2.938c-0.014,0.02-0.025,0.039-0.037,0.06l-0.002-0.001   c-0.383,0.619-0.676,1.294-0.871,2.005c-0.736,1.976-1.615,5.038-1.686,8.476l-0.43,6.737l-1.238,0.006h-0.767   C50.37,72.895,50.19,72.855,50,72.855c-0.19,0-0.371,0.039-0.538,0.104h-0.765l-1.24-0.006l-0.428-6.672   c-0.07-3.498-0.95-6.562-1.688-8.538c-0.192-0.714-0.483-1.388-0.869-2.005c-0.01-0.016-0.021-0.031-0.03-0.047   c-0.854-1.347-2.104-2.38-3.563-2.953c-0.131-0.112-0.283-0.202-0.451-0.264c-0.032-0.012-3.168-1.179-5.395-2.85   c-1.628-1.221-5.83-6.837-8.312-10.389c-0.736-1.534-2.287-2.517-3.995-2.517c-1.784,0-3.325,1.06-4.03,2.582l-1.452-11.215   c-0.057-2.469-2.083-4.459-4.567-4.459c-2.518,0-4.566,2.048-4.566,4.564v16.544c0,0.213,0.05,0.418,0.14,0.606   c0.133,0.59,0.357,1.146,0.651,1.625l9.987,18.002c0.227,0.536,0.507,1.036,0.834,1.487c0.011,0.017,0.022,0.032,0.034,0.049   c0.776,1.063,1.806,1.912,2.984,2.462c0.336,0.22,2.146,1.479,3.666,3.944c-0.051,0.014-0.102,0.028-0.151,0.047h-1.399   c-0.829,0-1.5,0.672-1.5,1.5v10.99c0,0.828,0.671,1.5,1.5,1.5h25.139c0.002,0,0.002,0,0.004,0h0.002h25.14   c0.828,0,1.5-0.672,1.5-1.5v-10.99c0-0.828-0.672-1.5-1.5-1.5h-1.4c-0.049-0.019-0.1-0.033-0.152-0.047   c1.525-2.473,3.34-3.731,3.664-3.943c1.166-0.544,2.186-1.378,2.955-2.42c0.014-0.018,0.027-0.035,0.041-0.054   c0.346-0.478,0.635-0.992,0.859-1.53l9.959-17.948c0.309-0.51,0.531-1.054,0.666-1.62c0.1-0.203,0.152-0.429,0.152-0.66V28.192   C91.889,25.676,89.842,23.628,87.324,23.628z M24.074,66.276c-0.729-0.326-1.371-0.843-1.858-1.494   c-0.013-0.019-0.025-0.037-0.039-0.055c-0.214-0.291-0.397-0.622-0.545-0.982c-0.022-0.055-0.048-0.107-0.076-0.158L11.497,45.46   c-0.182-0.298-0.301-0.622-0.354-0.965c-0.008-0.048-0.018-0.096-0.031-0.144V28.192c0-0.862,0.703-1.564,1.566-1.564   c0.865,0,1.568,0.702,1.568,1.564c0,0.064,0.004,0.129,0.012,0.193l1.89,14.591c0.008,0.116,0.03,0.231,0.066,0.345   c0.043,0.137,0.073,0.278,0.093,0.42c0.055,0.384,0.271,0.726,0.576,0.962c1.476,1.604,2.878,3.429,4.171,5.427   c0.008,0.012,0.018,0.021,0.026,0.032c0.915,2.12,1.883,4.24,2.885,6.305c0.26,0.534,0.794,0.845,1.351,0.845   c0.22,0,0.443-0.048,0.654-0.15c0.745-0.362,1.056-1.26,0.694-2.005c-1.025-2.111-2.017-4.281-2.948-6.45   c-0.056-0.131-0.134-0.244-0.219-0.35c-0.38-0.701-1.644-3.177-1.992-5.707c-0.031-0.226-0.057-0.45-0.072-0.676   c0-0.001,0-0.002,0-0.003c-0.008-0.115-0.032-0.226-0.064-0.332c-0.003-0.01-0.003-0.02-0.006-0.029   c-0.048-0.148-0.073-0.3-0.073-0.448c0-0.795,0.645-1.441,1.438-1.441c0.569,0,1.085,0.339,1.313,0.863   c0.04,0.091,0.088,0.178,0.145,0.259c0.657,0.943,6.494,9.269,9.049,11.184c2.041,1.531,4.611,2.647,5.671,3.075   c0.159,0.143,0.35,0.254,0.564,0.319c1.008,0.311,1.878,0.982,2.45,1.895c0.003,0.006,0.008,0.013,0.012,0.019   c0.235,0.378,0.412,0.795,0.526,1.238c0.014,0.053,0.029,0.104,0.049,0.155c0.66,1.755,1.461,4.499,1.527,7.681l0.418,6.531   l-14.649-0.069c-2.074-4.295-5.191-6.28-5.564-6.506C24.186,66.331,24.13,66.302,24.074,66.276z M26.359,83.949v-7.99h2.511   c0.169,0,0.33-0.038,0.485-0.092l16.561,0.079c0.045,0.004,0.089,0.013,0.135,0.013H48.5l-0.002,7.99H26.359z M73.645,83.949   H51.502v-7.99h2.449c0.045,0,0.09-0.009,0.135-0.013l16.559-0.079c0.156,0.054,0.318,0.092,0.486,0.092h2.514V83.949z    M88.889,44.343c-0.014,0.052-0.023,0.105-0.033,0.159c-0.051,0.336-0.168,0.66-0.379,1.011L78.445,63.587   c-0.029,0.055-0.057,0.111-0.08,0.169c-0.131,0.326-0.303,0.641-0.51,0.934c-0.014,0.017-0.025,0.032-0.037,0.049   c-0.488,0.671-1.143,1.203-1.891,1.539c-0.051,0.022-0.102,0.049-0.15,0.077c-0.148,0.088-3.432,2.075-5.578,6.515l-14.648,0.069   l0.42-6.596c0.064-3.119,0.863-5.863,1.521-7.617c0.02-0.048,0.035-0.098,0.047-0.147c0.111-0.425,0.279-0.827,0.502-1.196   c0.016-0.022,0.031-0.046,0.045-0.07c0.568-0.909,1.438-1.581,2.445-1.892c0.215-0.065,0.404-0.177,0.564-0.319   c1.061-0.428,3.633-1.543,5.67-3.075c2.557-1.915,8.393-10.24,9.049-11.184c0.057-0.08,0.104-0.165,0.143-0.255   c0.232-0.526,0.748-0.867,1.318-0.867c0.793,0,1.438,0.646,1.438,1.441c0,0.148-0.025,0.3-0.072,0.448   c-0.004,0.009-0.004,0.018-0.006,0.026c-0.033,0.108-0.059,0.221-0.066,0.339c-0.037,0.565-0.131,1.136-0.258,1.692   c-0.008,0.031-0.014,0.064-0.02,0.096c-0.01,0.038-0.02,0.075-0.029,0.113c-0.506,2.073-1.447,3.909-1.762,4.488   c-0.082,0.104-0.158,0.215-0.213,0.342c-0.902,2.104-1.895,4.274-2.949,6.452c-0.361,0.745-0.049,1.643,0.697,2.004   c0.211,0.102,0.434,0.149,0.652,0.149c0.557,0,1.092-0.312,1.352-0.847c1.029-2.127,1.996-4.246,2.889-6.31   c0.006-0.009,0.014-0.017,0.02-0.026c1.271-1.965,2.654-3.768,4.113-5.363c0.34-0.234,0.57-0.601,0.633-1.012   c0.021-0.148,0.051-0.296,0.096-0.438c0.025-0.083,0.045-0.168,0.055-0.254l1.9-14.677c0.008-0.063,0.012-0.128,0.012-0.192   c0-0.862,0.703-1.564,1.568-1.564c0.863,0,1.564,0.702,1.564,1.564V44.343z"/><path d="M58.924,20.867c1.467,0,2.658,1.195,2.658,2.664c0,0.829,0.672,1.5,1.5,1.5c0.83,0,1.5-0.671,1.5-1.5   c0-3.123-2.537-5.664-5.658-5.664c-0.828,0-1.5,0.672-1.5,1.5C57.424,20.196,58.096,20.867,58.924,20.867z"/><path d="M49.202,48.758c0.231,0.146,0.506,0.229,0.799,0.229h0.004c0.294,0,0.568-0.085,0.799-0.231   C69.971,38.374,69.441,24.76,69.344,23.468c-0.033-5.718-4.695-10.358-10.42-10.358c-3.756,0-7.086,2.037-8.923,5.063   c-1.836-3.026-5.166-5.063-8.92-5.063c-5.728,0-10.391,4.641-10.426,10.358C30.558,24.76,30.028,38.376,49.202,48.758z    M33.648,23.676c0.004-0.048,0.007-0.096,0.007-0.145c0-4.092,3.331-7.422,7.426-7.422c4.008,0,7.336,3.259,7.42,7.264   c0.018,0.816,0.684,1.469,1.5,1.469c0.815,0,1.482-0.652,1.5-1.468c0.084-4.006,3.416-7.265,7.424-7.265   c4.092,0,7.42,3.33,7.42,7.422c0,0.048,0.004,0.097,0.008,0.145C66.363,23.8,67.332,36.083,50,45.773   C32.781,36.155,33.604,24.18,33.648,23.676z"/></g></svg>