<svg xmlns="http://www.w3.org/2000/svg" xmlns:xlink="http://www.w3.org/1999/xlink" version="1.1" x="0px" y="0px" viewBox="0 0 100 125" fill="#9a1d71" width="50" height="70" stroke="#9a1d71"><g><path d="M50,5C33.5,5,20,18.4,20,35c0,6.4,4.5,17.6,13.3,33.2c6.9,12.2,14.4,23.4,16.5,26.6L50,95l0.2-0.3C55.2,87.4,80,50,80,35   C80,18.4,66.5,5,50,5z M50,59c-13.2,0-24-10.8-24-24s10.8-24,24-24s24,10.8,24,24S63.2,59,50,59z"/><path d="M57.6,24.8c-5-0.6-7.2,2.7-7.6,3.2v0c0,0.1-0.1,0.1-0.1,0.1l0,0l0,0c0,0,0,0-0.1-0.1v0c-0.3-0.6-2.5-3.8-7.6-3.2   c-2.2,0.3-3.3,1.3-4,2c-4.5,5.4-1.5,12,2.6,15.9c3.8,3.7,8.9,5.9,9.1,6c0.2-0.1,5.3-2.3,9.1-6c4-3.9,7.1-10.5,2.6-15.9   C60.9,26.1,59.8,25.2,57.6,24.8z"/></g></svg>