<svg id="visual" viewBox="0 0 960 540" width="960" height="540" xmlns="http://www.w3.org/2000/svg" xmlns:xlink="http://www.w3.org/1999/xlink" version="1.1"><rect x="0" y="0" width="960" height="540" fill="#9a1d71"></rect><g transform="translate(907.0839052163819 662.2444110103653)"><path d="M273.9 -551.4C314 -451.1 277.6 -295.2 342.9 -194C408.3 -92.8 575.4 -46.4 626.8 29.7C678.3 105.8 614.1 211.7 522 266.5C430 321.4 310 325.2 218.3 356.6C126.7 388.1 63.3 447 -0.4 447.8C-64.2 448.5 -128.3 390.9 -195.2 345.2C-262 299.4 -331.5 265.5 -402.1 209.9C-472.6 154.3 -544.3 77.2 -539 3.1C-533.6 -71 -451.3 -142 -404.5 -238.9C-357.8 -335.7 -346.6 -458.4 -285.2 -546.4C-223.7 -634.4 -111.8 -687.7 2.5 -692C116.8 -696.4 233.7 -651.7 273.9 -551.4" fill="#eeaad7"></path></g></svg>