<svg fill="#000" xmlns="http://www.w3.org/2000/svg" viewBox="0 10 65 50" x="0px" y="0px"><title>quote, quotation mark</title><g><path d="M30.588,34.994c-.02-.059-.039-.119-.06-.177A8.209,8.209,0,0,0,28.31,31.46v0a8.679,8.679,0,0,0-.988-.772c-.057-.039-.112-.08-.17-.118s-.087-.063-.133-.092a9.344,9.344,0,0,0-.953-.51c-.109-.051-.224-.093-.336-.14q-.43-.183-.879-.326c-.138-.044-.274-.088-.415-.126a10.668,10.668,0,0,0-1.259-.268c-.022,0-.042-.01-.064-.013s-.07,0-.1,0a10.629,10.629,0,0,0-3.807.171,8.1,8.1,0,0,1,1.427-2.774c.7-.922,2.606-3.086,5.253-3.244a1.5,1.5,0,0,0,1.406-1.371l.375-4.419a1.5,1.5,0,0,0-1.62-1.621c-6.325.526-15.791,5.69-17.111,14.013-.868,5.476.536,11.315,3.576,14.875a9.29,9.29,0,0,0,6.244,3.41l.007,0h.011c.275.026.552.047.834.047a11.729,11.729,0,0,0,9.233-3.946,9.559,9.559,0,0,0,2.09-7.945A9.256,9.256,0,0,0,30.588,34.994Zm-15.8,7.776c-2.456-2.876-3.619-7.882-2.894-12.457.95-5.991,7.514-10.092,12.617-11.218L24.4,20.429c-3.676.818-6.526,4.023-7.719,6.934-.757,1.848-.717,3.372.112,4.292a2.52,2.52,0,0,0,2.764.612,6.9,6.9,0,0,1,1.091-.213c.016,0,.03.009.046.011,1.065.15,4.595.933,5.282,4.748a6.643,6.643,0,0,1-1.258,5.269,8.344,8.344,0,0,1-5.925,3.033A6.368,6.368,0,0,1,14.788,42.77Zm40.373-6.485a9.218,9.218,0,0,0-.337-1.291c-.02-.059-.039-.118-.06-.176a8.257,8.257,0,0,0-3.211-4.135c-.055-.037-.108-.077-.165-.113s-.087-.064-.134-.093a9.1,9.1,0,0,0-.955-.512c-.106-.05-.218-.09-.327-.136-.291-.124-.587-.234-.891-.33-.135-.043-.268-.087-.407-.125a10.717,10.717,0,0,0-1.262-.268c-.022,0-.042-.01-.064-.013s-.069,0-.1,0a10.614,10.614,0,0,0-3.808.17,8.055,8.055,0,0,1,1.426-2.774c.7-.922,2.607-3.086,5.254-3.244a1.5,1.5,0,0,0,1.4-1.371l.375-4.419a1.5,1.5,0,0,0-1.619-1.621c-6.325.526-15.791,5.69-17.11,14.013-.868,5.476.535,11.315,3.575,14.875a9.29,9.29,0,0,0,6.243,3.41l.008,0H43c.276.026.552.047.834.047a11.726,11.726,0,0,0,9.232-3.945A9.555,9.555,0,0,0,55.161,36.285ZM39.023,42.77c-2.456-2.876-3.618-7.882-2.893-12.457.949-5.991,7.514-10.092,12.617-11.218l-.113,1.334c-3.677.818-6.527,4.023-7.719,6.934-.758,1.848-.718,3.372.11,4.292a2.528,2.528,0,0,0,2.765.612,6.9,6.9,0,0,1,1.091-.213c.016,0,.03.009.047.011,1.065.15,4.594.933,5.281,4.748a6.639,6.639,0,0,1-1.258,5.269,8.34,8.34,0,0,1-5.925,3.033A6.368,6.368,0,0,1,39.023,42.77Z"/></g></svg>