<svg xmlns="http://www.w3.org/2000/svg" xmlns:xlink="http://www.w3.org/1999/xlink" version="1.1" x="0px" y="0px" viewBox="0 0 100 100" enable-background="new 0 0 100 100" xml:space="preserve"><g><g><g><path fill="#9a1d71" d="M63.378,40.089c-1.072,1.072-3.029,1.025-3.681-0.885c-2.796-8.34-5.451-16.074-9.784-23.576     c-4.147,7.128-8.247,14.35-12.906,21.152c0.28,0.839-0.28,2.004-1.351,2.143c-7.222,0.886-14.583,0.886-21.852,1.211     c5.312,4.892,10.809,9.645,16.4,14.304c0.932,0.745,0.886,1.864,0.419,2.749c0.14,8.433-1.537,16.96-3.681,25.206     c6.569-5.125,13.139-10.39,20.221-14.63c0.606-0.373,1.258-0.373,1.817-0.14c0.373-0.047,0.746-0.047,1.165,0.186     c7.595,4.007,15.002,8.154,22.83,11.555c5.079,2.19,4.52,1.072,3.168-2.842c-0.653-1.957-1.817-3.82-2.749-5.684     c-1.724-3.587-3.541-7.129-4.892-10.856c-0.28-0.792-0.093-1.444,0.279-1.91c0-0.559,0.233-1.118,0.792-1.584     c6.01-4.613,11.694-9.412,16.959-14.723c-7.501-0.186-15.142-0.186-22.411-1.398C63.844,40.322,63.611,40.182,63.378,40.089z"/><path d="M92.452,36.734c-9.086-0.466-18.59-1.817-27.676-1.211c-0.419,0.046-0.792,0.187-1.118,0.419     c-1.77-9.272-6.569-18.357-11.741-26.091c-0.932-1.398-3.122-1.584-4.007,0c-4.659,8.386-9.505,16.82-13.605,25.486     c-0.046,0.093-0.046,0.233-0.046,0.326c-8.713-1.444-17.938-0.978-26.697-0.326c-2.097,0.14-3.494,2.749-1.817,4.38     C12.5,46.239,19.489,52.482,26.99,58.12c-2.33,9.971-3.821,20.081-6.71,29.959c-0.559,1.911,1.817,4.1,3.634,2.796     c8.48-6.336,17.752-12.254,25.672-19.336c5.591,4.007,11.648,7.408,17.844,10.437c3.355,1.584,9.272,5.638,13.326,3.96     c3.075-1.258,2.935-4.1,2.097-6.803c-2.143-6.802-6.15-14.35-9.831-20.5c7.874-4.752,14.956-10.809,21.246-17.472     C95.853,39.483,94.688,36.827,92.452,36.734z M69.575,56.489c-0.559,0.466-0.792,1.025-0.792,1.584     c-0.373,0.466-0.559,1.118-0.279,1.91c1.351,3.727,3.168,7.269,4.892,10.856c0.932,1.864,2.096,3.727,2.749,5.684     c1.351,3.914,1.91,5.032-3.168,2.842c-7.828-3.401-15.235-7.548-22.83-11.555c-0.419-0.233-0.792-0.233-1.165-0.186     c-0.559-0.233-1.211-0.233-1.817,0.14c-7.082,4.24-13.651,9.505-20.221,14.63c2.143-8.247,3.821-16.773,3.681-25.206     c0.466-0.885,0.513-2.003-0.419-2.749c-5.591-4.659-11.089-9.412-16.4-14.304c7.268-0.326,14.63-0.326,21.852-1.211     c1.072-0.139,1.631-1.304,1.351-2.143c4.659-6.802,8.76-14.024,12.906-21.152c4.333,7.501,6.988,15.235,9.784,23.576     c0.652,1.91,2.609,1.957,3.681,0.885c0.233,0.093,0.466,0.233,0.745,0.28c7.269,1.211,14.91,1.211,22.411,1.398     C81.27,47.078,75.585,51.876,69.575,56.489z"/></g></g></g></svg>