<svg xmlns="http://www.w3.org/2000/svg" viewBox="0 0 750 500"><g id="freepik--background-complete--inject-2"><rect x="286.71" y="220.71" width="48.65" height="12.87" style="fill:#ebebeb"></rect><path d="M314.79,247.14s0-.09,0-.24l0-.66c0-.6,0-1.45,0-2.53,0-2.22-.05-5.42-.09-9.44l.15.15-48.65.09c.11-.11-.25.25.25-.24h0v6.52c0,2.14,0,4.26,0,6.33l-.24-.25,34.67.12,10.24.06,2.76,0h.73l.25,0h-.22l-.7,0-2.71,0-10.18.07-34.84.11h-.24v-.24c0-2.07,0-4.19,0-6.33v-6.52h0l.25-.25,48.65.1H315v.15c0,4.06-.06,7.29-.08,9.53,0,1.07,0,1.9,0,2.5,0,.26,0,.47,0,.63A.85.85,0,0,1,314.79,247.14Z" style="fill:#e0e0e0"></path><rect x="95.8" y="51.38" width="48.65" height="12.87" style="fill:#ebebeb"></rect><path d="M123.88,77.8a1,1,0,0,1,0-.23v-.66c0-.61,0-1.45,0-2.53,0-2.22,0-5.42-.08-9.45l.15.15-48.65.1c.11-.11-.25.25.24-.25h0V77.8l-.24-.24,34.67.11,10.23.07,2.77,0,.72,0h.26a.94.94,0,0,1-.23,0l-.69,0-2.72,0-10.17.07-34.84.11H75V64.94h0c.49-.49.14-.13.25-.24l48.65.09H124v.15c0,4.07-.06,7.29-.08,9.54,0,1.06,0,1.9,0,2.5,0,.26,0,.46,0,.63A1.23,1.23,0,0,1,123.88,77.8Z" style="fill:#e0e0e0"></path><rect x="662.72" y="287.28" width="48.65" height="12.87" style="fill:#ebebeb"></rect><path d="M690.8,313.7a1,1,0,0,1,0-.23v-.66c0-.61,0-1.45,0-2.53,0-2.23-.05-5.42-.08-9.45l.15.15-48.65.1c.11-.11-.25.25.24-.25h0V313.7l-.25-.24,34.68.11,10.23.07,2.77,0,.72,0h.26l-.23,0h-.69l-2.72,0-10.18.07-34.84.11h-.24V300.84h0l.25-.25,48.65.1H691v.15c0,4.07-.07,7.29-.09,9.54,0,1.06,0,1.9,0,2.5,0,.26,0,.46,0,.63A1.23,1.23,0,0,1,690.8,313.7Z" style="fill:#e0e0e0"></path><path d="M656.82,74s0-.08,0-.23,0-.39,0-.66c0-.61,0-1.46,0-2.54,0-2.22,0-5.41-.08-9.44l.15.15-48.65.1.25-.25h0v6.52q0,3.22,0,6.33l-.24-.24,34.67.11,10.23.07,2.77,0h.73a1.27,1.27,0,0,1,.25,0h-.22l-.7,0-2.71,0L643,74.08l-34.84.11h-.24V74c0-2.07,0-4.18,0-6.33V61.1h0l.25-.25,48.65.1H657v.15c0,4.06-.06,7.29-.08,9.53,0,1.07,0,1.9,0,2.5,0,.26,0,.47,0,.63S656.83,74,656.82,74Z" style="fill:#e0e0e0"></path><path d="M663.42,61.08a1.41,1.41,0,0,1,0-.25c0-.18,0-.41,0-.68,0-.63,0-1.49,0-2.58,0-2.26-.06-5.44-.1-9.36l.18.18-29.23.07.24-.25h0v6.61c0,2.15,0,4.24,0,6.24l-.23-.24L655.1,61l6.09.07,1.64,0,.59,0a3.28,3.28,0,0,1-.53,0l-1.6,0-6,.06-21.07.11H634v-.24c0-2,0-4.09,0-6.24V48.23h0c-.06,0,.47-.47.25-.25l29.23.07h.18v.18c0,4-.08,7.19-.1,9.47,0,1.07,0,1.92,0,2.54S663.43,61.09,663.42,61.08Z" style="fill:#e0e0e0"></path><path d="M512.84,205.82a2.07,2.07,0,0,1,0-.23l0-.66c0-.61,0-1.45,0-2.53,0-2.23,0-5.42-.09-9.45l.15.15-48.65.1.25-.25h0v6.53q0,3.22,0,6.33l-.24-.24,34.67.11,10.24.07,2.76,0,.73,0h.25s-.07,0-.22,0h-.69l-2.72,0L499,206l-34.84.11H464v-6.58c0-1.07,0-2.15,0-3.25V193h0c.5-.49.14-.13.25-.25l48.65.1H513V193c0,4.07-.07,7.29-.09,9.54,0,1.06,0,1.9,0,2.5l0,.63C512.85,205.76,512.85,205.83,512.84,205.82Z" style="fill:#e0e0e0"></path><path d="M519.44,193s0-.09,0-.24,0-.41,0-.68c0-.64,0-1.5,0-2.59,0-2.25-.06-5.44-.1-9.36l.18.18-29.23.07.25-.25h0v3.35c0,1.1,0,2.19,0,3.27,0,2.15,0,4.24,0,6.24l-.23-.23,20.91.11,6.09.06,1.64,0,.59,0a3.28,3.28,0,0,1-.53,0l-1.59,0-6,.07-21.07.11H490V193c0-2,0-4.09,0-6.24v-6.62h0l.25-.25,29.23.07h.18v.18c0,4-.07,7.19-.1,9.47,0,1.07,0,1.92,0,2.54A6.65,6.65,0,0,1,519.44,193Z" style="fill:#e0e0e0"></path><path d="M61.77,355.19a38.85,38.85,0,0,0-16.58-5.7c-2.71-.28-5.67-.2-7.84,1.44a1.62,1.62,0,0,0-.81,1.43,1.76,1.76,0,0,0,.77,1c6.74,5.15,16.94,5.8,24.46,1.85" style="fill:#e0e0e0"></path><path d="M61.34,354.73a80.77,80.77,0,0,1-10.71-9.43,27.07,27.07,0,0,1-6.71-12.41c-.29-1.42-.38-3,.53-4.15,8.54,6.66,15.24,15.28,16.89,26" style="fill:#e0e0e0"></path><path d="M61.68,355.13a38.62,38.62,0,0,1,.2-14.06,19,19,0,0,1,7.48-11.6c1.48,3.45.85,7.42-.19,11a53.8,53.8,0,0,1-7.43,15.64" style="fill:#e0e0e0"></path><path d="M70.05,370.12c-5.08.62-9.51,3.3-13.3,6.73a25.1,25.1,0,0,0-7.6,13c5-.3,9.2-3.82,12.27-7.76s5.19-8.26,8.56-11.94" style="fill:#e0e0e0"></path><path d="M71.86,372.52a32.79,32.79,0,0,1,3.79-31c2.89,10.3,1.83,21.92-3.79,31" style="fill:#e0e0e0"></path><path d="M82.92,385.68a23.72,23.72,0,0,0-22.67,13.05c-.28.56-.53,1.28-.16,1.78a1.67,1.67,0,0,0,1.51.44c4.46-.29,8.42-3,11.69-6s6.12-6.59,9.73-9.24" style="fill:#e0e0e0"></path><path d="M82.56,385a42.34,42.34,0,0,1-.42-23.59c.83-3,2.23-6.23,5-7.66a1,1,0,0,1,.77-.13,1,1,0,0,1,.48.56,14.25,14.25,0,0,1,1.19,6.77,41.87,41.87,0,0,1-1.06,6.85c-.88,4.19-1.36,8.69-3.65,12.3a22.64,22.64,0,0,0-1.46,2.7c-.44.91-.44,1.24-.84,2" style="fill:#e0e0e0"></path><path d="M111.83,389.33c-2.17-8.25.13-18.25,5.33-25,.38-.5.89-1,1.51-1,1,.09,1.21,1.36,1.16,2.32a45.16,45.16,0,0,1-8,23.66" style="fill:#e0e0e0"></path><path d="M114.46,391.13c10,2.61,21.52.07,29.85-6.07a24.15,24.15,0,0,0-16.16-2c-5.39,1.23-10.33,3.65-13.69,8.05" style="fill:#e0e0e0"></path><path d="M116.69,385.64c5.61-9.15,16.37-15.12,27.09-15.66-1.24,4.35-4.82,7.74-8.86,9.79s-8.56,2.94-13,3.8c-1.74.34-4.11.71-5.23,2.07" style="fill:#e0e0e0"></path><path d="M112.38,359c1.52-5.2,3.05-10.45,3.47-15.86s-.36-11.05-3.16-15.69c-5.24,10.14-5.77,22-.46,32.1" style="fill:#e0e0e0"></path><path d="M130,350.07c6.13-11.14,18.64-20,31.29-21.28-4.88,12.15-18.19,21.55-31.29,21.28" style="fill:#e0e0e0"></path><path d="M126.17,352.26c9.15,1.39,16.93,7.23,25.48,10.77a11.34,11.34,0,0,0,5.76,1.1,4.51,4.51,0,0,0,2.82-8,12.26,12.26,0,0,0-4.18-2.54c-9.31-3.87-19.29-4-29.09-1.62" style="fill:#e0e0e0"></path><path d="M120.88,358.67c2.07.59,2.78,1.66,4.42,3.06a47.69,47.69,0,0,0,19.32,9.92c.73.19,1.7.26,2.07-.41s-.09-1.29-.5-1.8a26.59,26.59,0,0,0-11.66-7.92c-4.46-1.66-8.32-3.66-13.65-3.23" style="fill:#e0e0e0"></path><path d="M114.92,320a36.55,36.55,0,0,0,28,9.53,1.93,1.93,0,0,0,1.28-.46c.7-.76-.14-1.95-1-2.59C135,320,125,317.34,114.92,320" style="fill:#e0e0e0"></path><path d="M122,317.36a39.08,39.08,0,0,1,35-5.78c-4.4,4.35-10.51,6.68-16.66,7.32A52.87,52.87,0,0,1,122,317.36" style="fill:#e0e0e0"></path><path d="M119.18,299.56c-.81-8.22-.28-14.72-.86-23,0-.66-.18-1.45-.8-1.69-.86-.33-1.58.72-1.86,1.6a26.33,26.33,0,0,0,3.51,22.89" style="fill:#e0e0e0"></path><path d="M118.59,300.47c5.57-3.45,9.75-8,13.62-13.24,2.69-3.68,5-8.09,4.35-12.61-3.78-.08-7.37,2-9.83,4.88a27.36,27.36,0,0,0-5,10.08c-1.09,3.61-1.85,7.33-3.13,10.89" style="fill:#e0e0e0"></path><path d="M132,296.75A109.61,109.61,0,0,0,165.5,277c-4-1.61-8.59-.65-12.59,1-9.15,3.69-16.63,9.93-21.11,18.71" style="fill:#e0e0e0"></path><path d="M122.35,305c6.19.68,12.48,1.12,18.62.09s11.74-3.4,17.38-5.78a2,2,0,0,0,1.18-.89,1.38,1.38,0,0,0-.42-1.49,3.52,3.52,0,0,0-1.49-.69c-6.13-1.72-12.74-.92-18.78,1.12A86.85,86.85,0,0,0,122.35,305" style="fill:#e0e0e0"></path><path d="M87,320.23c-4.22-8.53-4-18.47-.3-27.26,2.57,3.91,2.88,8.9,2.41,13.55s-1.89,9.45-2,14.13" style="fill:#e0e0e0"></path><path d="M70.14,311.72a38,38,0,0,0-28.25,12c5.27.83,10.69-.53,15.47-2.87s9-5.61,13.26-8.87" style="fill:#e0e0e0"></path><path d="M58.8,307.93c-5.16-.42-10.12-1.06-15.08.46s-9.47,5-11.49,9.74a27.1,27.1,0,0,0,14.13-2.67,80.44,80.44,0,0,0,12.44-7.53" style="fill:#e0e0e0"></path><path d="M75.59,308.1c-4.64-3-9.4-6.14-14.8-7.4s-11.67-.32-15.43,3.75c4.37,2.56,9.67,2.87,14.75,2.86s11.28-.06,16.06,1.63" style="fill:#e0e0e0"></path><path d="M75.62,308.34c-7.93-7.78-10.94-21.78-7.75-32.43a49.4,49.4,0,0,1,7.75,32.43" style="fill:#e0e0e0"></path><path d="M97.43,286.27c1.5-3.47,2.55-7.12,3.89-10.66a30.57,30.57,0,0,1,5.55-9.84,14.6,14.6,0,0,1,9.82-5.09,39.52,39.52,0,0,1-19.06,25.65" style="fill:#e0e0e0"></path><path d="M93.48,290.87c-2.47-3.4-5.33-8-8.69-10.57s-7.73-4.09-11.82-3.11a27.52,27.52,0,0,0,20.51,13.68" style="fill:#e0e0e0"></path><path d="M94.27,286.56a59.15,59.15,0,0,1-3.91-12.67c-.66-4.39-.26-9.07,2-12.89,4.36,8.23,5.76,17.07,2.16,25.65" style="fill:#e0e0e0"></path><path d="M97.47,261c2.47-8.16,9.94-14.17,18-16.92a6.71,6.71,0,0,1,3.15-.48,2.75,2.75,0,0,1,2.33,2c.29,1.38-.85,2.63-1.93,3.55A61.25,61.25,0,0,1,97.47,261" style="fill:#e0e0e0"></path><path d="M97.56,254.33c.31-5.26.64-10.6,2.35-15.59s5-9.66,9.81-11.84c.82,5.32-1.53,10.6-4.36,15.17s-6.23,8.89-7.93,14" style="fill:#e0e0e0"></path><path d="M97.43,258c-2-5.95-2.25-13.5-5.81-18.68-2.49-3.62-6.47-6.09-8.62-9.92a15.1,15.1,0,0,0,.5,11.26A32.6,32.6,0,0,0,90.09,250C92.73,252.86,95,255,97.43,258" style="fill:#e0e0e0"></path><path d="M97.47,433.07c-.16,0-.29-39.67-.31-88.59s.11-88.6.27-88.6.3,39.66.31,88.6S97.63,433.07,97.47,433.07Z" style="fill:#e0e0e0"></path><path d="M132.14,314.24a7.9,7.9,0,0,1-1.49.56l-4.11,1.39c-3.46,1.17-8.21,2.88-13.37,5s-9.93,4-12.68,6.35A9.31,9.31,0,0,0,98,330.9c-.4.94-.47,1.51-.52,1.5a1.24,1.24,0,0,1,0-.42,5.66,5.66,0,0,1,.29-1.16,9,9,0,0,1,2.48-3.59,22,22,0,0,1,5.5-3.41c2.2-1,4.64-2.1,7.23-3.16,5.17-2.12,10-3.78,13.47-4.86,1.74-.55,3.17-.95,4.16-1.21A8.42,8.42,0,0,1,132.14,314.24Z" style="fill:#e0e0e0"></path><path d="M143.5,286.33a2.33,2.33,0,0,1-.42.45L141.81,288l-4.75,4.32-15.82,14.08c-6.17,5.5-11.51,10.75-15.21,14.7-1.85,2-3.31,3.61-4.3,4.75l-1.15,1.32c-.27.29-.41.45-.43.43a2.42,2.42,0,0,1,.34-.51c.24-.31.59-.79,1.07-1.38.94-1.19,2.36-2.87,4.18-4.88a198.91,198.91,0,0,1,15.12-14.86c6.19-5.48,11.83-10.4,15.93-13.95l4.87-4.18c.54-.46,1-.82,1.35-1.12A3,3,0,0,1,143.5,286.33Z" style="fill:#e0e0e0"></path><path d="M114.58,312c-.17-.07,1.12-3,2.41-6.82s1.91-6.94,2.07-6.91a23.44,23.44,0,0,1-1.53,7.1,45.74,45.74,0,0,1-1.92,4.77A7.61,7.61,0,0,1,114.58,312Z" style="fill:#e0e0e0"></path><path d="M97.51,336a7.36,7.36,0,0,1-1-1.1l-2.44-3.13c-2.05-2.65-4.88-6.3-8.05-10.3s-6.09-7.58-8.2-10.17l-2.49-3.09a6.82,6.82,0,0,1-.86-1.17,7,7,0,0,1,1,1c.63.69,1.53,1.7,2.63,3,2.19,2.53,5.16,6.08,8.34,10.09s6,7.7,7.92,10.41c1,1.35,1.77,2.46,2.3,3.23A8.25,8.25,0,0,1,97.51,336Z" style="fill:#e0e0e0"></path><path d="M89.91,326.21a13.91,13.91,0,0,1-3.19-6,17,17,0,0,1-.72-6l.25,0c-.11.46-.19.7-.24.7s-.05-.27,0-.74l.26,0a27.22,27.22,0,0,0,1,5.85A43.64,43.64,0,0,0,89.91,326.21Z" style="fill:#e0e0e0"></path><path d="M80.09,313.87a10.09,10.09,0,0,0-2.22-1.29,14.76,14.76,0,0,0-6.17-.49,37.63,37.63,0,0,0-6.22,1,18.23,18.23,0,0,1-2.56.61,9.3,9.3,0,0,1,2.45-1,28.88,28.88,0,0,1,6.29-1.19,13.48,13.48,0,0,1,6.36.69A3.83,3.83,0,0,1,80.09,313.87Z" style="fill:#e0e0e0"></path><path d="M77.77,310.88c0,.09-1.3-.52-3.41-1.24a34.27,34.27,0,0,0-17.16-1.31c-2.2.39-3.53.8-3.56.71a3.39,3.39,0,0,1,.91-.39,21.44,21.44,0,0,1,2.57-.72,30.45,30.45,0,0,1,8.79-.61,29.81,29.81,0,0,1,8.59,1.94,20.23,20.23,0,0,1,2.43,1.1C77.49,310.66,77.79,310.84,77.77,310.88Z" style="fill:#e0e0e0"></path><path d="M97.43,298.23A72.35,72.35,0,0,1,95,289.6,71.31,71.31,0,0,1,93,280.83a71.65,71.65,0,0,1,2.48,8.63A68.74,68.74,0,0,1,97.43,298.23Z" style="fill:#e0e0e0"></path><path d="M97.59,298.23a41.79,41.79,0,0,0-2.75-5.17,22.56,22.56,0,0,0-4.06-4.18,3.72,3.72,0,0,1,1.57.81,12.83,12.83,0,0,1,3,3A11.52,11.52,0,0,1,97.59,298.23Z" style="fill:#e0e0e0"></path><path d="M97.47,411.92c-.06,0-.18-.95-.62-2.64a39,39,0,0,0-2.65-6.87c-2.75-5.6-7.73-12.7-14.07-19.81-3.14-3.59-6.19-7-8.77-10.21a71.35,71.35,0,0,1-6.27-9.05,43.37,43.37,0,0,1-3.17-6.71c-.29-.83-.51-1.48-.62-1.92a4.2,4.2,0,0,1-.17-.69c.06,0,.34.91,1,2.53a48.27,48.27,0,0,0,3.31,6.59,75.67,75.67,0,0,0,6.33,8.92c2.6,3.2,5.65,6.57,8.79,10.16,6.36,7.13,11.33,14.33,14,20a34.3,34.3,0,0,1,2.5,7,16.94,16.94,0,0,1,.35,2A3.08,3.08,0,0,1,97.47,411.92Z" style="fill:#e0e0e0"></path><path d="M128.8,376.54a15.44,15.44,0,0,1-1.65.92,35,35,0,0,0-4.25,2.82,48.43,48.43,0,0,0-5.6,5.1c-2,2.07-4,4.48-6,7.06-4.13,5.17-8,9.76-10.3,13.41-1.17,1.82-2,3.34-2.58,4.42a14.61,14.61,0,0,1-.91,1.65,1.76,1.76,0,0,1,.15-.47c.13-.29.29-.73.56-1.28a40.76,40.76,0,0,1,2.44-4.53c2.24-3.75,6.07-8.39,10.19-13.56,2.07-2.59,4.11-5,6.11-7.07a45.51,45.51,0,0,1,5.73-5.06,31.47,31.47,0,0,1,4.4-2.69c.55-.27,1-.44,1.28-.56S128.79,376.52,128.8,376.54Z" style="fill:#e0e0e0"></path><path d="M129.41,388a25.16,25.16,0,0,1-3.47.5,45.88,45.88,0,0,0-8.23,1.62,24.52,24.52,0,0,0-7.37,3.87c-1.7,1.31-2.5,2.4-2.58,2.33a2.85,2.85,0,0,1,.52-.79,13,13,0,0,1,1.81-1.86,22.25,22.25,0,0,1,7.44-4.09,37,37,0,0,1,8.37-1.48A18.18,18.18,0,0,1,129.41,388Z" style="fill:#e0e0e0"></path><path d="M108.78,395.08c-.19-.1,1.38-2.49,2.59-5.7s1.41-6.09,1.61-6.05a5.63,5.63,0,0,1-.06,1.86,19.6,19.6,0,0,1-1,4.38,21.46,21.46,0,0,1-2,4A5.82,5.82,0,0,1,108.78,395.08Z" style="fill:#e0e0e0"></path><path d="M138.94,345.72a2.4,2.4,0,0,1-.55.3l-1.63.74c-.72.31-1.59.69-2.56,1.21s-2.13,1-3.32,1.74L129,350.79c-.66.38-1.31.82-2,1.26-1.39.84-2.79,1.89-4.28,2.95a73.55,73.55,0,0,0-16.51,17.08c-1,1.53-2,3-2.8,4.38-.41.71-.84,1.37-1.19,2s-.69,1.32-1,1.93c-.67,1.22-1.15,2.38-1.62,3.37s-.84,1.88-1.12,2.6l-.69,1.66a2.26,2.26,0,0,1-.28.56,3.45,3.45,0,0,1,.17-.6c.16-.45.35-1,.59-1.7s.58-1.63,1-2.64.91-2.2,1.56-3.43l1-2c.34-.68.76-1.35,1.16-2.07.79-1.44,1.78-2.89,2.79-4.44a70.73,70.73,0,0,1,16.62-17.2c1.51-1.07,2.93-2.1,4.35-2.94.7-.42,1.36-.86,2-1.23l1.93-1.05c1.21-.7,2.37-1.2,3.37-1.68s1.88-.85,2.61-1.13l1.67-.64A2.67,2.67,0,0,1,138.94,345.72Z" style="fill:#e0e0e0"></path><path d="M114.15,362.33a4.08,4.08,0,0,1,1.36-2,8.65,8.65,0,0,1,5.5-2.1,14.79,14.79,0,0,1,5.78,1.13,8,8,0,0,1,2.18,1.06,14.26,14.26,0,0,1-2.32-.68,17.52,17.52,0,0,0-5.63-.94,8.92,8.92,0,0,0-5.24,1.84A16.91,16.91,0,0,0,114.15,362.33Z" style="fill:#e0e0e0"></path><path d="M110.44,366.16a14.66,14.66,0,0,0,1.21-10.37c.07,0,.38.51.65,1.47a10.55,10.55,0,0,1-.89,7.61C110.93,365.74,110.5,366.2,110.44,366.16Z" style="fill:#e0e0e0"></path><path d="M70.07,417.6c.86,15.16,5.43,30.58,12.45,46.17h30.56c6.7-15.43,11-30.83,11.71-46.17Z" style="fill:#e0e0e0"></path><path d="M119.84,442.14c0,.15-10.06.28-22.47.28s-22.47-.13-22.47-.28,10.06-.29,22.47-.29S119.84,442,119.84,442.14Z" style="fill:#fafafa"></path><path d="M119.15,447.63c0,.16-9.43.28-21.06.28S77,447.79,77,447.63s9.43-.29,21.06-.29S119.15,447.47,119.15,447.63Z" style="fill:#fafafa"></path><path d="M83,427.56a88.52,88.52,0,0,1,0,14.07,85.47,85.47,0,0,1,0-14.07Z" style="fill:#fafafa"></path><path d="M99.39,427.56a95,95,0,0,1,0,14.58,91.77,91.77,0,0,1,0-14.58Z" style="fill:#fafafa"></path><path d="M114.76,427.43a98.85,98.85,0,0,1,0,14.87,95.45,95.45,0,0,1,0-14.87Z" style="fill:#fafafa"></path><path d="M123.82,427.56c0,.16-11.8.28-26.35.28s-26.36-.12-26.36-.28,11.8-.29,26.36-.29S123.82,427.4,123.82,427.56Z" style="fill:#fafafa"></path></g><g id="freepik--Floor--inject-2"><path d="M707.2,464.51c0,.14-145.61.26-325.18.26s-325.22-.12-325.22-.26,145.58-.26,325.22-.26S707.2,464.37,707.2,464.51Z" style="fill:#263238"></path></g><g id="freepik--Shelves--inject-2"><path d="M652.37,104.43q4.14,9.55,8.27,19.12L673.81,154l3,6.94c.32.74,1.39.1,1.08-.63q-4.14-9.56-8.27-19.12l-13.17-30.45-3-6.93c-.32-.74-1.4-.11-1.08.63Z" style="fill:#263238"></path><path d="M663.68,100.34l4.29,46.1c.07.8,1.32.81,1.25,0l-4.29-46.1c-.07-.79-1.32-.8-1.25,0Z" style="fill:#263238"></path><path d="M669.86,103.37q-.42,20.91-.83,41.84a.63.63,0,0,0,1.25,0q.42-20.93.83-41.84a.63.63,0,0,0-1.25,0Z" style="fill:#263238"></path><path d="M669.42,144.94A335.32,335.32,0,0,1,685,103.66c.33-.73-.74-1.36-1.08-.63a337.51,337.51,0,0,0-15.7,41.57.63.63,0,0,0,1.21.34Z" style="fill:#263238"></path><polygon points="657.26 170.52 657.26 150.67 664.39 146.44 664.39 142.32 673.59 142.32 673.59 145.96 681.58 150.55 681.58 170.52 657.26 170.52" style="fill:#EEAAD7"></polygon><path d="M681.8,150.55c0,.14-5.54.26-12.38.26s-12.39-.12-12.39-.26,5.55-.26,12.39-.26S681.8,150.4,681.8,150.55Z" style="fill:#263238"></path><path d="M673.6,146.32a41.8,41.8,0,0,1-9.31,0,41.8,41.8,0,0,1,9.31,0Z" style="fill:#263238"></path><rect x="597.46" y="137.3" width="20.28" height="29.31" style="fill:#e0e0e0"></rect><rect x="576.92" y="149.07" width="19.6" height="17.54" style="fill:#e0e0e0"></rect><rect x="613.79" y="149.07" width="19.6" height="17.54" style="fill:#e0e0e0"></rect><path d="M633.39,166.61a1.79,1.79,0,0,1,0-.34c0-.26,0-.58,0-1,0-.88,0-2.08-.06-3.58,0-3.11-.07-7.45-.11-12.66l.22.22-19.6,0s.5-.49.26-.26h0v4.69c0,1.55,0,3.06,0,4.53,0,2.94,0,5.73,0,8.31l-.23-.23,14.12.12,4,.06,1.07,0,.39,0a1.34,1.34,0,0,1-.34,0l-1,0-4,.06-14.26.12h-.23v-.23c0-2.58,0-5.37,0-8.31,0-1.47,0-3,0-4.53v-4.69h0l.26-.26,19.6,0h.22v.22c-.05,5.26-.09,9.66-.11,12.8,0,1.48,0,2.66-.06,3.53,0,.37,0,.67,0,.91A.87.87,0,0,1,633.39,166.61Z" style="fill:#263238"></path><path d="M588.7,140.88a2.4,2.4,0,0,0-1.27-1.24,2.78,2.78,0,0,0-2.56.59,4.22,4.22,0,0,0-1.6,4,3.6,3.6,0,0,0,3.05,2.9l-.66-.18a2.73,2.73,0,0,0,2.73-1.24,5,5,0,0,0,.71-3.06A4.4,4.4,0,0,0,588.7,140.88Z" style="fill:#EEAAD7"></path><g style="opacity:0.30000000000000004"><path d="M587.81,143.24a1.49,1.49,0,0,0-.79-.77,1.7,1.7,0,0,0-1.59.36,2.66,2.66,0,0,0-1,2.48,2.24,2.24,0,0,0,1.9,1.81l-.41-.11a1.71,1.71,0,0,0,1.7-.78,3.12,3.12,0,0,0,.44-1.9A2.75,2.75,0,0,0,587.81,143.24Z" style="fill:#fff"></path></g><path d="M586.16,146.22c.15,0,.26.71.26,1.57s-.11,1.57-.26,1.57-.26-.7-.26-1.57S586,146.22,586.16,146.22Z" style="fill:#263238"></path><path d="M610.4,129.19a2.39,2.39,0,0,0-1.28-1.24,2.77,2.77,0,0,0-2.55.59,4.22,4.22,0,0,0-1.6,4,3.6,3.6,0,0,0,3,2.9l-.66-.18a2.73,2.73,0,0,0,2.73-1.24,5,5,0,0,0,.71-3.06A4.4,4.4,0,0,0,610.4,129.19Z" style="fill:#EEAAD7"></path><g style="opacity:0.30000000000000004"><path d="M609.51,131.54a1.47,1.47,0,0,0-.79-.76,1.7,1.7,0,0,0-1.59.36,2.64,2.64,0,0,0-1,2.48,2.24,2.24,0,0,0,1.9,1.81l-.41-.11a1.71,1.71,0,0,0,1.7-.78,3.12,3.12,0,0,0,.44-1.9A2.8,2.8,0,0,0,609.51,131.54Z" style="fill:#fff"></path></g><path d="M607.86,134.53c.14,0,.26.71.26,1.57s-.12,1.57-.26,1.57-.26-.7-.26-1.57S607.72,134.53,607.86,134.53Z" style="fill:#263238"></path><path d="M626.86,141.4a2.44,2.44,0,0,0-1.28-1.23,2.75,2.75,0,0,0-2.56.58,4.24,4.24,0,0,0-1.6,4,3.62,3.62,0,0,0,3.06,2.91l-.67-.18a2.74,2.74,0,0,0,2.74-1.25,5,5,0,0,0,.7-3.05A4.65,4.65,0,0,0,626.86,141.4Z" style="fill:#EEAAD7"></path><g style="opacity:0.30000000000000004"><path d="M626,143.76a1.52,1.52,0,0,0-.8-.76,1.7,1.7,0,0,0-1.59.36,2.62,2.62,0,0,0-1,2.48,2.24,2.24,0,0,0,1.89,1.81l-.41-.11a1.71,1.71,0,0,0,1.7-.78,3.07,3.07,0,0,0,.44-1.9A2.93,2.93,0,0,0,626,143.76Z" style="fill:#fff"></path></g><path d="M624.31,146.75c.15,0,.26.7.26,1.57s-.11,1.57-.26,1.57-.26-.7-.26-1.57S624.17,146.75,624.31,146.75Z" style="fill:#263238"></path><path d="M596.55,149.06a188.23,188.23,0,0,1-19.78,0,188.23,188.23,0,0,1,19.78,0Z" style="fill:#263238"></path><path d="M618,137.36c0,.14-4.63.26-10.35.26s-10.35-.12-10.35-.26,4.63-.26,10.35-.26S618,137.22,618,137.36Z" style="fill:#263238"></path><path d="M608.89,139.78s.28.32.1,1a1.52,1.52,0,0,1-.75.93,1.6,1.6,0,0,1-2.16-.93,2.26,2.26,0,0,0-.32-.78c-.12-.13-.3-.09-.41.19a5.86,5.86,0,0,0-.24,1,17.75,17.75,0,0,0-.21,4.68,2.22,2.22,0,0,1-.38,1.33,1.44,1.44,0,0,1-1.29.54,2,2,0,0,1-1.2-.53,3.79,3.79,0,0,1-.73-.94,10.88,10.88,0,0,1-1.25-3.72,9.84,9.84,0,0,1,0-2.64,2.69,2.69,0,0,1,.21-.94,20,20,0,0,0,.19,3.52,11.11,11.11,0,0,0,1.31,3.54,2.06,2.06,0,0,0,1.54,1.2,1,1,0,0,0,.85-.34,1.86,1.86,0,0,0,.27-1,16.87,16.87,0,0,1,.26-4.76,6.42,6.42,0,0,1,.29-1.08.91.91,0,0,1,.47-.48.65.65,0,0,1,.69.19,2.89,2.89,0,0,1,.38.94,1.12,1.12,0,0,0,.41.6,1.25,1.25,0,0,0,1.24.19,1.31,1.31,0,0,0,.68-.72A2.12,2.12,0,0,0,608.89,139.78Z" style="fill:#263238"></path><path d="M570.53,166.61h-.36c1.64,2.25,4.24,3.75,8.47,4h57.82c4.68,0,7-2,8-4Z" style="fill:#263238"></path><rect x="562.07" y="170.54" width="128.45" height="15.11" style="fill:#455a64"></rect><rect x="589.11" y="183.88" width="9.54" height="9.54" style="fill:#455a64"></rect><rect x="657.89" y="183.88" width="9.54" height="9.54" style="fill:#455a64"></rect><path d="M691.59,185.83c0,.15-28.43.26-63.5.26s-63.51-.11-63.51-.26,28.43-.26,63.51-.26S691.59,185.69,691.59,185.83Z" style="fill:#263238"></path><path d="M111.61,132.54v-9.48h9.52v1.3l-5.87,2.28v5.9Z" style="fill:#263238"></path><rect x="102.99" y="134.58" width="21.41" height="35.77" style="fill:#EEAAD7"></rect><rect x="109.71" y="131.57" width="7.26" height="3.53" style="fill:#EEAAD7"></rect><rect x="108.32" y="143.45" width="10.74" height="20.88" style="fill:#fff"></rect><path d="M84.73,132.54v-9.48h9.51v1.3l-5.86,2.28v5.9Z" style="fill:#263238"></path><rect x="76.11" y="134.58" width="21.41" height="35.77" style="fill:#EEAAD7"></rect><rect x="82.83" y="131.57" width="7.26" height="3.53" style="fill:#EEAAD7"></rect><rect x="81.44" y="143.45" width="10.75" height="20.88" style="fill:#fff"></rect><ellipse cx="162.04" cy="162.05" rx="25.17" ry="9.43" style="fill:#263238"></ellipse><path d="M178.61,144.16c-2.1-2-5-2.86-7.85-3.39a43.56,43.56,0,0,0-18.84.63c-3.09.79-6.61,2.58-6.81,5.76a6.89,6.89,0,0,0,2.15,4.83,18.66,18.66,0,0,0,13.8,6.07l-4.31-.54a55.29,55.29,0,0,0,17.1-1.49c2.57-.64,5.35-1.67,6.59-4C181.79,149.46,180.72,146.14,178.61,144.16Z" style="fill:#263238"></path><path d="M169,128.38a6.27,6.27,0,0,0-3.26-1.43,17.74,17.74,0,0,0-7.84.26c-1.28.34-2.74,1.09-2.83,2.44a2.92,2.92,0,0,0,.9,2,7.66,7.66,0,0,0,5.73,2.57l-1.79-.23a22.42,22.42,0,0,0,7.11-.63,4,4,0,0,0,2.74-1.7A2.93,2.93,0,0,0,169,128.38Z" style="fill:#263238"></path><ellipse cx="163.07" cy="136.99" rx="11.67" ry="4.4" style="fill:#263238"></ellipse><path d="M185,158.31s-.52-.33-1.47-.89a22.84,22.84,0,0,0-4.22-2,31.61,31.61,0,0,0-6.74-1.53,70.17,70.17,0,0,0-8.48-.44c-3,0-5.9,0-8.51.08a44.79,44.79,0,0,0-6.88.79,26.54,26.54,0,0,0-4.48,1.29,16.07,16.07,0,0,1-1.61.62s.12-.1.38-.24.64-.35,1.15-.57a22.75,22.75,0,0,1,4.48-1.46,41.16,41.16,0,0,1,6.93-.91c2.63-.14,5.52-.13,8.55-.12a65.57,65.57,0,0,1,8.54.48,30.81,30.81,0,0,1,6.79,1.66,20.36,20.36,0,0,1,4.21,2.14,11.61,11.61,0,0,1,1,.76A1.42,1.42,0,0,1,185,158.31Z" style="fill:#455a64"></path><path d="M175.14,142c0,.09-1.45-.36-3.8-.83a42.85,42.85,0,0,0-18.54.37c-2.33.57-3.73,1.07-3.76,1a4.09,4.09,0,0,1,1-.43,26,26,0,0,1,2.72-.9,37.68,37.68,0,0,1,18.71-.38,28.4,28.4,0,0,1,2.75.79A4.2,4.2,0,0,1,175.14,142Z" style="fill:#455a64"></path><path d="M170.48,133.84a53.18,53.18,0,0,0-7.18-1,50.65,50.65,0,0,0-7.22.6,6.8,6.8,0,0,1,2.06-.65,22.09,22.09,0,0,1,5.18-.47,22.76,22.76,0,0,1,5.15.74A6.51,6.51,0,0,1,170.48,133.84Z" style="fill:#455a64"></path><path d="M153.88,136.11c.05.14-.35.41-.77.8s-.74.75-.87.68,0-.61.52-1.07S153.83,136,153.88,136.11Z" style="fill:#fff"></path><path d="M149.06,144.46c.08.13-.53.68-1.05,1.51s-.78,1.61-.93,1.58-.11-.93.49-1.86S149,144.35,149.06,144.46Z" style="fill:#fff"></path><path d="M140.52,158.57c.07.13-.81.69-1.3,1.82a10.65,10.65,0,0,0-.49,2.18c-.07,0-.21-.23-.27-.68a3.31,3.31,0,0,1,.28-1.71,3.37,3.37,0,0,1,1.1-1.35C140.21,158.57,140.49,158.52,140.52,158.57Z" style="fill:#fff"></path><path d="M158.71,127.74c0,.15-.64.42-1.27,1s-1,1.21-1.14,1.15,0-.87.79-1.54S158.7,127.6,158.71,127.74Z" style="fill:#fff"></path><rect x="66.22" y="170.54" width="128.45" height="15.11" style="fill:#455a64"></rect><rect x="93.26" y="183.88" width="9.54" height="9.54" style="fill:#455a64"></rect><rect x="162.04" y="183.88" width="9.54" height="9.54" style="fill:#455a64"></rect><path d="M195.74,185.83c0,.15-28.43.26-63.5.26s-63.51-.11-63.51-.26,28.43-.26,63.51-.26S195.74,185.69,195.74,185.83Z" style="fill:#263238"></path></g><g id="freepik--Pictures--inject-2"><rect x="319.28" y="39.37" width="125.45" height="146.71" style="fill:#455a64"></rect><rect x="322.78" y="42.67" width="119.41" height="139.88" style="fill:#fff"></rect><path d="M387.79,94.39c-4.06.52-8.44-4-10.21-8a22.22,22.22,0,0,1-1.21-12.81,52.4,52.4,0,0,1,4.16-12.35,17,17,0,0,1,8,13c.54,6.88-1.69,13.41-.7,20.24" style="fill:#EEAAD7"></path><path d="M401.49,101.67c-4-4-9.68-5.6-14.07-9.09l-.11-.06c-.35,5-.25,10,2.14,14.42a18,18,0,0,0,8.4,7.36,53.48,53.48,0,0,0,10.85,3.27C407.27,111.85,405.67,105.83,401.49,101.67Z" style="fill:#EEAAD7"></path><path d="M420,90.77c-2.32-2.06-4.86-4.22-7.94-4.55a15.15,15.15,0,0,0-5.56.83l-14.09,4-4.68,2.85c4,2,7.34,5.09,11.11,7.5s8.23,4.24,12.63,3.43c3.45-.64,6.4-2.81,9-5.14,1.16-1,2.35-2.24,2.51-3.78C423.22,93.82,421.54,92.13,420,90.77Z" style="fill:#EEAAD7"></path><g style="opacity:0.30000000000000004"><path d="M387.91,94.3a14.17,14.17,0,0,0,18.35-7.09"></path></g><path d="M409.22,69.12a3.22,3.22,0,0,0-2.15-.84,13.35,13.35,0,0,0-5.33.55,14.53,14.53,0,0,1-4.29,1.11c-.89,0-1.77-.26-2.66-.29a6.6,6.6,0,0,0-5.09,2.55,13.55,13.55,0,0,0-2.47,5.31c-1.19,4.49-1.62,12.2-.66,16.75,4,.5,8.15-1.07,12.33-2.53,3.42-1.19,7.73-3.66,9.27-6.94a14.17,14.17,0,0,0,1-5.05c.2-2.6.39-5.19.59-7.78A3.7,3.7,0,0,0,409.22,69.12Z" style="fill:#EEAAD7"></path><path d="M376.13,163.59a3.25,3.25,0,0,1-.23-.72c-.13-.54-.31-1.24-.54-2.12-.45-1.83-1.1-4.49-1.81-7.8s-1.47-7.28-2-11.73a77.54,77.54,0,0,1-.5-14.57,65.86,65.86,0,0,1,1-7.5,55.26,55.26,0,0,1,1.83-6.8,38.75,38.75,0,0,1,5.54-10.54A30.23,30.23,0,0,1,385,96.08c.73-.61,1.38-1,1.78-1.27a4,4,0,0,1,.65-.4,4.65,4.65,0,0,1-.59.49c-.38.32-1,.7-1.71,1.33a32.46,32.46,0,0,0-5.45,5.8,39.27,39.27,0,0,0-5.37,10.48,55.62,55.62,0,0,0-1.79,6.74,66.51,66.51,0,0,0-1,7.44,79.27,79.27,0,0,0,.46,14.47c.52,4.44,1.25,8.4,1.91,11.71s1.25,6,1.64,7.84c.19.89.33,1.6.45,2.13A4.66,4.66,0,0,1,376.13,163.59Z" style="fill:#455a64"></path><path d="M369.07,115.93a27.67,27.67,0,0,0-7.58-6.08,43.56,43.56,0,0,1-8-5.6,29.81,29.81,0,0,0-.36,11.93,15.59,15.59,0,0,0,6.26,9.9c3.34,2.21,8.48,3.69,11.84,1.51l0-.17C371.71,123.68,371.1,118.48,369.07,115.93Z" style="fill:#455a64"></path><path d="M414.22,103.94a4.73,4.73,0,0,1-1.07.53,11.14,11.14,0,0,1-1.35.38,16.24,16.24,0,0,1-1.83.25,25.82,25.82,0,0,1-10.45-2,31.1,31.1,0,0,1-9.14-5.45c-.54-.42-.94-.9-1.34-1.27a10.76,10.76,0,0,1-.92-1,5.13,5.13,0,0,1-.7-1c.08-.07,1.11,1.27,3.2,3a34,34,0,0,0,9.09,5.25A27.5,27.5,0,0,0,410,104.73c.67-.07,1.28-.06,1.8-.17s1-.16,1.34-.28A5.23,5.23,0,0,1,414.22,103.94Z" style="fill:#263238"></path><path d="M406.81,86.85s-.19.23-.59.58-1,.84-1.8,1.41a29.1,29.1,0,0,1-6.59,3.61,31.46,31.46,0,0,1-7.31,1.78c-.95.11-1.73.18-2.27.2a2.46,2.46,0,0,1-.83,0,27.06,27.06,0,0,1,3.05-.54,39.22,39.22,0,0,0,7.17-1.9,36.13,36.13,0,0,0,6.58-3.43A26.06,26.06,0,0,1,406.81,86.85Z" style="fill:#263238"></path><path d="M387.42,94.41s-.15-.27-.32-.79a21.86,21.86,0,0,1-.58-2.25,28.52,28.52,0,0,1,.89-15.14c.32-.92.62-1.66.85-2.15a2.86,2.86,0,0,1,.41-.75c.08,0-.36,1.15-.91,3a33.05,33.05,0,0,0-.88,15C387.19,93.22,387.5,94.39,387.42,94.41Z" style="fill:#263238"></path><path d="M371.24,127.59c-.08,0-.53-1.07-1.69-2.58a32.55,32.55,0,0,0-5.24-5.27,36.18,36.18,0,0,1-5.65-5,11.7,11.7,0,0,1-1.32-1.89,2.13,2.13,0,0,1-.33-.77c.08,0,.62,1,1.92,2.41a46.86,46.86,0,0,0,5.71,4.82,27.07,27.07,0,0,1,5.2,5.46,11.81,11.81,0,0,1,1.14,2A2.12,2.12,0,0,1,371.24,127.59Z" style="fill:#263238"></path><path d="M319.58,186.07a.86.86,0,0,1,.15-.22l.5-.64c.46-.59,1.13-1.42,2-2.5l0,0h.05c8.95-.1,32.36-.17,59.8-.17,27.2,0,50.45.07,59.6.17h.05l0,0,2.22,2.5.56.65a1.1,1.1,0,0,1,.17.22,2,2,0,0,1-.21-.19l-.59-.61-2.29-2.44.07,0c-9.15.1-32.4.16-59.6.16-27.44,0-50.85-.07-59.8-.16l.07,0-2.07,2.45c-.22.25-.4.45-.53.61A1.26,1.26,0,0,1,319.58,186.07Z" style="fill:#263238"></path><path d="M444.57,39.37a1.61,1.61,0,0,1-.13.22l-.43.63-1.75,2.51,0,0h0c-8.76.1-32.36.17-60.07.17-27.24,0-50.51-.06-59.67-.16h-.05l0,0-2.22-2.5-.56-.65a1.1,1.1,0,0,1-.17-.22,1.1,1.1,0,0,1,.21.19l.59.61,2.29,2.44-.07,0c9.16-.1,32.43-.17,59.67-.17,27.71,0,51.31.08,60.07.18l-.08,0,1.83-2.45.46-.61Z" style="fill:#263238"></path><path d="M442.28,183.69c-.14,0-.26-31.43-.26-70.2s.12-70.21.26-70.21.26,31.43.26,70.21S442.43,183.69,442.28,183.69Z" style="fill:#263238"></path><path d="M323.12,183.69c-.14,0-.26-31.43-.26-70.2s.12-70.21.26-70.21.26,31.43.26,70.21S323.26,183.69,323.12,183.69Z" style="fill:#263238"></path><path d="M399.42,125.32a17.22,17.22,0,0,0-6.83-1.94c-3.09-.32-6.54-.07-8.77,2.09a8.64,8.64,0,0,0-2.21,6.94c.21,2.5.9,4.55,2.62,5.44a4.89,4.89,0,0,0,3.15,4,10.26,10.26,0,0,0,5.28.44,14.92,14.92,0,0,0,8.21-3.41,8.63,8.63,0,0,0,2.89-8.11A8.82,8.82,0,0,0,399.42,125.32Z" style="fill:#e0e0e0"></path><path d="M349,76.11a17.18,17.18,0,0,0-1.54,6.94c-.14,3.1.3,6.53,2.59,8.63a8.64,8.64,0,0,0,7,1.81c2.49-.35,4.5-1.16,5.28-2.93a4.88,4.88,0,0,0,3.81-3.37,10.34,10.34,0,0,0,.13-5.3,15,15,0,0,0-3.87-8,8.66,8.66,0,0,0-8.27-2.41A8.83,8.83,0,0,0,349,76.11Z" style="fill:#e0e0e0"></path><path d="M394.05,130.51a9.59,9.59,0,0,1-1.31.93c-.43.27-1,.62-1.54,1.06s-1.28.9-2,1.49-1.5,1.2-2.29,1.94-1.63,1.52-2.49,2.38a52,52,0,0,0-5,6.08,52.63,52.63,0,0,0-3.95,6.82c-.5,1.1-1,2.15-1.36,3.16s-.73,1.95-1,2.83-.5,1.67-.7,2.37-.35,1.31-.45,1.82a10.64,10.64,0,0,1-.41,1.55,8.7,8.7,0,0,1,.21-1.59,17.17,17.17,0,0,1,.37-1.85c.18-.71.34-1.53.63-2.41s.56-1.86,1-2.87.84-2.09,1.33-3.22a51.26,51.26,0,0,1,4-6.91A50.2,50.2,0,0,1,384.1,138c.88-.85,1.7-1.68,2.54-2.37s1.62-1.34,2.36-1.9,1.43-1,2-1.44a17.86,17.86,0,0,1,1.59-1A9.55,9.55,0,0,1,394.05,130.51Z" style="fill:#263238"></path><path d="M358.58,85.83a5.31,5.31,0,0,1,1.08.57,13.11,13.11,0,0,1,1.2.76c.46.32,1,.67,1.54,1.11a34,34,0,0,1,3.67,3.29,35.21,35.21,0,0,1,6.74,10,33.33,33.33,0,0,1,1.67,4.64c.21.67.33,1.29.46,1.83a13.7,13.7,0,0,1,.26,1.41,5.16,5.16,0,0,1,.12,1.21c-.1,0-.36-1.7-1.19-4.35a38.7,38.7,0,0,0-1.76-4.54,40.77,40.77,0,0,0-2.93-5.19,40,40,0,0,0-3.72-4.66,37.05,37.05,0,0,0-3.55-3.33C360,86.8,358.53,85.91,358.58,85.83Z" style="fill:#263238"></path><rect x="209.17" y="39.37" width="80.61" height="80.61" style="fill:#455a64"></rect><rect x="213.93" y="44.13" width="71.08" height="71.08" style="fill:#fff"></rect><path d="M289.78,39.37a2.9,2.9,0,0,1-.29.34l-.9.95-3.48,3.57,0,0H285c-7.45.07-20.59.12-35.54.12s-28.1,0-35.55-.12h-.06l0,0-3.47-3.57-.9-.95a2.9,2.9,0,0,1-.29-.34,1.71,1.71,0,0,1,.34.29l1,.9L214,44l-.1,0c7.45-.07,20.59-.12,35.55-.12s28.09.05,35.54.12l-.1,0,3.56-3.47,1-.9A1.71,1.71,0,0,1,289.78,39.37Z" style="fill:#263238"></path><path d="M209.17,120.13a2.14,2.14,0,0,1,.29-.34l.9-1c.84-.85,2-2,3.47-3.56l0,0h.06c7.45-.08,20.59-.12,35.54-.12s28.1,0,35.55.12h.06l0,0,3.48,3.56.9,1a2.14,2.14,0,0,1,.29.34,1.71,1.71,0,0,1-.34-.29l-1-.9-3.56-3.47.1,0c-7.45.07-20.59.12-35.55.12s-28.09,0-35.54-.12l.1,0c-1.51,1.47-2.71,2.63-3.56,3.47l-1,.9A1.71,1.71,0,0,1,209.17,120.13Z" style="fill:#263238"></path><path d="M230.26,77c-5,5.54-7,13.24-7,20.68a50.53,50.53,0,0,1,17.93-24.21c3.16-2.29,7.11-4,10.82-3.77C244.44,68.54,235.39,71.31,230.26,77Z" style="fill:#455a64"></path><path d="M241.68,66a14.74,14.74,0,0,0-7.21,2.48c-3.38,2-6.6,4.61-8.25,8.19a27,27,0,0,1,24.21-7.77C247.73,67.32,244.8,66,241.68,66Z" style="fill:#455a64"></path><path d="M249.42,57.69a5,5,0,0,0-1.58,7.78,22.43,22.43,0,0,0,2.91,3.17c1.21-4.1,2.62-8.37,3.84-12.47A13.35,13.35,0,0,0,249.42,57.69Z" style="fill:#455a64"></path><path d="M258.11,57.86a12.47,12.47,0,0,0-5.1,4.87c-1.11,2.1-1.7,4.81-.6,6.93a178.39,178.39,0,0,1,12.34-14.42A37.27,37.27,0,0,0,258.11,57.86Z" style="fill:#455a64"></path><path d="M265,65.49A14.3,14.3,0,0,0,252.5,70a11.88,11.88,0,0,1,6.6-.81,157,157,0,0,1,16.57,4.21A14.29,14.29,0,0,0,265,65.49Z" style="fill:#455a64"></path><path d="M273.7,107.52s0,0-.05-.11l-.1-.33c-.09-.29-.2-.72-.38-1.27-.35-1.1-.89-2.68-1.65-4.6a115,115,0,0,0-7.12-14.47,111.91,111.91,0,0,0-8.94-13.42,30.73,30.73,0,0,0-3.28-3.61,9.31,9.31,0,0,0-1-.82l-.3-.18-.09-.07s0,0,.1,0l.31.16a7.35,7.35,0,0,1,1.08.79,28,28,0,0,1,3.35,3.58,105.25,105.25,0,0,1,9,13.4,107.63,107.63,0,0,1,7.07,14.53c.74,1.93,1.27,3.52,1.58,4.63.17.56.27,1,.35,1.29l.08.34C273.69,107.48,273.7,107.52,273.7,107.52Z" style="fill:#263238"></path><path d="M253.05,69.7c-4.33,0-8.33,3-10.11,7a17.73,17.73,0,0,0-.19,12.71,40.09,40.09,0,0,0,6.42,11.25,94.5,94.5,0,0,0,4.44-14.6A37.13,37.13,0,0,0,253.05,69.7Z" style="fill:#455a64"></path><g style="opacity:0.2"><path d="M230.26,77c-5,5.54-7,13.24-7,20.68a50.53,50.53,0,0,1,17.93-24.21c3.16-2.29,7.11-4,10.82-3.77C244.44,68.54,235.39,71.31,230.26,77Z"></path></g><g style="opacity:0.2"><path d="M241.68,66a14.74,14.74,0,0,0-7.21,2.48c-3.38,2-6.6,4.61-8.25,8.19a27,27,0,0,1,24.21-7.77C247.73,67.32,244.8,66,241.68,66Z"></path></g><g style="opacity:0.2"><path d="M249.42,57.69a5,5,0,0,0-1.58,7.78,22.43,22.43,0,0,0,2.91,3.17c1.21-4.1,2.62-8.37,3.84-12.47A13.35,13.35,0,0,0,249.42,57.69Z"></path></g><g style="opacity:0.2"><path d="M258.11,57.86a12.47,12.47,0,0,0-5.1,4.87c-1.11,2.1-1.7,4.81-.6,6.93a178.39,178.39,0,0,1,12.34-14.42A37.27,37.27,0,0,0,258.11,57.86Z"></path></g><g style="opacity:0.2"><path d="M265,65.49A14.3,14.3,0,0,0,252.5,70a11.88,11.88,0,0,1,6.6-.81,157,157,0,0,1,16.57,4.21A14.29,14.29,0,0,0,265,65.49Z"></path></g><g style="opacity:0.2"><path d="M253.05,69.7c-4.33,0-8.33,3-10.11,7a17.73,17.73,0,0,0-.19,12.71,40.09,40.09,0,0,0,6.42,11.25,94.5,94.5,0,0,0,4.44-14.6A37.13,37.13,0,0,0,253.05,69.7Z"></path></g><rect x="474.22" y="39.37" width="80.61" height="80.61" style="fill:#455a64"></rect><rect x="478.98" y="44.13" width="71.08" height="71.08" style="fill:#fff"></rect><path d="M554.83,39.37a2.9,2.9,0,0,1-.29.34l-.9.95-3.47,3.57,0,0h-.06c-7.45.07-20.59.12-35.54.12s-28.1,0-35.55-.12h-.06l0,0-3.48-3.57-.9-.95a2.9,2.9,0,0,1-.29-.34,1.71,1.71,0,0,1,.34.29l1,.9L479.08,44l-.1,0c7.45-.07,20.59-.12,35.55-.12s28.09.05,35.54.12l-.1,0,3.56-3.47,1-.9A1.71,1.71,0,0,1,554.83,39.37Z" style="fill:#263238"></path><path d="M474.22,120.13a2.14,2.14,0,0,1,.29-.34l.9-1,3.48-3.56,0,0H479c7.45-.08,20.59-.12,35.54-.12s28.1,0,35.55.12h.06l0,0c1.47,1.51,2.63,2.71,3.47,3.56l.9,1a2.14,2.14,0,0,1,.29.34,1.71,1.71,0,0,1-.34-.29l-1-.9c-.85-.84-2-2-3.56-3.47l.1,0c-7.45.07-20.59.12-35.55.12s-28.09,0-35.54-.12l.1,0-3.56,3.47-1,.9A1.71,1.71,0,0,1,474.22,120.13Z" style="fill:#263238"></path><path d="M517.51,75.57c.17-1.67-1.63-3.32-3.2-3.91a8.9,8.9,0,0,0-5,0,25.34,25.34,0,0,0-19,19.85,121.82,121.82,0,0,1,13.48-5.71l-.78.22a15.74,15.74,0,0,0,10.64-7.76A8.5,8.5,0,0,1,515.11,76a2.12,2.12,0,0,1,2.4-.47" style="fill:#455a64"></path><path d="M517.52,75.55a20.46,20.46,0,0,1,14.93-3.35A17.85,17.85,0,0,1,544.85,81a15.83,15.83,0,0,1,.08,15c-2.42-5-5-10.24-9.49-13.52a8.36,8.36,0,0,1-2.84-2.63c-.69-1.35-.4-3-1-4.4-.73-1.72-2.72-2.22-4.58-2.32s-7.25,1.62-9.51,2.44" style="fill:#455a64"></path><path d="M517.4,75.47c4.47-1.32,9.51.86,12.55,4.2A22,22,0,0,1,535.06,92a62.42,62.42,0,0,1-.36,13.52,56.09,56.09,0,0,1-7.68-17c-.72-2.74-1.24-5.57-2.54-8.09a10,10,0,0,0-7.08-4.91" style="fill:#455a64"></path><path d="M517.25,75.57c3.57-1.65,5.58-5.38,6-9.28A11.79,11.79,0,0,0,519,55.86a12.61,12.61,0,0,0-3.33,13.19c.75,2.15,2.13,4.3,1.61,6.52" style="fill:#455a64"></path><path d="M519.19,75.82A40.77,40.77,0,0,0,515,69.45a13.45,13.45,0,0,0-6.23-4.29c-3.29-1-6.81-.2-10.1.77a80.19,80.19,0,0,0-11.2,4.27,22.22,22.22,0,0,0,14.9.27,16.66,16.66,0,0,1,7.57-.45c3.21.37,7.22,3.33,9.3,5.8" style="fill:#455a64"></path><path d="M506.49,110.21a7.61,7.61,0,0,1,.22-1.42c.18-.9.46-2.21.83-3.81.74-3.22,1.84-7.64,3.31-12.46a124.76,124.76,0,0,1,4.37-12.13c.65-1.51,1.2-2.73,1.61-3.56a8.85,8.85,0,0,1,.68-1.26,8.26,8.26,0,0,1-.5,1.35c-.35.85-.85,2.08-1.45,3.61-1.21,3.06-2.74,7.34-4.21,12.15s-2.62,9.2-3.45,12.38l-1,3.78A8.35,8.35,0,0,1,506.49,110.21Z" style="fill:#263238"></path></g><g id="freepik--Character--inject-2"><rect x="137.52" y="332.06" width="463.04" height="132.14" style="fill:#f5f5f5"></rect><path d="M137.52,363.49v11.36L177.34,369a72.33,72.33,0,0,1,17.58-.44l66.41,9.05,68.35-8.33,50.54,9.19a109.08,109.08,0,0,0,35,.66l44.67-6.4a83.84,83.84,0,0,1,19.77-.48l86.8,8.14,34.14-5.65-2.06-30.87-234-6.22L245.18,339.7,143.82,356.23Z" style="opacity:0.1"></path><rect x="112.75" y="307.57" width="498.79" height="46.92" style="fill:#ebebeb"></rect><path d="M112.75,354.49s11.5,9,26,9,31.95-9,57.33-9,62,10.63,86.55,9,31.33-9,54.45-9,45.12,8.8,72.76,9.17,45.29-9.17,71.15-9.17,44.42,7.73,69.54,9.18,61-9.18,61-9.18l-5.81-23.65Z" style="fill:#ebebeb"></path><path d="M180.48,342.6c-.15,0-.26-5.45-.26-12.18s.11-12.18.26-12.18.26,5.45.26,12.18S180.62,342.6,180.48,342.6Z" style="fill:#263238"></path><path d="M198.42,342.61c-.14,0-.92-6-1.74-13.39s-1.36-13.43-1.22-13.45.92,6,1.74,13.39S198.57,342.59,198.42,342.61Z" style="fill:#263238"></path><path d="M312.19,347.14c-.15,0-.26-5.64-.26-12.59s.11-12.6.26-12.6.26,5.64.26,12.6S312.33,347.14,312.19,347.14Z" style="fill:#263238"></path><path d="M331.82,343.84c-.14,0-.26-5.64-.26-12.6s.12-12.59.26-12.59.26,5.64.26,12.59S332,343.84,331.82,343.84Z" style="fill:#263238"></path><path d="M449.54,348.17c-.14,0-.26-6-.26-13.42s.12-13.42.26-13.42.26,6,.26,13.42S449.69,348.17,449.54,348.17Z" style="fill:#263238"></path><path d="M470.82,346.94c-.15,0-.26-6.57-.26-14.66s.11-14.66.26-14.66.26,6.56.26,14.66S471,346.94,470.82,346.94Z" style="fill:#263238"></path><path d="M112.75,314s0,.88,0,2.62,0,4.33,0,7.74c0,6.82,0,16.94,0,30.1l0-.07a46.13,46.13,0,0,0,6.71,4.06,48.89,48.89,0,0,0,7.9,3.14,40.44,40.44,0,0,0,9,1.66,42,42,0,0,0,9.75-.59c6.66-1.08,13.56-3.07,20.93-4.74,3.69-.84,7.5-1.59,11.42-2.22s8-1.05,12.14-1.25c8.33-.46,17,.31,26,1.45s18.23,2.76,27.84,4.24c4.8.74,9.69,1.47,14.68,2s10.07,1,15.24,1.18a94.75,94.75,0,0,0,15.71-.85A120.84,120.84,0,0,0,306,359.32c5.3-1.4,10.66-2.93,16.23-3.87a92.85,92.85,0,0,1,17.06-1.13c11.58.25,23.21,2.65,35,4.86s24,4.18,36.53,4.23A123.66,123.66,0,0,0,429.68,362c6.3-.92,12.59-2.26,18.94-3.6s12.76-2.64,19.32-3.38a115.88,115.88,0,0,1,19.91-.6,169.12,169.12,0,0,1,20.07,2.36c6.68,1.15,13.36,2.54,20.11,3.76a191,191,0,0,0,20.49,2.71,115.6,115.6,0,0,0,20.86-.56A264.45,264.45,0,0,0,611,354.37l.45-.13-.19.25V307.57l.26.26-354.36-.08-105.86-.08-28.62-.05-7.42,0-2.53,0,2.53,0,7.42,0,28.62,0,105.86-.08,354.36-.09h.26v47.38l-.18.05-.46.14a266.36,266.36,0,0,1-41.72,8.35,115.76,115.76,0,0,1-21,.55,188.77,188.77,0,0,1-20.54-2.71c-6.76-1.22-13.44-2.62-20.11-3.77a168.42,168.42,0,0,0-20-2.35,115.94,115.94,0,0,0-19.83.58c-6.53.74-12.94,2.05-19.28,3.38s-12.65,2.67-19,3.6a123.28,123.28,0,0,1-18.92,1.38c-12.57-.05-24.79-2-36.62-4.25s-23.43-4.61-34.95-4.87a91.12,91.12,0,0,0-17,1.12c-5.54.93-10.88,2.45-16.19,3.85A121.33,121.33,0,0,1,290.17,363a95.41,95.41,0,0,1-15.77.85c-5.19-.15-10.29-.58-15.28-1.2s-9.89-1.31-14.69-2.05c-9.61-1.49-18.87-3.08-27.83-4.27a145.37,145.37,0,0,0-25.94-1.48c-4.15.2-8.19.66-12.11,1.24s-7.72,1.37-11.4,2.2c-7.37,1.66-14.27,3.64-21,4.71a43,43,0,0,1-9.8.58,41.58,41.58,0,0,1-9-1.68,50.26,50.26,0,0,1-7.93-3.18,46.16,46.16,0,0,1-6.73-4.1l0,0v-.05c0-13.16,0-23.28,0-30.1,0-3.41,0-6,0-7.74S112.75,314,112.75,314Z" style="fill:#263238"></path><path d="M598.67,270.43c.1-6.63-3.26-11.93-7.75-16.83a32.8,32.8,0,0,0-17.1-9.58A32.45,32.45,0,0,0,553.31,246a25.94,25.94,0,0,0-13.77,15c-3,9.07.17,19.6,7,26.25s16.92,9.51,26.4,8.42a31.52,31.52,0,0,0,17.78-7.79,24,24,0,0,0,7.93-17.45" style="fill:#263238"></path><path d="M573.84,255.42c2.62.57,5.33-.22,8-.25,5.9-.07,11.25,3.87,14.33,8.91,2.86,4.68,3.35,10.87,2.32,17.2a23.3,23.3,0,0,1-5.36,11.86A18.37,18.37,0,0,1,577.36,299l-.24-30.21c-2.71-2.41-5.48-4.89-7.27-8a6,6,0,0,1-1-3,2.76,2.76,0,0,1,1.54-2.59C571.5,254.68,572.71,255.18,573.84,255.42Z" style="fill:#263238"></path><path d="M590.44,283.17l-9.43-25a4.87,4.87,0,0,0-5.41-3.77l-55.77,8.9a17.57,17.57,0,0,0-10,5.25l-2.79,3c-6.37,6.72-3.9,18,4.85,21a6.07,6.07,0,0,0,1.55.37,12.11,12.11,0,0,0,1.3.05,40.86,40.86,0,0,0,8.52-.85l7-.74s3,10.35,17,11c7,.31,18.16-1.32,27.27-2.95C582.75,297.93,592.26,291.3,590.44,283.17Z" style="fill:#ffbf9d"></path><path d="M562.91,292.23c.28.16-.36,1.71.12,3.56s1.74,3,1.57,3.24-.54,0-1.12-.47A4.86,4.86,0,0,1,562,296a4.71,4.71,0,0,1,.18-2.91C562.43,292.45,562.78,292.16,562.91,292.23Z" style="fill:#263238"></path><path d="M562.5,272.62c.21.24-.91,1.48-1.09,3.39s.64,3.39.38,3.57-.5-.17-.89-.82a4.91,4.91,0,0,1-.59-2.89,4.67,4.67,0,0,1,1.15-2.67C562,272.66,562.41,272.5,562.5,272.62Z" style="fill:#263238"></path><path d="M552.64,287.49a12.38,12.38,0,0,1,.91,3c.1.48.25.92.59,1a2.48,2.48,0,0,0,1.4-.49l3.53-1.86c5-2.59,9.2-4.53,9.3-4.32s-3.89,2.47-8.93,5.06l-3.55,1.8a2.84,2.84,0,0,1-1.88.47,1.23,1.23,0,0,1-.8-.72,3.24,3.24,0,0,1-.21-.81A12.43,12.43,0,0,1,552.64,287.49Z" style="fill:#263238"></path><path d="M530.31,291.38a35.21,35.21,0,0,1,2.81-19s-9,5.72-6.14,19.35Z" style="fill:#ff9a6c"></path><path d="M548,287.21a3.46,3.46,0,0,0,.92-3.21,3.17,3.17,0,0,0-1.41-2,2,2,0,0,0-2.28.11,2.32,2.32,0,0,0-.34,2.56,7.42,7.42,0,0,0,1.72,2.27,2.45,2.45,0,0,0,.63.48.65.65,0,0,0,.71-.09" style="fill:#ff9a6c"></path><path d="M550.69,282.05c0,.31-2,.55-3.27,2.48s-.79,4.1-1.08,4.15c-.12.05-.45-.44-.58-1.37a5.15,5.15,0,0,1,.77-3.45,4.47,4.47,0,0,1,2.76-1.94C550.14,281.74,550.68,281.91,550.69,282.05Z" style="fill:#263238"></path><path d="M572.23,279.71c-.54-.12-.51-2-1-4.25s-1.34-3.93-.91-4.28c.21-.15.73.1,1.31.77a7.32,7.32,0,0,1,1.49,3.08,7.23,7.23,0,0,1,0,3.42C572.84,279.31,572.49,279.77,572.23,279.71Z" style="fill:#263238"></path><path d="M573.5,296.77c-.47-.28-.18-1.64-.33-3.22s-.63-2.87-.21-3.23c.2-.16.66,0,1.14.54a4.71,4.71,0,0,1,.43,5.2C574.15,296.66,573.72,296.9,573.5,296.77Z" style="fill:#263238"></path><path d="M577.1,250.08c8.27,1.47,20.77,11.5,21.29,19.88l-6.18,14.31a12.89,12.89,0,0,1-10.94-7.37c-1-2.25-1.6-5-3.8-6.17s-5.14.09-7.44-1c-3.18-1.44-3.71-6.47-7.08-7.43-1.47-.41-3.09.12-4.55-.32-1.95-.59-4.9-4.93-4.55-6.94s3.63-2.44,5.26-3.3a9.12,9.12,0,0,1,6.06-1.09C569.16,251,573.16,249.38,577.1,250.08Z" style="fill:#263238"></path><path d="M553,261c1-.12,3.3-1.58,3.34-2.61.12-2.76-.66-7.6-7.53-6.86-9.39,1-6.44,10.23-6.17,10.22S549.45,261.39,553,261Z" style="fill:#ffbf9d"></path><path d="M545.88,258.47s-.13-.15-.29-.41a1.66,1.66,0,0,1-.15-1.22c.25-1,1.74-2,3.43-2.27a5.53,5.53,0,0,1,2.39.21,1.89,1.89,0,0,1,1.39,1.1.82.82,0,0,1-.35,1c-.25.15-.44.11-.45.17s.18.18.56.06a1.07,1.07,0,0,0,.55-.43,1.26,1.26,0,0,0,.14-.93,2.32,2.32,0,0,0-1.64-1.55,5.5,5.5,0,0,0-2.68-.29c-1.89.27-3.55,1.43-3.8,2.83a1.77,1.77,0,0,0,.41,1.47C545.65,258.48,545.87,258.51,545.88,258.47Z" style="fill:#ff9a6c"></path><path d="M594.62,281.13c-3.67,1.44-7.65,8-10.22,10.95-4.9,5.71-6.62,6.95-19.24,8.84,4.71,1.61,9.24,2.7,14.13,1.77a20.57,20.57,0,0,0,12.54-7.46,16,16,0,0,0,2.79-14.1" style="fill:#263238"></path><path d="M576.49,245.31a9.08,9.08,0,0,0-.15,1.64,19.4,19.4,0,0,0,0,1.94c0,.76,0,1.62.1,2.57a44.49,44.49,0,0,0,1,6.63,46.83,46.83,0,0,0,6.23,15.1,44.87,44.87,0,0,0,4,5.37c.6.74,1.22,1.34,1.74,1.89s1,1,1.39,1.34a10.21,10.21,0,0,0,1.27,1.06,9.34,9.34,0,0,0-1.11-1.21c-.38-.38-.83-.84-1.32-1.41s-1.09-1.18-1.67-1.93a49.89,49.89,0,0,1-3.86-5.39,53.87,53.87,0,0,1-3.7-7.21,54.45,54.45,0,0,1-2.47-7.73,50.78,50.78,0,0,1-1.06-6.54c-.12-.94-.13-1.8-.17-2.55s-.06-1.39-.06-1.92A9.36,9.36,0,0,0,576.49,245.31Z" style="fill:#455a64"></path><path d="M569.65,245.36a4.46,4.46,0,0,0-.1,1.13,29.16,29.16,0,0,0,.08,3.06,37.84,37.84,0,0,0,6.81,18.87,26.38,26.38,0,0,0,1.89,2.41c.48.54.76.83.79.8s-1-1.29-2.36-3.44A42.54,42.54,0,0,1,570,249.52C569.75,247,569.75,245.36,569.65,245.36Z" style="fill:#455a64"></path><path d="M584.18,221.33a17.58,17.58,0,0,0-16.7.41,13.9,13.9,0,0,0-6.12,6.47c-2.24,5.29.32,11.87,5.11,15l14.09,3.89c5.79-.47,10.73-5.58,11.41-11.36A15,15,0,0,0,584.18,221.33Z" style="fill:#263238"></path><path d="M575.12,258.69c-.47-1.45-2.1-2.2-3.62-2.39a40.44,40.44,0,0,1-4.55-.36,34.4,34.4,0,0,1,3.53-.69,3.31,3.31,0,0,0,2.64-2.16,3.41,3.41,0,0,0-.35-2.14,8.48,8.48,0,0,0-3.52-3.83,4.6,4.6,0,0,0-4.33-.41,4.18,4.18,0,0,0-2,3,22.48,22.48,0,0,0,.19,5c-.54-1.55-1.36-4.75-3-5.32a5.79,5.79,0,0,0-5.08.9,9.25,9.25,0,0,0-3.13,4.25c-.37.95-.54,2.23.29,2.82a2.6,2.6,0,0,0,1.51.31l6.86,0a14.94,14.94,0,0,0-7.89,3.94,2.7,2.7,0,0,0-1.06,2,2,2,0,0,0,1,1.43,5.08,5.08,0,0,0,1.66.6,31.28,31.28,0,0,0,4.71.69,4.86,4.86,0,0,0,3.64-.8c1-.89,1.2-4.55,1.28-5.88.34,1.66,1.94,5,3.63,5.19a8,8,0,0,0,4.84-1.32,7,7,0,0,0,2.28-1.95A3.36,3.36,0,0,0,575.12,258.69Z" style="fill:#EEAAD7"></path><path d="M557.19,253.91a4.54,4.54,0,0,1,3.16.69,4.4,4.4,0,0,1,2.26,2.31c-.12.09-1-1-2.51-1.85S557.18,254.06,557.19,253.91Z" style="fill:#263238"></path><path d="M568.49,250.78a7.5,7.5,0,0,0-4,5.83c-.06,0-.17-.43-.11-1.13a5.54,5.54,0,0,1,3-4.39C568,250.78,568.47,250.72,568.49,250.78Z" style="fill:#263238"></path><path d="M570.42,260.67a10,10,0,0,0-2.63-2,9.89,9.89,0,0,0-3.29-.56c0-.06.35-.24,1-.32a5,5,0,0,1,2.5.4,5.07,5.07,0,0,1,2,1.57C570.36,260.25,570.48,260.64,570.42,260.67Z" style="fill:#263238"></path><path d="M558.51,263.24c-.06,0,0-.44.22-1.09a7.37,7.37,0,0,1,1.29-2.36,4.54,4.54,0,0,1,2.25-1.5c.69-.19,1.13-.09,1.13,0s-.41.12-1,.37a5.4,5.4,0,0,0-2,1.5,10.93,10.93,0,0,0-1.34,2.16C558.77,262.88,558.58,263.26,558.51,263.24Z" style="fill:#263238"></path><circle cx="563.42" cy="256.59" r="1.99" transform="translate(90.72 656.39) rotate(-64.71)" style="fill:#fff"></circle><path d="M584.28,308.39H537.63a4.07,4.07,0,0,1-4.08-4.07h0a4.08,4.08,0,0,1,4.08-4.08h46.65a4.08,4.08,0,0,1,4.08,4.08h0A4.07,4.07,0,0,1,584.28,308.39Z" style="fill:#455a64"></path><path d="M164,306.12l.24-15.06s51.84-11.75,66.65-14.9c18.29-3.88,84.33-3.88,84.33-3.88L312.07,307Z" style="fill:#ffbf9d"></path><path d="M166.49,289.2c-1.63-1.62-2.74-3.67-4.15-5.49s-3.28-3.47-5.56-3.73a7.94,7.94,0,0,0-5.5,1.81c-1.59,1.18-2.9,2.67-4.38,4a81.46,81.46,0,0,1-14,9.74c-7.62,4.46-12.88,8.28-14.51,17a3.29,3.29,0,0,0,.45,2.95c1.09,1.14,3,.4,4.36-.34,7.62-4.09,12.22-6.74,20.82-7.58,4.38-.43,16.58-1.21,23.3-1.21l10-15.28C175.12,291.65,168.12,290.81,166.49,289.2Z" style="fill:#ffbf9d"></path><path d="M409.7,256.06s15.26,8.26,28.83,5.66c15.75-3,43.24-7.73,60.12-5.1s23.41,6.33,25.87,16.7a21.44,21.44,0,0,1-6.8,21.24c-3.69,3-14.44,10.62-14.44,10.62l-103.53,2.39S398.62,264.49,409.7,256.06Z" style="fill:#ffbf9d"></path><path d="M492.32,273.32s-6.86,5.15-25,6.62-48.86,4.45-48.69,20.45c0,0,0,10.72,13.19,12.13s67.23.29,67.23.29l-1.67-14.18L519,292.3Z" style="fill:#ffbf9d"></path><path d="M497.42,298.63l33.5,4.16,12.68,3.95,12,6.49a1.38,1.38,0,0,1-.7,2.12,2.87,2.87,0,0,1-2.59-.07,21.8,21.8,0,0,1-2.64.66,3.45,3.45,0,0,1-1.32,0l-6.6-1.27s-1.86,1.86-2.56,1.86-13.59-3.29-13.59-3.29l-26.5-.42Z" style="fill:#ffbf9d"></path><path d="M540.86,315.28a.94.94,0,0,0,.25-.6.88.88,0,0,0-.27-.67,2.51,2.51,0,0,0-.89-.54c-1.52-.62-3.64-1.46-6-2.28s-4.56-1.47-6.15-1.92a14.46,14.46,0,0,1-2.56-.79,12.6,12.6,0,0,1,2.65.44,58.32,58.32,0,0,1,6.23,1.78,57.11,57.11,0,0,1,6,2.44,2.64,2.64,0,0,1,1,.68,1.12,1.12,0,0,1,.26.88C541.23,315.24,540.85,315.31,540.86,315.28Z" style="fill:#ff9a6c"></path><path d="M548.55,315.92c0-.06.41,0,1.11-.21a2.28,2.28,0,0,0,1.07-.6,1.58,1.58,0,0,0,.24-1.5l.1.11c-2.36-1.06-5.6-2.55-9.16-4.22l-2.27-1.07.05,0c-3.27-.78-6.13-1.48-8.17-2l-2.4-.64a3.3,3.3,0,0,1-.86-.3,3.31,3.31,0,0,1,.9.12l2.43.49c2.07.44,4.94,1.08,8.21,1.84h.05l2.28,1.06c3.56,1.67,6.78,3.21,9.1,4.35l.07,0,0,.07a1.88,1.88,0,0,1-.37,1.81,2.3,2.3,0,0,1-1.25.61,3.41,3.41,0,0,1-.85,0C548.65,316,548.55,315.94,548.55,315.92Z" style="fill:#ff9a6c"></path><path d="M530.92,302.79h-.24l-.69-.06-2.67-.28-9.77-1.13-14.5-1.74c-2.72-.39-5.59-.51-8.58-.8s-6.06-.58-9.21-1a109.73,109.73,0,0,1-17.55-3.54,75.67,75.67,0,0,1-7.31-2.77c-2.26-.95-4.35-1.83-6.31-2.5a28.43,28.43,0,0,0-9.58-1.8,20.52,20.52,0,0,0-2.66.21,8.74,8.74,0,0,1-.92.13,13.33,13.33,0,0,1,3.57-.54,27.37,27.37,0,0,1,9.71,1.65c2,.66,4.09,1.52,6.35,2.45s4.67,1.92,7.29,2.71a111.64,111.64,0,0,0,17.48,3.49c3.14.41,6.21.73,9.19,1s5.86.41,8.58.82L517.59,301l9.76,1.29,2.65.38.69.11A.79.79,0,0,1,530.92,302.79Z" style="fill:#ff9a6c"></path><path d="M443.62,255.8c-1.47-.66-7.53-1.92-11.25-.53a4,4,0,0,0-2.53,3c-.29,1.46.28,4.14,1.72,4.46,7.32,1.64,13.68-2.38,13.68-2.38C447.35,258.57,445.43,256.6,443.62,255.8Z" style="fill:#263238"></path><path d="M456,258.82c1.72-.3,4.23-.4,5.79-1.2a2.66,2.66,0,0,0,1.38-2c.1-.56-.6-1.4-1-1.83a3.65,3.65,0,0,0-1.4-.91,6.62,6.62,0,0,0-6.3.85,3.23,3.23,0,0,0-1.45,2.4,2.87,2.87,0,0,0,2,2.52" style="fill:#263238"></path><path d="M474.17,256.34a1.82,1.82,0,0,1-2.54-1.06,2.84,2.84,0,0,1,.9-2.86,6.77,6.77,0,0,1,2.82-1.41,20.79,20.79,0,0,1,8.86-.81,7.1,7.1,0,0,1,3.16,1.09,3.32,3.32,0,0,1,1.5,2.85,1.81,1.81,0,0,1-.79,1.41,2.89,2.89,0,0,1-1.6.21,48.9,48.9,0,0,0-12.44.66" style="fill:#263238"></path><path d="M495.51,256.07a8.91,8.91,0,0,1,15-.31,3.14,3.14,0,0,1,.59,1.38,1.35,1.35,0,0,1-.58,1.31,2.14,2.14,0,0,1-1.15.18,64.88,64.88,0,0,1-13.85-2.17" style="fill:#263238"></path><path d="M436.18,254.65a3.87,3.87,0,0,1-.34,4.26,14.1,14.1,0,0,1-4.28,3.87,23.67,23.67,0,0,0,2.55.39c.54,0,2.93-3.42,3.16-5.65a7.89,7.89,0,0,0,0-2.86h-.85" style="fill:#455a64"></path><path d="M436.3,263.17c-.06,0,.19-.49.61-1.2l.73-1.24a11.58,11.58,0,0,0,.79-1.53,10.65,10.65,0,0,0,.42-3.09,4.66,4.66,0,0,1,.07-1.33c.07,0,.22.49.3,1.32a8.24,8.24,0,0,1-.3,3.28,9.12,9.12,0,0,1-.87,1.6c-.3.46-.59.87-.84,1.2C436.71,262.84,436.36,263.22,436.3,263.17Z" style="fill:#455a64"></path><path d="M458.53,252.46c.13,0-.71,2.11.37,3a11.51,11.51,0,0,0,3.51,1.61,2.36,2.36,0,0,1-1.64.89s-2.52-1.44-3-3.23a8.38,8.38,0,0,1-.48-2.22Z" style="fill:#455a64"></path><path d="M458.58,258.41s-.38-.09-.84-.47a5.13,5.13,0,0,1-1.76-4.15c0-.6.18-.94.25-.93a13.12,13.12,0,0,0,.63,3A14.58,14.58,0,0,0,458.58,258.41Z" style="fill:#455a64"></path><path d="M475.6,256.16s4.72-1,5.46-3.1a7.75,7.75,0,0,0,.63-3l1.46.05a9.48,9.48,0,0,1-1.09,3.75,4.12,4.12,0,0,1-2.48,1.9Z" style="fill:#455a64"></path><path d="M484.76,250.25a4.61,4.61,0,0,1-.41,3.23A5,5,0,0,1,483,255.4c-.51.4-1,.33-1,.27s.34-.15.71-.55a6.65,6.65,0,0,0,1.14-1.85C484.57,251.7,484.6,250.24,484.76,250.25Z" style="fill:#455a64"></path><path d="M505.2,252.1s-3,5.16-6.17,5.21l2.59.49s2.83-1.2,4.68-5.34Z" style="fill:#455a64"></path><path d="M419.74,304.79a1.13,1.13,0,0,1-.12-.2,5.93,5.93,0,0,1-.28-.62,10.81,10.81,0,0,1-.65-2.5,10.65,10.65,0,0,1,.17-4.11,12.52,12.52,0,0,1,2.47-4.84,20,20,0,0,1,5.16-4.11c1-.6,2.16-1.08,3.29-1.63s2.37-1,3.62-1.41a82.44,82.44,0,0,1,16.78-4.09c3-.43,6-.67,8.91-.83s5.64-.46,8.27-.74a135.51,135.51,0,0,0,13.89-2.14,43,43,0,0,0,5.11-1.7l3.83-1.41,2.43-.87.64-.21a.63.63,0,0,1,.22-.06s-.06,0-.2.11l-.62.26-2.4,1-3.8,1.49a39.91,39.91,0,0,1-5.13,1.78,123.7,123.7,0,0,1-13.92,2.26c-2.64.3-5.41.59-8.29.77s-5.85.42-8.87.84a84.47,84.47,0,0,0-16.69,4c-1.24.44-2.44.92-3.6,1.38s-2.25,1-3.26,1.59a20,20,0,0,0-5.09,4,12.2,12.2,0,0,0-2.47,4.67,10.73,10.73,0,0,0-.25,4,12.1,12.1,0,0,0,.55,2.5C419.62,304.5,419.76,304.78,419.74,304.79Z" style="fill:#ff9a6c"></path><path d="M514.24,296.43s.49-.18,1.31-.61a13.35,13.35,0,0,0,3.11-2.34,16.76,16.76,0,0,0,3.26-4.76,26.14,26.14,0,0,0,2-6.8,23.37,23.37,0,0,0,0-7.08,21.86,21.86,0,0,0-1.65-5.55,20.16,20.16,0,0,0-1.92-3.42c-.53-.77-.86-1.16-.84-1.18a4.27,4.27,0,0,1,1,1.06,17.92,17.92,0,0,1,2.1,3.38,21.2,21.2,0,0,1,1.78,5.63,22.52,22.52,0,0,1,0,7.24,25,25,0,0,1-2.09,6.92,16.47,16.47,0,0,1-3.43,4.82,12.23,12.23,0,0,1-3.28,2.26A3.49,3.49,0,0,1,514.24,296.43Z" style="fill:#ff9a6c"></path><path d="M413.28,256.93S388.94,245.15,372.34,244c-13.76-.93-57.08,13.72-57.08,13.72l-44.69,14.54s-21.58.86-23.06,2.12c-6.5,5.54-12.5,22-11.92,31.19.14,2.21,0-.1.14,2.21l175,.32Z" style="fill:#EEAAD7"></path><path d="M337.43,254.75a3.31,3.31,0,0,1-.59.43l-1.75,1.16c-.76.5-1.7,1.1-2.82,1.75s-2.36,1.44-3.8,2.19-3,1.64-4.72,2.48-3.57,1.7-5.53,2.6c-4,1.71-8.36,3.42-13.1,4.94s-9.34,2.62-13.56,3.49c-2.12.39-4.12.79-6,1s-3.66.51-5.28.69-3.09.28-4.38.39-2.4.16-3.3.18l-2.1.06a5.07,5.07,0,0,1-.73,0,3.54,3.54,0,0,1,.73-.09l2.08-.16c.91-.06,2-.13,3.3-.27s2.75-.24,4.36-.47,3.37-.42,5.25-.75,3.89-.69,6-1.09c4.2-.89,8.78-2,13.51-3.52s9.12-3.2,13.06-4.88c2-.88,3.83-1.69,5.53-2.55s3.3-1.65,4.73-2.41,2.71-1.49,3.84-2.12,2.08-1.2,2.85-1.67l1.8-1.07A4.61,4.61,0,0,1,337.43,254.75Z" style="fill:#263238"></path><path d="M259,272.47a8.21,8.21,0,0,1-.75,1.29c-.51.8-1.23,2-2.11,3.43a53.25,53.25,0,0,0-5.44,12.06,36.86,36.86,0,0,0-1.28,7.15,39,39,0,0,0,0,6c.15,1.69.32,3.06.48,4a6.94,6.94,0,0,1,.17,1.47,9.11,9.11,0,0,1-.37-1.43,35.08,35.08,0,0,1-.65-4,34.73,34.73,0,0,1,1.13-13.29,48.41,48.41,0,0,1,5.63-12.1c.92-1.44,1.69-2.59,2.26-3.36A8.47,8.47,0,0,1,259,272.47Z" style="fill:#fff"></path><path d="M271,272.47a8.21,8.21,0,0,1-.75,1.29c-.52.8-1.24,2-2.13,3.43a55.69,55.69,0,0,0-5.56,12,36.6,36.6,0,0,0-1.37,7.15c0,.56-.08,1.11-.11,1.64s0,1,0,1.55c0,1,.07,1.92.1,2.77.27,3.4.75,5.46.64,5.48a7.28,7.28,0,0,1-.38-1.44,35.75,35.75,0,0,1-.63-4c-.05-.85-.18-1.79-.16-2.8,0-.51,0-1,0-1.57s.06-1.09.09-1.66a35.49,35.49,0,0,1,1.35-7.26A50.39,50.39,0,0,1,267.81,277c.93-1.44,1.7-2.59,2.27-3.36A8,8,0,0,1,271,272.47Z" style="fill:#fff"></path><path d="M349.63,259.84a12.82,12.82,0,0,1-2.41-4.58,6.45,6.45,0,0,1,1.43,2.17A6.65,6.65,0,0,1,349.63,259.84Z" style="fill:#263238"></path><path d="M352.29,258.72a11.88,11.88,0,0,1-.88-3.41,12.46,12.46,0,0,1-.37-3.51,11.88,11.88,0,0,1,.88,3.41A12,12,0,0,1,352.29,258.72Z" style="fill:#263238"></path><path d="M355.06,257.58a16.41,16.41,0,0,1,.8-5.79,8.49,8.49,0,0,1-.14,2.93A8.17,8.17,0,0,1,355.06,257.58Z" style="fill:#263238"></path><path d="M285.9,306.12a7.22,7.22,0,0,1-2.15-1.64c-1.1-1-1.91-1.91-1.81-2a7.27,7.27,0,0,1,2.16,1.64C285.19,305.11,286,306,285.9,306.12Z" style="fill:#263238"></path><path d="M287.7,305.23a18.9,18.9,0,0,1-3.25-5.25,9.16,9.16,0,0,1,1.85,2.49A9.55,9.55,0,0,1,287.7,305.23Z" style="fill:#263238"></path><path d="M290.17,304.9a4.94,4.94,0,0,1,.31-2.21c.31-1.18.68-2.12.82-2.08a4.93,4.93,0,0,1-.31,2.21C290.67,304,290.31,304.94,290.17,304.9Z" style="fill:#263238"></path><path d="M382.45,301.89c-.12.07-.69-.69-1.28-1.7s-1-1.89-.83-2,.7.7,1.28,1.71S382.58,301.82,382.45,301.89Z" style="fill:#263238"></path><path d="M385,302.16a10.17,10.17,0,0,1,0-4.57,10.17,10.17,0,0,1,0,4.57Z" style="fill:#263238"></path><path d="M389.81,303.06a7.37,7.37,0,0,1,.66-2.67,7.2,7.2,0,0,1,1.16-2.51,14.83,14.83,0,0,1-1.82,5.18Z" style="fill:#263238"></path><g style="opacity:0.30000000000000004"><path d="M280.11,275.24a107.72,107.72,0,0,1,48.22-15.38,111,111,0,0,1-48.31,16"></path></g><path d="M549.54,304.3c0-.14,8.43-.26,18.83-.26s18.83.12,18.83.26-8.43.26-18.83.26S549.54,304.45,549.54,304.3Z" style="fill:#263238"></path></g><g id="freepik--Table--inject-2"><rect x="648.44" y="370.95" width="22.17" height="32.05" style="fill:#e0e0e0"></rect><rect x="625.98" y="383.82" width="21.43" height="19.18" style="fill:#e0e0e0"></rect><rect x="666.3" y="383.82" width="21.43" height="19.18" style="fill:#e0e0e0"></rect><path d="M687.73,403a2,2,0,0,1,0-.37c0-.28,0-.62,0-1.05,0-.95,0-2.26-.06-3.91,0-3.39-.07-8.14-.11-13.85l.22.22-21.43,0,.26-.26h0V389c0,1.68,0,3.33,0,4.94,0,3.22,0,6.27,0,9.09l-.23-.23,15.44.12,4.39.06,1.18,0a2.17,2.17,0,0,1,.42,0,1.59,1.59,0,0,1-.37,0l-1.13,0-4.34.06-15.59.11h-.23V403c0-2.82,0-5.87,0-9.09,0-1.61,0-3.26,0-4.94v-5.13h0l.26-.26,21.43,0H688v.22c-.05,5.76-.09,10.57-.12,14,0,1.63,0,2.92-.05,3.86,0,.41,0,.74,0,1A1.7,1.7,0,0,1,687.73,403Z" style="fill:#263238"></path><path d="M638.87,374.86a2.62,2.62,0,0,0-1.4-1.34,3,3,0,0,0-2.79.63,4.64,4.64,0,0,0-1.75,4.37,3.94,3.94,0,0,0,3.34,3.17l-.73-.19a3,3,0,0,0,3-1.36,5.48,5.48,0,0,0,.77-3.35A4.93,4.93,0,0,0,638.87,374.86Z" style="fill:#EEAAD7"></path><g style="opacity:0.30000000000000004"><path d="M637.9,377.44a1.68,1.68,0,0,0-.88-.84,1.88,1.88,0,0,0-1.73.4,2.9,2.9,0,0,0-1.09,2.72,2.46,2.46,0,0,0,2.08,2l-.46-.12a1.87,1.87,0,0,0,1.86-.85,3.86,3.86,0,0,0,.22-3.28Z" style="fill:#fff"></path></g><path d="M636.09,380.71c.14,0,.26.77.26,1.72s-.12,1.71-.26,1.71-.26-.76-.26-1.71S635.94,380.71,636.09,380.71Z" style="fill:#263238"></path><path d="M662.59,362.08a2.62,2.62,0,0,0-1.39-1.35,3,3,0,0,0-2.8.64,4.61,4.61,0,0,0-1.74,4.36,3.93,3.93,0,0,0,3.33,3.18l-.73-.19a3,3,0,0,0,3-1.37A5.45,5.45,0,0,0,663,364,5.13,5.13,0,0,0,662.59,362.08Z" style="fill:#EEAAD7"></path><g style="opacity:0.30000000000000004"><path d="M661.62,364.66a1.66,1.66,0,0,0-.87-.84,1.9,1.9,0,0,0-1.74.4,2.86,2.86,0,0,0-1.08,2.71,2.44,2.44,0,0,0,2.07,2l-.45-.12a1.88,1.88,0,0,0,1.86-.85,3.34,3.34,0,0,0,.48-2.08A3.09,3.09,0,0,0,661.62,364.66Z" style="fill:#fff"></path></g><path d="M659.81,367.93c.15,0,.26.77.26,1.72s-.11,1.71-.26,1.71-.26-.77-.26-1.71S659.67,367.93,659.81,367.93Z" style="fill:#263238"></path><path d="M680.58,375.44a2.6,2.6,0,0,0-1.4-1.35,3,3,0,0,0-2.79.64,4.64,4.64,0,0,0-1.75,4.36,4,4,0,0,0,3.34,3.18l-.73-.19a3,3,0,0,0,3-1.37,5.45,5.45,0,0,0,.77-3.34A5.13,5.13,0,0,0,680.58,375.44Z" style="fill:#EEAAD7"></path><g style="opacity:0.30000000000000004"><path d="M679.61,378a1.62,1.62,0,0,0-.87-.84,1.9,1.9,0,0,0-1.74.4,2.86,2.86,0,0,0-1.08,2.71,2.44,2.44,0,0,0,2.07,2l-.45-.12a1.88,1.88,0,0,0,1.86-.85,3.35,3.35,0,0,0,.48-2.08A3.09,3.09,0,0,0,679.61,378Z" style="fill:#fff"></path></g><path d="M677.8,381.29c.15,0,.26.77.26,1.71s-.11,1.72-.26,1.72-.26-.77-.26-1.72S677.66,381.29,677.8,381.29Z" style="fill:#263238"></path><path d="M647.45,383.81c0,.15-4.85.26-10.82.26s-10.81-.11-10.81-.26,4.84-.26,10.81-.26S647.45,383.67,647.45,383.81Z" style="fill:#263238"></path><path d="M670.85,371c0,.14-5.07.26-11.32.26s-11.32-.12-11.32-.26,5.07-.26,11.32-.26S670.85,370.88,670.85,371Z" style="fill:#263238"></path><path d="M660.94,373.67s.29.34.1,1.05a1.64,1.64,0,0,1-.81,1,1.7,1.7,0,0,1-1.71-.17,1.68,1.68,0,0,1-.63-.84,3,3,0,0,0-.35-.86c-.15-.16-.37-.1-.49.21a6.81,6.81,0,0,0-.27,1.08,19.79,19.79,0,0,0-.23,5.12,2.42,2.42,0,0,1-.41,1.44,1.55,1.55,0,0,1-1.39.58,2.15,2.15,0,0,1-1.3-.57,4.18,4.18,0,0,1-.79-1,11.92,11.92,0,0,1-1.37-4.07,11.31,11.31,0,0,1,0-2.88,3.18,3.18,0,0,1,.22-1,20.21,20.21,0,0,0,.19,3.85,12.25,12.25,0,0,0,1.43,3.88,2.32,2.32,0,0,0,1.7,1.34,1.08,1.08,0,0,0,1-.39,2,2,0,0,0,.3-1.14,19.21,19.21,0,0,1,.28-5.2,7.68,7.68,0,0,1,.32-1.18.92.92,0,0,1,.5-.51.68.68,0,0,1,.73.2,2.86,2.86,0,0,1,.41,1,1.33,1.33,0,0,0,.46.67,1.37,1.37,0,0,0,1.37.2,1.45,1.45,0,0,0,.75-.8A2.1,2.1,0,0,0,660.94,373.67Z" style="fill:#263238"></path><path d="M619,403h-.4c1.8,2.46,4.64,4.11,9.26,4.35h63.22c5.12,0,7.68-2.17,8.72-4.35Z" style="fill:#263238"></path><rect x="610.25" y="407.35" width="93.8" height="17.7" style="fill:#455a64"></rect><polygon points="620.3 425.05 614.91 464.51 627.32 464.51 638.91 425.05 620.3 425.05" style="fill:#455a64"></polygon><polygon points="692.58 425.05 697.97 464.51 685.57 464.51 673.97 425.05 692.58 425.05" style="fill:#455a64"></polygon><path d="M705.52,425.16c0,.14-21.25.26-47.46.26s-47.46-.12-47.46-.26,21.24-.26,47.46-.26S705.52,425,705.52,425.16Z" style="fill:#263238"></path></g></svg>