<?xml version="1.0" encoding="utf-8"?>
<!-- Generator: Adobe Illustrator 27.5.0, SVG Export Plug-In . SVG Version: 6.00 Build 0)  -->
<svg version="1.1" xmlns="http://www.w3.org/2000/svg" xmlns:xlink="http://www.w3.org/1999/xlink" x="0px" y="0px"
	 viewBox="0 0 750 500" style="enable-background:new 0 0 750 500;" xml:space="preserve">
<g id="OBJECTS">
	<g>
		<defs>
			<rect id="SVGID_1_" width="750" height="500"/>
		</defs>
		<clipPath id="SVGID_00000032625435524570146320000004165921624960127418_">
			<use xlink:href="#SVGID_1_"  style="overflow:visible;"/>
		</clipPath>
		<g style="clip-path:url(#SVGID_00000032625435524570146320000004165921624960127418_);">
			<g>
				<path style="fill:#FCD79D;" d="M-78.428,206.862c12.405,4.153,23.915,10.997,33.85,19.745c6.33,5.574,9.708,13.27,15.156,19.555
					c5.178,5.974,13.111,9.491,19.531,14.061c20.042,14.264,36.518,32.547,38.032,58.693c0.564,9.739,0.934,20.08,6.172,28.174
					c4.07,6.289,10.538,10.339,16.337,14.93c11.707,9.266,15.089,24.036,20.487,37.672c5.827,14.718,15.343,30.286,30.444,32.876
					c35.812,6.141,56.361-44.115,61.333-73.282c5.257-30.84-4.565-62.459-13.492-91.531c-9.47-30.839-12.365-63.83-10.792-96.235
					c1.877-38.651,19.359-73.085,57.934-81.762c20.297-4.566,41.379-2.008,61.973,0.771c20.594,2.778,41.563,5.754,62.011,1.989
					c42.809-7.882,77.437-40.345,119.495-51.825c22.295-6.086,48.204-7.182,69.957,1.694c30.131,12.294,36.457,41.655,29.474,72.282
					c-7.05,30.918-15.933,61.657,6.544,88.246c26.083,30.854,69.768,44.461,106.117,56.473
					c16.304,5.388,38.009,13.527,42.921,32.841c2.858,11.237,0.567,23.166,3.816,34.31c5.938,20.366,28.446,30.822,45.19,39.481
					c35.566,18.392,69.249,40.719,100.298,66.482c7.581,6.291,15.39,13.377,18.069,23.072c4.784,17.307-8.479,34.076-21.685,45.721
					c-31.266,27.57-68.102,47.881-106.808,61.915c-61.769,22.397-127.721,28.949-193.035,32.73
					c-220.707,12.777-441.936-4.175-662.169-23.905"/>
			</g>
			<g>
				<g>
					<path style="fill:#FFECC5;" d="M-29.025,280.902c23.589,5.752,38.901,26.454,41.814,49.855
						c1.259,10.117,1.656,21.356,8.186,29.746c3.339,4.29,7.958,7.224,12.474,10.124c5.218,3.352,9.973,7.07,14.312,11.512
						c8.173,8.368,15.001,18.088,24.214,25.409c8.861,7.041,19.713,11.778,30.781,14.004c21.957,4.416,46.709-1.299,60.805-19.641
						c12.457-16.209,15.68-37.783,16.543-57.66c1.195-27.541-1.53-55.191-4.203-82.57c-2.391-24.488-6.051-49.47-4.486-74.124
						c1.22-19.218,6.545-39.049,21.338-52.345c20.289-18.237,48.64-17.791,74.242-18.119c25.381-0.325,50.422-5.617,74.094-14.68
						c24.367-9.33,45.939-23.203,68.595-35.866c21.129-11.809,44.916-21.435,69.491-16.173c10.891,2.332,21.101,7.631,28.427,16.144
						c7.387,8.585,11.222,19.413,13.24,30.416c4.131,22.513,1.702,45.779,7.314,68.087c5.301,21.074,16.601,40.286,31.21,56.252
						c7.39,8.077,15.647,15.346,24.517,21.758c9.658,6.982,20.145,12.451,30.559,18.186c11.092,6.108,23.252,12.974,30.409,23.772
						c6.387,9.635,8.635,21.209,11.13,32.301c2.341,10.403,5.442,20.373,11.588,29.217c5.948,8.56,13.833,15.04,22.274,21.007
						c19.65,13.89,38.715,28.85,54.674,46.969c8.332,9.46,15.444,19.713,22.052,30.427c5.472,8.872,10.898,18.028,13.637,28.169
						c3.01,11.146,2.104,22.663-0.391,33.815c-0.295,1.32,1.705,1.884,2.034,0.561c2.575-10.341,3.71-20.892,1.582-31.423
						c-2-9.896-6.697-18.946-11.817-27.553c-12.238-20.573-26.681-38.961-44.559-54.944c-8.857-7.919-18.234-15.236-27.825-22.24
						c-9.41-6.872-19.292-13.11-26.748-22.232c-7.314-8.948-11.231-19.43-13.785-30.577c-2.456-10.72-4.48-21.817-9.883-31.539
						c-11.714-21.079-38.081-28.985-57.211-41.453c-19.481-12.697-36.501-29.609-48.276-49.735
						c-5.836-9.974-10.33-20.723-13.094-31.951c-2.819-11.451-3.544-23.236-4.175-34.971c-1.134-21.072-1.619-44.563-15.242-61.959
						c-12.859-16.42-34.538-21.957-54.583-19.764c-24.797,2.713-46.486,16.683-67.432,29.149
						c-22.977,13.674-47.078,25.303-73.04,32.08c-12.902,3.368-26.111,5.544-39.425,6.339c-13.58,0.811-27.205-0.016-40.757,1.445
						c-21.122,2.277-41.915,10.549-53.931,28.894c-10.259,15.661-12.645,35.163-12.621,53.485
						c0.034,26.868,4.061,53.764,6.448,80.488c2.322,25.992,4.563,52.691,1.535,78.722c-2.637,22.675-10.854,46.775-32.82,57.356
						c-23.836,11.482-54.828,5.724-74.201-11.83c-8.696-7.879-15.424-17.636-24.024-25.611
						c-8.861-8.217-21.852-12.485-26.876-24.192c-4.647-10.828-3.434-23.14-6.796-34.333c-2.908-9.678-8.467-18.484-15.852-25.37
						c-7.117-6.636-15.794-11.322-25.301-13.422C-29.244,280.23-29.408,280.809-29.025,280.902L-29.025,280.902z"/>
				</g>
			</g>
		</g>
		<g style="clip-path:url(#SVGID_00000032625435524570146320000004165921624960127418_);">
			<path style="fill:#C66E42;" d="M628.176,236.031c0-31.984,0-28.341,0-46.535c0-20.634-16.358-38.8-23.315-41.682
				c0,0-70.68,58.034-70.788,57.836c-0.319-0.579,3.314,40.251,3.314,40.251l-5.232,35.364l-18.546,30.233
				c0,0,102.388,59.193,110.544,46.784c-22.246-45.971-22.375-55.028-22.27-71.831l2.207-22.107
				C611.638,262.782,628.176,256.972,628.176,236.031z"/>
			<g>
				<path style="fill:#B2482B;" d="M617.191,240.653c1.117-0.075,2.841-0.164,3.957-0.521c0.619-0.198,1.307-0.334,1.908-0.086
					c0.505,0.209,0.866,0.655,1.292,0.998c0.06,0.048,0.125,0.096,0.201,0.102c0.132,0.01,0.235-0.104,0.323-0.203
					c0.234-0.264,0.51-0.492,0.814-0.671c0.175-0.103,0.371-0.192,0.574-0.172c0.363,0.036,0.596,0.399,0.733,0.738
					c0.948,2.336-0.186,5.175-2.789,5.653C620.977,247.083,617.819,244.311,617.191,240.653"/>
			</g>
			<g>
				<path style="fill:#E57042;" d="M614.842,207.822c-0.957-1.501-1.907-3.217-3.493-4.139c-1.478-0.86-3.331-0.967-4.933-0.405
					c-2.539,0.892-4.438,3.34-6.014,5.398c0,0,5.221,3.294,8.934,2.091C613.049,209.563,614.842,207.822,614.842,207.822z"/>
			</g>
			<g>
				<g>
					<path d="M614.006,150.577c1.453,0.751,1.46,2.474,2.516,3.584c0.622,0.654,1.56,0.868,2.416,1.155
						c1.147,0.385,2.274,0.99,2.966,1.982c0.692,0.993,0.833,2.437,0.082,3.385c-1.056,1.332-3.402,1.297-4.118,2.839
						c-0.218,0.469-0.233,1.005-0.378,1.501c-0.449,1.538-2.044,2.046-3.369,2.59c-1.89,0.776-4.17,0.426-6.027-0.259
						c-0.985-0.364-2.307-0.749-2.906,0.113c-0.473,0.681-0.063,1.595,0.035,2.418c0.29,2.446-2.422,4.28-4.881,4.425
						c-2.459,0.145-4.876-0.745-7.34-0.735c-0.221,0.001-0.473,0.025-0.606,0.202c-0.157,0.21-0.057,0.503,0.009,0.757
						c1.69,6.503-12.561,2.343-15.194,2.482c-3.897,0.206-8.191,2.651-8.463,6.545c-0.107,1.533,0.423,3.135-0.109,4.576
						c-0.941,2.551-4.711,3.331-5.302,5.985c-0.394,1.766,0.844,3.432,1.911,4.893c1.067,1.462,2.061,3.397,1.204,4.991
						c-1.547,2.877-7.153,1.308-8.296,4.368c-0.263,0.706-0.193,1.524-0.573,2.174c-0.299,0.512-0.836,0.838-1.378,1.077
						c-4.128,1.818-9.284-0.328-13.278,1.769c-1.036,0.544-2.001,1.517-1.959,2.686c0.086,2.422,3.723,2.685,5.299,4.527
						c1.632,1.907,0.796,4.847-0.316,6.758c-1.238,2.128-0.857,3.873,0.992,5.724c1.386,1.387,3.153,2.342,4.569,3.699
						c1.416,1.357,2.488,3.376,1.901,5.247c-0.247,0.785-0.763,1.467-0.978,2.261c-0.444,1.646,0.521,3.379,1.802,4.504
						c1.281,1.125,2.867,1.841,4.24,2.852c1.373,1.011,2.592,2.489,2.582,4.194c-0.009,1.501-0.982,2.85-2.166,3.772
						c-1.761,1.372-4.064,2.015-6.286,1.801c-2.097-0.202-4.071-1.122-6.163-1.367c-2.093-0.245-4.58,0.475-5.328,2.446
						c-0.297,0.784-0.289,1.694-0.771,2.38c-0.66,0.939-1.966,1.108-3.114,1.13c-2.236,0.044-4.614-0.191-6.403-1.534
						c-0.699-0.525-1.282-1.201-2.02-1.669c-1.807-1.144-4.353-0.76-5.931,0.684c-0.541,0.496-0.999,1.108-1.655,1.437
						c-0.662,0.331-1.437,0.327-2.175,0.28c-1.318-0.083-2.662-0.288-3.819-0.925c-1.157-0.637-2.105-1.776-2.216-3.092
						c-0.152-1.793,1.199-3.333,2.514-4.562c1.316-1.228,2.785-2.563,2.988-4.352c0.345-3.04-2.923-5.086-3.759-7.816
						c-2.54-8.299-8.992-14.847-11.663-23.124c-1.263-3.914-1.662-8.045-2.053-12.139c-0.6-6.27-1.2-12.559-1.011-18.854
						c0.101-3.355,0.433-6.737,1.49-9.923c1.346-4.058,3.809-7.636,6.241-11.152c2.574-3.722,5.148-7.444,7.829-11.09
						c2.453-3.337,5.026-6.643,8.249-9.245c4.837-3.907,10.877-6.017,16.922-7.472c12.259-2.95,25.092-3.406,37.547-1.484
						c6.392,0.987,12.689,2.6,18.762,4.825c2.95,1.081,5.89,2.275,8.7,3.685c1.367,0.686,2.261,1.205,3.722,1.437
						C611.05,150.174,612.51,149.804,614.006,150.577z"/>
				</g>
				<g>
					<g>
						<path d="M514.876,262.437c-0.216,1.832,1.31,3.537,2.872,4.281c1.737,0.828,4.078,1.156,5.914,0.466
							c1.864-0.701,3.025-2.402,4.753-3.319c0.914-0.485,1.934-0.742,2.948-0.91c0.488-0.081,0.979-0.132,1.47-0.182
							c0.515-0.053,1.059-0.039,1.514-0.309c0.437-0.259,0.287-0.828-0.13-0.996c-0.79-0.317-1.984-0.003-2.804,0.118
							c-0.88,0.13-1.756,0.317-2.589,0.636c-1.719,0.659-2.858,1.899-4.294,2.978c-1.547,1.161-3.519,1.296-5.353,0.803
							c-1.926-0.518-3.171-1.785-3.853-3.626C515.232,262.127,514.906,262.181,514.876,262.437L514.876,262.437z"/>
					</g>
				</g>
				<g>
					<g>
						<path d="M538.541,263.614c4.388-3.553,10.417-0.363,15.244,0.12c2.22,0.222,4.942,0.002,6.466-1.861
							c1.538-1.881,0.996-4.677-0.362-6.494c-1.48-1.98-3.918-3.283-6.404-3.227c-0.595,0.014-0.781,0.969-0.146,1.082
							c1.965,0.35,3.934,1.157,5.244,2.716c1.263,1.504,1.914,4.19,0.092,5.545c-1.884,1.401-4.669,1.031-6.811,0.628
							c-2.459-0.462-4.886-1.18-7.407-1.203c-2.289-0.021-4.712,0.575-6.346,2.263C537.832,263.471,538.242,263.856,538.541,263.614
							L538.541,263.614z"/>
					</g>
				</g>
				<g>
					<g>
						<path d="M558.691,206.204c1.32-0.583,2.767-0.277,4.124-0.003c1.195,0.241,2.407,0.434,3.625,0.266
							c2.228-0.307,4.409-2.018,4.249-4.466c-0.145-2.214-2.182-3.291-3.858-4.322c-1.961-1.206-3.317-3.115-3.316-5.488
							c0.001-2.535,1.729-4.647,3.944-5.708c0.648-0.311,0.192-1.368-0.488-1.157c-4.569,1.419-6.238,7.173-3.625,11.037
							c0.638,0.943,1.465,1.682,2.426,2.283c0.849,0.531,1.788,0.961,2.558,1.609c0.807,0.68,1.278,1.608,0.98,2.671
							c-0.345,1.231-1.422,2.021-2.615,2.335c-2.772,0.729-5.684-1.06-8.359,0.334C557.928,205.809,558.287,206.382,558.691,206.204
							L558.691,206.204z"/>
					</g>
				</g>
				<g>
					<g>
						<path d="M576.742,175.084c2.486,1.263,4.965,2.545,7.461,3.789c2.185,1.09,4.624,2.648,7.158,2.539
							c2.099-0.09,3.849-1.273,4.404-3.333c0.132-0.489,0.211-1.053,0.523-1.468c0.306-0.407,0.836-0.57,1.323-0.604
							c1.143-0.08,2.241,0.461,3.35,0.658c1.596,0.283,3.384,0.307,4.875-0.409c0.7-0.336,1.295-0.892,1.615-1.605
							c0.443-0.986,0.342-2.124,0.902-3.07c0.753-1.272,2.263-1.325,3.586-1.297c1.468,0.031,3.039,0.23,4.451-0.287
							c2.001-0.732,2.933-2.79,2.697-4.836c-0.297-2.571-2.213-4.487-4.161-5.997c-0.602-0.466-1.427,0.283-0.862,0.862
							c1.401,1.435,3.186,2.92,3.582,4.991c0.305,1.592-0.313,3.302-1.971,3.768c-2.556,0.718-5.775-0.743-7.907,1.362
							c-0.576,0.568-0.946,1.336-1.152,2.111c-0.231,0.871-0.18,1.883-0.954,2.488c-1.093,0.854-2.85,0.802-4.146,0.602
							c-1.911-0.294-4.05-1.459-5.829-0.094c-0.827,0.635-1.03,1.591-1.293,2.543c-0.26,0.944-0.84,1.609-1.762,1.968
							c-2.455,0.956-5.209-0.722-7.387-1.706c-2.704-1.222-5.437-2.385-8.156-3.574
							C576.693,174.313,576.338,174.879,576.742,175.084L576.742,175.084z"/>
					</g>
				</g>
			</g>
			<g>
				<path d="M599.288,208.503c0.02,0.917,0.854,1.382,1.565,1.797c0.659,0.385,1.368,0.681,2.09,0.928
					c1.533,0.524,3.175,0.792,4.794,0.815c1.553,0.023,3.169-0.172,4.622-0.74c1.311-0.513,3.836-1.649,3.453-3.39
					c-0.103-0.468-0.545-0.697-0.976-0.743c-0.769-0.081-1.222,0.551-1.78,0.957c-0.508,0.369-1.085,0.667-1.677,0.874
					c-1.248,0.436-2.544,0.591-3.862,0.564c-1.302-0.027-2.582-0.249-3.821-0.65c-0.597-0.193-1.186-0.426-1.754-0.692
					c-0.629-0.294-1.293-0.812-2.018-0.553C599.568,207.796,599.279,208.104,599.288,208.503L599.288,208.503z"/>
			</g>
			<g>
				<path d="M614.401,211.624c-0.01-0.004-0.089-0.037-0.039-0.015c-0.027-0.012-0.054-0.025-0.081-0.038
					c-0.054-0.026-0.107-0.055-0.16-0.085c-0.053-0.031-0.105-0.064-0.156-0.099c-0.021-0.015-0.042-0.03-0.064-0.045
					c-0.013-0.009-0.025-0.019-0.038-0.028c0.052,0.041,0.064,0.05,0.037,0.028c-0.072-0.062-0.145-0.121-0.222-0.176
					c-0.022-0.015-0.043-0.029-0.065-0.045c-0.017-0.012-0.034-0.025-0.051-0.037c0.02,0.015,0.04,0.031,0.059,0.046
					c-0.084-0.09-0.191-0.162-0.277-0.251c-0.044-0.045-0.086-0.092-0.126-0.14c-0.016-0.019-0.076-0.097-0.012-0.012
					c0.067,0.088-0.004-0.007-0.018-0.026c-0.07-0.097-0.14-0.195-0.206-0.295c-0.094-0.142-0.165-0.289-0.278-0.419
					c-0.031-0.035-0.159-0.194-0.044-0.045c-0.089-0.115-0.155-0.176-0.272-0.264c-0.267-0.201-0.639,0.022-0.725,0.295
					c-0.118,0.372,0.029,0.775,0.236,1.085c0.2,0.299,0.449,0.526,0.743,0.731c0.235,0.165,0.514,0.321,0.797,0.374
					c0.292,0.055,0.586,0.076,0.882,0.04c0.145-0.018,0.27-0.098,0.289-0.255C614.63,211.793,614.541,211.679,614.401,211.624
					L614.401,211.624z"/>
			</g>
			<g>
				<path d="M616.665,209.918c-0.01,0.001-0.096,0.009-0.041,0.005c-0.03,0.002-0.06,0.004-0.089,0.005
					c-0.06,0.002-0.121,0.002-0.181-0.001c-0.061-0.003-0.123-0.008-0.184-0.015c-0.026-0.003-0.052-0.006-0.077-0.01
					c-0.016-0.002-0.031-0.005-0.046-0.007c0.065,0.012,0.08,0.014,0.046,0.007c-0.092-0.021-0.185-0.039-0.279-0.051
					c-0.026-0.003-0.052-0.006-0.078-0.009c-0.021-0.003-0.042-0.006-0.063-0.009c0.025,0.004,0.049,0.009,0.074,0.013
					c-0.116-0.04-0.244-0.053-0.362-0.092c-0.06-0.02-0.119-0.042-0.177-0.065c-0.022-0.009-0.113-0.049-0.016-0.005
					c0.1,0.046-0.007-0.004-0.028-0.014c-0.107-0.053-0.215-0.107-0.32-0.164c-0.149-0.082-0.281-0.179-0.442-0.241
					c-0.044-0.017-0.232-0.096-0.06-0.019c-0.133-0.06-0.22-0.083-0.364-0.107c-0.33-0.053-0.554,0.318-0.502,0.6
					c0.07,0.384,0.388,0.671,0.716,0.848c0.317,0.171,0.643,0.254,0.999,0.299c0.285,0.036,0.604,0.044,0.879-0.042
					c0.284-0.088,0.553-0.208,0.798-0.377c0.12-0.083,0.193-0.213,0.136-0.361C616.946,209.96,616.814,209.9,616.665,209.918
					L616.665,209.918z"/>
			</g>
			<g>
				<path d="M617.385,207.536c-0.009,0.003-0.081,0.024-0.035,0.011c-0.025,0.007-0.051,0.013-0.076,0.019
					c-0.052,0.012-0.104,0.021-0.157,0.029c-0.053,0.008-0.107,0.014-0.161,0.018c-0.023,0.002-0.045,0.003-0.068,0.004
					c-0.014,0.001-0.028,0.001-0.041,0.001c0.058-0.001,0.072-0.001,0.041-0.001c-0.083-0.003-0.167-0.003-0.25,0.002
					c-0.023,0.001-0.046,0.003-0.069,0.005c-0.018,0.001-0.037,0.002-0.056,0.002c0.022,0,0.044-0.001,0.066-0.001
					c-0.107-0.015-0.22-0.006-0.328-0.02c-0.055-0.007-0.11-0.016-0.164-0.027c-0.021-0.004-0.106-0.024-0.015-0.002
					c0.094,0.023-0.007-0.002-0.026-0.008c-0.101-0.028-0.204-0.057-0.304-0.089c-0.143-0.046-0.272-0.108-0.421-0.135
					c-0.04-0.007-0.216-0.045-0.055-0.006c-0.125-0.03-0.204-0.036-0.332-0.032c-0.294,0.009-0.426,0.367-0.336,0.601
					c0.124,0.32,0.446,0.516,0.759,0.615c0.302,0.096,0.598,0.114,0.912,0.094c0.252-0.016,0.529-0.062,0.753-0.181
					c0.231-0.123,0.444-0.27,0.627-0.458c0.09-0.092,0.132-0.216,0.058-0.334C617.635,207.526,617.512,207.496,617.385,207.536
					L617.385,207.536z"/>
			</g>
			<g>
				<g>
					<path d="M609.589,207.54c0.827-0.1,1.639-0.288,2.418-0.587c0.699-0.268,1.614-0.642,1.832-1.44
						c0.103-0.377-0.37-0.642-0.646-0.376c-0.223,0.215-0.433,0.447-0.692,0.621c-0.285,0.192-0.589,0.362-0.894,0.519
						c-0.662,0.34-1.362,0.592-2.085,0.768C609.254,207.111,609.302,207.575,609.589,207.54L609.589,207.54z"/>
				</g>
			</g>
			<circle style="fill:#C45B2C;" cx="595.971" cy="229.681" r="11.477"/>
			<path style="fill:#C66E42;" d="M626.617,212.118c1.088,1.526,2.147,3.08,3.181,4.658c1.147,1.751,2.315,3.542,3.339,5.397
				c0.878,1.589,0.799,3.475-0.61,4.613c-1.668,1.347-4.07,0.658-5.91,0.294"/>
			<g>
				<g>
					<path style="fill:#77321D;" d="M616.602,239.672c0.127,2.138,2.323,3.433,4.192,3.908c1.067,0.271,2.185,0.375,3.283,0.348
						c0.538-0.013,1.073-0.064,1.605-0.14c0.536-0.077,1.046-0.134,1.309-0.606c0.116-0.207,0.048-0.469-0.156-0.593
						c-0.429-0.262-0.881-0.099-1.377-0.008c-0.419,0.076-0.842,0.125-1.267,0.152c-0.96,0.062-1.935,0.029-2.88-0.157
						c-0.916-0.18-1.82-0.462-2.605-0.977c-0.772-0.505-1.345-1.236-1.843-1.998C616.792,239.492,616.593,239.525,616.602,239.672
						L616.602,239.672z"/>
				</g>
			</g>
			<path d="M569.213,248.541c0,0,5.786,23.183,34.123,23.34l0.752-7.536C581.709,264.385,569.213,248.541,569.213,248.541z"/>
			<g>
				<g>
					<path d="M594.125,198.137c0.73,0.278,1.647-0.832,2.171-1.224c0.741-0.554,1.517-1.059,2.313-1.53
						c1.625-0.962,3.355-1.729,5.158-2.288c1.768-0.548,3.594-0.906,5.441-1.039c1.888-0.136,3.75,0.072,5.635,0.085
						c0.682,0.004,0.784-0.961,0.157-1.163c-1.933-0.621-4.081-0.58-6.089-0.411c-2.045,0.172-4.071,0.576-6.019,1.221
						c-1.939,0.643-3.828,1.505-5.554,2.599c-0.835,0.529-1.633,1.117-2.398,1.742C594.539,196.456,592.994,197.706,594.125,198.137
						L594.125,198.137z"/>
				</g>
			</g>
			<path style="fill:#564A30;" d="M614.842,323.698c-52.893-18.405-52.083-38.63-94.346-40.045
				c-0.986,2.691-8.782,18.246-9.863,20.819c-4.94,11.765-40.676,61.519-35.589,114.235c6.639,68.809,12.791,166.022,12.791,166.022
				h173.037c0,0-7.733-120.784-10.964-162.108c-1.704-21.801-18.381-44.554-30.374-77.047
				C617.11,339.003,614.842,323.698,614.842,323.698z"/>
			<g style="opacity:0.55;">
				<defs>
					<path id="SVGID_00000030466662816805519530000002176235223108205961_" style="opacity:0.55;" d="M614.842,323.698
						c-52.893-18.405-52.083-38.63-94.346-40.045c-0.986,2.691-8.782,18.246-9.863,20.819
						c-4.94,11.765-40.676,61.519-35.589,114.235c6.639,68.809,12.791,166.022,12.791,166.022h173.037
						c0,0-7.733-120.784-10.964-162.108c-1.704-21.801-18.381-44.554-30.374-77.047C617.11,339.003,614.842,323.698,614.842,323.698
						z"/>
				</defs>
				<clipPath id="SVGID_00000010998070947247827860000002257198679416210594_">
					<use xlink:href="#SVGID_00000030466662816805519530000002176235223108205961_"  style="overflow:visible;"/>
				</clipPath>
				<g style="clip-path:url(#SVGID_00000010998070947247827860000002257198679416210594_);">
					<g>
						<g>
							<path style="fill:#635539;" d="M641.865,392.049c0.091-3.696-1.877-7.799-3.972-10.325c-2.487-2.997-5.863-5.153-9.432-6.711
								c2.478,0.547,4.984,1.098,7.522,1.05c2.537-0.048,5.148-0.752,7.043-2.44c5.358-4.773,4.082-14.715-2.38-17.891
								c-3.273-1.609-7.298-1.14-10.525,0.559c-3.227,1.699-5.753,4.489-7.839,7.48c2.435-4.639,3.909-7.661,4.72-11.922
								c0.717-3.767-0.173-8.164-1.808-11.597c-1.361-2.856-4.628-5.592-7.867-5.91c-5.661-0.556-9.412,5.593-10.99,10.163
								c-1.426,4.133-1.955,8.573-1.539,12.925c-3.33-3.659-7.172-7.053-11.84-8.693c-4.668-1.64-10.307-1.216-13.985,2.093
								c-1.913,1.722-2.691,4.105-2.095,6.627c2.024,8.565,12.052,13.277,19.71,15.339c-2.218-0.598-5.711,0.528-7.799,1.249
								c-2.567,0.886-4.98,2.223-7.078,3.948c-6.033,4.961-4.094,14.65,2.564,18.025c3.863,1.958,8.643,1.265,12.486-0.731
								c3.843-1.997,6.944-5.141,9.975-8.234c-1.63,4.871-1.869,10.199-0.681,15.196c0.761,3.203,2.515,6.594,5.385,8.382
								c3.602,2.243,8.248,0.726,10.782-2.45c2.163-2.712,2.864-6.378,2.524-9.831c-0.34-3.452-1.631-6.739-3.106-9.879
								c1.918,3.533,4.77,6.553,8.187,8.671c3.079,1.908,7.159,2.892,10.001,0.015C641.227,395.743,641.818,393.95,641.865,392.049z
								"/>
						</g>
						<g>
							<path style="fill:#6B5B3F;" d="M615.243,379.823c0.38,0.511,0.839,0.963,1.357,1.334c0.592,0.426,1.44,0.734,2.015,0.285
								c0.284-0.222,0.426-0.582,0.495-0.936c0.286-1.458-0.432-2.905-1.129-4.218c0.273,0.418,0.557,0.847,0.972,1.124
								c0.415,0.277,1,0.363,1.404,0.07c0.279-0.202,0.424-0.544,0.483-0.882c0.177-1.001-0.347-2.086-1.24-2.57
								c0.634-0.074,1.251,0.194,1.873,0.336c0.623,0.143,1.377,0.116,1.77-0.388c0.303-0.388,0.284-0.959,0.059-1.397
								c-0.225-0.438-0.62-0.763-1.033-1.03c-0.598-0.387-1.258-0.679-1.947-0.862c0.53,0.008,1.069,0.016,1.578-0.134
								c0.508-0.149,0.99-0.481,1.188-0.973c0.259-0.645-0.047-1.418-0.581-1.862c-0.535-0.444-1.248-0.613-1.942-0.664
								c0.674-0.26,1.269-0.723,1.688-1.313c0.089-0.126,0.173-0.264,0.182-0.419c0.01-0.18-0.084-0.35-0.193-0.494
								c-0.82-1.088-2.691-1.121-3.549-0.063c0.136-1.04,0.1-2.133-0.601-2.969c-0.576-0.685-1.49-0.879-2.277-0.38
								c-0.714,0.452-1.105,1.272-1.353,2.081c0.218-1.332-0.522-2.765-1.735-3.357c-0.248-0.121-0.523-0.211-0.797-0.176
								c-0.355,0.046-0.651,0.294-0.88,0.569c-0.781,0.938-0.976,2.327-0.482,3.444c-0.357-0.916-0.637-1.892-1.268-2.645
								c-0.631-0.753-1.755-1.214-2.617-0.742c-0.638,0.349-0.957,1.128-0.914,1.854c0.044,0.726,0.396,1.4,0.831,1.983
								c-0.613-0.396-1.253-0.803-1.976-0.898c-0.724-0.095-1.556,0.219-1.82,0.899c-0.265,0.683,0.114,1.691,0.567,2.217
								c0.395,0.458,0.854,0.864,1.193,1.364c-0.593-0.612-1.409-1.054-2.26-1.024c-0.851,0.03-1.702,0.619-1.869,1.454
								c-0.168,0.841,0.366,1.685,1.052,2.2c0.686,0.514,1.516,0.792,2.281,1.181c-0.463,0.008-0.927,0.016-1.39,0.024
								c-0.413,0.007-0.84,0.017-1.218,0.185c-0.378,0.168-0.698,0.536-0.678,0.949c0.018,0.373,0.297,0.678,0.589,0.911
								c1.097,0.874,2.626,1.177,3.973,0.787c-0.951,0.818-1.964,1.745-2.15,2.985c-0.031,0.203-0.036,0.417,0.037,0.609
								c0.087,0.228,0.276,0.401,0.476,0.541c0.72,0.503,1.672,0.658,2.514,0.408c0.842-0.25,1.556-0.898,1.886-1.712
								c-0.539,0.927-0.836,2.035-0.616,3.084c0.22,1.05,1.031,2.005,2.085,2.205c0.204,0.038,0.42,0.048,0.613-0.027
								c0.192-0.074,0.344-0.225,0.479-0.382c0.744-0.862,1.138-2.018,1.074-3.155c0.269,1.231,0.552,2.496,1.265,3.535
								c0.229,0.333,0.557,0.665,0.961,0.647c0.225-0.01,0.431-0.13,0.61-0.268C615.255,382.396,615.665,380.984,615.243,379.823z"
								/>
						</g>
					</g>
					<g>
						<g>
							<path style="fill:#635539;" d="M562.792,320.754c-2.488-2.734-6.746-4.342-10.005-4.719
								c-3.868-0.448-7.799,0.326-11.455,1.666c2.17-1.317,4.362-2.65,6.163-4.438c1.801-1.788,3.202-4.101,3.405-6.631
								c0.576-7.153-7.217-13.458-14.083-11.289c-3.478,1.098-6.063,4.218-7.222,7.676c-1.159,3.458-1.057,7.22-0.498,10.824
								c-1.445-5.036-2.468-8.239-4.825-11.879c-2.085-3.219-5.766-5.783-9.32-7.134c-2.957-1.124-7.209-0.845-9.771,1.163
								c-4.477,3.509-2.94,10.547-0.922,14.94c1.825,3.973,4.51,7.548,7.818,10.407c-4.935-0.345-10.058-0.143-14.565,1.897
								c-4.507,2.04-8.291,6.243-8.663,11.176c-0.194,2.567,0.891,4.827,3.064,6.238c7.381,4.793,17.886,1.27,24.847-2.53
								c-2.016,1.101-3.764,4.328-4.775,6.291c-1.243,2.414-2.064,5.048-2.389,7.745c-0.933,7.754,7.163,13.419,14.308,11.259
								c4.145-1.253,7.122-5.057,8.521-9.156c1.398-4.099,1.467-8.514,1.522-12.845c2.187,4.647,5.696,8.664,10.007,11.456
								c2.764,1.79,6.375,3.029,9.684,2.338c4.154-0.868,6.465-5.174,6.101-9.221c-0.31-3.455-2.337-6.59-4.968-8.851
								c-2.631-2.261-5.835-3.745-9.071-4.995c3.828,1.229,7.976,1.441,11.909,0.611c3.544-0.749,7.173-2.856,7.24-6.9
								C564.884,323.865,564.072,322.16,562.792,320.754z"/>
						</g>
						<g>
							<path style="fill:#6B5B3F;" d="M535.1,330.31c0.628,0.107,1.272,0.116,1.903,0.027c0.722-0.101,1.548-0.465,1.654-1.186
								c0.052-0.357-0.094-0.715-0.289-1.019c-0.801-1.252-2.32-1.802-3.731-2.269c0.486,0.114,0.988,0.228,1.479,0.141
								c0.491-0.087,0.973-0.429,1.063-0.92c0.062-0.338-0.069-0.686-0.26-0.972c-0.564-0.845-1.692-1.268-2.672-1.001
								c0.407-0.492,1.038-0.724,1.587-1.051c0.549-0.327,1.076-0.868,1.012-1.503c-0.049-0.49-0.458-0.889-0.922-1.051
								c-0.465-0.161-0.976-0.124-1.459-0.031c-0.7,0.134-1.378,0.379-2.003,0.722c0.389-0.36,0.784-0.728,1.048-1.187
								c0.264-0.459,0.383-1.032,0.187-1.524c-0.258-0.646-1.013-0.993-1.707-0.944c-0.694,0.048-1.326,0.42-1.863,0.862
								c0.308-0.654,0.418-1.4,0.313-2.115c-0.022-0.153-0.058-0.311-0.158-0.428c-0.117-0.138-0.303-0.195-0.481-0.224
								c-1.345-0.22-2.72,1.049-2.609,2.406c-0.62-0.845-1.401-1.611-2.486-1.73c-0.889-0.098-1.684,0.394-1.909,1.298
								c-0.204,0.82,0.08,1.684,0.46,2.439c-0.763-1.114-2.288-1.638-3.574-1.228c-0.263,0.084-0.524,0.209-0.697,0.423
								c-0.225,0.278-0.268,0.662-0.243,1.019c0.083,1.218,0.902,2.357,2.031,2.823c-0.891-0.415-1.768-0.927-2.744-1.036
								c-0.977-0.108-2.107,0.335-2.404,1.272c-0.22,0.693,0.087,1.477,0.62,1.971c0.533,0.494,1.254,0.739,1.971,0.86
								c-0.717,0.137-1.46,0.285-2.049,0.716c-0.589,0.431-0.974,1.233-0.695,1.908c0.28,0.677,1.25,1.144,1.942,1.211
								c0.602,0.058,1.214,0.035,1.805,0.162c-0.851-0.033-1.746,0.211-2.341,0.821c-0.595,0.609-0.803,1.624-0.347,2.343
								c0.46,0.724,1.429,0.966,2.28,0.863c0.852-0.102,1.643-0.475,2.465-0.722c-0.329,0.326-0.659,0.652-0.989,0.978
								c-0.294,0.291-0.595,0.592-0.753,0.975c-0.157,0.383-0.135,0.87,0.165,1.155c0.271,0.257,0.684,0.285,1.055,0.252
								c1.397-0.126,2.711-0.964,3.416-2.176c-0.122,1.248-0.214,2.618,0.509,3.644c0.119,0.168,0.262,0.327,0.448,0.415
								c0.22,0.104,0.476,0.099,0.717,0.062c0.868-0.134,1.663-0.68,2.1-1.443c0.436-0.762,0.505-1.725,0.18-2.541
								c0.251,1.043,0.801,2.049,1.686,2.655c0.885,0.606,2.131,0.737,3.031,0.153c0.174-0.113,0.337-0.255,0.425-0.443
								c0.088-0.187,0.093-0.401,0.083-0.607c-0.057-1.137-0.572-2.245-1.404-3.023c1.045,0.704,2.124,1.423,3.357,1.682
								c0.395,0.083,0.863,0.096,1.142-0.196c0.156-0.163,0.222-0.392,0.256-0.615C536.886,332.162,536.207,330.857,535.1,330.31z"
								/>
						</g>
					</g>
					<g>
						<g>
							<path style="fill:#635539;" d="M555.065,409.515c-3.413-1.419-7.951-1.068-11.063-0.026
								c-3.693,1.236-6.923,3.606-9.665,6.371c1.406-2.113,2.824-4.251,3.696-6.635c0.872-2.383,1.158-5.072,0.269-7.449
								c-2.515-6.72-12.247-9.122-17.543-4.244c-2.683,2.471-3.699,6.393-3.281,10.016c0.418,3.623,2.108,6.986,4.144,10.012
								c-3.446-3.946-5.732-6.413-9.412-8.708c-3.254-2.03-7.676-2.788-11.467-2.503c-3.155,0.237-6.886,2.295-8.353,5.201
								c-2.564,5.078,1.815,10.797,5.507,13.919c3.338,2.823,7.288,4.92,11.496,6.104c-4.615,1.783-9.168,4.14-12.383,7.9
								c-3.215,3.761-4.857,9.172-3.1,13.797c0.914,2.406,2.856,3.992,5.423,4.347c8.718,1.207,16.734-6.443,21.423-12.838
								c-1.359,1.853-1.571,5.516-1.652,7.723c-0.101,2.713,0.274,5.447,1.125,8.027c2.447,7.417,12.182,9.11,17.734,4.121
								c3.221-2.895,4.302-7.602,3.828-11.907c-0.474-4.305-2.286-8.332-4.074-12.276c3.953,3.28,8.835,5.427,13.924,6.124
								c3.262,0.447,7.057,0.037,9.761-1.994c3.393-2.549,3.657-7.429,1.61-10.939c-1.748-2.997-4.913-4.975-8.255-5.905
								c-3.342-0.93-6.873-0.913-10.334-0.672c3.987-0.512,7.834-2.081,11.042-4.503c2.891-2.182,5.283-5.631,3.627-9.321
								C558.279,411.444,556.82,410.245,555.065,409.515z"/>
						</g>
						<g>
							<path style="fill:#6B5B3F;" d="M534.047,429.923c0.614-0.17,1.201-0.435,1.734-0.783c0.611-0.398,1.204-1.078,0.994-1.776
								c-0.104-0.346-0.389-0.607-0.694-0.8c-1.256-0.793-2.866-0.646-4.341-0.471c0.488-0.103,0.991-0.213,1.399-0.5
								c0.408-0.287,0.699-0.801,0.573-1.284c-0.087-0.332-0.354-0.591-0.648-0.769c-0.869-0.526-2.07-0.43-2.844,0.228
								c0.16-0.618,0.632-1.097,0.99-1.626c0.358-0.529,0.605-1.243,0.278-1.791c-0.253-0.422-0.792-0.611-1.281-0.56
								c-0.489,0.051-0.936,0.302-1.334,0.591c-0.577,0.418-1.087,0.928-1.507,1.504c0.199-0.491,0.401-0.991,0.445-1.52
								c0.044-0.528-0.091-1.097-0.478-1.459c-0.508-0.475-1.339-0.469-1.946-0.13c-0.607,0.338-1.022,0.943-1.321,1.571
								c0.001-0.723-0.216-1.445-0.615-2.048c-0.085-0.129-0.184-0.257-0.325-0.321c-0.164-0.075-0.357-0.048-0.53,0.001
								c-1.311,0.371-2.017,2.104-1.341,3.286c-0.92-0.502-1.953-0.864-2.985-0.512c-0.847,0.289-1.358,1.071-1.177,1.986
								c0.164,0.829,0.787,1.49,1.451,2.013c-1.163-0.685-2.767-0.512-3.757,0.406c-0.202,0.187-0.385,0.412-0.451,0.679
								c-0.086,0.347,0.039,0.713,0.212,1.026c0.593,1.068,1.818,1.751,3.037,1.694c-0.983,0.002-1.994-0.089-2.924,0.227
								c-0.931,0.317-1.766,1.198-1.637,2.172c0.095,0.721,0.706,1.3,1.398,1.522c0.693,0.221,1.449,0.137,2.149-0.058
								c-0.591,0.428-1.201,0.878-1.551,1.518c-0.35,0.641-0.358,1.53,0.181,2.022c0.541,0.494,1.618,0.505,2.273,0.272
								c0.57-0.203,1.114-0.484,1.703-0.62c-0.785,0.332-1.491,0.933-1.771,1.737c-0.28,0.804-0.038,1.811,0.68,2.268
								c0.724,0.461,1.703,0.268,2.431-0.186c0.728-0.454,1.286-1.128,1.925-1.7c-0.16,0.435-0.32,0.87-0.48,1.305
								c-0.143,0.388-0.288,0.789-0.268,1.202c0.02,0.413,0.248,0.845,0.64,0.975c0.354,0.118,0.74-0.032,1.062-0.22
								c1.211-0.707,2.046-2.023,2.169-3.421c0.419,1.182,0.918,2.461,2.007,3.083c0.179,0.102,0.376,0.184,0.582,0.185
								c0.244,0.001,0.473-0.112,0.676-0.248c0.729-0.49,1.217-1.322,1.289-2.197c0.071-0.875-0.275-1.776-0.915-2.377
								c0.67,0.838,1.595,1.515,2.654,1.689c1.058,0.173,2.242-0.238,2.809-1.148c0.109-0.176,0.197-0.374,0.197-0.581
								c0-0.206-0.086-0.402-0.183-0.585c-0.535-1.005-1.471-1.79-2.554-2.141c1.245,0.194,2.527,0.387,3.754,0.098
								c0.393-0.093,0.822-0.28,0.951-0.662c0.072-0.214,0.034-0.449-0.029-0.666C536.451,430.841,535.283,429.948,534.047,429.923z
								"/>
						</g>
					</g>
					<g>
						<g>
							<path style="fill:#635539;" d="M646.64,477.044c-1.374-3.432-4.799-6.428-7.72-7.923c-3.467-1.774-7.42-2.424-11.314-2.45
								c2.493-0.474,5.014-0.956,7.327-2c2.313-1.044,4.435-2.721,5.511-5.019c3.043-6.499-2.049-15.133-9.24-15.505
								c-3.642-0.189-7.156,1.829-9.453,4.662c-2.296,2.833-3.518,6.393-4.256,9.965c0.409-5.223,0.573-8.582-0.362-12.817
								c-0.826-3.745-3.377-7.435-6.233-9.945c-2.376-2.088-6.457-3.315-9.56-2.331c-5.422,1.72-6.446,8.85-6.094,13.672
								c0.318,4.36,1.582,8.65,3.68,12.485c-4.503-2.051-9.371-3.655-14.308-3.322c-4.936,0.333-9.952,2.945-12.027,7.436
								c-1.08,2.337-0.855,4.834,0.687,6.916c5.236,7.074,16.31,7.451,24.16,6.328c-2.274,0.325-5.04,2.737-6.675,4.222
								c-2.01,1.826-3.701,4.006-4.949,6.419c-3.589,6.937,2.012,15.078,9.461,15.555c4.322,0.277,8.442-2.244,11.187-5.594
								c2.745-3.35,4.355-7.462,5.922-11.499c0.422,5.119,2.303,10.11,5.364,14.234c1.962,2.644,4.911,5.069,8.253,5.58
								c4.195,0.641,7.867-2.584,8.943-6.502c0.919-3.345,0.118-6.991-1.555-10.03s-4.155-5.55-6.749-7.854
								c3.155,2.491,6.967,4.142,10.942,4.741c3.582,0.539,7.719-0.164,9.198-3.929C647.51,480.69,647.346,478.809,646.64,477.044z"
								/>
						</g>
						<g>
							<path style="fill:#6B5B3F;" d="M617.354,476.302c0.551,0.319,1.151,0.554,1.773,0.691c0.712,0.158,1.613,0.107,1.964-0.532
								c0.174-0.316,0.162-0.703,0.086-1.056c-0.312-1.453-1.543-2.5-2.7-3.431c0.415,0.276,0.846,0.559,1.336,0.65
								c0.491,0.091,1.062-0.061,1.318-0.489c0.177-0.295,0.175-0.667,0.096-1.001c-0.232-0.989-1.141-1.78-2.153-1.873
								c0.554-0.318,1.226-0.315,1.854-0.429c0.628-0.114,1.312-0.437,1.474-1.054c0.125-0.476-0.117-0.993-0.496-1.307
								c-0.379-0.314-0.871-0.457-1.356-0.54c-0.702-0.12-1.424-0.128-2.129-0.025c0.49-0.201,0.989-0.407,1.397-0.745
								c0.408-0.337,0.721-0.833,0.708-1.362c-0.016-0.695-0.601-1.284-1.268-1.482c-0.667-0.197-1.389-0.071-2.046,0.155
								c0.517-0.505,0.882-1.165,1.034-1.872c0.032-0.151,0.055-0.311,0.002-0.456c-0.061-0.17-0.215-0.289-0.372-0.378
								c-1.183-0.677-2.915,0.03-3.286,1.341c-0.285-1.009-0.749-2-1.723-2.491c-0.799-0.403-1.715-0.221-2.242,0.548
								c-0.478,0.697-0.514,1.605-0.423,2.446c-0.325-1.31-1.57-2.335-2.918-2.401c-0.276-0.014-0.564,0.013-0.801,0.153
								c-0.308,0.182-0.483,0.527-0.585,0.869c-0.348,1.17,0.02,2.523,0.914,3.355c-0.689-0.701-1.331-1.487-2.208-1.931
								c-0.877-0.443-2.091-0.424-2.697,0.35c-0.448,0.572-0.435,1.414-0.109,2.064c0.326,0.65,0.916,1.131,1.545,1.495
								c-0.72-0.123-1.468-0.244-2.17-0.046s-1.344,0.815-1.319,1.544c0.026,0.733,0.771,1.509,1.395,1.814
								c0.543,0.265,1.125,0.457,1.634,0.783c-0.786-0.329-1.71-0.413-2.48-0.05c-0.771,0.363-1.321,1.24-1.145,2.073
								c0.177,0.839,1,1.405,1.834,1.607c0.833,0.202,1.706,0.13,2.562,0.187c-0.423,0.19-0.846,0.38-1.268,0.57
								c-0.377,0.169-0.765,0.346-1.046,0.65c-0.281,0.303-0.43,0.768-0.249,1.139c0.164,0.335,0.541,0.506,0.9,0.605
								c1.353,0.371,2.877,0.047,3.962-0.843c-0.551,1.127-1.117,2.378-0.799,3.591c0.052,0.199,0.131,0.397,0.274,0.545
								c0.17,0.175,0.411,0.26,0.65,0.309c0.86,0.178,1.796-0.055,2.472-0.616c0.675-0.561,1.076-1.439,1.058-2.317
								c-0.13,1.065,0.033,2.2,0.65,3.078c0.616,0.878,1.738,1.436,2.785,1.204c0.202-0.045,0.405-0.121,0.553-0.266
								c0.148-0.144,0.228-0.343,0.29-0.54c0.344-1.085,0.25-2.303-0.257-3.323c0.732,1.026,1.492,2.077,2.556,2.751
								c0.341,0.216,0.775,0.392,1.138,0.216c0.203-0.098,0.345-0.29,0.455-0.487C618.38,478.662,618.2,477.202,617.354,476.302z"/>
						</g>
					</g>
					<g>
						<g>
							<path style="fill:#635539;" d="M575.717,548.129c-1.374-3.432-4.799-6.428-7.72-7.923c-3.467-1.774-7.42-2.424-11.313-2.45
								c2.493-0.474,5.014-0.956,7.327-2c2.313-1.044,4.435-2.721,5.511-5.019c3.043-6.499-2.049-15.133-9.24-15.505
								c-3.642-0.188-7.156,1.829-9.452,4.662c-2.296,2.833-3.518,6.393-4.256,9.965c0.409-5.223,0.573-8.582-0.362-12.817
								c-0.826-3.745-3.377-7.435-6.233-9.945c-2.376-2.088-6.457-3.315-9.56-2.331c-5.422,1.72-6.446,8.85-6.094,13.672
								c0.318,4.36,1.582,8.649,3.68,12.485c-4.503-2.051-9.371-3.655-14.308-3.322c-4.936,0.333-9.952,2.945-12.027,7.436
								c-1.08,2.337-0.855,4.834,0.687,6.916c5.236,7.074,16.31,7.451,24.16,6.328c-2.274,0.325-5.041,2.737-6.675,4.222
								c-2.01,1.826-3.701,4.006-4.949,6.419c-3.589,6.937,2.012,15.078,9.461,15.555c4.322,0.277,8.442-2.244,11.187-5.594
								c2.745-3.35,4.355-7.462,5.922-11.499c0.422,5.119,2.303,10.11,5.364,14.234c1.962,2.644,4.911,5.069,8.253,5.58
								c4.195,0.641,7.867-2.584,8.943-6.502c0.919-3.345,0.118-6.991-1.555-10.03c-1.673-3.039-4.155-5.55-6.749-7.854
								c3.155,2.491,6.967,4.142,10.942,4.741c3.582,0.539,7.719-0.164,9.198-3.928
								C576.587,551.775,576.423,549.895,575.717,548.129z"/>
						</g>
						<g>
							<path style="fill:#6B5B3F;" d="M546.431,547.387c0.551,0.319,1.151,0.554,1.773,0.691c0.712,0.158,1.613,0.107,1.964-0.532
								c0.174-0.316,0.162-0.703,0.086-1.056c-0.312-1.453-1.543-2.5-2.7-3.432c0.415,0.276,0.846,0.559,1.336,0.65
								c0.491,0.091,1.062-0.061,1.318-0.489c0.176-0.295,0.175-0.667,0.096-1.001c-0.232-0.989-1.141-1.78-2.153-1.873
								c0.554-0.318,1.226-0.315,1.854-0.429c0.628-0.114,1.311-0.437,1.474-1.054c0.125-0.476-0.117-0.993-0.496-1.307
								c-0.379-0.314-0.871-0.457-1.356-0.54c-0.702-0.119-1.424-0.128-2.129-0.024c0.49-0.201,0.989-0.407,1.397-0.745
								c0.408-0.337,0.721-0.833,0.708-1.362c-0.016-0.695-0.602-1.284-1.268-1.482c-0.667-0.197-1.389-0.071-2.046,0.155
								c0.517-0.505,0.882-1.165,1.034-1.872c0.032-0.151,0.055-0.311,0.002-0.456c-0.062-0.17-0.215-0.289-0.372-0.378
								c-1.183-0.677-2.915,0.03-3.286,1.341c-0.285-1.009-0.749-2-1.723-2.491c-0.799-0.403-1.715-0.221-2.242,0.548
								c-0.478,0.697-0.514,1.605-0.423,2.445c-0.324-1.31-1.57-2.335-2.918-2.401c-0.276-0.014-0.564,0.013-0.801,0.153
								c-0.308,0.182-0.483,0.526-0.585,0.869c-0.348,1.17,0.02,2.523,0.914,3.355c-0.689-0.701-1.331-1.487-2.208-1.931
								c-0.877-0.443-2.091-0.424-2.697,0.35c-0.448,0.572-0.435,1.414-0.109,2.064c0.326,0.65,0.916,1.131,1.545,1.495
								c-0.72-0.123-1.468-0.244-2.17-0.046c-0.703,0.198-1.344,0.814-1.319,1.544c0.025,0.733,0.771,1.509,1.395,1.814
								c0.543,0.265,1.125,0.457,1.634,0.783c-0.786-0.329-1.71-0.413-2.48-0.05c-0.771,0.363-1.321,1.24-1.145,2.073
								c0.177,0.839,1,1.404,1.834,1.607c0.833,0.202,1.706,0.13,2.562,0.187c-0.423,0.19-0.846,0.38-1.268,0.57
								c-0.377,0.169-0.765,0.346-1.046,0.649c-0.281,0.303-0.431,0.768-0.249,1.14c0.164,0.335,0.54,0.506,0.9,0.605
								c1.353,0.371,2.877,0.046,3.962-0.843c-0.551,1.127-1.117,2.378-0.799,3.591c0.052,0.199,0.131,0.398,0.274,0.545
								c0.17,0.175,0.411,0.26,0.65,0.309c0.86,0.178,1.796-0.055,2.472-0.616c0.675-0.561,1.076-1.439,1.058-2.317
								c-0.13,1.065,0.033,2.2,0.65,3.078c0.616,0.878,1.738,1.436,2.785,1.204c0.202-0.045,0.405-0.121,0.553-0.266
								c0.147-0.144,0.228-0.343,0.29-0.54c0.344-1.086,0.25-2.303-0.257-3.323c0.732,1.025,1.492,2.077,2.556,2.751
								c0.341,0.216,0.774,0.392,1.138,0.216c0.203-0.098,0.345-0.29,0.455-0.487C547.457,549.747,547.277,548.287,546.431,547.387z
								"/>
						</g>
					</g>
				</g>
			</g>
			<path style="fill:none;stroke:#000000;stroke-width:1.5;stroke-miterlimit:10;" d="M614.842,323.698
				c-52.893-18.405-52.083-38.63-94.346-40.045"/>
			<path style="fill:none;stroke:#000000;stroke-width:1.5;stroke-miterlimit:10;" d="M544.201,307.438
				c-7.097-2.452-15.442-4.024-26.535-4.395"/>
			<path style="fill:none;stroke:#000000;stroke-width:1.5;stroke-miterlimit:10;" d="M619.535,346.281
				c-36.235-12.608-49.128-26.008-65.367-34.51"/>
			<g>
				<g>
					<path style="fill:#C66E42;" d="M562.759,215.306c-0.81-4.326-4.867-7.303-9.301-7.709c-4.324-0.396-8.146,2.365-10.014,6.145
						c-2.458,4.974-2.515,10.853-0.823,16.074c1.637,5.05,5.138,11.091,10.709,12.397c3.45,0.809,7.645-0.242,9.375-3.582"/>
				</g>
				<path style="fill:none;stroke:#000000;stroke-width:1.5;stroke-miterlimit:10;" d="M548.204,215.306
					c6.531,3.973,11.523,10.41,13.745,17.725"/>
				<path style="fill:none;stroke:#000000;stroke-width:1.5;stroke-miterlimit:10;" d="M552.152,218.394
					c-1.339,1.158-1.865,2.693-2.137,4.189c-0.369,2.031-0.341,4.099,0.083,6.124"/>
				<path style="fill:none;stroke:#000000;stroke-width:1.5;stroke-miterlimit:10;" d="M548.262,239.253
					c1.937,1.841,4.417,3.214,7.504,3.214c5.261,0,6.628-3.303,6.628-3.303"/>
				<path style="fill:none;stroke:#000000;stroke-width:1.5;stroke-miterlimit:10;" d="M562.394,214.404
					c0,0-0.717-6.049-8.935-6.807"/>
			</g>
			<g style="opacity:0.35;">
				<path style="fill:#84764E;" d="M551.78,359.28c11.628,68.604,20.218,162.45,28.333,225.448h6.74
					C586.852,584.729,575.143,422.97,551.78,359.28z"/>
			</g>
		</g>
		<g style="clip-path:url(#SVGID_00000032625435524570146320000004165921624960127418_);">
			<g>
				<path style="fill:#904629;" d="M343.955,336.558c0,0,8.339-78.977,92.733-90.912l32.862,16.347c0,0,32.401,7.522,41.273,70.394
					c8.872,62.872,7.633,126.274,7.633,126.274L343.955,336.558z"/>
				<path style="fill:#904629;" d="M518.456,453.77v130.958H336.751c0,0-18.421-173.424,13.363-270.431"/>
				<g style="opacity:0.35;">
					<path style="fill:#B74B2E;" d="M413.462,359.398c11.628,68.604,20.217,162.45,28.333,225.448h6.74
						C448.534,584.846,436.825,423.088,413.462,359.398z"/>
				</g>
				<path d="M463.349,141.148c0,0,3.075,0.142,6.201,1.183c11.105,3.696,40.829,21.758,25.075,44.698"/>
				<path style="fill:#FFBB99;" d="M493.218,206.072c0.982,1.377,1.939,2.781,2.872,4.205c1.036,1.581,2.09,3.198,3.014,4.873
					c0.792,1.435,0.721,3.137-0.55,4.164c-1.506,1.216-3.674,0.594-5.336,0.266"/>
				<path style="fill:#FFBB99;" d="M494.625,224.747c0,0,0-26.983,0-43.409c0-12.731-14.316-26.077-20.758-31.439v7.006
					c0,19.865-16.356,35.906-36.214,35.36c-0.269-0.007-0.452-0.016-0.54-0.025v50.282c0,14.409,11.681,26.091,26.091,26.091h6.346
					v-14.886C483.728,251.684,494.625,239.49,494.625,224.747z"/>
				<path d="M463.349,141.148h-2.311c-13.214,0-23.925,10.712-23.925,23.925c0,10.127,0,20.988,0,27.168
					c0.087,0.009,0.271,0.018,0.54,0.025c19.857,0.545,36.214-15.496,36.214-35.36v-7.006L463.349,141.148z"/>
				<g>
					<g>
						<path style="fill:#211F20;" d="M468.27,153.641c-0.381,6.068-3.156,11.796-6.888,16.511
							c-3.782,4.778-8.561,8.886-14.103,11.476c-3.087,1.442-6.495,2.318-9.904,2.442c-0.537,0.02-0.534,0.803,0,0.832
							c6.451,0.349,12.469-2.618,17.411-6.543c4.924-3.911,9.169-8.953,11.717-14.732c1.392-3.155,2.191-6.537,2.306-9.987
							C468.82,153.293,468.291,153.297,468.27,153.641L468.27,153.641z"/>
					</g>
				</g>
				<g>
					<g>
						<path style="fill:#211F20;" d="M467.482,149.227c-1.965,4.835-5.013,9.288-8.627,13.038
							c-3.651,3.788-8.039,6.959-13.007,8.766c-2.72,0.989-5.581,1.488-8.474,1.544c-0.622,0.012-0.614,0.924,0,0.961
							c5.389,0.322,10.687-1.721,15.126-4.654c4.598-3.037,8.548-7.114,11.579-11.708c1.605-2.433,2.935-5.063,3.944-7.797
							C468.151,149.032,467.615,148.898,467.482,149.227L467.482,149.227z"/>
					</g>
				</g>
				<g>
					<path d="M465.409,190.615c1.175,0.902,3.371-0.731,4.553-1.167c2.299-0.847,4.434-1.214,6.828-0.715
						c1.296,0.27,2.447,0.897,3.607,1.433c1.221,0.564,2.738,0.007,3.215-1.294c1.068-2.92-3.542-4.116-6.198-4.324
						c-2.927-0.229-5.229,0.208-7.944,1.323C468.129,186.421,463.759,189.349,465.409,190.615z"/>
				</g>
				<g>
					<g>
						<path style="fill:#F49C76;" d="M482.587,202.194c-0.864-1.355-1.722-2.904-3.154-3.737c-1.335-0.776-3.007-0.873-4.454-0.366
							c-2.292,0.805-4.007,3.015-5.43,4.873c0,0,4.714,2.974,8.066,1.888C480.968,203.765,482.587,202.194,482.587,202.194z"/>
					</g>
					<g>
						<g>
							<path d="M477.845,201.964c0.75-0.086,1.486-0.251,2.193-0.517c0.638-0.24,1.501-0.587,1.68-1.327
								c0.092-0.383-0.36-0.635-0.646-0.376c-0.205,0.186-0.394,0.397-0.62,0.55c-0.257,0.174-0.53,0.329-0.805,0.472
								c-0.593,0.309-1.221,0.54-1.869,0.702C477.51,201.536,477.557,201.997,477.845,201.964L477.845,201.964z"/>
						</g>
					</g>
					<path d="M483.954,202.619c0.281-0.048,0.587-0.12,0.84-0.254c0.252-0.134,0.484-0.32,0.689-0.517
						c0.234-0.225-0.005-0.658-0.323-0.555c-0.117,0.038-0.234,0.069-0.354,0.097c-0.061,0.014-0.121,0.028-0.182,0.039
						c-0.018,0.004-0.206,0.034-0.101,0.019c-0.138,0.021-0.271,0.055-0.408,0.081c-0.015,0.003-0.119,0.018-0.131,0.021
						c-0.05,0.006-0.1,0.011-0.15,0.014c-0.233,0.017-0.471,0.029-0.704,0.022c-0.057-0.002-0.114-0.004-0.171-0.007
						c-0.134-0.076-0.286-0.127-0.44-0.143c-0.42-0.045-0.748,0.189-1.055,0.442c-1.713,1.415-3.913,1.501-6.021,1.647
						c-1.588,0.11-3.212-0.068-4.717-0.597c-0.084-0.029-1.177-0.468-1.175-0.379c0.017,0.765,0.713,1.153,1.305,1.499
						c0.55,0.321,1.141,0.568,1.743,0.774c1.278,0.437,2.649,0.66,3.999,0.68c1.238,0.018,2.521-0.137,3.691-0.564
						c0.122,0.128,0.253,0.247,0.403,0.352c0.196,0.137,0.428,0.268,0.664,0.312c0.244,0.046,0.489,0.063,0.735,0.033
						c0.121-0.015,0.225-0.082,0.241-0.213c0.015-0.129-0.059-0.224-0.176-0.269c-0.008-0.003-0.074-0.031-0.033-0.012
						c-0.023-0.01-0.045-0.02-0.068-0.031c-0.045-0.022-0.09-0.046-0.133-0.071c-0.044-0.026-0.088-0.053-0.13-0.083
						c-0.018-0.012-0.036-0.025-0.053-0.038c-0.003-0.002-0.005-0.004-0.008-0.005c-0.058-0.049-0.117-0.098-0.179-0.141
						c-0.018-0.013-0.036-0.025-0.054-0.037c-0.002-0.001-0.004-0.003-0.006-0.004c-0.068-0.069-0.151-0.127-0.219-0.198
						c0-0.001-0.001-0.001-0.001-0.001c0.336-0.16,0.686-0.352,1.004-0.574c0.215,0.155,0.442,0.286,0.696,0.375
						c0.282,0.098,0.614,0.121,0.91,0.097c0.327-0.026,0.624-0.147,0.901-0.321c0.234-0.147,0.072-0.46-0.178-0.422
						c-0.238,0.036-0.484,0.012-0.723-0.002c-0.121-0.007-0.192-0.019-0.316-0.05c-0.126-0.031-0.246-0.077-0.368-0.124
						c-0.007-0.003-0.08-0.033-0.046-0.018c0.034,0.015-0.038-0.019-0.044-0.022c-0.05-0.024-0.1-0.051-0.148-0.079
						c-0.009-0.005-0.017-0.011-0.026-0.016c0.189-0.221,0.327-0.462,0.389-0.724C483.533,202.66,483.738,202.655,483.954,202.619z"
						/>
				</g>
				
					<ellipse transform="matrix(0.2308 -0.973 0.973 0.2308 142.1736 623.6949)" style="fill:#EA8663;" cx="465.549" cy="221.928" rx="10.362" ry="10.362"/>
				<g>
					<g>
						<path style="fill:#FFBB99;" d="M441.655,209.628c-0.731-3.906-4.257-8.95-8.259-9.317c-3.904-0.357-10.636,1.366-12.323,4.779
							c-2.22,4.491,0.873,12.924,2.401,17.637c1.478,4.559,4.639,10.014,9.668,11.192c3.115,0.73,6.902-0.218,8.464-3.234"/>
					</g>
					<path style="fill:none;stroke:#000000;stroke-width:1.5;stroke-miterlimit:10;" d="M437.121,234.505
						c0,0,1.614-0.476,3.803-2.344"/>
					<path style="fill:none;stroke:#000000;stroke-width:1.5;stroke-miterlimit:10;" d="M436.725,202.538
						c0,0,3.766,2.179,4.782,6.459"/>
					<path style="fill:none;stroke:#000000;stroke-width:1.5;stroke-miterlimit:10;" d="M428.515,209.628
						c5.896,3.587,10.403,9.399,12.409,16.003"/>
					<path style="fill:none;stroke:#000000;stroke-width:1.5;stroke-miterlimit:10;" d="M432.078,212.417
						c-1.209,1.045-1.684,2.431-1.929,3.781c-0.333,1.833-0.308,3.701,0.075,5.529"/>
				</g>
				<path d="M469.55,253.727c0,0-11.833,1.167-16.016,1.247l16.016,4.898V253.727z"/>
				<g>
					<path style="fill:#D3744A;" d="M493.266,231.918c-0.203-0.603-0.661-1.154-1.303-0.557c-0.238,0.222-0.369,0.533-0.493,0.834
						c0.064-0.155-0.734-0.947-1.501-1.015c-1.448-0.128-2.353,0.205-3.418,0.929c-0.72,0.489-1.653,0.891-2.435,0.509
						c0.297,0.803,0.597,1.612,1.044,2.342c1.075,1.752,3.307,2.611,5.279,1.895c1.053-0.383,1.939-1.193,2.455-2.183
						c0.358-0.689,0.568-1.514,0.478-2.292C493.354,232.236,493.318,232.075,493.266,231.918z"/>
				</g>
				<g>
					<path style="fill:#B7512E;" d="M484.185,232.806c1.339-0.017,3.001,0.114,4.316,0.174c1.317,0.089,2.954,0.138,4.296,0.262
						C490.354,235.124,486.45,234.857,484.185,232.806L484.185,232.806z"/>
				</g>
				<g>
					<g>
						<path style="fill:#211F20;" d="M473.742,147.435c4.83,2.665,9.474,5.849,13.577,9.543c1.936,1.743,3.779,3.649,5.14,5.885
							c1.594,2.619,2.689,5.541,3.171,8.57c0.542,3.4,0.23,6.951-1.005,10.171c-0.172,0.449,0.581,0.771,0.782,0.33
							c2.65-5.819,1.635-12.648-1.296-18.168c-2.687-5.06-7.442-8.794-12.113-11.94c-2.581-1.739-5.259-3.354-8.008-4.815
							C473.712,146.861,473.464,147.281,473.742,147.435L473.742,147.435z"/>
					</g>
				</g>
				<g>
					<g>
						<path d="M472.617,149.368c1.174,4.371,2.09,8.96,2.042,13.501c-0.045,4.265-1.111,8.413-3.108,12.18
							c-3.737,7.047-10.57,12.051-18.132,14.381c-4.476,1.379-9.304,1.56-13.793,0.131c-0.598-0.19-0.797,0.687-0.252,0.915
							c8.265,3.468,17.481,0.193,24.456-4.682c6.767-4.729,11.294-12.578,11.779-20.836c0.316-5.391-0.935-10.614-2.506-15.724
							C473.008,148.926,472.532,149.054,472.617,149.368L472.617,149.368z"/>
					</g>
				</g>
				<path d="M463.349,141.148c0,0-53.83-10.406-70.287,23.322c-9.991,20.476,8.716,48.85-7.221,69.637
					c-15.937,20.787-38.524,54.278-9.157,73.331c29.367,19.053,68.746,2.068,62.09-74.07c0,0-11.446,2.878-16.35-13.517
					c-4.904-16.395,9.318-19.807,15.067-15.842l-0.379-34.943L463.349,141.148z"/>
			</g>
			<path d="M439.814,233.031c0,0,33.582,50.615-17.804,63.729l3.77-5.959c0,0,32.713-14.837,12.339-56.296
				C437.368,232.976,440.495,234.741,439.814,233.031z"/>
			<path style="fill:none;stroke:#211F20;stroke-width:1.5;stroke-miterlimit:10;" d="M398.788,314.298
				c0,0-14.452-11.473-4.818-25.489c9.635-14.015,26.185-29.095,22.347-87.097c-3.838-58.003,25.827-61.344,25.827-61.344"/>
			<path style="fill:none;stroke:#211F20;stroke-width:1.5;stroke-miterlimit:10;" d="M381.528,310.202
				c0,0-8.733-13.712,2.546-26.98s27.393-31.954,24.707-59.876c-2.686-27.922-8.462-61.583,5.895-77.485"/>
		</g>
		<g style="clip-path:url(#SVGID_00000032625435524570146320000004165921624960127418_);">
			<g>
				<path style="fill:#E5B87C;" d="M-3.143,164.216c25.425,6.029,47.164,24.458,56.991,48.712
					c10.072,24.859,9.975,53.251,27.638,74.773c8.386,10.218,19.428,18.81,31.845,23.506c10.541,3.987,21.965,4.507,33.023,2.77
					c22.218-3.49,42.089-15.167,64.069-19.565c11.241-2.249,22.825-2.119,33.692,1.8c12.114,4.368,22.611,12.583,31.804,21.415
					c18.41,17.689,33.264,38.577,54.749,52.916c11.708,7.814,24.598,14.067,38.274,17.544c15.033,3.822,30.106,2.905,45.451,2.614
					c12.982-0.246,26.26,0.741,37.813,7.24c11.461,6.447,18.398,17.19,20.987,29.922c2.489,12.243,2.643,25.258,10.549,35.59
					c7.656,10.006,19.2,17.465,31.265,20.938c14.569,4.194,29.963,3.709,44.7,7.035c13.561,3.06,27.394,9.814,32.771,23.506
					c2.394,6.098,2.729,12.748,0.257,18.866c-0.394,0.976,1.287,1.695,1.714,0.722c4.805-10.957,0.749-23.479-7.333-31.771
					c-9.367-9.61-23.198-13.243-36.066-15.059c-15.192-2.144-31.162-2.188-45.177-9.164c-12.713-6.328-23.509-16.494-26.982-30.59
					c-3.035-12.316-2.712-25.527-9.632-36.614c-6.129-9.82-15.853-16.476-26.848-19.782c-13.45-4.044-27.505-2.904-41.343-2.565
					c-15.629,0.383-30.564-1.536-45.147-7.359c-13.692-5.467-26.624-13.496-37.745-23.165c-9.568-8.319-17.906-17.914-26.408-27.286
					c-15.93-17.56-34.481-36.685-59.226-39.845c-22.634-2.891-43.968,7.803-64.78,14.941c-10.783,3.698-21.982,6.743-33.466,6.706
					c-13.707-0.045-26.425-4.964-37.333-13.145c-11.591-8.693-20.576-20.269-25.798-33.791
					c-5.071-13.132-7.336-27.116-11.216-40.604c-3.538-12.297-8.736-23.784-16.935-33.697c-7.867-9.512-17.873-17.265-29.054-22.497
					c-5.411-2.532-11.073-4.441-16.903-5.742C-3.413,163.388-3.614,164.104-3.143,164.216L-3.143,164.216z"/>
			</g>
		</g>
		<g style="clip-path:url(#SVGID_00000032625435524570146320000004165921624960127418_);">
			<path style="fill:#F74C32;" d="M356.121,204.902c0,0,8.802,85.009-7.734,97.693c-16.537,12.684-26.438-52.085-26.438-52.085
				L356.121,204.902z"/>
			<path style="fill:#F1A262;" d="M334.12,254.572l0.574,14.041l6.36,5.869c0,0-22.741,42.903-69.813-5.647l12.117,0.539
				l1.839-39.23L334.12,254.572z"/>
			<g>
				<path style="fill:#FFCC71;" d="M334.429,266.014c0,0,17.172,18.882,24.61,32.376c20.828,64.887,19.265,125.747,24.308,155.628
					c8.621,51.076,7.877,130.71,7.877,130.71H183.911c0,0-3.736-100.366-12.791-170.95c-6.523-50.849-41.232,43.503,14.883-90.822
					c3.225-7.719,37.554-41.335,74.944-52.38C303.129,258.116,334.429,266.014,334.429,266.014z"/>
				<line style="fill:none;" x1="302.967" y1="283.291" x2="359.039" y2="283.291"/>
				<line style="fill:none;" x1="271.241" y1="283.291" x2="295.475" y2="283.291"/>
				<g>
					<path style="fill:#DF8D2C;" d="M305.649,359.398c11.628,68.604,20.217,162.45,28.333,225.448h6.74
						C340.721,584.846,329.012,423.088,305.649,359.398z"/>
				</g>
			</g>
			<path style="fill:#F1A262;" d="M363.197,202.381c0.948,1.329,1.871,2.683,2.771,4.057c0.999,1.526,2.016,3.086,2.908,4.702
				c0.764,1.384,0.696,3.027-0.531,4.018c-1.453,1.173-3.545,0.573-5.148,0.256"/>
			<path style="fill:#F1A262;" d="M334.429,248.137c17.128-2.902,30.174-17.799,30.174-35.753v-31.8
				c0-28.806-28.544-36.421-28.544-36.421s-13.811,21.909-31.275,40.137c0.054,21.786,0.165,44.937,0.245,60.099
				c0.05,9.355,7.648,16.905,17.003,16.905h11.764L334.429,248.137z"/>
			<path d="M334.429,248.137c0,0-12.105,1.236-16.474,1.32l16.164,5.115L334.429,248.137z"/>
			<g>
				<path style="fill:#DD7243;" d="M352.94,198.639c-0.834-1.308-1.661-2.802-3.043-3.606c-1.288-0.749-2.902-0.843-4.297-0.353
					c-2.212,0.777-4.022,3.277-5.394,5.069c0,0,4.703,2.502,7.938,1.454C351.377,200.155,352.94,198.639,352.94,198.639z"/>
			</g>
			<g>
				<path style="fill:#5B2C19;" d="M330.016,188.211c1.702,0.478,4.103-1.754,5.5-2.537c2.717-1.524,5.339-2.544,8.491-2.83
					c1.707-0.155,3.314,0.072,4.911,0.211c1.681,0.146,3.475-0.858,3.773-2.234c0.67-3.088-5.458-2.76-8.875-2.116
					c-3.766,0.709-6.583,1.848-9.763,3.755C332.482,183.401,327.627,187.54,330.016,188.211z"/>
			</g>
			<g>
				<path d="M339.39,199.232c0.018,0.799,0.744,1.204,1.363,1.565c0.574,0.336,1.192,0.593,1.821,0.808
					c1.335,0.456,2.766,0.69,4.176,0.71c1.353,0.02,2.761-0.15,4.027-0.645c1.142-0.447,3.342-1.436,3.008-2.953
					c-0.09-0.408-0.474-0.608-0.85-0.648c-0.439-0.046-0.781,0.197-1.102,0.462c-1.789,1.478-4.087,1.568-6.288,1.72
					c-1.659,0.115-3.355-0.071-4.926-0.624C340.53,199.597,339.388,199.139,339.39,199.232z"/>
			</g>
			<g>
				<path d="M352.555,201.951c-0.008-0.003-0.078-0.032-0.034-0.013c-0.024-0.01-0.047-0.021-0.071-0.033
					c-0.047-0.023-0.094-0.048-0.139-0.074c-0.046-0.027-0.091-0.056-0.136-0.086c-0.019-0.013-0.037-0.026-0.055-0.039
					c-0.011-0.008-0.022-0.016-0.033-0.025c0.045,0.035,0.056,0.043,0.032,0.024c-0.063-0.054-0.127-0.106-0.194-0.153
					c-0.019-0.013-0.038-0.026-0.057-0.039c-0.015-0.011-0.03-0.021-0.044-0.033c0.017,0.013,0.034,0.027,0.052,0.04
					c-0.073-0.078-0.166-0.141-0.241-0.219c-0.038-0.04-0.075-0.081-0.11-0.122c-0.014-0.016-0.067-0.084-0.01-0.011
					c0.059,0.076-0.004-0.006-0.016-0.022c-0.061-0.085-0.122-0.17-0.179-0.257c-0.082-0.124-0.143-0.252-0.242-0.365
					c-0.027-0.031-0.139-0.169-0.039-0.039c-0.078-0.101-0.135-0.154-0.237-0.23c-0.233-0.175-0.556,0.02-0.631,0.257
					c-0.102,0.324,0.025,0.675,0.206,0.945c0.174,0.261,0.392,0.458,0.647,0.637c0.205,0.143,0.447,0.28,0.694,0.326
					c0.254,0.048,0.51,0.066,0.768,0.035c0.127-0.015,0.235-0.086,0.252-0.222C352.755,202.098,352.677,201.998,352.555,201.951
					L352.555,201.951z"/>
			</g>
			<g>
				<path d="M355.116,200.418c-0.249,0.038-0.505,0.013-0.755-0.002c-0.126-0.007-0.201-0.02-0.33-0.052
					c-0.132-0.033-0.258-0.081-0.384-0.13c-0.007-0.003-0.084-0.034-0.048-0.019c0.036,0.016-0.04-0.02-0.046-0.023
					c-0.053-0.026-0.104-0.053-0.155-0.082c-0.051-0.029-0.1-0.061-0.148-0.093c-0.024-0.017-0.048-0.033-0.072-0.051
					c-0.059-0.044,0.044,0.037-0.013-0.01c-0.2-0.169-0.374-0.346-0.598-0.485c-0.279-0.172-0.579,0.111-0.52,0.4
					c0.065,0.32,0.265,0.551,0.516,0.749c0.259,0.203,0.536,0.364,0.848,0.472c0.295,0.103,0.641,0.126,0.951,0.102
					c0.341-0.027,0.652-0.154,0.941-0.335C355.546,200.706,355.377,200.379,355.116,200.418L355.116,200.418z"/>
			</g>
			<g>
				<path d="M355.691,197.919c-0.122,0.04-0.245,0.072-0.37,0.101c-0.063,0.015-0.126,0.029-0.19,0.041
					c-0.019,0.004-0.215,0.036-0.105,0.019c-0.144,0.022-0.283,0.058-0.426,0.085c-0.022,0.004-0.226,0.034-0.098,0.018
					c-0.065,0.008-0.129,0.014-0.194,0.019c-0.243,0.017-0.492,0.03-0.736,0.023c-0.13-0.004-0.259-0.017-0.39-0.015
					c-0.092,0.001-0.181,0.012-0.272,0.027c-0.028,0.005-0.057,0.01-0.085,0.014c0.038-0.005,0.03-0.004-0.025,0.003
					c-0.155,0.018-0.289,0.082-0.351,0.236c-0.053,0.131-0.04,0.323,0.08,0.42c0.129,0.104,0.255,0.212,0.409,0.277
					c0.146,0.062,0.283,0.098,0.439,0.119c0.363,0.05,0.693,0.057,1.056-0.004c0.294-0.05,0.613-0.125,0.878-0.265
					c0.263-0.139,0.505-0.334,0.719-0.54C356.273,198.264,356.023,197.811,355.691,197.919L355.691,197.919z"/>
			</g>
			<g>
				<path style="fill:none;" d="M348.364,198.174c0.816-0.145,1.611-0.411,2.351-0.786c0.402-0.204,0.804-0.457,1.027-0.849"/>
			</g>
			<circle style="fill:#DD7243;" cx="336.5" cy="217.68" r="9.998"/>
			<g>
				<path style="fill:#D3744A;" d="M361.164,225.889c-0.212-0.63-0.691-1.205-1.361-0.581c-0.249,0.232-0.385,0.556-0.514,0.871
					c0.066-0.162-0.767-0.989-1.567-1.06c-1.513-0.134-2.458,0.214-3.57,0.97c-0.751,0.511-1.726,0.93-2.543,0.531
					c0.31,0.839,0.623,1.684,1.091,2.446c1.123,1.829,3.454,2.727,5.513,1.979c1.099-0.399,2.025-1.246,2.563-2.28
					c0.374-0.719,0.593-1.581,0.499-2.394C361.256,226.22,361.219,226.052,361.164,225.889z"/>
			</g>
			<g>
				<path style="fill:#F74C32;" d="M335.156,150.124c13.695,1.382,25.518,16.388,29.415,35.066
					c1.714-7.578,1.228-14.784,0.377-18.078c-1.595-6.173-4.634-12.02-9.127-16.581c-4.032-4.093-13.291-9.413-19.321-6.094"/>
			</g>
			<path style="fill:#F74C32;" d="M338.562,149.706c-9.196-8.974-26.337,16.969-33.778,25.473v31.672c0,0,0,0,0.001,0
				c4.746-2.79,9.405-5.902,12.835-9.494c11.647-12.199,21.503-29.825,20.906-47.589L338.562,149.706z"/>
			<g>
				<path style="fill:#F74C32;" d="M310.084,211.306c-1.409-3.82-3.21-7.475-4.981-11.145l0.076,40.874
					c3.682-3.698,6.257-7.68,7.127-12.823C313.263,222.544,312.073,216.701,310.084,211.306z"/>
			</g>
			<g>
				<g>
					<path style="fill:#C42616;" d="M304.971,198.025c2.873,6.674,6.484,13.059,8.562,20.055c1.074,3.617,1.738,7.389,1.593,11.173
						c-0.136,3.544-1.066,6.974-2.651,10.141c-1.726,3.447-4.219,6.452-6.998,9.104c-0.328,0.313,0.116,0.926,0.497,0.644
						c5.65-4.18,9.427-10.744,10.253-17.723c0.94-7.948-1.881-15.816-5.289-22.863c-1.759-3.639-3.749-7.158-5.552-10.773
						C305.246,197.5,304.852,197.747,304.971,198.025L304.971,198.025z"/>
				</g>
			</g>
			<g>
				<g>
					<path style="fill:#C42616;" d="M305.318,198.141c6.979-4.014,13.056-9.522,18.017-15.845
						c4.872-6.21,8.733-13.308,11.121-20.841c1.325-4.181,2.292-8.535,2.478-12.929c0.02-0.479-0.774-0.604-0.852-0.115
						c-0.6,3.764-1.314,7.507-2.406,11.163c-1.108,3.712-2.517,7.33-4.243,10.798c-3.494,7.024-8.191,13.467-13.844,18.907
						c-3.244,3.122-6.784,5.919-10.549,8.386C304.745,197.859,305.008,198.319,305.318,198.141L305.318,198.141z"/>
				</g>
			</g>
			<g>
				<g>
					<path style="fill:#C42616;" d="M336.68,148.642c12.96,1.352,21.468,13.454,25.084,24.965c1.168,3.718,1.902,7.578,2.405,11.44
						c0.07,0.536,0.898,0.572,0.867,0c-0.381-6.992-2.437-13.991-5.761-20.15c-3.014-5.584-7.318-10.709-12.917-13.828
						c-2.987-1.664-6.26-2.665-9.678-2.86C336.398,148.192,336.408,148.613,336.68,148.642L336.68,148.642z"/>
				</g>
			</g>
			<g>
				<path style="fill:#B7512E;" d="M351.681,226.816c1.391,0.007,3.136,0.149,4.505,0.214c1.372,0.088,3.092,0.135,4.488,0.241
					C358.104,229.191,354.069,228.914,351.681,226.816L351.681,226.816z"/>
			</g>
			<path style="fill:#F74C32;" d="M342.2,143.396c0,0-46.725-17.93-73.34,5.029c-19.112,16.487-13.647,102.17-26.332,112.878
				c-12.685,10.708-17.66,16.056-12.266,24.426c0,0-14.137,2.764-11.114,11.031c3.023,8.267,27.692,18.265,52.093-3.358
				c24.401-21.623,25.009-46.501,25.009-46.501s8.418-1.985,13.729-12.996l-3.165-30.184l2.059-30.658l24.667-23.163L342.2,143.396z
				"/>
			<g>
				<path style="fill:#C42616;" d="M283.433,143.393c0.522,34.023-6.035,74.835-27.286,102.311
					c-3.208,4.026-6.748,7.773-10.604,11.15l-0.102-0.11c3.554-3.683,6.872-7.556,9.871-11.67
					C276.065,215.725,282.788,178.445,283.433,143.393L283.433,143.393z"/>
			</g>
			<g>
				<path style="fill:#C42616;" d="M218.883,293.313c17.977,7.518,38.416,2.727,52.414-10.435c4.619-4.253,8.6-9.113,12.265-14.208
					c4.969-6.68,8.775-14.698,12.756-21.74c-3.369,8.856-7.723,17.505-13.395,25.176c-9.296,12.81-23.206,23.217-39.251,25.039
					c-4.223,0.507-8.501,0.385-12.694-0.199c-4.184-0.638-8.32-1.707-12.161-3.498L218.883,293.313L218.883,293.313z"/>
			</g>
			<g>
				<path style="fill:#C42616;" d="M230.253,285.654c26.743-5.115,48.369-25.366,61.472-48.483
					c6.189-10.561,11.002-21.881,15.016-33.473c-2.174,10.477-6.836,21.275-11.84,31.03c-8.863,16.218-21.43,30.701-37.223,40.469
					c-6.299,3.88-13.081,6.996-20.19,9.048c-2.369,0.673-4.769,1.246-7.219,1.559L230.253,285.654L230.253,285.654z"/>
			</g>
			<g>
				<path style="fill:#C42616;" d="M228.115,277.409c44.936-32.271,82.688-83.093,80.683-140.594l0.15-0.009
					c1.17,14.097-0.19,28.424-4.127,42.038C293.674,217.931,261.266,255.199,228.115,277.409L228.115,277.409z"/>
			</g>
		</g>
		<g style="clip-path:url(#SVGID_00000032625435524570146320000004165921624960127418_);">
			<g>
				<g>
					<g>
						<path style="fill:#7A4731;" d="M207.53,250.782l-3.796,38.027l-70.157-3.05l5.897-39.857c0,0,11.361-34.914,11.679-34.335
							C151.472,212.145,207.53,250.782,207.53,250.782z"/>
						<path d="M182.505,234.525c5.698,16.498,11.699,24.295,23.883,27.708l1.143-11.451L182.505,234.525z"/>
						<path style="fill:#7A4731;" d="M155.371,202.18l8.82,24.098c5.737,16.61,21.376,27.755,38.949,27.755h8.308
							c16.174,0,29.286-13.112,29.286-29.286c0,0,0-26.983,0-43.409s-24.541-33.691-24.541-33.691s-29.375-8.19-49.441,10.493
							S155.371,202.18,155.371,202.18z"/>
						<g>
							<path style="fill:#A04120;" d="M239.412,231.778c-0.203-0.603-0.661-1.154-1.303-0.557c-0.238,0.222-0.369,0.533-0.493,0.834
								c0.064-0.155-1.338-0.944-1.501-1.015c-1.334-0.579-2.353,0.205-3.418,0.929c-0.72,0.489-1.653,0.891-2.435,0.509
								c0.297,0.803,0.596,1.612,1.044,2.342c1.075,1.752,3.307,2.611,5.279,1.895c1.053-0.383,1.939-1.193,2.454-2.183
								c0.358-0.689,0.568-1.514,0.478-2.292C239.5,232.096,239.464,231.935,239.412,231.778z"/>
						</g>
						<path style="fill:#7A4731;" d="M239.326,206.072c0.982,1.377,1.939,2.781,2.872,4.205c1.036,1.581,2.09,3.198,3.014,4.873
							c0.792,1.435,0.721,3.137-0.551,4.164c-1.506,1.216-3.674,0.594-5.335,0.266"/>
						<g>
							<path style="fill:#683625;" d="M228.696,202.194c-0.864-1.355-1.722-2.904-3.154-3.737c-1.335-0.776-3.007-0.873-4.453-0.366
								c-2.292,0.805-4.007,3.015-5.43,4.873c0,0,4.714,2.974,8.066,1.888C227.077,203.765,228.696,202.194,228.696,202.194z"/>
						</g>
						<g>
							<path d="M207.927,188.209c1.27,0.902,3.641-0.731,4.918-1.167c2.484-0.847,4.791-1.214,7.376-0.715
								c1.4,0.27,2.644,0.897,3.897,1.433c1.319,0.564,2.959,0.007,3.473-1.294c1.154-2.92-3.827-4.116-6.697-4.324
								c-3.162-0.229-5.65,0.208-8.582,1.323C210.866,184.015,206.145,186.943,207.927,188.209z"/>
						</g>
						<g>
							<path d="M214.653,202.808c0.018,0.828,0.771,1.247,1.413,1.622c0.595,0.348,1.235,0.615,1.887,0.838
								c1.384,0.473,2.867,0.715,4.328,0.736c1.402,0.021,2.861-0.155,4.173-0.668c1.183-0.463,3.463-1.488,3.117-3.061
								c-0.093-0.422-0.492-0.63-0.882-0.671c-0.694-0.074-1.103,0.497-1.607,0.864c-0.458,0.333-0.979,0.603-1.514,0.789
								c-1.127,0.393-2.297,0.534-3.487,0.509c-1.175-0.025-2.331-0.225-3.45-0.587c-0.539-0.174-1.071-0.385-1.584-0.625
								c-0.568-0.266-1.167-0.733-1.822-0.5C214.906,202.17,214.645,202.448,214.653,202.808L214.653,202.808z"/>
						</g>
						<g>
							<path d="M228.297,205.626c-0.009-0.003-0.08-0.033-0.035-0.013c-0.025-0.011-0.049-0.022-0.073-0.034
								c-0.049-0.024-0.097-0.05-0.144-0.077c-0.048-0.028-0.095-0.058-0.141-0.089c-0.019-0.013-0.038-0.027-0.057-0.041
								c-0.011-0.008-0.023-0.017-0.034-0.025c0.047,0.037,0.058,0.045,0.033,0.025c-0.065-0.056-0.131-0.11-0.201-0.159
								c-0.019-0.014-0.039-0.027-0.058-0.04c-0.016-0.011-0.031-0.022-0.046-0.034c0.018,0.014,0.036,0.028,0.054,0.042
								c-0.076-0.081-0.172-0.146-0.25-0.227c-0.039-0.041-0.077-0.083-0.114-0.127c-0.014-0.017-0.069-0.087-0.011-0.011
								c0.061,0.079-0.004-0.006-0.016-0.023c-0.063-0.088-0.126-0.176-0.186-0.266c-0.085-0.128-0.149-0.261-0.251-0.379
								c-0.028-0.032-0.144-0.175-0.04-0.04c-0.081-0.104-0.14-0.159-0.245-0.239c-0.241-0.182-0.576,0.02-0.654,0.266
								c-0.106,0.336,0.027,0.699,0.213,0.979c0.18,0.27,0.406,0.475,0.671,0.66c0.212,0.149,0.464,0.29,0.719,0.338
								c0.264,0.049,0.529,0.068,0.796,0.036c0.131-0.016,0.244-0.089,0.261-0.23C228.504,205.779,228.424,205.675,228.297,205.626
								L228.297,205.626z"/>
						</g>
						<g>
							<path d="M230.951,204.038c-0.258,0.039-0.524,0.013-0.783-0.002c-0.131-0.008-0.208-0.021-0.342-0.054
								c-0.137-0.034-0.267-0.084-0.398-0.134c-0.007-0.003-0.087-0.036-0.05-0.019c0.037,0.016-0.041-0.02-0.048-0.023
								c-0.054-0.026-0.108-0.055-0.16-0.085c-0.052-0.03-0.104-0.063-0.154-0.097c-0.025-0.017-0.05-0.035-0.074-0.053
								c-0.061-0.045,0.045,0.038-0.013-0.011c-0.208-0.175-0.387-0.359-0.62-0.502c-0.289-0.179-0.6,0.115-0.539,0.415
								c0.067,0.331,0.275,0.571,0.535,0.776c0.268,0.211,0.555,0.377,0.879,0.49c0.305,0.106,0.664,0.131,0.985,0.105
								c0.354-0.029,0.676-0.159,0.975-0.347C231.397,204.336,231.222,203.997,230.951,204.038L230.951,204.038z"/>
						</g>
						<g>
							<path d="M231.547,201.448c-0.126,0.041-0.254,0.075-0.383,0.105c-0.066,0.015-0.131,0.03-0.197,0.043
								c-0.02,0.004-0.223,0.037-0.109,0.02c-0.149,0.022-0.293,0.06-0.441,0.088c-0.023,0.004-0.235,0.035-0.102,0.019
								c-0.067,0.008-0.134,0.015-0.202,0.02c-0.252,0.018-0.51,0.031-0.762,0.024c-0.135-0.004-0.268-0.017-0.404-0.016
								c-0.096,0.001-0.187,0.013-0.282,0.028c-0.029,0.005-0.059,0.01-0.089,0.015c0.04-0.005,0.031-0.004-0.026,0.003
								c-0.161,0.019-0.3,0.085-0.364,0.245c-0.055,0.136-0.042,0.335,0.082,0.435c0.134,0.108,0.265,0.22,0.424,0.287
								c0.151,0.064,0.294,0.102,0.455,0.124c0.376,0.052,0.718,0.059,1.094-0.005c0.305-0.051,0.635-0.13,0.909-0.275
								c0.273-0.144,0.523-0.346,0.745-0.559C232.15,201.805,231.891,201.336,231.547,201.448L231.547,201.448z"/>
						</g>
						<g>
							<g>
								<path d="M223.954,201.964c0.75-0.086,1.486-0.251,2.193-0.517c0.638-0.24,1.501-0.587,1.68-1.327
									c0.092-0.383-0.36-0.636-0.646-0.376c-0.205,0.186-0.394,0.397-0.619,0.55c-0.257,0.174-0.53,0.329-0.805,0.472
									c-0.593,0.309-1.221,0.54-1.869,0.702C223.619,201.536,223.666,201.997,223.954,201.964L223.954,201.964z"/>
							</g>
						</g>
						
							<ellipse transform="matrix(0.7071 -0.7071 0.7071 0.7071 -94.9337 214.6662)" style="fill:#683625;" cx="211.658" cy="221.928" rx="10.362" ry="10.362"/>
						<g>
							<g>
								<path style="fill:#491A0D;" d="M229.516,231.858c0.567,1.167,1.827,1.798,3.016,2.162c1.403,0.43,2.895,0.441,4.337,0.233
									c0.352-0.051,0.702-0.116,1.049-0.197c0.384-0.09,0.848-0.161,1.166-0.407c0.224-0.173,0.388-0.487,0.233-0.766
									c-0.199-0.357-0.648-0.329-0.984-0.234c-1.476,0.42-2.907,0.717-4.453,0.572c-0.761-0.072-1.516-0.221-2.224-0.513
									c-0.682-0.282-1.31-0.677-1.947-1.042C229.58,231.592,229.457,231.736,229.516,231.858L229.516,231.858z"/>
							</g>
						</g>
						<g>
							<g>
								<path style="fill:#7A4731;" d="M172.037,205.617c-0.731-3.906-4.394-6.594-8.397-6.96c-3.904-0.357-7.354,2.135-9.041,5.548
									c-2.219,4.491-2.271,9.799-0.743,14.512c1.478,4.559,4.639,10.014,9.668,11.193c3.115,0.73,6.902-0.218,8.464-3.234"/>
							</g>
							<path style="fill:none;stroke:#000000;stroke-width:1.5;stroke-miterlimit:10;" d="M158.896,205.617
								c5.897,3.587,10.403,9.399,12.409,16.003"/>
							<path style="fill:none;stroke:#000000;stroke-width:1.5;stroke-miterlimit:10;" d="M162.46,208.406
								c-1.209,1.046-1.684,2.431-1.929,3.781c-0.333,1.834-0.308,3.701,0.074,5.529"/>
							<path style="fill:none;stroke:#000000;stroke-width:1.5;stroke-miterlimit:10;" d="M154.788,222.884
								c0,0,3.565,8.065,11.964,7.683"/>
						</g>
						<g>
							<path style="fill:#DF8D2C;" d="M175.214,224.841c-8.412,0-15.231,6.819-15.231,15.231s6.819,15.231,15.231,15.231
								c8.412,0,15.231-6.819,15.231-15.231S183.626,224.841,175.214,224.841z M174.867,250.283
								c-6.336,0-11.473-5.137-11.473-11.473c0-6.336,5.137-11.473,11.473-11.473c6.337,0,11.473,5.137,11.473,11.473
								C186.341,245.147,181.204,250.283,174.867,250.283z"/>
							<g>
								<path d="M174.867,227.337c14.537-0.268,16.376,20.137,2.349,23.141c-7.081,1.468-14.269-4.522-13.68-11.809
									c0.541,9.523,12.128,14.214,18.814,7.483C189.085,239.467,184.391,227.872,174.867,227.337L174.867,227.337z"/>
							</g>
							
								<ellipse transform="matrix(0.7071 -0.7071 0.7071 0.7071 -115.7388 190.887)" style="fill:#DF8D2C;" cx="172.552" cy="235.153" rx="7.396" ry="7.396"/>
							<path style="fill:#F4B340;" d="M175.676,234.264c0,2.042-1.656,3.698-3.698,3.698c-2.042,0-3.698-1.656-3.698-3.698
								s1.656-3.698,3.698-3.698C174.02,230.566,175.676,232.222,175.676,234.264z"/>
						</g>
						<path d="M155.643,202.974c0,0,4.504-9.105,14.113-1.543c0,0,44.306,5.31,57.384-44.942c0,0-33.896-40.535-81.214-18.174
							c-42.182,19.934-41.56,59.182-31.685,83.613c9.875,24.431,25.622,25.499,32.562,22.563c4.529-1.916,13.62-11.701,8.568-22.096
							C152.296,216.069,151.759,209.878,155.643,202.974z"/>
					</g>
					<g>
						<path style="fill:#E06A44;" d="M127.022,268.613h89.631c0,0-1.363,13.705,1,26.79c12.487,69.145,34.869,89.811,37.344,122.407
							c3.231,42.551,10.964,166.919,10.964,166.919H92.923c0,0-6.151-100.098-12.791-170.95
							c-5.086-54.28,30.648-105.511,35.589-117.625C120.662,284.04,127.022,268.613,127.022,268.613z"/>
						<g>
							<defs>
								<path id="SVGID_00000025434590868881805140000001995011425721624219_" d="M127.022,268.613h89.631c0,0-1.363,13.705,1,26.79
									c12.487,69.145,34.869,89.811,37.344,122.407c3.231,42.551,10.964,166.919,10.964,166.919H92.923
									c0,0-6.151-100.098-12.791-170.95c-5.086-54.28,30.648-105.511,35.589-117.625
									C120.662,284.04,127.022,268.613,127.022,268.613z"/>
							</defs>
							<clipPath id="SVGID_00000078026842118463700020000010406369840634636983_">
								<use xlink:href="#SVGID_00000025434590868881805140000001995011425721624219_"  style="overflow:visible;"/>
							</clipPath>
							<g style="clip-path:url(#SVGID_00000078026842118463700020000010406369840634636983_);">
								
									<ellipse transform="matrix(0.1587 -0.9873 0.9873 0.1587 -150.213 509.6528)" style="fill:#ED7251;" cx="223.954" cy="342.97" rx="20.279" ry="20.279"/>
								
									<ellipse transform="matrix(0.1586 -0.9873 0.9873 0.1586 -231.5602 596.6608)" style="fill:#ED7251;" cx="234.29" cy="434.19" rx="20.279" ry="20.279"/>
								
									<ellipse transform="matrix(0.1556 -0.9878 0.9878 0.1556 -312.4461 685.312)" style="fill:#ED7251;" cx="244.626" cy="525.411" rx="20.279" ry="20.279"/>
								
									<ellipse transform="matrix(0.7071 -0.7071 0.7071 0.7071 -214.8142 167.333)" style="fill:#ED7251;" cx="94.582" cy="342.97" rx="20.279" ry="20.279"/>
								
									<ellipse transform="matrix(0.6783 -0.7348 0.7348 0.6783 -285.2764 216.757)" style="fill:#ED7251;" cx="104.918" cy="434.19" rx="20.279" ry="20.279"/>
								
									<ellipse transform="matrix(0.4332 -0.9013 0.9013 0.4332 -408.2265 401.6877)" style="fill:#ED7251;" cx="115.255" cy="525.411" rx="20.279" ry="20.279"/>
								
									<ellipse transform="matrix(0.2298 -0.9732 0.9732 0.2298 -161.2037 382.5133)" style="fill:#ED7251;" cx="161.061" cy="293.101" rx="20.279" ry="20.279"/>
								<circle style="fill:#ED7251;" cx="170.554" cy="390.485" r="20.279"/>
								
									<ellipse transform="matrix(0.2298 -0.9732 0.9732 0.2298 -336.1381 551.0093)" style="fill:#ED7251;" cx="180.046" cy="487.869" rx="20.279" ry="20.279"/>
								<circle style="fill:#ED7251;" cx="189.538" cy="585.253" r="20.279"/>
							</g>
						</g>
						
							<line style="fill:none;stroke:#000000;stroke-width:1.5;stroke-miterlimit:10;" x1="160.298" y1="283.291" x2="216.37" y2="283.291"/>
						
							<line style="fill:none;stroke:#000000;stroke-width:1.5;stroke-miterlimit:10;" x1="128.572" y1="283.291" x2="152.806" y2="283.291"/>
						<g style="opacity:0.35;">
							<path style="fill:#B74B2E;" d="M162.98,359.398c11.628,68.604,20.217,162.45,28.333,225.448h6.74
								C198.052,584.846,186.343,423.088,162.98,359.398z"/>
						</g>
					</g>
				</g>
				<path style="fill:none;stroke:#352C21;stroke-width:1.5;stroke-miterlimit:10;" d="M210.711,142.697
					c0,0,2.37,40.147-41.882,56.76"/>
				<path style="fill:none;stroke:#352C21;stroke-width:1.5;stroke-miterlimit:10;" d="M193.526,134.584
					c0,0,1.205,40.384-31.088,62.917"/>
			</g>
			<path d="M151.097,221.819c0,0-5.91-40.751-47.594-25.197s-3.733,90.834,33.285,60.971
				C173.805,227.729,151.097,221.819,151.097,221.819z"/>
			<path style="fill:none;stroke:#352C21;stroke-width:1.5;stroke-miterlimit:10;" d="M107.696,261.623
				c0,0,6.833-32.864-22.031-43.26"/>
			<path style="fill:none;stroke:#352C21;stroke-width:1.5;stroke-miterlimit:10;" d="M116.216,263.014
				c0,0,19.587-42.572-23.7-59.294"/>
			<path style="fill:none;stroke:#352C21;stroke-width:1.5;stroke-miterlimit:10;" d="M156.471,225.455
				c0,0-18.158-30.805-47.765-30.537"/>
			<path style="fill:none;stroke:#352C21;stroke-width:1.5;stroke-miterlimit:10;" d="M103.503,196.622
				c0,0,40.765,15.75,39.022,56.115"/>
		</g>
		<g style="clip-path:url(#SVGID_00000032625435524570146320000004165921624960127418_);">
			<g>
				<g>
					<path style="fill:#515143;" d="M727.196,302.474c-0.091,0.98-0.178,1.96-0.258,2.94c-2.243,27.239-1.621,58.308,10.21,83.456
						c0.362,0.77,0.734,1.535,1.114,2.296c6.481,12.967,14.466,25.173,20.194,38.484c3.845,8.921,7.101,18.095,9.739,27.444
						c2.509,8.891,5.643,18.776,5.041,28.115c-0.269,4.172-2.355,8.49-6.156,10.232c1.023-0.469-3.182-19.953-3.572-21.975
						c-1.449-7.51-3.217-14.975-5.661-22.228c-4.671-13.861-12.681-26.463-22.515-37.231
						c-11.255-12.323-26.776-19.605-38.286-31.534c-18.215-18.878-22.987-45.946-17.557-71.053
						c1.478,6.565,5.186,12.607,10.369,16.898c-6.457-11.133-7.792-25.105-3.562-37.26c2.659-7.639,7.362-14.508,9.407-22.334
						c0.104,6.111,1.793,12.189,4.855,17.478c-0.623-8.001-1.158-16.474,2.488-23.623c2.324-4.557,5.325-9.318,9.892-11.622
						c10.688-5.391,21.346-11.396,31.437-29.23c-2.105,11.062-4.574,15.758-5.561,19.436c-1.893,7.057-3.649,14.151-5.214,21.288
						C730.707,275.654,728.453,289.012,727.196,302.474z"/>
				</g>
				<path style="fill:none;stroke:#7A724C;stroke-miterlimit:10;" d="M690.36,328.256c13.34,15.195,24.604,32.559,40.737,44.748"/>
				<path style="fill:none;stroke:#7A724C;stroke-miterlimit:10;" d="M700.189,285.272c0.594,2.493,1.739,4.814,2.834,7.132
					c4.282,9.066,7.916,18.439,10.864,28.023c2.891,9.397,5.443,19.543,12.644,26.237"/>
				<path style="fill:none;stroke:#7A724C;stroke-miterlimit:10;" d="M705.901,298.673c1.64,3.626,4.543,6.51,6.881,9.737
					c4.461,6.156,7.087,13.85,13.137,18.477"/>
				<path style="fill:none;stroke:#7A724C;stroke-miterlimit:10;" d="M722.599,245.934c-0.959,13.963-0.948,28.746,6.189,40.785"/>
			</g>
			<g>
				<g>
					<path style="fill:#444436;" d="M-6.745,517.077c2.212-6.579,9.123-10.132,15.329-13.241
						c20.097-10.071,44.619-25.467,48.047-49.808c0.353-2.507,0.384-5.117-0.437-7.512c-1.814-5.294-8.477-5.688-10.295-10.797
						c-4.279-12.032,14.735-22.887,23.251-26.644c9.244-4.078,19.182-6.702,27.881-11.958c5.523-3.337,18.628-14.358,8.496-20.227
						c-3.395-1.966-10.627-1.717-9.518-7.619c0.992-5.277,6.516-8.12,11.002-10.004c7.863-3.302,16.481-3.999,24.522-6.724
						c4.47-1.515,9.515-4.125,11.652-8.582c2.615-5.455-0.742-11.059-5.572-13.718c-6.05-3.331-13.178-3.795-19.945-3.798
						c-7.853-0.003-15.99,1.223-23.293,4.178c-7.853,3.177-14.626,8.453-22.364,11.868c-5.666,2.5-11.301,3.35-16.144-1.328
						c-8.113-7.838-20.001-0.976-24.971,6.947c-9.195,14.658-7.363,33.983-15.855,49.239c-2.098,3.77-5.227,7.721-9.8,8.256
						c-4.109,0.481-7.367-2.445-11.316-2.873c-16.928-1.835-18.608,28.164-19.341,39.01c-0.922,13.64,0.103,27.411,3.04,40.763
						C-19.742,494.482-16.147,508.493-6.745,517.077"/>
				</g>
				<path style="fill:none;stroke:#515143;stroke-width:1.5;stroke-miterlimit:10;" d="M139.185,332.387
					c-28.219,5.229-52.126,21.784-73.128,40.93c-21.397,19.506-39.988,43.238-54.669,68.17C-0.572,461.8-9.63,484.54-9.725,508.417"
					/>
				<path style="fill:none;stroke:#515143;stroke-width:1.5;stroke-miterlimit:10;" d="M43.476,396.597
					c0,0,35.239-14.499,65.375-11.916"/>
				<path style="fill:none;stroke:#515143;stroke-width:1.5;stroke-miterlimit:10;" d="M86.721,356.335
					c0,0,28.113-10.87,53.613-8.624"/>
				<path style="fill:none;stroke:#515143;stroke-width:1.5;stroke-miterlimit:10;" d="M50.056,337.975
					c0,0-9.178,31.523-6.58,58.622"/>
				<path style="fill:none;stroke:#515143;stroke-width:1.5;stroke-miterlimit:10;" d="M111.929,326.667
					c0,0-20.616,16.262-29.153,32.607"/>
				<path style="fill:none;stroke:#515143;stroke-width:1.5;stroke-miterlimit:10;" d="M56.194,446.516
					c0,0-33.722,5.155-60.15,28.126"/>
				<path style="fill:none;stroke:#515143;stroke-width:1.5;stroke-miterlimit:10;" d="M-9.725,402.852
					c0,0-7.924,44.48,4.536,75.765"/>
			</g>
			<g>
				<path style="fill:#7A724C;" d="M173.16,454.098c16.267-0.732,32.726,3.595,46.529,12.232c6.93,4.337,13.156,9.694,19.352,15.028
					c-8.08-1.967-16.313-3.474-24.626-3.679c-12.425-0.306-24.778,2.298-37.204,2.088c-11.218-0.19-22.29-2.674-32.991-6.045"/>
				<path style="fill:#515143;" d="M3.615,540.852c2.093-14.562,4.034-29.626,8.833-43.607
					c14.393-41.935,73.136-70.368,113.783-48.067c40.295-6.957,71.51,4.748,85.989,13.013c-8.953-1.182-17.785,2.692-25.568,7.272
					c-17.051,10.035-31.833,23.906-49.867,32.042c-17.516,7.902-37.002,9.911-55.858,13.614c-15.223,2.99-30.184,7.133-45.103,11.35
					c-6.642,1.878-11.76,5.317-18.041,7.755C12.623,536.229,8.095,537.23,3.615,540.852"/>
				<path style="fill:none;stroke:#7A724C;stroke-miterlimit:10;" d="M126.232,449.178c-46.202,11.782-87.524,42.043-112.987,82.743
					"/>
				<path style="fill:none;stroke:#7A724C;stroke-miterlimit:10;" d="M85.739,464.582c12.48-5.231,26.122-5.486,39.436-5.82
					c13.602-0.342,27.267,0.128,40.73,2.2c8.302,1.278,16.517,3.17,24.489,5.826"/>
				<path style="fill:none;stroke:#7A724C;stroke-miterlimit:10;" d="M59.176,481.712c15.865-5.861,33.231-6.92,50.056-5.09
					c16.825,1.83,33.213,6.459,49.294,11.707"/>
				<path style="fill:none;stroke:#7A724C;stroke-miterlimit:10;" d="M47.483,455.641c7.501,6.162,12.054,16.002,11.99,25.917"/>
				<path style="fill:none;stroke:#7A724C;stroke-miterlimit:10;" d="M79.814,443.102c5.422,5.836,7.348,14.696,4.838,22.257"/>
				<path style="fill:none;stroke:#7A724C;stroke-miterlimit:10;" d="M21.469,479.694c7.291,6.917,11.102,17.334,9.995,27.322"/>
			</g>
			<g>
				<g>
					<path style="fill:#E5B87C;" d="M-3.622,195.403c22.195,12.664,39.49,34.118,46.029,58.946
						c6.426,24.398,2.599,50.098,8.714,74.466c4.542,18.097,15.004,33.918,31.174,43.575c21.895,13.075,47.777,12.857,72.194,16.746
						c11.275,1.796,23.126,4.829,31.907,12.54c8.77,7.702,11.132,19.384,18.223,28.271c7.351,9.214,18.954,10.895,29.726,13.546
						c12.827,3.156,25.224,8.296,36.147,15.775c10.989,7.524,20.118,17.571,26.08,29.525c2.957,5.929,5.233,12.53,5.472,19.204
						c0.235,6.583-1.525,13.008-2.056,19.535c-2.188,26.852,27.713,33.728,48.994,33.213c5.991-0.145,11.977-0.857,17.845-2.07
						c6.434-1.33,12.548-3.712,18.943-5.17c13.992-3.19,28.386-3.957,42.402-7.216c14.515-3.376,28.935-7.514,43.778-9.226
						c14.517-1.674,28.783-0.164,43.102,2.399c13.57,2.429,27.09,5.492,40.889,6.298c12.301,0.719,25.519,0.05,36.008-7.105
						c16.999-11.596,25.067-31.929,36.299-48.378c5.559-8.14,12.075-14.999,20.083-20.738c6.838-4.901,14.116-9.15,21.327-13.469
						c13.179-7.895,27.656-16.165,36.552-29.102c9.755-14.185,7.537-30.91,0.233-45.688c-5.58-11.29-13.548-21.136-20.315-31.699
						c-7.503-11.713-12.804-24.686-16.327-38.126c-7.053-26.907-6.789-57.671,7.658-82.233c6.993-11.89,16.943-20.342,29.378-26.135
						c10.327-4.811,21.802-8.622,29.926-17.003c18.729-19.322-4.901-44.22,2.008-66.273c7.67-24.482,40.155-36.817,63.611-34.686
						c12.698,1.153,25.224,6.866,33.138,17.084c0.664,0.857,1.851-0.345,1.193-1.193c-15.972-20.62-44.398-21.52-67.044-12.612
						c-18.528,7.289-36.102,22.908-34.37,44.519c1.017,12.687,8.177,24.577,6.857,37.499c-1.34,13.109-13.313,20.39-24.164,25.446
						c-11.66,5.432-23.365,9.898-32.495,19.334c-8.259,8.536-13.925,19.226-17.455,30.505c-8.044,25.695-5.338,53.615,3.631,78.694
						c4.338,12.131,10.364,23.041,17.656,33.628c7.177,10.421,14.879,20.816,18.969,32.931c2.758,8.172,3.687,16.964,1.013,25.284
						c-2.414,7.513-7.454,13.804-13.207,19.068c-12.475,11.414-28.023,18.872-42.137,27.968
						c-6.922,4.461-13.721,9.308-19.283,15.431c-6.95,7.652-12.226,16.637-17.508,25.468c-5.552,9.281-11.142,18.796-18.834,26.502
						c-4.045,4.052-8.7,7.65-14.026,9.835c-6.755,2.772-14.205,3.389-21.443,3.421c-28.578,0.124-55.949-11.359-84.66-9.465
						c-13.762,0.908-27.206,4.201-40.56,7.464c-14.147,3.456-28.157,5.77-42.554,7.86c-13.737,1.994-26.53,7.484-40.43,8.652
						c-12.914,1.085-27.291-0.026-39.013-6.004c-6.571-3.351-11.874-8.87-13.386-16.272c-1.377-6.741,0.42-13.65,1.262-20.335
						c1.487-11.806-1.891-22.765-7.94-32.87c-12.646-21.125-34.616-34.326-57.99-40.587c-12.669-3.394-25.985-4.57-33.715-16.612
						c-5.983-9.32-9.012-19.859-18.104-26.898c-18.423-14.264-45.184-12.274-66.944-15.99c-22.837-3.9-44.913-12.784-57.547-33.259
						c-12.398-20.094-11.712-43.597-13.395-66.31c-0.963-12.993-2.687-26.125-7.428-38.342
						c-4.054-10.447-10.128-20.174-17.463-28.63c-7.48-8.623-16.398-15.831-26.343-21.421
						C-3.654,194.74-3.937,195.223-3.622,195.403L-3.622,195.403z"/>
				</g>
			</g>
			<g>
				<g>
					<path style="fill:#66643D;" d="M607.523,420.697c-13.587-0.806-27.612,0.283-40.316,5.529
						c-7.888,3.257-14.317,9.664-17.16,17.852c-2.116,6.092-2.246,19.081-2.246,19.081s1.376-4.324,4.568-6.767
						c9.463-7.245,20.233-9.33,31.669-9.342c6.315-0.007,12.669,0.223,18.943-0.641c5.757-0.793,11.213-2.77,16.139-5.851
						c3.604-2.254,6.87-5.046,9.623-8.273"/>
				</g>
				<g>
					<path style="fill:#7A724C;" d="M735.045,441.892c-19.917-22.202-41.889-35.213-71.659-37.044
						c-10.99-0.676-28.628-2.11-41.598,6.062c-19.725,0.424-38.563-0.596-61.184,19.067c10.546-4.191,22.54-4.714,33.358-1.284
						c11.976,3.797,21.946,12.034,31.633,20.035c4.551,3.758,9.889,9.235,15.883,10.436c7.019,1.407,14.741-0.354,21.863-0.14
						c5.168,0.156,14.41,0.077,18.028,4.576c4.841,6.02-11.289,6.164-13.751,6.31c-4.861,0.288-14.599,0.426-14.599,0.426
						s3.948,5.245,9.784,10.208c16.85,14.329,32.879,13.233,51.437,23.272c11.725,6.342,22.904,14.408,30.242,25.536l24.268-9.351
						C763.891,492.296,754.962,464.094,735.045,441.892z"/>
				</g>
				<path style="fill:none;stroke:#9B9164;stroke-miterlimit:10;" d="M621.787,410.909c0,0,97.246,7.661,138.852,112.217"/>
				<path style="fill:none;stroke:#9B9164;stroke-miterlimit:10;" d="M596.764,429.31c15.467,3.557,32.03,1.577,47.726-1.841
					c9.567-2.083,17.934-3.262,26.773-1.793"/>
				<path style="fill:none;stroke:#9B9164;stroke-miterlimit:10;" d="M626.746,449.047c7.935,2.375,17.881,0.857,27.188-0.706
					c7.944-1.334,15.937-2.466,23.952-3.265c8.791-0.877,18.729-1.993,27.079,1.54"/>
				<path style="fill:none;stroke:#9B9164;stroke-miterlimit:10;" d="M675.712,406.246c14.258,9.474,24.823,23.891,29.254,39.921"/>
				<path style="fill:none;stroke:#9B9164;stroke-miterlimit:10;" d="M667.756,484.166c15.44,3.301,30.966,3.212,46.292,1.332
					c4.286-0.526,8.567-1.092,12.842-1.699c4.023-0.571,8.38-1.824,12.424-0.859"/>
				<path style="fill:none;stroke:#9B9164;stroke-miterlimit:10;" d="M729.885,437.105c3.466,5.374,4.761,7.659,6.508,13.035
					c2.399,7.381,4.649,23.647,3.108,33.35"/>
				<path style="fill:none;stroke:#9B9164;stroke-miterlimit:10;" d="M715.469,424.052c9.917,14.936,16.463,33.532,18.088,51.387"/>
			</g>
		</g>
	</g>
	<g>
		<polygon style="fill:#FFFFFF;" points="32.238,299.305 30.155,295.999 28.759,299.65 25.452,301.733 29.103,303.128 
			31.187,306.435 32.582,302.784 35.889,300.701 		"/>
		<polygon style="fill:#FFFFFF;" points="49.218,365.503 47.424,359.922 44.035,364.706 38.454,366.5 43.238,369.889 
			45.033,375.471 48.421,370.686 54.003,368.892 		"/>
		<polygon style="fill:#FFFFFF;" points="124.637,477.222 123.995,471.394 119.718,475.405 113.89,476.047 117.9,480.323 
			118.542,486.151 122.819,482.141 128.647,481.499 		"/>
		<polygon style="fill:#FFFFFF;" points="468.941,61.11 471.204,55.184 465.106,56.929 459.18,54.665 460.925,60.764 
			458.661,66.689 464.76,64.945 470.685,67.208 		"/>
		<polygon style="fill:#FFFFFF;" points="654.958,200.417 654.398,194.099 649.68,198.338 643.361,198.898 647.6,203.617 
			648.161,209.935 652.879,205.696 659.198,205.136 		"/>
		<polygon style="fill:#FFFFFF;" points="156.176,448.644 155.469,444.533 152.604,447.565 148.494,448.273 151.526,451.137 
			152.233,455.247 155.097,452.215 159.208,451.508 		"/>
		<polygon style="fill:#FFFFFF;" points="228.73,102.683 225.979,99.547 225.122,103.629 221.987,106.381 226.069,107.238 
			228.82,110.373 229.677,106.291 232.812,103.54 		"/>
		<polygon style="fill:#FFFFFF;" points="180.865,68.16 176.588,63.287 175.256,69.632 170.383,73.908 176.727,75.24 
			181.004,80.113 182.336,73.769 187.209,69.492 		"/>
		<polygon style="fill:#FFFFFF;" points="444.348,84.798 443.077,80.825 440.661,84.225 436.688,85.496 440.088,87.912 
			441.358,91.885 443.775,88.485 447.747,87.215 		"/>
		<polygon style="fill:#FFFFFF;" points="635.81,309.961 632.158,306.435 631.529,311.472 628.003,315.124 633.04,315.754 
			636.692,319.28 637.321,314.243 640.847,310.591 		"/>
		<polygon style="fill:#FFFFFF;" points="657.813,358.269 658.275,351.14 652.294,355.048 645.165,354.587 649.073,360.567 
			648.612,367.696 654.592,363.788 661.721,364.249 		"/>
		<polygon style="fill:#FFFFFF;" points="576.494,444.956 572.124,440.944 571.536,446.847 567.524,451.218 573.427,451.805 
			577.798,455.817 578.385,449.914 582.397,445.543 		"/>
		<polygon style="fill:#FFFFFF;" points="292.11,454.624 290.474,450.059 287.804,454.106 283.239,455.741 287.286,458.412 
			288.921,462.976 291.592,458.929 296.156,457.294 		"/>
		<polygon style="fill:#FFFFFF;" points="360.374,469.071 360.19,460.927 353.785,465.96 345.641,466.143 350.674,472.548 
			350.857,480.692 357.263,475.659 365.407,475.476 		"/>
		<g>
			
				<line style="fill:none;stroke:#E5B87C;stroke-width:2;stroke-linecap:round;stroke-miterlimit:10;" x1="150.366" y1="466.806" x2="150.704" y2="469.948"/>
			
				<line style="fill:none;stroke:#E5B87C;stroke-width:2;stroke-linecap:round;stroke-miterlimit:10;" x1="151.315" y1="475.631" x2="151.652" y2="478.773"/>
			
				<line style="fill:none;stroke:#E5B87C;stroke-width:2;stroke-linecap:round;stroke-miterlimit:10;" x1="156.993" y1="472.146" x2="153.851" y2="472.484"/>
			
				<line style="fill:none;stroke:#E5B87C;stroke-width:2;stroke-linecap:round;stroke-miterlimit:10;" x1="148.167" y1="473.095" x2="145.026" y2="473.432"/>
		</g>
		<g>
			
				<line style="fill:none;stroke:#E5B87C;stroke-width:2;stroke-linecap:round;stroke-miterlimit:10;" x1="74.884" y1="382.295" x2="75.921" y2="385.28"/>
			
				<line style="fill:none;stroke:#E5B87C;stroke-width:2;stroke-linecap:round;stroke-miterlimit:10;" x1="77.795" y1="390.68" x2="78.831" y2="393.665"/>
			
				<line style="fill:none;stroke:#E5B87C;stroke-width:2;stroke-linecap:round;stroke-miterlimit:10;" x1="82.543" y1="386.007" x2="79.558" y2="387.043"/>
			
				<line style="fill:none;stroke:#E5B87C;stroke-width:2;stroke-linecap:round;stroke-miterlimit:10;" x1="74.158" y1="388.917" x2="71.173" y2="389.954"/>
		</g>
		<g>
			
				<line style="fill:none;stroke:#E5B87C;stroke-width:2;stroke-linecap:round;stroke-miterlimit:10;" x1="56.827" y1="100.82" x2="57.475" y2="103.913"/>
			
				<line style="fill:none;stroke:#E5B87C;stroke-width:2;stroke-linecap:round;stroke-miterlimit:10;" x1="58.647" y1="109.507" x2="59.296" y2="112.6"/>
			
				<line style="fill:none;stroke:#E5B87C;stroke-width:2;stroke-linecap:round;stroke-miterlimit:10;" x1="63.951" y1="105.475" x2="60.858" y2="106.124"/>
			
				<line style="fill:none;stroke:#E5B87C;stroke-width:2;stroke-linecap:round;stroke-miterlimit:10;" x1="55.264" y1="107.296" x2="52.171" y2="107.945"/>
		</g>
		<g>
			
				<line style="fill:none;stroke:#E5B87C;stroke-width:2;stroke-linecap:round;stroke-miterlimit:10;" x1="625.231" y1="392.677" x2="623.846" y2="395.517"/>
			
				<line style="fill:none;stroke:#E5B87C;stroke-width:2;stroke-linecap:round;stroke-miterlimit:10;" x1="621.341" y1="400.655" x2="619.956" y2="403.496"/>
			
				<line style="fill:none;stroke:#E5B87C;stroke-width:2;stroke-linecap:round;stroke-miterlimit:10;" x1="628.003" y1="400.724" x2="625.162" y2="399.339"/>
			
				<line style="fill:none;stroke:#E5B87C;stroke-width:2;stroke-linecap:round;stroke-miterlimit:10;" x1="620.025" y1="396.834" x2="617.184" y2="395.449"/>
		</g>
		<g>
			
				<line style="fill:none;stroke:#E5B87C;stroke-width:2;stroke-linecap:round;stroke-miterlimit:10;" x1="700.687" y1="218.865" x2="698.267" y2="220.897"/>
			
				<line style="fill:none;stroke:#E5B87C;stroke-width:2;stroke-linecap:round;stroke-miterlimit:10;" x1="693.889" y1="224.573" x2="691.47" y2="226.605"/>
			
				<line style="fill:none;stroke:#E5B87C;stroke-width:2;stroke-linecap:round;stroke-miterlimit:10;" x1="699.948" y1="227.344" x2="697.916" y2="224.924"/>
			
				<line style="fill:none;stroke:#E5B87C;stroke-width:2;stroke-linecap:round;stroke-miterlimit:10;" x1="694.24" y1="220.546" x2="692.208" y2="218.127"/>
		</g>
		<g>
			
				<line style="fill:none;stroke:#E5B87C;stroke-width:2;stroke-linecap:round;stroke-miterlimit:10;" x1="382.39" y1="111.994" x2="380.666" y2="115.531"/>
			
				<line style="fill:none;stroke:#E5B87C;stroke-width:2;stroke-linecap:round;stroke-miterlimit:10;" x1="377.547" y1="121.929" x2="375.822" y2="125.466"/>
			
				<line style="fill:none;stroke:#E5B87C;stroke-width:2;stroke-linecap:round;stroke-miterlimit:10;" x1="385.842" y1="122.014" x2="382.305" y2="120.289"/>
			
				<line style="fill:none;stroke:#E5B87C;stroke-width:2;stroke-linecap:round;stroke-miterlimit:10;" x1="375.908" y1="117.17" x2="372.37" y2="115.446"/>
		</g>
		<g>
			
				<line style="fill:none;stroke:#E5B87C;stroke-width:2;stroke-linecap:round;stroke-miterlimit:10;" x1="608.772" y1="464.21" x2="607.819" y2="467.223"/>
			
				<line style="fill:none;stroke:#E5B87C;stroke-width:2;stroke-linecap:round;stroke-miterlimit:10;" x1="606.096" y1="472.672" x2="605.143" y2="475.685"/>
			
				<line style="fill:none;stroke:#E5B87C;stroke-width:2;stroke-linecap:round;stroke-miterlimit:10;" x1="612.696" y1="471.762" x2="609.683" y2="470.809"/>
			
				<line style="fill:none;stroke:#E5B87C;stroke-width:2;stroke-linecap:round;stroke-miterlimit:10;" x1="604.233" y1="469.086" x2="601.22" y2="468.133"/>
		</g>
		<g>
			
				<line style="fill:none;stroke:#E5B87C;stroke-width:2;stroke-linecap:round;stroke-miterlimit:10;" x1="501.753" y1="118.73" x2="502.335" y2="121.836"/>
			
				<line style="fill:none;stroke:#E5B87C;stroke-width:2;stroke-linecap:round;stroke-miterlimit:10;" x1="503.388" y1="127.454" x2="503.97" y2="130.56"/>
			
				<line style="fill:none;stroke:#E5B87C;stroke-width:2;stroke-linecap:round;stroke-miterlimit:10;" x1="508.777" y1="123.536" x2="505.671" y2="124.118"/>
			
				<line style="fill:none;stroke:#E5B87C;stroke-width:2;stroke-linecap:round;stroke-miterlimit:10;" x1="500.052" y1="125.171" x2="496.947" y2="125.753"/>
		</g>
		<g>
			
				<line style="fill:none;stroke:#E5B87C;stroke-width:2;stroke-linecap:round;stroke-miterlimit:10;" x1="592.701" y1="84.865" x2="590.687" y2="87.301"/>
			
				<line style="fill:none;stroke:#E5B87C;stroke-width:2;stroke-linecap:round;stroke-miterlimit:10;" x1="587.045" y1="91.706" x2="585.032" y2="94.142"/>
			
				<line style="fill:none;stroke:#E5B87C;stroke-width:2;stroke-linecap:round;stroke-miterlimit:10;" x1="593.505" y1="93.338" x2="591.069" y2="91.324"/>
			
				<line style="fill:none;stroke:#E5B87C;stroke-width:2;stroke-linecap:round;stroke-miterlimit:10;" x1="586.664" y1="87.683" x2="584.228" y2="85.669"/>
		</g>
		<g>
			
				<line style="fill:none;stroke:#E5B87C;stroke-width:2;stroke-linecap:round;stroke-miterlimit:10;" x1="269.771" y1="58.878" x2="268.67" y2="61.84"/>
			
				<line style="fill:none;stroke:#E5B87C;stroke-width:2;stroke-linecap:round;stroke-miterlimit:10;" x1="266.678" y1="67.198" x2="265.577" y2="70.16"/>
			
				<line style="fill:none;stroke:#E5B87C;stroke-width:2;stroke-linecap:round;stroke-miterlimit:10;" x1="273.315" y1="66.616" x2="270.353" y2="65.515"/>
			
				<line style="fill:none;stroke:#E5B87C;stroke-width:2;stroke-linecap:round;stroke-miterlimit:10;" x1="264.996" y1="63.523" x2="262.034" y2="62.422"/>
		</g>
	</g>
</g>
</svg>
