<?xml version="1.0" encoding="utf-8"?>
<!-- Generator: Adobe Illustrator 27.5.0, SVG Export Plug-In . SVG Version: 6.00 Build 0)  -->
<svg version="1.1" xmlns="http://www.w3.org/2000/svg" xmlns:xlink="http://www.w3.org/1999/xlink" x="0px" y="0px"
	 viewBox="160 100 160 200" style="enable-background:new 0 0 500 500;" xml:space="preserve">
<g id="OBJECTS">
	<g>
		<path style="fill-rule:evenodd;clip-rule:evenodd;fill:#eeaad7;" d="M227.478,166.109c-11.253-1.125-22.558-3.578-32.392-9.369
			c-2.759-1.068-3.704-3.033-3.518-5.121c0.542-0.512,1.096-1.008,1.651-1.503c1.289-1.15,2.604-2.271,3.922-3.386
			c0.79-0.661,1.583-1.321,2.377-1.978c1.574-1.304,3.165-2.589,4.757-3.87c4.658-1.466,9.664-1.95,14.443-1.547
			c9.353,1.253,19.641,5.711,23.794,14.707c1.811,4.285-0.09,9.81-4.564,11.496c-1.755,0.666-3.607,0.868-5.474,0.868
			C230.803,166.405,229.118,166.243,227.478,166.109z"/>
		<path style="fill-rule:evenodd;clip-rule:evenodd;fill:#eeaad7;" d="M253.27,280.875c-0.916-0.121-1.831-0.254-2.74-0.422
			c-0.393-0.072-0.784-0.154-1.173-0.241c-0.4-0.157-0.797-0.321-1.191-0.493c-0.618-0.27-1.22-0.577-1.817-0.891
			c-1.406-0.757-2.792-1.551-4.176-2.349c-1.411-0.815-2.802-1.663-4.133-2.605c-0.574-0.423-1.138-0.856-1.689-1.308
			c-0.508-0.416-0.993-0.862-1.472-1.31c-0.979-0.943-1.894-1.938-2.756-2.988c-1.508-1.904-2.835-3.956-4.119-6.016
			c-0.109-0.179-0.217-0.358-0.323-0.538c0.025-0.083,0.052-0.166,0.081-0.249c-0.183-0.641-0.255-1.244-0.231-1.813
			c1.065-1.075,2.132-2.147,3.174-3.244c1.034-1.087,2.038-2.201,3.028-3.327c2.467-1.137,5.152-1.94,6.995-2.597
			c2.539-0.667,5.209-1.054,7.832-0.788c1.462,0.149,2.86,0.577,4.219,1.122c1.293,0.487,2.542,1.433,3.981,0.976
			c5.209-1.304,10.676-2.504,15.961-0.891c6.038,1.87,16.316,6.938,12.004,14.646c0.437,4.039-3.86,6.233-6.456,8.56
			c-5.99,4.808-13.679,7.077-21.314,7.166C255.725,281.16,254.496,281.029,253.27,280.875L253.27,280.875z M227.428,263.168
			L227.428,263.168L227.428,263.168C227.428,263.168,227.428,263.168,227.428,263.168z"/>
		<g>
			<path style="fill-rule:evenodd;clip-rule:evenodd;fill:#4F3342;" d="M225.915,260.96c0.313-1.777,2.506-2.46,3.619-3.723
				c1.478-1.32,2.833-2.765,4.199-4.197c7.156-8.08,15.943-13.117,25.686-5.75c2.045-0.501,3.764-2.29,5.896-2.815
				c3.797-1.16,8.305-1.254,11.635,1.178c4.349,2.976,6.988,7.825,11.345,10.776c0.92,1.052,3.764,0.903,3.475,2.567
				c-1.019,2.21-5.255-1.358-6.46-2.257c-8.745-8.631-11.626-15.548-24.682-7.588c-2.759,1.099-6.034-3.623-10.075-3.455
				c-4.078-0.191-7.972,1.871-10.977,4.488c-3.96,3.514-7.226,7.755-11.512,10.907C227.711,262.194,225.979,262.321,225.915,260.96z
				"/>
			<path style="fill-rule:evenodd;clip-rule:evenodd;fill:#4F3342;" d="M254.074,276.667c-5.124-0.738-10.074-2.492-14.588-5.013
				c-1.694-0.732-18.047-10.446-12.531-11.525c5.583,5.441,12.605,9.932,20.04,12.687c8.928,3.227,19.16,2.715,27.672-1.519
				c5.721-3.339,11.96-6.754,15.953-12.166c0.488-1.219,2.435-0.421,1.887,0.797c-0.38,0.819-0.951,1.504-1.562,2.161
				c-3.507,3.774-7.895,6.567-12.237,9.275C271.451,276.001,262.579,277.689,254.074,276.667z"/>
			<path style="fill-rule:evenodd;clip-rule:evenodd;fill:#4F3342;" d="M259.719,248.485c-2.149,0.063-0.318-7.454-0.501-9.047
				c1.077-10.975-2.487-14.473-12.304-17.978c-5.638-2.474-5.77-9.68-3.026-14.41c3.154-5.425,7.453-10.151,9.719-16.095
				c3.27-7.547,5.315-15.574,6.782-23.649c2.899-20.574,3.132-48.264-23.38-51.09c-9.169-1.502-18.668-0.051-27.424,2.857
				c-9.347,3.148-30.152,11.988-27.209,24.294c1.575,2.404,4.208,4.008,6.931,4.805c0.467,0.13,0.936,0.24,1.415,0.32
				c1.326,0.267,0.838,2.294-0.436,2.002c-16.915-3.888-10.372-17.813,0.461-24.805c12.205-7.568,26.52-12.538,40.993-12.105
				c25.047,0.931,32.818,17.01,31.937,40.023c-0.723,18.812-5.477,38.092-17.249,53.102c-2.95,4.229-3.626,11.407,2.274,13.335
				c9.684,2.967,13.66,8.771,12.606,18.927c-0.177,2.625-0.457,5.244-0.583,7.872C260.972,247.562,260.655,248.571,259.719,248.485z
				"/>
			<path style="fill-rule:evenodd;clip-rule:evenodd;fill:#4F3342;" d="M200.433,170.477c-1.171-1.28,0.871-2.381,1.632-3.239
				c1.181-1.144,2.206-2.434,3.076-3.827c-3.021,2.302-10.339,6.624-14.082,6.203c-1.054-0.384-0.931-1.711-0.104-2.276
				c2.394-1.842,4.87-3.641,6.685-6.098c-4.083,2.232-8.826,3.339-13.45,3.583c-1.883,0.183-3.481-1.578-1.303-2.688
				c2.464-1.208,4.836-2.604,6.933-4.387c-1.984,0.664-10.213,3.362-10.999,0.67c-0.133-0.644,0.376-1.195,0.906-1.473
				c2.511-1.275,5.066-2.511,7.337-4.198c1.061-0.808,2.104-1.683,2.837-2.812c0.271-0.545,0.527-1.237,1.278-1.158
				c1.882,0.409,0.424,2.479-0.348,3.317c-1.966,2.218-4.58,3.738-7.158,5.14c3.57-0.494,6.946-1.825,9.993-3.728
				c0.881-0.596,2.105,0.315,1.679,1.326c-2.069,3.382-5.625,5.718-8.945,7.77c3.439-0.582,6.931-1.306,10.007-3.02
				c1.418-0.775,2.674-1.782,3.896-2.824c0.817-0.605,2.02,0.093,1.797,1.114c-1.394,3.43-4.068,6.35-6.864,8.736
				c2.693-1.154,5.395-2.387,7.761-4.135c1.785-1.128,2.997-2.887,4.575-4.21c0.983-0.507,1.902,0.579,1.563,1.537
				c-0.794,2.726-2.429,5.17-4.198,7.363c1.73-0.922,3.409-1.963,4.99-3.123c1.325-0.623,2.939-3.511,4.268-2.471
				C216.761,163.29,201.78,172.271,200.433,170.477z"/>
			<path style="fill-rule:evenodd;clip-rule:evenodd;fill:#4F3342;" d="M214.991,173.74c-1.85-0.543-0.379-2.344,0.427-3.173
				c0.874-1.112,1.674-2.285,2.322-3.543c-1.443,1.116-10.072,7.457-10.522,3.707c0.848-2.123,3.064-3.531,4.144-5.594
				c0.956-1.036,1.041-4.102,2.698-3.928c2.422,0.666-1.954,6.51-2.868,7.594c2.458-1.192,4.722-2.797,6.729-4.645
				c0.697-0.638,1.195-1.453,1.838-2.133c0.793-0.743,2.049,0.045,1.782,1.082c-0.576,2.261-1.663,4.383-2.85,6.382
				c1.381-1.096,2.7-2.285,3.825-3.648c0.912-0.914,1.312-2.39,2.463-3.017c3.136-0.226,0.745,5.248,0.07,6.725
				c1.147-0.983,2.319-2.262,3.09-3.524c0.801-1.062,1.07-2.605,2.176-3.388c3.114-0.611,1.39,5.033,0.6,6.469
				c1.872-1.458,2.904-3.651,4.343-5.458c3.063-1.422,2.126,4.171,1.398,5.634c1.736-1.522,2.122-4.194,3.895-5.562
				c2.327-0.328,1.148,2.801,0.889,4.056c2.437-2.605,5.925-4.412,9.561-3.794c0.881,0.111,2.36,0.205,2.132,1.451
				c-0.488,1.535-2.355,0.325-3.482,0.49c-2.59-0.1-4.888,1.396-6.643,3.172c-0.994,1.148-4,4.201-4.397,1.062
				c-0.977,1.234-3.869,3.967-4.92,1.559c-0.128-1.53,1.166-2.783,1.421-4.265c-1.671,2.183-3.782,4.753-6.562,5.374
				c-2.497-0.526-0.108-3.119,0.413-4.403c-1.193,1.427-5.615,6.235-7.493,4.683c-0.469-0.528-0.269-1.264,0.096-1.79
				c0.773-1.19,1.594-2.362,2.116-3.691C221.259,170.061,218.446,173.05,214.991,173.74z"/>
			<path style="fill-rule:evenodd;clip-rule:evenodd;fill:#4F3342;" d="M252.189,166.058c-1.662-0.429-1.197-2.862-1.703-4.17
				c-0.718-3.74-1.433-7.555-3.389-10.88c-6.504-11.988-21.893-15.808-34.404-12.279c-3.249,0.856-6.36,2.206-9.323,3.778
				c-1.372,0.413-3.853,3.65-4.962,2.344c-1.642-2.406,9.207-6.577,11.069-7.288c15.306-5.511,34.762-0.406,40.975,15.745
				c1.176,3.069,1.641,6.352,2.315,9.555C252.866,163.963,254.055,165.963,252.189,166.058z"/>
			<path style="fill-rule:evenodd;clip-rule:evenodd;fill:#4F3342;" d="M256.519,267.292c-2.888-1.27-1.293-4.916,0.504-6.464
				c-8.643-4.273-19.262-1.559-27.964,1.326c-0.935,0.973-2.487-0.429-1.513-1.417c8.441-3.801,22.942-6.405,31.213-1.275
				c8.604-4.357,22.33-2.655,31.244,0.105c0.561,0.673-0.074,1.803-0.95,1.64c-9.212-1.949-19.434-3.992-28.466-0.364
				C264.142,263.711,260.293,268.441,256.519,267.292L256.519,267.292z M257.442,265.413c2.206,0.047,3.501-2.087,1.346-3.438
				c-0.703,0.696-2.815,2.78-1.306,3.457C257.482,265.432,257.442,265.413,257.442,265.413z"/>
			<path style="fill-rule:evenodd;clip-rule:evenodd;fill:#4F3342;" d="M179.838,131.508c-1.958-1.423,3.025-4.87,3.995-5.994
				c5.977-5.204,13.145-8.908,20.514-11.724c1.209-0.519,2.03,1.379,0.797,1.887c-7.286,2.788-14.386,6.444-20.262,11.636
				c-1.009,0.909-1.99,1.845-2.907,2.847C181.39,130.787,180.895,132.103,179.838,131.508z"/>
			<path style="fill-rule:evenodd;clip-rule:evenodd;fill:#4F3342;" d="M208.193,113.662c-0.198-1.795,4.983-2.023,6.332-2.315
				c1.311-0.183,1.595,1.866,0.278,2.03c-1.402,0.147-2.796,0.383-4.152,0.774C209.806,114.46,208.427,114.957,208.193,113.662z"/>
			<path style="fill-rule:evenodd;clip-rule:evenodd;fill:#4F3342;" d="M236.15,164.061c-12.997-0.318-26.202-2.633-37.898-8.495
				c-1.154-0.626-0.184-2.448,0.982-1.798c0.54,0.307,1.102,0.578,1.664,0.842c3.246,1.477,6.85,2.712,10.188,3.766
				c8.656,2.513,17.72,3.585,26.72,3.653c1.398,0.313,5.714-1.064,5.775,0.836c0.01,0.575-0.45,1.01-1.007,1.041
				C240.433,164.023,238.293,164.101,236.15,164.061z"/>
			<path style="fill-rule:evenodd;clip-rule:evenodd;fill:#4F3342;" d="M249.289,227.417c-5.171-0.582-10.326-3.913-11.364-9.279
				c-0.144-0.998-0.664-2.901,0.797-3.07c1.152-0.024,1.088,1.207,1.1,2.037c0.581,4.8,5.155,7.749,9.661,8.273
				C250.806,225.483,250.604,227.576,249.289,227.417z"/>
			<path style="fill-rule:evenodd;clip-rule:evenodd;fill:#4F3342;" d="M257.916,282.813c-1.766-0.102-9.906-0.291-8.752-3.154
				c0.872-1.119,2.039,0.332,3.077,0.427c3.713,0.824,7.742,1.1,11.364-0.25c0.525-0.191,1.123,0.124,1.299,0.643
				C265.38,282.703,259.409,282.746,257.916,282.813z"/>
		</g>
	</g>
</g>
</svg>
