<svg xmlns="http://www.w3.org/2000/svg" xmlns:xlink="http://www.w3.org/1999/xlink" version="1.1" x="0px" y="0px" viewBox="100 40 300 300" style="enable-background:new 0 0 500 500;" xml:space="preserve">
<g id="BACKGROUND">
</g>
<g id="OBJECTS">
	<g>
		<linearGradient id="SVGID_1_" gradientUnits="userSpaceOnUse" x1="353.4916" y1="253.1337" x2="333.1741" y2="266.325" fill="#000000">
			<stop offset="0" style="stop-color:#eeaad7" fill="#000000"/>
			<stop offset="0.5099" style="stop-color:#9a1d71" fill="#000000"/>
			<stop offset="0.9851" style="stop-color:#2d2b2b" fill="#000000"/>
		</linearGradient>
		<path style="fill:url(#SVGID_1_);" d="M352.4,249.58c-3.14,5.43-6.69,10.58-10.62,15.42h-9.95    C339.25,260.61,346.14,255.44,352.4,249.58z"/>
		<g>
			
				<linearGradient id="SVGID_00000154404677025760635770000017627171667437453198_" gradientUnits="userSpaceOnUse" x1="339.5555" y1="126.8709" x2="149.4342" y2="250.3079" fill="#000000">
				<stop offset="0" style="stop-color:#eeaad7" fill="#000000"/>
				<stop offset="0.5099" style="stop-color:#9a1d71" fill="#000000"/>
				<stop offset="0.9851" style="stop-color:#2d2b2b" fill="#000000"/>
			</linearGradient>
			<path style="fill:url(#SVGID_00000154404677025760635770000017627171667437453198_);" d="M368.51,189.5     c0,28.61-10.01,54.89-26.73,75.5H155.24c-14.19-17.51-23.55-39.09-26.05-62.72c-0.25-2.3-0.43-4.63-0.53-6.97     c-0.1-1.93-0.15-3.86-0.15-5.81c0-11.36,1.58-22.36,4.53-32.77c0.77-2.71,1.62-5.37,2.57-7.99     c16.69-46.21,60.93-79.24,112.9-79.24c52.09,0,96.43,33.2,113.02,79.59c0.74,2.06,1.43,4.15,2.05,6.27     c1.94,6.53,3.33,13.29,4.13,20.24c0.24,2.01,0.42,4.03,0.54,6.07C368.43,184.26,368.51,186.87,368.51,189.5z"/>
			<path style="opacity:0.16;fill:#3A0808;" d="M210.97,265h-55.73c-14.19-17.51-23.55-39.09-26.05-62.72     c-0.25-2.3-0.43-4.63-0.53-6.97c-0.1-1.93-0.15-3.86-0.15-5.81c0-11.36,1.58-22.36,4.53-32.77c0.77-2.71,1.62-5.37,2.57-7.99     c7.54-20.87,20.7-39.06,37.65-52.72c-12.98,19.02-20.57,42.02-20.57,66.79C152.69,206.3,176.08,244.33,210.97,265z"/>
			<g style="opacity:0.34;">
				<path style="fill:#fff18a;" d="M200.56,150.44l-67.52,6.29c0.77-2.71,1.62-5.37,2.57-7.99L200.56,150.44z"/>
				<path style="fill:#fff18a;" d="M368.25,181.67l-51-4.75l50.46-1.32C367.95,177.61,368.13,179.63,368.25,181.67z"/>
				<path style="fill:#fff18a;" d="M232.94,196.85l-103.75,5.43c-0.25-2.3-0.43-4.63-0.53-6.97L232.94,196.85z"/>
				<path style="fill:#fff18a;" d="M363.58,155.36l-93.93-4.92l91.88-1.35C362.27,151.15,362.96,153.24,363.58,155.36z"/>
			</g>
			<circle style="opacity:0.58;fill:#FFE357;" cx="294.628" cy="194.631" r="13.594"/>
			<path style="opacity:0.25;fill:#fff18a;" d="M292.628,85.507c0,0,68.044,19.582,68.044,110.468     C360.672,195.975,356.235,118.946,292.628,85.507z"/>
		</g>
		<g>
			
				<linearGradient id="SVGID_00000146497822618633456260000017426951719976036003_" gradientUnits="userSpaceOnUse" x1="246.6408" y1="272.1848" x2="248.0548" y2="320.2618" fill="#000000">
				<stop offset="0" style="stop-color:#eeaad7" fill="#000000"/>
				<stop offset="0.5441" style="stop-color:#9a1d71" fill="#000000"/>
				<stop offset="0.9851" style="stop-color:#2d2b2b" fill="#000000"/>
			</linearGradient>
			<path style="fill:url(#SVGID_00000146497822618633456260000017426951719976036003_);" d="M305,309.5c1.273-0.402-35.35,0-35.35,0     l56.837-13.974h-42.792l62.355-13.042h-50.128l70.098-11.411H246.608H127.197l70.098,11.411h-50.128l62.355,13.042h-42.792     l56.837,13.974c0,0-36.685,0-35.35,0C188.216,309.5,243.98,328.773,305,309.5z"/>
			<g>
				<path style="opacity:0.31;fill:#fff18a;" d="M250,278.624c0,0,21.817-1.046,48.229,0      C298.229,278.624,266.884,280.716,250,278.624z"/>
				<path style="opacity:0.31;fill:#fff18a;" d="M189.067,275.554c0,0,26.03-0.855,57.541,0      C246.608,275.554,209.212,277.265,189.067,275.554z"/>
				<path style="opacity:0.31;fill:#fff18a;" d="M214.163,312.761c0,0,26.03-0.855,57.541,0      C271.704,312.761,234.308,314.472,214.163,312.761z"/>
				<path style="opacity:0.31;fill:#fff18a;" d="M198.162,287.717c0,0,36.514-1.046,80.716,0      C278.878,287.717,226.42,289.809,198.162,287.717z"/>
				<path style="opacity:0.31;fill:#fff18a;" d="M253.51,299.894c0,0,16.186-0.697,35.78,0      C289.29,299.894,266.036,301.289,253.51,299.894z"/>
				<path style="opacity:0.31;fill:#fff18a;" d="M199.61,300.359c0,0,19.026-0.697,42.058,0      C241.668,300.359,214.334,301.754,199.61,300.359z"/>
			</g>
		</g>
		<g>
			<g>
				<g>
					<g>
						<path style="fill:#1B113A;" d="M121.5,265c0,0,38.5-28,87-31s105,31,105,31H121.5z"/>
						<path style="fill:#1B113A;" d="M239,265c0,0,50-25,74.5-25s65,25,65,25H239z"/>
					</g>
				</g>
				<g>
					<g>
						<g>
							<path style="fill:#1B113A;" d="M279.651,103.494c0,0,1.794-14.353,13.5-21.586s25.191-4.503,32.842-1.385l-8.452,4.025         c0,0-4.485-1.569-7.19-1.698c0,0,3.872,1.482,4.727,2.965c0,0-3.163,1.793-5.621,2.251c0,0-2.215-2.525-5.507-2.406         c0,0,3.416,2.365,3.853,3.679l-4.564,2.84c0,0-2.91-1.884-7.492-1.914c0,0,4.71,2.714,4.829,3.573         c0,0-1.594,0.827-3.696,2.403c0,0-2.437-2.777-7.3-1.191c0,0,3.843,1.366,4.616,2.653         C294.196,97.704,284.696,99.872,279.651,103.494z"/>
							<path style="fill:#1B113A;" d="M279.422,103.4c0,0,8.749-11.519,5.432-24.874c-3.317-13.354-14.87-20.827-22.52-23.945         l3.232,8.786c0,0,4.305,2.013,6.329,3.811c0,0-3.805-1.647-5.453-1.183c0,0,1.009,3.493,2.447,5.539         c0,0,3.349-0.257,5.621,2.128c0,0-4.096-0.696-5.327-0.062l1.279,5.221c0,0,3.398,0.686,6.696,3.868         c0,0-5.266-1.351-5.951-0.819c0,0,0.562,1.705,0.964,4.302c0,0,3.684-0.283,6.053,4.251c0,0-3.703-1.71-5.156-1.328         C273.066,89.094,278.345,97.285,279.422,103.4z"/>
							<path style="fill:#1B113A;" d="M279.544,103.722c0,0,14.067-3.372,24.956,5.041c10.889,8.412,13.079,21.996,12.853,30.254         l-6.742-6.496c0,0-0.109-4.751-0.94-7.328c0,0-0.024,4.146-1.112,5.468c0,0-2.791-2.33-4.085-4.469         c0,0,1.584-2.962,0.315-6.002c0,0-1.012,4.029-2.088,4.902l-4.264-3.272c0,0,0.74-3.386-0.845-7.687         c0,0-0.883,5.364-1.646,5.777c0,0-1.335-1.201-3.55-2.614c0,0,1.742-3.258-1.454-7.253c0,0,0.074,4.078-0.86,5.254         C290.081,115.299,284.708,107.169,279.544,103.722z"/>
							<path style="fill:#1B113A;" d="M280.421,104.715c0,0-11.949-8.152-25.118-4.16c-13.168,3.992-20.044,15.91-22.768,23.709         l8.61-3.675c0,0,1.791-4.401,3.484-6.515c0,0-1.451,3.884-0.904,5.507c0,0,3.437-1.186,5.407-2.725         c0,0-0.427-3.331,1.839-5.722c0,0-0.487,4.126,0.209,5.324l5.149-1.543c0,0,0.513-3.428,3.522-6.884         c0,0-1.081,5.328-0.516,5.985c0,0,1.674-0.648,4.247-1.181c0,0-0.47-3.664,3.937-6.262c0,0-1.519,3.785-1.064,5.217         C266.457,111.79,274.369,106.101,280.421,104.715z"/>
							<path style="fill:#1B113A;" d="M279.643,103.478c0,0,9.884-7.194,16.979-8.342l1.651,1.993l0.647-2.76         c0,0,4.251-1.487,8.002-1.437c0.454,0.006,0.959,2.132,1.145,3.481c0,0,0.938-2.29,0.87-3.711         c0,0,13.751,1.015,28.686,13.451c0,0-12.31,2.334-18.69,2.143c0,0,0.681-2.049,0.518-3.493c0,0-1.341,2.296-2.846,3.147         c0,0-7.091-0.862-7.804-0.677c0,0-0.464-2.165-0.744-3.536c0,0-0.736,3.14-1.2,3.834l-4.197-0.081         c0,0-0.785-1.79-1.463-2.752l-0.26,3.252c0,0-4.479,0.433-6.799,0.313l-0.736-3.284l-1.127,3.616         C292.274,108.637,280.89,103.444,279.643,103.478z"/>
							<path style="fill:#1B113A;" d="M281.283,105.089c0,0-3.479-11.72-8.417-16.942l-2.523,0.58l1.163-2.585         c0,0-2.473-3.764-5.483-6.003c-0.364-0.271-2.058,1.111-3.025,2.069c0,0,0.646-2.389,1.564-3.476         c0,0-11.538-7.549-30.957-6.746c0,0,8.359,9.333,13.542,13.058c0,0,0.704-2.041,1.711-3.089c0,0-0.329,2.638,0.348,4.229         c0,0,6.156,3.624,6.61,4.204c0,0,1.684-1.438,2.74-2.356c0,0-1.323,2.941-1.377,3.775l3.383,2.486         c0,0,1.711-0.945,2.834-1.297l-1.769,2.741c0,0,3.294,3.065,5.21,4.38l2.58-2.162l-1.302,3.557         C268.116,101.512,280.313,104.304,281.283,105.089z"/>
							<path style="fill:#1B113A;" d="M281.035,103.997c0,0-11.752,3.368-17.021,8.256l0.556,2.528l-2.574-1.187         c0,0-3.787,2.437-6.055,5.426c-0.275,0.362,1.091,2.068,2.04,3.044c0,0-2.382-0.669-3.461-1.597         c0,0-7.658,11.466-7.039,30.891c0,0,9.412-8.27,13.186-13.418c0,0-2.034-0.723-3.072-1.74c0,0,2.635,0.354,4.232-0.308         c0,0,3.682-6.121,4.267-6.57c0,0-1.422-1.697-2.33-2.762c0,0,2.929,1.351,3.762,1.412l2.518-3.359c0,0-0.929-1.72-1.27-2.846         l2.724,1.795c0,0,3.096-3.265,4.429-5.168l-2.137-2.6l3.544,1.336C277.333,117.129,280.241,104.959,281.035,103.997z"/>
							<path style="fill:#1B113A;" d="M280.481,103.101c0,0,8.72,8.568,11.017,15.379l-1.695,1.956l2.828,0.185         c0,0,2.165,3.949,2.731,7.658c0.069,0.449-1.946,1.296-3.245,1.701c0,0,2.413,0.55,3.803,0.249         c0,0,1.256,13.731-8.558,30.506c0,0-4.324-11.76-5.183-18.084c0,0,2.133,0.335,3.53-0.063c0,0-2.485-0.946-3.572-2.29         c0,0-0.314-7.136-0.614-7.81c0,0,2.06-0.813,3.366-1.315c0,0-3.218-0.211-3.979-0.554l-0.61-4.154         c0,0,1.637-1.068,2.475-1.895l-3.25,0.277c0,0-1.162-4.347-1.425-6.656l3.119-1.265l-3.752-0.518         C277.465,116.408,280.719,104.326,280.481,103.101z"/>
						</g>
						<path style="fill:#1B113A;" d="M278.465,103.997c0,0-3.496,22.037-15.131,43.406c-8.789,16.141-24.307,55.938-22.735,93.649        h10.37c0,0,0-42.739,11.056-71.965c7.968-21.062,18.109-43.266,19.396-64.372L278.465,103.997z"/>
						<g>
							<path style="fill:#1B113A;" d="M201.522,145.296c0,0-2.485-10.092-11.446-14.271c-8.961-4.179-18.355-1.098-23.553,1.769         l6.37,2.163c0,0,3.069-1.496,4.988-1.816c0,0-2.639,1.382-3.125,2.513c0,0,2.408,1.014,4.2,1.134c0,0,1.369-1.988,3.728-2.18         c0,0-2.239,1.974-2.441,2.949l3.495,1.644c0,0,1.918-1.589,5.186-1.995c0,0-3.133,2.332-3.146,2.955         c0,0,1.207,0.456,2.839,1.405c0,0,1.506-2.186,5.11-1.462c0,0-2.628,1.297-3.071,2.281         C190.657,142.386,197.619,143.136,201.522,145.296z"/>
							<path style="fill:#1B113A;" d="M201.679,145.21c0,0-7.21-7.486-5.964-17.294c1.246-9.808,8.863-16.111,14.061-18.978         l-1.569,6.541c0,0-2.903,1.798-4.197,3.251c0,0,2.577-1.494,3.792-1.302c0,0-0.427,2.577-1.281,4.158         c0,0-2.411,0.098-3.832,1.991c0,0,2.864-0.84,3.796-0.492l-0.474,3.833c0,0-2.367,0.775-4.454,3.322         c0,0,3.644-1.406,4.178-1.084c0,0-0.258,1.264-0.326,3.151c0,0-2.653,0.107-3.963,3.542c0,0,2.499-1.531,3.568-1.381         C205.013,134.468,201.933,140.756,201.679,145.21z"/>
							<path style="fill:#1B113A;" d="M201.619,145.45c0,0-10.321-1.225-17.386,5.692c-7.065,6.917-7.487,16.795-6.632,22.669         l4.266-5.201c0,0-0.321-3.399,0.056-5.308c0,0,0.365,2.956,1.253,3.809c0,0,1.796-1.897,2.54-3.532         c0,0-1.379-1.981-0.728-4.257c0,0,1.06,2.79,1.901,3.323l2.768-2.693c0,0-0.812-2.354-0.042-5.556         c0,0,1.08,3.754,1.659,3.985c0,0,0.852-0.969,2.314-2.163c0,0-1.517-2.179,0.429-5.298c0,0,0.289,2.916,1.054,3.677         C195.071,154.596,198.222,148.344,201.619,145.45z"/>
							<path style="fill:#1B113A;" d="M201.075,146.233c0,0,7.843-6.82,17.575-5.077c9.732,1.743,15.639,9.671,18.238,15.008         l-6.453-1.9c0,0-1.648-2.99-3.033-4.357c0,0,1.361,2.65,1.107,3.854c0,0-2.552-0.558-4.087-1.491         c0,0,0.025-2.413-1.793-3.929c0,0,0.694,2.903,0.298,3.816l-3.804-0.669c0,0-0.653-2.403-3.091-4.617         c0,0,1.219,3.711,0.87,4.228c0,0-1.249-0.322-3.13-0.486c0,0,0.028-2.654-3.335-4.138c0,0,1.402,2.574,1.197,3.633         C211.635,150.109,205.511,146.714,201.075,146.233z"/>
							<path style="fill:#1B113A;" d="M201.527,145.284c0,0-7.657-4.304-12.817-4.527l-1.011,1.561l-0.693-1.915         c0,0-3.159-0.704-5.831-0.354c-0.323,0.042-0.506,1.602-0.525,2.58c0,0-0.862-1.555-0.932-2.575         c0,0-9.727,1.879-19.342,12.007c0,0,8.98,0.632,13.517-0.04c0,0-0.658-1.405-0.663-2.449c0,0,1.15,1.525,2.295,2.007         c0,0,4.988-1.21,5.512-1.138c0,0,0.149-1.584,0.234-2.586c0,0,0.789,2.179,1.178,2.635l2.989-0.41         c0,0,0.41-1.343,0.813-2.087l0.459,2.298c0,0,3.232-0.067,4.878-0.347l0.249-2.406l1.108,2.486         C192.947,150.027,200.634,145.365,201.527,145.284z"/>
							<path style="fill:#1B113A;" d="M200.492,146.572c0,0,1.499-8.655,4.584-12.797l1.849,0.202l-1.047-1.747         c0,0,1.449-2.894,3.409-4.744c0.237-0.224,1.561,0.62,2.332,1.223c0,0-0.661-1.65-1.408-2.349c0,0,7.6-6.355,21.525-7.413         c0,0-5.182,7.362-8.568,10.455c0,0-0.674-1.397-1.48-2.06c0,0,0.457,1.855,0.107,3.047c0,0-4.089,3.103-4.364,3.555         c0,0-1.322-0.885-2.153-1.451c0,0,1.191,1.988,1.299,2.578l-2.205,2.058c0,0-1.3-0.531-2.131-0.688l1.492,1.807         c0,0-2.093,2.464-3.35,3.563l-2.023-1.326l1.228,2.429C209.588,142.914,201.118,145.93,200.492,146.572z"/>
							<path style="fill:#1B113A;" d="M200.578,145.772c0,0,8.669,1.417,12.839,4.463l-0.185,1.851l1.737-1.063         c0,0,2.907,1.422,4.776,3.363c0.226,0.235-0.605,1.567-1.2,2.344c0,0,1.644-0.677,2.336-1.43c0,0,6.427,7.54,7.617,21.454         c0,0-7.411-5.111-10.536-8.468c0,0,1.391-0.687,2.046-1.5c0,0-1.851,0.474-3.046,0.136c0,0-3.141-4.059-3.596-4.33         c0,0,0.872-1.331,1.431-2.167c0,0-1.977,1.21-2.566,1.324l-2.079-2.186c0,0,0.518-1.305,0.667-2.138l-1.793,1.51         c0,0-2.483-2.07-3.595-3.316l1.307-2.035l-2.417,1.251C204.321,154.833,201.225,146.392,200.578,145.772z"/>
							<path style="fill:#1B113A;" d="M200.898,145.086c0,0-5.503,6.846-6.57,11.899l1.374,1.254l-2.003,0.37         c0,0-1.213,3-1.306,5.694c-0.011,0.326,1.497,0.762,2.459,0.941c0,0-1.676,0.595-2.693,0.497c0,0,0.256,9.904,8.668,21.051         c0,0,2.098-8.755,2.181-13.34c0,0-1.494,0.418-2.524,0.252c0,0,1.694-0.884,2.357-1.934c0,0-0.375-5.119-0.217-5.625         c0,0-1.538-0.407-2.512-0.656c0,0,2.279-0.42,2.793-0.729l0.086-3.015c0,0-1.258-0.625-1.925-1.145l2.343-0.075         c0,0,0.465-3.199,0.459-4.869l-2.332-0.641l2.634-0.685C204.167,154.329,200.831,145.98,200.898,145.086z"/>
						</g>
						<path style="fill:#1B113A;" d="M202.411,145.556c0,0,4.344,15.432,14.442,29.705c7.627,10.781,22.041,37.878,24.085,64.921        l-7.401,0.87c0,0-3.588-30.499-13.931-50.427c-7.454-14.361-16.555-29.355-19.245-44.308L202.411,145.556z"/>
						<path style="fill:#1B113A;" d="M228.498,250.888c0,0-6.913-3.833-13.247-5c0,0,7.5-1.833,14.167,1.333        c0,0-3.702-8.167-8.768-10.333c0,0,7.404,1.833,11.086,8c0,0-1.151-8.167-5.151-13.667c0,0,6,2.667,9.333,8.333h10.833        c0,0,3.333-6.333,10.5-8.333c0,0-4.167,2.167-4.833,9.833c0,0,5.167-4.167,10-2c0,0-6.167,2.5-8,5.667        c0,0,9.167-3.833,13.667-0.167c0,0-9.833,1.333-13.5,6.333H228.498z"/>
					</g>
				</g>
			</g>
		</g>
	</g>
</g>
</svg>