<svg version="1.1" id="Layer_1" xmlns="http://www.w3.org/2000/svg" xmlns:xlink="http://www.w3.org/1999/xlink" x="0px" y="0px" width="100%" viewBox="0 0 618 678" enable-background="new 0 0 618 678" xml:space="preserve" fill="#000">

 <g>
  <path id="svg_1" fill="#eeaad7" d="m60.01573,616.99884c-0.00391,-115.15817 -0.19036,-230.31692 0.2009,-345.47376c0.05372,-15.81002 2.76206,-31.63639 4.65894,-47.40496c1.08579,-9.02602 1.98235,-18.28917 4.78976,-26.84661c4.98621,-15.19879 10.59265,-30.29937 17.33336,-44.79284c10.3306,-22.21225 24.83647,-41.80635 41.58626,-59.64785c9.95729,-10.60627 20.3383,-20.76485 32.66833,-28.77321c10.9707,-7.12548 21.31824,-15.24986 32.52242,-21.96262c7.55476,-4.52629 15.93876,-7.87521 24.27482,-10.84378c13.5047,-4.80921 27.06407,-9.79339 40.9944,-12.98242c12.8252,-2.93604 26.1308,-4.12242 39.29749,-5.1082c10.69494,-0.80072 21.5087,-0.47363 32.25015,-0.09327c19.15442,0.67827 37.77853,4.55147 56.06,10.21618c16.48254,5.10731 32.59765,11.22273 47.57382,19.77832c10.98892,6.27774 21.69433,13.19877 31.85608,20.73637c10.34546,7.67387 20.40951,15.90382 29.59656,24.9105c8.36068,8.19656 15.73037,17.4907 22.91388,26.78269c13.91821,18.00365 23.17437,38.55064 31.48748,59.58685c7.03302,17.79704 11.84583,36.17517 14.64362,55.04695c1.30932,8.83211 2.16955,17.82207 2.17987,26.74172c0.14008,121.49084 0.09839,242.98193 0.0686,364.47296c-0.00048,1.96447 -0.41302,3.92889 -1.1853,6.32702c-1.50098,0.70484 -2.43982,1.16572 -3.40051,1.21698c-7.64936,0.40845 -15.30048,0.91987 -22.956,1.0177c-3.82428,0.04889 -8.53118,1.59607 -9.96063,-3.91723c7.49744,-0.35791 14.52759,-0.68219 21.70465,-1.08893c0.36981,-0.40369 0.297,-0.66705 -0.10357,-1.34186c-0.0763,-48.44763 -0.1203,-96.42608 -0.13233,-144.88794c0.03333,-16.88873 0.03467,-33.29403 0.04291,-50.16595c-0.00061,-23.79611 -0.00824,-47.12561 -0.0072,-70.92658c0.00281,-30.18524 -0.00305,-59.89895 -0.00153,-90.07763c-1.32153,-14.98212 -1.77215,-29.64548 -4.1593,-43.98648c-5.22015,-31.36089 -16.92572,-60.4032 -34.53528,-86.90441c-15.8627,-23.8723 -35.29367,-44.36313 -58.40817,-61.49901c-23.60825,-17.50196 -49.71619,-29.47744 -77.86908,-37.2392c-22.33588,-6.15802 -45.04083,-9.50259 -68.31183,-7.92514c-8.4505,0.57283 -17.02115,0.14954 -25.3653,1.36215c-21.09249,3.06526 -41.58344,8.48729 -61.32238,16.79097c-25.72843,10.82329 -48.79135,25.7673 -69.11515,44.71793c-21.58325,20.12501 -39.04917,43.49366 -51.99348,70.52156c-1.97639,4.40183 -3.99635,8.40717 -5.66917,12.5526c-6.52588,16.17185 -12.04308,32.64238 -14.26445,50.45729c-1.04043,9.79053 -2.01403,19.18337 -3.19321,28.93735c-0.35954,3.672 -0.63899,6.98251 -0.64729,10.2937c-0.05874,23.44278 -0.06189,46.88571 -0.08767,70.75672c0.05196,0.99496 0.10883,1.56179 0.15548,2.56811c-0.01835,16.91724 -0.02648,33.39502 -0.07859,50.35379c-0.04705,12.20719 -0.05011,23.93335 -0.07129,36.13623c0.01645,7.25147 0.05102,14.02625 0.07363,21.25739c-0.03619,40.48721 -0.06361,80.518 -0.07063,120.54882c-0.00023,1.32093 0.20665,2.64179 0.22423,4.41297c-0.18885,15.42908 -0.28494,30.40784 -0.81573,45.38757c-4.58975,-0.53863 -7.02696,0.39063 -6.66832,5.48755c0.11949,1.69812 -2.13597,3.56348 -3.30573,5.35236c-1.15363,-1.80597 -2.45034,-3.53913 -3.41833,-5.43964c-0.86803,-1.70416 -1.37432,-3.59265 -2.04019,-5.39978z" xmlns="http://www.w3.org/2000/svg"/>
  <path id="svg_2" fill="#eeaad7" d="m60.0106,617.45874c0.671,1.34723 1.17729,3.23572 2.04532,4.93988c0.96799,1.90051 2.2647,3.63367 3.41833,5.43964c1.16976,-1.78888 3.42522,-3.65424 3.30573,-5.35236c-0.35864,-5.09692 2.07857,-6.02618 6.73511,-5.03912c0.50149,2.89398 0.50149,5.34057 0.50149,8.34192c93.36623,0 186.08492,0 279.24288,0.06891c2.19247,0.02484 3.94571,-0.01917 6.0321,-0.03132c0.77912,0.04023 1.22504,0.04865 2.14008,0.12275c25.83801,0.05792 51.20691,0.05011 76.85956,0.02942c0.47082,-0.04218 0.65793,-0.07148 1.30481,-0.08515c26.41086,-0.04846 52.362,-0.11255 78.76434,-0.11169c3.18158,0.1228 5.91199,0.18054 8.64234,0.23828c1.89679,5.47973 6.60369,3.93255 10.42797,3.88366c7.65552,-0.09783 15.30664,-0.60925 22.956,-1.0177c0.96069,-0.05126 1.89953,-0.51214 3.23211,-0.83459c0.15082,1.71448 -0.08203,3.48022 -0.47033,5.59521c-5.73194,6.21521 -12.65149,7.46528 -20.52722,7.45813c-155.2435,-0.14044 -310.48723,-0.12054 -465.73085,-0.04425c-5.97821,0.00293 -11.19682,-1.14599 -15.58342,-5.90686c-2.72031,-5.59973 -3.96241,-11.25012 -3.29635,-17.69476z" xmlns="http://www.w3.org/2000/svg"/>
  <rect id="svg_3" height="377.33409" width="485.33431" y="248.73447" x="67.66621" fill="#eeaad7"/>
  <ellipse ry="196.0004" rx="238.66713" id="svg_5" cy="224.73441" cx="313.00005" fill="#eeaad7"/>
 </g>
</svg>