<svg version="1.1" id="_x3C_Layer_x3E_" xmlns="http://www.w3.org/2000/svg" xmlns:xlink="http://www.w3.org/1999/xlink" x="0px" y="0px" viewBox="250 0 2000 1900" style="enable-background:new 0 0 2500 2000;" xml:space="preserve">
<!-- <rect x="0" style="fill:transparent;" width="2500" height="2000"/> -->
<g>
	<g style="opacity:0.4;">
		<g>
			<path style="fill:transparent;" d="M983.512,1678.776c-7.583-17.87-34.104-63.26-80.195-107.141     c-33.832-32.206-73.016-59.152-116.466-80.088c-54.317-26.17-115.488-42.967-181.825-49.933l0.117-1.084     c66.475,6.977,127.779,23.816,182.218,50.05c43.557,20.989,82.836,48.01,116.748,80.301     c46.213,44.003,72.803,89.542,80.413,107.47L983.512,1678.776z"/>
		</g>
		<path style="fill:transparent;" d="M565.1,1410.273c-23.817-3.634-30.26,1.672-32.417,11.474c-2.157,9.802,1.717,19.922,17.309,24.742    c37.721,11.658,84.776,4.632,86.226-1.957C637.273,1439.743,598.255,1415.331,565.1,1410.273z"/>
		<path style="fill:transparent;" d="M613.97,1477.127c-20.466,12.712-21.916,20.931-17.187,29.784    c4.729,8.853,14.249,14.029,29.233,7.562c36.249-15.646,67.454-51.559,64.275-57.51    C687.981,1452.638,642.46,1459.431,613.97,1477.127z"/>
		<g>
			<path style="fill:transparent;" d="M637.386,1444.801c-35.182-0.398-67.287-19.291-102.604-18.437c-0.351,0.008-0.352,0.555,0,0.547     c35.315-0.855,67.419,18.038,102.604,18.436C637.738,1445.351,637.738,1444.805,637.386,1444.801L637.386,1444.801z"/>
		</g>
		<g>
			<path style="fill:transparent;" d="M583.839,1434.683c0.656-7.572-1.858-16.168-6.668-22.076c-0.222-0.273-0.607,0.116-0.386,0.386     c4.716,5.792,7.15,14.273,6.508,21.689C583.262,1435.033,583.809,1435.031,583.839,1434.683L583.839,1434.683z"/>
		</g>
		<g>
			<path style="fill:transparent;" d="M567.253,1430.292c-5.196,6.623-12.651,11.461-20.421,14.546     c-0.323,0.128-0.182,0.657,0.145,0.527c7.851-3.117,15.408-7.989,20.662-14.687     C567.854,1430.404,567.47,1430.015,567.253,1430.292L567.253,1430.292z"/>
		</g>
		<g>
			<path style="fill:transparent;" d="M570.893,1411.887c4.075,6.616,6.596,13.789,7.538,21.503c0.042,0.345,0.589,0.349,0.546,0     c-0.953-7.813-3.485-15.077-7.612-21.778C571.181,1411.312,570.708,1411.586,570.893,1411.887L570.893,1411.887z"/>
		</g>
		<g>
			<path style="fill:transparent;" d="M691.72,1376.498c-6.727-23.135-14.251-26.746-24.051-24.578c-9.8,2.168-17.35,9.941-15.16,26.114     c5.299,39.124,31.475,78.852,38.063,77.395C695.359,1454.371,701.084,1408.703,691.72,1376.498z"/>
			<g>
				<path style="fill:transparent;" d="M690.807,1456.579c-14.451-32.077-10.809-69.161-26.455-100.835      c-0.156-0.315-0.627-0.039-0.472,0.276c15.644,31.668,12.002,68.754,26.455,100.835      C690.479,1457.175,690.95,1456.897,690.807,1456.579L690.807,1456.579z"/>
			</g>
			<g>
				<path style="fill:transparent;" d="M677.42,1403.785c7.107-2.539,13.963-8.486,17.241-15.311c0.152-0.315-0.319-0.593-0.472-0.276      c-3.214,6.692-9.94,12.568-16.915,15.06C676.946,1403.375,677.087,1403.904,677.42,1403.785L677.42,1403.785z"/>
			</g>
			<g>
				<path style="fill:transparent;" d="M674.444,1386.869c-8.205-1.949-15.697-6.664-21.783-12.413      c-0.255-0.241-0.643,0.144-0.386,0.386c6.161,5.819,13.721,10.58,22.024,12.553      C674.641,1387.477,674.787,1386.95,674.444,1386.869L674.444,1386.869z"/>
			</g>
			<g>
				<path style="fill:transparent;" d="M692.682,1382.45c-4.249,6.479-9.747,11.819-16.345,15.881c-0.299,0.184-0.025,0.657,0.276,0.472      c6.669-4.106,12.246-9.527,16.541-16.077C693.347,1382.431,692.874,1382.157,692.682,1382.45L692.682,1382.45z"/>
			</g>
		</g>
		<g>
			<path style="fill:transparent;" d="M787.739,1396.851c-7.857-27.019-16.644-31.237-28.089-28.704     c-11.445,2.532-20.263,11.611-17.705,30.499c6.188,45.693,36.759,92.092,44.453,90.389     C791.99,1487.798,798.676,1434.463,787.739,1396.851z"/>
			<g>
				<path style="fill:transparent;" d="M786.673,1490.377c-16.919-37.443-12.579-80.793-30.897-117.764      c-0.182-0.368-0.733-0.045-0.551,0.322c18.315,36.964,13.976,80.317,30.897,117.765      C786.291,1491.073,786.841,1490.749,786.673,1490.377L786.673,1490.377z"/>
			</g>
			<g>
				<path style="fill:transparent;" d="M771.038,1428.719c8.3-2.965,16.307-9.911,20.136-17.882c0.177-0.368-0.373-0.693-0.551-0.322      c-3.754,7.816-11.608,14.679-19.754,17.589C770.484,1428.241,770.65,1428.858,771.038,1428.719L771.038,1428.719z"/>
			</g>
			<g>
				<path style="fill:transparent;" d="M767.563,1408.963c-9.557-2.236-18.373-7.792-25.44-14.497c-0.298-0.283-0.75,0.168-0.451,0.451      c7.158,6.791,16.043,12.396,25.722,14.661C767.793,1409.672,767.964,1409.056,767.563,1408.963L767.563,1408.963z"/>
			</g>
			<g>
				<path style="fill:transparent;" d="M788.863,1403.802c-4.962,7.567-11.383,13.803-19.089,18.547      c-0.349,0.215-0.029,0.767,0.322,0.551c7.789-4.795,14.302-11.127,19.318-18.776      C789.64,1403.78,789.087,1403.46,788.863,1403.802L788.863,1403.802z"/>
			</g>
		</g>
		<g>
			<path style="fill:transparent;" d="M698.055,1522.107c-22.649,16.696-23.576,26.399-17.251,36.267     c6.325,9.869,17.889,15.013,34.735,6.096c40.753-21.573,73.755-66.274,69.503-72.908     C781.951,1486.741,729.584,1498.866,698.055,1522.107z"/>
			<g>
				<path style="fill:transparent;" d="M786.227,1490.819c-29.29,28.818-71.514,39.662-99.875,69.629      c-0.282,0.298,0.168,0.75,0.451,0.451c28.358-29.965,70.583-40.809,99.874-69.629      C786.971,1490.981,786.52,1490.53,786.227,1490.819L786.227,1490.819z"/>
			</g>
			<g>
				<path style="fill:transparent;" d="M733.694,1526.748c-5.706-6.79-14.909-11.814-23.753-12.695c-0.408-0.041-0.406,0.598,0,0.638      c8.644,0.862,17.732,5.88,23.302,12.509C733.507,1527.515,733.957,1527.061,733.694,1526.748L733.694,1526.748z"/>
			</g>
			<g>
				<path style="fill:transparent;" d="M716.383,1536.839c1.2,9.75-0.953,19.919-4.815,28.879c-0.161,0.373,0.389,0.699,0.551,0.322      c3.9-9.051,6.115-19.342,4.902-29.202C716.971,1536.437,716.332,1536.432,716.383,1536.839L716.383,1536.839z"/>
			</g>
			<g>
				<path style="fill:transparent;" d="M704.163,1518.648c8.819,2.07,16.87,5.92,24,11.504c0.32,0.25,0.774-0.198,0.451-0.451      c-7.227-5.66-15.347-9.571-24.282-11.669C703.933,1517.939,703.763,1518.554,704.163,1518.648L704.163,1518.648z"/>
			</g>
		</g>
		<g>
			<path style="fill:transparent;" d="M755.588,1570.565c-25.484,18.785-26.527,29.702-19.41,40.805     c7.117,11.103,20.127,16.892,39.081,6.859c45.852-24.272,82.985-74.567,78.2-82.032     C849.983,1530.774,791.063,1544.416,755.588,1570.565z"/>
			<g>
				<path style="fill:transparent;" d="M858.477,1530.882c-34.169,33.693-82.984,47.799-116.055,82.822      c-0.317,0.336,0.19,0.845,0.508,0.508c33.068-35.02,81.885-49.127,116.055-82.822      C859.314,1531.064,858.807,1530.557,858.477,1530.882L858.477,1530.882z"/>
			</g>
			<g>
				<path style="fill:transparent;" d="M795.687,1575.787c-6.36-7.623-16.824-13.335-26.725-14.284c-0.46-0.044-0.457,0.674,0,0.718      c9.713,0.931,19.991,6.61,26.218,14.074C795.476,1576.65,795.982,1576.14,795.687,1575.787L795.687,1575.787z"/>
			</g>
			<g>
				<path style="fill:transparent;" d="M776.21,1587.141c1.376,10.943-1.067,22.444-5.417,32.493c-0.182,0.42,0.437,0.786,0.62,0.363      c4.396-10.155,6.907-21.786,5.515-32.856C776.871,1586.688,776.152,1586.683,776.21,1587.141L776.21,1587.141z"/>
			</g>
			<g>
				<path style="fill:transparent;" d="M762.461,1566.673c9.91,2.313,19,6.659,27.004,12.944c0.359,0.282,0.871-0.222,0.508-0.508      c-8.113-6.371-17.276-10.784-27.32-13.129C762.202,1565.876,762.01,1566.568,762.461,1566.673L762.461,1566.673z"/>
			</g>
		</g>
		<g>
			<path style="fill:transparent;" d="M822.506,1608.271c-29.873,10.484-34.072,20.615-30.525,33.317     c3.547,12.703,14.287,22.052,35.351,18.02c50.955-9.756,101.206-46.947,98.822-55.487     C924.421,1597.916,864.091,1593.676,822.506,1608.271z"/>
			<g>
				<path style="fill:transparent;" d="M932.496,1600.518c-42.555,22.178-93.347,21.368-135.244,45.139      c-0.402,0.228-0.04,0.849,0.362,0.62c41.892-23.768,92.686-22.959,135.244-45.139      C933.269,1600.925,932.906,1600.305,932.496,1600.518L932.496,1600.518z"/>
			</g>
			<g>
				<path style="fill:transparent;" d="M859.339,1625.097c-3.849-9.189-12.164-17.751-21.399-21.57      c-0.427-0.177-0.613,0.518-0.191,0.692c8.952,3.702,17.167,12.161,20.897,21.069      C858.822,1625.708,859.517,1625.524,859.339,1625.097L859.339,1625.097z"/>
			</g>
			<g>
				<path style="fill:transparent;" d="M837.356,1630.175c-1.904,10.867-7.613,21.139-14.717,29.476c-0.298,0.35,0.208,0.86,0.508,0.508      c7.187-8.434,12.974-18.791,14.902-29.792C838.127,1629.914,837.435,1629.72,837.356,1630.175L837.356,1630.175z"/>
			</g>
			<g>
				<path style="fill:transparent;" d="M830.23,1606.573c8.807,5.118,16.207,11.935,22.015,20.301c0.262,0.377,0.884,0.018,0.62-0.362      c-5.874-8.46-13.369-15.385-22.273-20.559C830.192,1605.72,829.83,1606.34,830.23,1606.573L830.23,1606.573z"/>
			</g>
		</g>
		<g>
			<path style="fill:transparent;" d="M847.503,1421.286c5.3-31.212,14.579-37.058,27.697-35.703     c13.119,1.356,24.145,10.367,23.719,31.809c-1.03,51.87-29.222,107.67-38.041,106.758     C854.469,1523.488,840.124,1464.735,847.503,1421.286z"/>
			<g>
				<path style="fill:transparent;" d="M859.077,1531.231c14.678-45.691,5.349-95.612,21.704-140.916      c0.157-0.435-0.536-0.623-0.692-0.191c-16.356,45.307-7.027,95.228-21.704,140.916      C858.243,1531.481,858.936,1531.67,859.077,1531.231L859.077,1531.231z"/>
			</g>
			<g>
				<path style="fill:transparent;" d="M870.426,1454.053c-9.476-2.202-19.158-8.832-24.364-17.088c-0.246-0.39-0.867-0.03-0.62,0.362      c5.305,8.413,15.131,15.173,24.793,17.418C870.685,1454.85,870.877,1454.157,870.426,1454.053L870.426,1454.053z"/>
			</g>
			<g>
				<path style="fill:transparent;" d="M871.844,1432.903c10.508-3.749,19.775-11.183,26.873-19.683      c0.294-0.352-0.211-0.863-0.508-0.508c-7.024,8.411-16.155,15.787-26.556,19.499      C871.221,1432.365,871.407,1433.059,871.844,1432.903L871.844,1432.903z"/>
			</g>
			<g>
				<path style="fill:transparent;" d="M846.601,1429.67c6.593,7.887,14.632,14.079,23.942,18.441c0.416,0.195,0.781-0.424,0.362-0.62      c-9.244-4.331-17.25-10.497-23.796-18.328C846.812,1428.807,846.307,1429.317,846.601,1429.67L846.601,1429.67z"/>
			</g>
		</g>
		<g>
			<path style="fill:transparent;" d="M970.662,1477.936c19.823-31.206,32.457-33.304,45.967-25.91     c13.51,7.393,21.305,22.082,11.149,44.973c-24.569,55.378-80.159,102.701-89.242,97.731     C931.937,1591.119,943.066,1521.376,970.662,1477.936z"/>
			<g>
				<path style="fill:transparent;" d="M933.362,1601.577c36.521-42.506,48.948-100.57,87.102-141.894      c0.366-0.396-0.226-0.991-0.593-0.593c-38.16,41.331-50.584,99.392-87.102,141.894      C932.419,1601.391,933.01,1601.987,933.362,1601.577L933.362,1601.577z"/>
			</g>
			<g>
				<path style="fill:transparent;" d="M980.474,1523.549c-9.194-6.598-16.646-18.244-18.465-29.441      c-0.086-0.531-0.894-0.306-0.809,0.223c1.852,11.403,9.497,23.23,18.85,29.942      C980.49,1524.589,980.909,1523.861,980.474,1523.549L980.474,1523.549z"/>
			</g>
			<g>
				<path style="fill:transparent;" d="M991.667,1501.457c12.992,0.753,26.378-3.115,37.834-9.066c0.479-0.249,0.055-0.973-0.423-0.724      c-11.315,5.878-24.581,9.695-37.411,8.952C991.128,1500.587,991.13,1501.426,991.667,1501.457L991.667,1501.457z"/>
			</g>
			<g>
				<path style="fill:transparent;" d="M965.883,1486.508c3.516,11.487,9.421,21.874,17.49,30.774c0.363,0.401,0.955-0.194,0.593-0.593      c-7.98-8.802-13.797-19.042-17.274-30.404C966.534,1485.77,965.725,1485.99,965.883,1486.508L965.883,1486.508z"/>
			</g>
		</g>
	</g>
	<g>
		<g>
			<path style="fill:transparent;" d="M951.003,1605.382c-0.005-0.409-0.914-41.569-24.805-94.473     c-14.034-31.069-33.126-60.056-56.761-86.146c-29.539-32.61-66.294-60.773-109.234-83.702l0.372-0.701     c43.036,22.977,79.865,51.198,109.473,83.893c23.689,26.154,42.829,55.21,56.894,86.364     c23.949,53.047,24.852,94.345,24.858,94.754L951.003,1605.382z"/>
		</g>
		<path style="fill:transparent;" d="M741.81,1308.904c-15.107-8.998-20.921-7.18-25.072-1.144s-4.311,13.943,4.91,21.485    c22.305,18.243,56.054,26.415,58.844,22.358C782.52,1348.654,762.841,1321.43,741.81,1308.904z"/>
		<path style="fill:transparent;" d="M756.495,1367.533c-17.331,2.975-20.568,8.135-19.802,15.42s5.782,13.4,17.691,13.142    c28.809-0.624,59.773-16.339,59.258-21.236C813.267,1371.3,780.62,1363.391,756.495,1367.533z"/>
		<g>
			<path style="fill:transparent;" d="M781.185,1352.097c-23.662-9.975-40.218-31.477-64.318-40.646     c-0.24-0.091-0.344,0.294-0.106,0.385c24.093,9.166,40.653,30.67,64.318,40.646     C781.315,1352.581,781.418,1352.196,781.185,1352.097L781.185,1352.097z"/>
		</g>
		<g>
			<path style="fill:transparent;" d="M747.764,1330.582c2.519-4.951,3.199-11.434,1.575-16.76c-0.075-0.245-0.46-0.141-0.385,0.106     c1.593,5.224,0.934,11.6-1.535,16.453C747.304,1330.609,747.648,1330.811,747.764,1330.582L747.764,1330.582z"/>
		</g>
		<g>
			<path style="fill:transparent;" d="M737.745,1323.044c-5.357,3.038-11.691,4.247-17.804,4.215c-0.257-0.001-0.257,0.397,0,0.399     c6.192,0.033,12.582-1.193,18.005-4.269C738.169,1323.261,737.968,1322.917,737.745,1323.044L737.745,1323.044z"/>
		</g>
		<g>
			<path style="fill:transparent;" d="M745.289,1311.611c0.929,5.607,0.654,11.113-0.821,16.608c-0.067,0.248,0.318,0.354,0.385,0.106     c1.491-5.552,1.761-11.144,0.821-16.82C745.632,1311.252,745.247,1311.359,745.289,1311.611L745.289,1311.611z"/>
		</g>
		<g>
			<path style="fill:transparent;" d="M836.707,1320.841c1.805-17.491-2.291-22-9.513-23.225c-7.222-1.225-14.462,1.957-17.423,13.495     c-7.162,27.911-0.373,61.965,4.482,62.789C817.781,1374.498,834.194,1345.19,836.707,1320.841z"/>
			<g>
				<path style="fill:transparent;" d="M814.098,1374.769c-0.871-25.663,11.588-49.732,9.804-75.451c-0.018-0.255-0.417-0.257-0.399,0      c1.783,25.716-10.675,49.785-9.804,75.451C813.708,1375.025,814.107,1375.026,814.098,1374.769L814.098,1374.769z"/>
			</g>
			<g>
				<path style="fill:transparent;" d="M819.566,1335.366c5.54,0.209,11.723-1.921,15.86-5.637c0.191-0.172-0.091-0.453-0.282-0.282      c-4.055,3.643-10.144,5.725-15.578,5.52C819.31,1334.957,819.31,1335.356,819.566,1335.366L819.566,1335.366z"/>
			</g>
			<g>
				<path style="fill:transparent;" d="M822.156,1323.095c-5.015-3.547-8.793-8.833-11.312-14.385c-0.106-0.233-0.45-0.031-0.344,0.201      c2.545,5.61,6.388,10.944,11.455,14.528C822.165,1323.588,822.364,1323.242,822.156,1323.095L822.156,1323.095z"/>
			</g>
			<g>
				<path style="fill:transparent;" d="M835.744,1325.116c-4.695,3.216-9.852,5.306-15.46,6.269c-0.253,0.043-0.145,0.428,0.106,0.384      c5.642-0.968,10.833-3.074,15.555-6.309C836.155,1325.316,835.956,1324.97,835.744,1325.116L835.744,1325.116z"/>
			</g>
		</g>
		<g>
			<path style="fill:transparent;" d="M801,1421.042c-19.901,5.069-23.193,11.376-21.626,19.786s7.973,15.065,21.814,13.662     c33.482-3.395,68.076-24.559,67.022-30.212C867.444,1420.169,828.703,1413.985,801,1421.042z"/>
			<g>
				<path style="fill:transparent;" d="M869.244,1424.091c-27.777,11.359-59.244,7.29-86.714,19.677      c-0.273,0.123-0.036,0.525,0.235,0.402c27.426-12.367,58.861-8.285,86.603-19.63      C869.642,1424.428,869.522,1423.977,869.244,1424.091L869.244,1424.091z"/>
			</g>
			<g>
				<path style="fill:transparent;" d="M823.835,1433.997c-1.969-6.134-6.83-12.124-12.555-15.122c-0.265-0.139-0.501,0.263-0.235,0.402      c5.613,2.94,10.41,8.827,12.341,14.844C823.477,1434.406,823.927,1434.284,823.835,1433.997L823.835,1433.997z"/>
			</g>
			<g>
				<path style="fill:transparent;" d="M809.339,1436.063c-1.885,6.93-6.13,13.189-11.201,18.2c-0.214,0.211,0.116,0.54,0.329,0.329      c5.131-5.071,9.414-11.395,11.321-18.406C809.866,1435.897,809.417,1435.774,809.339,1436.063L809.339,1436.063z"/>
			</g>
			<g>
				<path style="fill:transparent;" d="M806.105,1420.397c5.395,3.807,9.784,8.646,13.059,14.381c0.149,0.26,0.551,0.026,0.402-0.235      c-3.314-5.804-7.765-10.695-13.226-14.549C806.094,1419.821,805.862,1420.225,806.105,1420.397L806.105,1420.397z"/>
			</g>
		</g>
		<g>
			<path style="fill:transparent;" d="M903.201,1365.04c4.281-20.085,0.088-25.832-8.145-28.157     c-8.233-2.325-17.038,0.466-21.918,13.494c-11.804,31.516-8.175,71.907-2.64,73.47C874.52,1424.982,897.242,1393,903.201,1365.04     z"/>
			<g>
				<path style="fill:transparent;" d="M870.207,1424.857c2.136-29.934,19.737-56.334,20.815-86.448      c0.011-0.299-0.454-0.265-0.465,0.032c-1.077,30.067-18.674,56.432-20.808,86.328      C869.729,1425.063,870.186,1425.156,870.207,1424.857L870.207,1424.857z"/>
			</g>
			<g>
				<path style="fill:transparent;" d="M881.464,1379.763c6.371,0.955,13.895-0.746,19.122-4.548c0.242-0.176-0.014-0.566-0.256-0.389      c-5.124,3.727-12.528,5.416-18.777,4.479C881.256,1379.261,881.166,1379.718,881.464,1379.763L881.464,1379.763z"/>
			</g>
			<g>
				<path style="fill:transparent;" d="M886.04,1365.854c-5.375-4.762-9.103-11.343-11.346-18.11c-0.094-0.285-0.536-0.136-0.441,0.149      c2.27,6.847,6.039,13.491,11.477,18.308C885.954,1366.4,886.264,1366.052,886.04,1365.854L886.04,1365.854z"/>
			</g>
			<g>
				<path style="fill:transparent;" d="M901.516,1369.902c-5.804,3.147-12.089,4.936-18.681,5.328c-0.299,0.018-0.268,0.483,0.032,0.465      c6.671-0.396,13.029-2.217,18.905-5.403C902.036,1370.148,901.778,1369.76,901.516,1369.902L901.516,1369.902z"/>
			</g>
		</g>
		<g>
			<path style="fill:transparent;" d="M826.596,1469.611c-22.391,5.703-26.095,12.799-24.332,22.262     c1.763,9.463,8.971,16.95,24.543,15.371c37.672-3.82,76.594-27.632,75.409-33.993     C901.355,1468.629,857.766,1461.671,826.596,1469.611z"/>
			<g>
				<path style="fill:transparent;" d="M907.101,1471.023c-32.415,13.33-69.246,9.631-101.287,24.157      c-0.307,0.139-0.041,0.591,0.265,0.453c31.995-14.505,68.788-10.792,101.161-24.104      C907.548,1471.402,907.413,1470.895,907.101,1471.023L907.101,1471.023z"/>
			</g>
			<g>
				<path style="fill:transparent;" d="M852.288,1484.187c-2.215-6.901-7.685-13.641-14.126-17.015      c-0.298-0.156-0.564,0.296-0.265,0.452c6.315,3.308,11.713,9.932,13.885,16.701      C851.885,1484.647,852.392,1484.51,852.288,1484.187L852.288,1484.187z"/>
			</g>
			<g>
				<path style="fill:transparent;" d="M835.978,1486.512c-2.121,7.797-6.897,14.839-12.602,20.478c-0.24,0.237,0.13,0.608,0.37,0.371      c5.773-5.705,10.592-12.821,12.737-20.709C836.572,1486.325,836.066,1486.186,835.978,1486.512L835.978,1486.512z"/>
			</g>
			<g>
				<path style="fill:transparent;" d="M832.339,1468.885c6.07,4.283,11.009,9.728,14.693,16.181c0.167,0.293,0.62,0.029,0.453-0.264      c-3.728-6.53-8.736-12.033-14.881-16.369C832.328,1468.238,832.066,1468.692,832.339,1468.885L832.339,1468.885z"/>
			</g>
		</g>
		<g>
			<path style="fill:transparent;" d="M861.49,1513.486c-23.079-1.115-28.701,4.582-29.791,14.146     c-1.09,9.564,3.604,18.836,18.955,21.894c37.135,7.398,81.33-3.95,82.063-10.38     C933.249,1534.475,893.618,1515.038,861.49,1513.486z"/>
			<g>
				<path style="fill:transparent;" d="M938.033,1538.449c-34.878,3.218-68.978-11.09-103.85-6.621c-0.33,0.042-0.334,0.567,0,0.524      c34.869-4.468,68.969,9.839,103.85,6.621C938.366,1538.943,938.369,1538.418,938.033,1538.449L938.033,1538.449z"/>
			</g>
			<g>
				<path style="fill:transparent;" d="M881.777,1534.95c-0.122-7.279-3.353-15.252-8.522-20.41c-0.239-0.239-0.61,0.132-0.37,0.371      c5.072,5.061,8.249,12.89,8.369,20.039C881.259,1535.287,881.783,1535.288,881.777,1534.95L881.777,1534.95z"/>
			</g>
			<g>
				<path style="fill:transparent;" d="M865.497,1532.404c-4.293,6.832-10.958,12.177-18.059,15.877      c-0.299,0.156-0.034,0.608,0.265,0.453c7.18-3.742,13.907-9.16,18.247-16.065      C866.13,1532.382,865.677,1532.119,865.497,1532.404L865.497,1532.404z"/>
			</g>
			<g>
				<path style="fill:transparent;" d="M867.161,1514.432c4.553,5.915,7.68,12.551,9.336,19.834c0.075,0.329,0.58,0.19,0.505-0.139      c-1.668-7.332-4.801-13.998-9.389-19.959C867.411,1513.903,866.955,1514.164,867.161,1514.432L867.161,1514.432z"/>
			</g>
		</g>
		<g>
			<path style="fill:transparent;" d="M929.747,1393.911c12.156-19.65,20.036-21.055,28.535-16.535     c8.498,4.52,13.479,13.641,7.303,28.023c-14.942,34.792-49.331,64.781-55.044,61.743     C906.389,1464.934,912.825,1421.265,929.747,1393.911z"/>
			<g>
				<path style="fill:transparent;" d="M907.356,1471.461c22.438-26.897,29.916-63.151,53.378-89.327      c0.224-0.25-0.145-0.622-0.371-0.371c-23.465,26.179-30.942,62.433-53.378,89.327      C906.771,1471.348,907.139,1471.721,907.356,1471.461L907.356,1471.461z"/>
			</g>
			<g>
				<path style="fill:transparent;" d="M936.222,1422.346c-5.805-4.112-10.49-11.243-11.761-18.26c-0.06-0.331-0.565-0.191-0.505,0.139      c1.299,7.172,6.073,14.374,12.002,18.574C936.233,1422.994,936.495,1422.539,936.222,1422.346L936.222,1422.346z"/>
			</g>
			<g>
				<path style="fill:transparent;" d="M943.047,1408.454c8.189,0.298,16.378-2.153,23.577-5.946c0.299-0.157,0.034-0.61-0.264-0.453      c-7.106,3.744-15.229,6.169-23.313,5.875C942.71,1407.917,942.71,1408.441,943.047,1408.454L943.047,1408.454z"/>
			</g>
			<g>
				<path style="fill:transparent;" d="M926.824,1399.3c2.308,7.162,6.054,13.575,11.159,19.103c0.229,0.248,0.599-0.123,0.371-0.371      c-5.057-5.477-8.737-11.777-11.024-18.872C927.227,1398.841,926.72,1398.978,926.824,1399.3L926.824,1399.3z"/>
			</g>
		</g>
		<g>
			<path style="fill:transparent;" d="M997.47,1466.043c21.975-15.657,31.094-13.606,38.199-4.896c7.105,8.71,8.342,20.783-4.813,33.473     c-31.823,30.699-82.41,47.432-87.187,41.577C940.199,1531.942,966.879,1487.839,997.47,1466.043z"/>
			<g>
				<path style="fill:transparent;" d="M938.326,1539.388c36.338-18.776,60.751-54.494,97.869-72.028      c0.356-0.168,0.046-0.696-0.309-0.528c-37.12,17.535-61.534,53.253-97.869,72.028      C937.667,1539.04,937.976,1539.568,938.326,1539.388L938.326,1539.388z"/>
			</g>
			<g>
				<path style="fill:transparent;" d="M991.599,1499.614c-4.386-7.067-6.228-16.821-4.431-24.966c0.085-0.384-0.505-0.548-0.59-0.163      c-1.835,8.317,0.013,18.22,4.492,25.438C991.278,1500.257,991.807,1499.95,991.599,1499.614L991.599,1499.614z"/>
			</g>
			<g>
				<path style="fill:transparent;" d="M1005.175,1487.698c8.619,4.047,18.655,5.135,28.069,4.283c0.389-0.035,0.393-0.648,0-0.612      c-9.314,0.844-19.229-0.193-27.76-4.199C1005.129,1487.003,1004.818,1487.53,1005.175,1487.698L1005.175,1487.698z"/>
			</g>
			<g>
				<path style="fill:transparent;" d="M991.882,1470.563c-0.74,8.754,0.383,17.277,3.364,25.54c0.133,0.368,0.724,0.209,0.59-0.163      c-2.963-8.213-4.078-16.677-3.342-25.377C992.527,1470.17,991.915,1470.172,991.882,1470.563L991.882,1470.563z"/>
			</g>
		</g>
	</g>
	<g>
		<path style="fill:transparent;" d="M653.495,1642.995c-6.314-10.481-5.069-14.532-0.883-17.441c4.185-2.909,9.687-3.048,14.966,3.341    c12.772,15.457,18.576,38.911,15.762,40.867C681.295,1671.183,662.284,1657.585,653.495,1642.995z"/>
		<g>
			<path style="fill:transparent;" d="M684.594,1672.285c-7.287-17.058-22.455-29.392-29.158-46.757     c-0.064-0.166-0.309-0.035-0.245,0.13c6.704,17.367,21.872,29.701,29.158,46.757     C684.419,1672.579,684.664,1672.448,684.594,1672.285L684.594,1672.285z"/>
		</g>
		<g>
			<path style="fill:transparent;" d="M668.464,1646.82c-3.371,1.736-7.799,2.221-11.442,1.13c-0.171-0.051-0.256,0.213-0.085,0.264     c3.71,1.111,8.223,0.62,11.657-1.149C668.753,1646.984,668.623,1646.738,668.464,1646.82L668.464,1646.82z"/>
		</g>
		<g>
			<path style="fill:transparent;" d="M663.556,1640.261c2.125-3.767,2.963-8.246,2.911-12.541c-0.002-0.178-0.279-0.193-0.277-0.014     c0.051,4.251-0.763,8.675-2.868,12.406C663.235,1640.267,663.468,1640.417,663.556,1640.261L663.556,1640.261z"/>
		</g>
		<g>
			<path style="fill:transparent;" d="M655.347,1645.679c3.953,0.634,7.806,0.424,11.664-0.633c0.172-0.047,0.113-0.318-0.06-0.271     c-3.822,1.047-7.681,1.254-11.59,0.626C655.185,1645.373,655.172,1645.651,655.347,1645.679L655.347,1645.679z"/>
		</g>
	</g>
	<g style="opacity:0.5;">
		<path style="fill:transparent;" d="M1985.368,1590.78c10.12-8.503,14.653-7.857,18.463-3.881s4.884,9.823-1.045,16.533    c-14.343,16.232-38.393,26.376-40.954,23.703C1959.971,1625.194,1971.279,1602.616,1985.368,1590.78z"/>
		<g>
			<path style="fill:transparent;" d="M1959.351,1628.9c16.975-10.649,27.581-28.912,44.983-38.99c0.166-0.096-0.014-0.336-0.18-0.24     c-17.403,10.079-28.01,28.342-44.983,38.99C1959.008,1628.762,1959.188,1629.002,1959.351,1628.9L1959.351,1628.9z"/>
		</g>
		<g>
			<path style="fill:transparent;" d="M1983.807,1607.398c-2.42-3.304-3.684-7.948-3.134-12.02c0.026-0.191-0.27-0.238-0.296-0.046     c-0.56,4.146,0.724,8.879,3.19,12.246C1983.681,1607.734,1983.921,1607.554,1983.807,1607.398L1983.807,1607.398z"/>
		</g>
		<g>
			<path style="fill:transparent;" d="M1989.98,1601.056c4.378,1.633,9.298,1.773,13.872,0.994c0.19-0.032,0.159-0.331-0.031-0.298     c-4.527,0.771-9.386,0.647-13.721-0.97C1989.919,1600.714,1989.799,1600.989,1989.98,1601.056L1989.98,1601.056z"/>
		</g>
		<g>
			<path style="fill:transparent;" d="M1982.816,1593.209c-0.011,4.325,0.863,8.401,2.64,12.34c0.079,0.175,0.359,0.067,0.279-0.11     c-1.761-3.903-2.632-7.985-2.621-12.262C1983.114,1592.984,1982.816,1593.018,1982.816,1593.209L1982.816,1593.209z"/>
		</g>
	</g>
	<g style="opacity:0.4;">
		<g>
			<path style="fill:transparent;" d="M1759.917,1736.809l-0.901-0.105c1.878-16.048,12.438-58.497,38.976-104.295     c19.474-33.614,44.452-64.276,74.239-91.14c37.227-33.569,82.115-61.261,133.411-82.307l0.347,0.837     c-51.201,21.006-96,48.644-133.149,82.146c-29.717,26.795-54.637,57.385-74.062,90.915     C1772.313,1678.534,1761.787,1720.828,1759.917,1736.809z"/>
		</g>
		<path style="fill:transparent;" d="M2030.471,1425.542c18.115-8.443,24.481-5.72,28.482,1.581c4.001,7.301,3.276,16.261-8.016,23.732    c-27.315,18.071-66.415,23.442-69.105,18.534C1979.878,1465.822,2005.253,1437.295,2030.471,1425.542z"/>
		<path style="fill:transparent;" d="M2007.142,1490.156c19.256,5.352,22.326,11.557,20.624,19.707    c-1.702,8.15-8.075,14.49-21.512,12.832c-32.505-4.009-65.718-25.331-64.574-30.809    C1942.512,1487.905,1980.336,1482.706,2007.142,1490.156z"/>
		<g>
			<path style="fill:transparent;" d="M1981.102,1470.308c27.931-8.47,49.065-31.087,77.392-38.587c0.282-0.075,0.137-0.504-0.144-0.43     c-28.33,7.5-49.463,30.117-77.392,38.587C1980.679,1469.963,1980.823,1470.393,1981.102,1470.308L1981.102,1470.308z"/>
		</g>
		<g>
			<path style="fill:transparent;" d="M2021.673,1449.207c-2.244-5.722-2.276-13.106,0.133-18.781c0.114-0.268-0.289-0.476-0.403-0.207     c-2.464,5.804-2.456,13.277-0.16,19.133C2021.349,1449.621,2021.78,1449.479,2021.673,1449.207L2021.673,1449.207z"/>
		</g>
		<g>
			<path style="fill:transparent;" d="M2033.162,1442.349c5.733,4.109,12.891,6.255,19.863,6.903c0.287,0.027,0.386-0.416,0.096-0.443     c-6.898-0.641-13.983-2.731-19.657-6.797C2033.23,1441.843,2032.925,1442.179,2033.162,1442.349L2033.162,1442.349z"/>
		</g>
		<g>
			<path style="fill:transparent;" d="M2025.794,1428.074c-1.718,6.274-2.051,12.635-0.993,19.055c0.047,0.285,0.5,0.263,0.453-0.025     c-1.052-6.382-0.726-12.691,0.984-18.934C2026.314,1427.888,2025.871,1427.793,2025.794,1428.074L2025.794,1428.074z"/>
		</g>
		<g>
			<path style="fill:transparent;" d="M1921.793,1428.157c-0.035-19.986,5.114-24.615,13.421-25.172     c8.307-0.557,16.13,3.872,18.155,17.258c4.898,32.384-6.684,70.113-12.269,70.487     C1937.041,1491.004,1921.842,1455.979,1921.793,1428.157z"/>
			<g>
				<path style="fill:transparent;" d="M1941.622,1491.804c4.044-28.906-7.523-57.588-2.434-86.444c0.051-0.287-0.392-0.384-0.443-0.096      c-5.09,28.86,6.478,57.541,2.434,86.444C1941.138,1491.995,1941.581,1492.093,1941.622,1491.804L1941.622,1491.804z"/>
			</g>
			<g>
				<path style="fill:transparent;" d="M1939.52,1446.096c-6.142-0.38-12.83-3.483-16.971-8.053c-0.196-0.216-0.497,0.123-0.302,0.338      c4.242,4.68,11.015,7.779,17.299,8.168C1939.836,1446.567,1939.808,1446.114,1939.52,1446.096L1939.52,1446.096z"/>
			</g>
			<g>
				<path style="fill:transparent;" d="M1938.207,1432.77c6.145-3.466,11.089-9.075,14.607-15.128c0.147-0.253-0.257-0.459-0.403-0.207      c-3.475,5.98-8.384,11.533-14.453,14.957C1937.703,1432.535,1937.954,1432.913,1938.207,1432.77L1938.207,1432.77z"/>
			</g>
			<g>
				<path style="fill:transparent;" d="M1922.107,1433.454c4.964,4.208,10.644,7.21,16.917,8.943c0.282,0.078,0.377-0.366,0.096-0.443      c-6.215-1.716-11.793-4.667-16.711-8.837C1922.187,1432.928,1921.884,1433.265,1922.107,1433.454L1922.107,1433.454z"/>
			</g>
		</g>
		<g>
			<path style="fill:transparent;" d="M1850.09,1466.735c-0.041-23.342,5.972-28.747,15.674-29.398     c9.702-0.651,18.838,4.522,21.203,20.156c5.72,37.82-7.807,81.884-14.329,82.322     C1867.898,1540.133,1850.147,1499.229,1850.09,1466.735z"/>
			<g>
				<path style="fill:transparent;" d="M1873.248,1541.068c4.76-33.755-8.825-67.263-2.843-100.958c0.06-0.335-0.458-0.449-0.517-0.113      c-5.984,33.7,7.602,67.207,2.843,100.958C1872.683,1541.291,1873.2,1541.406,1873.248,1541.068L1873.248,1541.068z"/>
			</g>
			<g>
				<path style="fill:transparent;" d="M1870.793,1487.687c-7.153-0.418-15.019-4.066-19.821-9.405      c-0.228-0.253-0.579,0.143-0.353,0.394c4.913,5.462,12.895,9.113,20.203,9.539      C1871.162,1488.235,1871.13,1487.706,1870.793,1487.687L1870.793,1487.687z"/>
			</g>
			<g>
				<path style="fill:transparent;" d="M1869.26,1472.123c7.176-4.039,12.958-10.599,17.059-17.668c0.172-0.296-0.301-0.536-0.471-0.242      c-4.051,6.982-9.793,13.479-16.88,17.468C1868.671,1471.848,1868.964,1472.29,1869.26,1472.123L1869.26,1472.123z"/>
			</g>
			<g>
				<path style="fill:transparent;" d="M1850.456,1472.921c5.786,4.919,12.434,8.432,19.758,10.444c0.329,0.091,0.44-0.427,0.113-0.517      c-7.248-1.991-13.79-5.452-19.517-10.321C1850.55,1472.306,1850.196,1472.7,1850.456,1472.921L1850.456,1472.921z"/>
			</g>
		</g>
		<g>
			<path style="fill:transparent;" d="M1950.679,1545.56c21.923,8.014,24.922,15.523,22.185,24.854s-10.744,16.121-26.234,12.947     c-37.472-7.679-74.164-35.578-72.324-41.85C1875.644,1536.953,1920.161,1534.403,1950.679,1545.56z"/>
			<g>
				<path style="fill:transparent;" d="M1872.942,1541.663c30.027,16.135,66.191,14.898,95.74,32.162c0.295,0.172,0.535-0.3,0.242-0.471      c-29.552-17.266-65.715-16.028-95.74-32.162C1872.883,1541.031,1872.642,1541.502,1872.942,1541.663L1872.942,1541.663z"/>
			</g>
			<g>
				<path style="fill:transparent;" d="M1923.854,1557.808c2.863-6.576,8.961-12.714,15.643-15.385c0.315-0.126,0.149-0.629-0.168-0.502      c-6.809,2.722-13.026,8.939-15.946,15.645C1923.248,1557.877,1923.718,1558.121,1923.854,1557.808L1923.854,1557.808z"/>
			</g>
			<g>
				<path style="fill:transparent;" d="M1939.002,1561.648c1.307,8.118,5.463,15.843,10.678,22.12c0.215,0.259,0.66-0.029,0.442-0.292      c-5.158-6.208-9.298-13.825-10.591-21.857C1939.477,1561.286,1938.948,1561.312,1939.002,1561.648L1939.002,1561.648z"/>
			</g>
			<g>
				<path style="fill:transparent;" d="M1944.725,1543.783c-6.599,3.721-12.17,8.727-16.571,14.894      c-0.196,0.275,0.196,0.631,0.394,0.353c4.37-6.124,9.915-11.11,16.469-14.806      C1945.313,1544.058,1945.021,1543.616,1944.725,1543.783L1944.725,1543.783z"/>
			</g>
		</g>
		<g>
			<path style="fill:transparent;" d="M1916.166,1597.546c24.666,9.017,28.04,17.466,24.962,27.964     c-3.079,10.498-12.088,18.138-29.516,14.567c-42.161-8.64-83.444-40.03-81.374-47.087     C1831.741,1587.862,1881.829,1584.994,1916.166,1597.546z"/>
			<g>
				<path style="fill:transparent;" d="M1824.724,1590.454c35.047,18.881,77.22,18.701,111.697,38.895      c0.332,0.194,0.602-0.337,0.272-0.53c-34.48-20.196-76.652-20.015-111.697-38.895      C1824.658,1589.742,1824.387,1590.272,1824.724,1590.454L1824.724,1590.454z"/>
			</g>
			<g>
				<path style="fill:transparent;" d="M1885.984,1611.327c3.19-7.383,10.097-14.337,17.601-17.31c0.355-0.141,0.168-0.707-0.19-0.565      c-7.644,3.029-14.689,10.075-17.941,17.603C1885.302,1611.406,1885.832,1611.679,1885.984,1611.327L1885.984,1611.327z"/>
			</g>
			<g>
				<path style="fill:transparent;" d="M1903.027,1615.648c1.449,9.121,6.149,17.847,12.014,24.888c0.243,0.291,0.743-0.033,0.497-0.328      c-5.803-6.966-10.482-15.565-11.917-24.592C1903.562,1615.241,1902.967,1615.269,1903.027,1615.648L1903.027,1615.648z"/>
			</g>
			<g>
				<path style="fill:transparent;" d="M1909.466,1595.547c-7.42,4.174-13.705,9.822-18.645,16.758c-0.22,0.309,0.221,0.71,0.444,0.398      c4.907-6.891,11.155-12.509,18.53-16.658C1910.128,1595.856,1909.799,1595.36,1909.466,1595.547L1909.466,1595.547z"/>
			</g>
		</g>
		<g>
			<path style="fill:transparent;" d="M1871.675,1643.159c26.226,1.386,31.93,8.473,32.066,19.413     c0.136,10.94-6.236,20.886-23.945,22.584c-42.841,4.107-91.515-13.794-91.606-21.148     C1788.123,1658.663,1835.167,1641.229,1871.675,1643.159z"/>
			<g>
				<path style="fill:transparent;" d="M1782.164,1663.197c39.048,7.754,79.304-4.752,118.192,4.423c0.374,0.088,0.5-0.494,0.127-0.582      c-38.892-9.176-79.147,3.33-118.192-4.423C1781.915,1662.54,1781.788,1663.122,1782.164,1663.197L1782.164,1663.197z"/>
			</g>
			<g>
				<path style="fill:transparent;" d="M1846.86,1665.197c0.883-7.983,5.449-16.679,11.742-21.716c0.297-0.237-0.028-0.737-0.328-0.497      c-6.423,5.141-11.094,13.93-11.996,22.087C1846.237,1665.448,1846.818,1665.578,1846.86,1665.197L1846.86,1665.197z"/>
			</g>
			<g>
				<path style="fill:transparent;" d="M1864.455,1664.379c4.068,8.297,11.137,15.229,18.808,20.243c0.321,0.21,0.59-0.322,0.272-0.53      c-7.597-4.965-14.558-11.833-18.583-20.041C1864.784,1663.708,1864.288,1664.039,1864.455,1664.379L1864.455,1664.379z"/>
			</g>
			<g>
				<path style="fill:transparent;" d="M1864.692,1643.203c-5.887,6.186-10.243,13.457-12.938,21.56      c-0.121,0.364,0.462,0.487,0.582,0.127c2.663-8.003,6.985-15.179,12.8-21.29      C1865.4,1643.323,1864.956,1642.926,1864.692,1643.203L1864.692,1643.203z"/>
			</g>
		</g>
		<g>
			<path style="fill:transparent;" d="M1808.203,1500.115c-11.493-23.614-20.242-26.107-30.371-21.971     c-10.128,4.137-16.807,13.88-11.472,30.851c12.907,41.056,48.354,78.912,55.163,76.131     C1826.471,1583.107,1824.202,1532.988,1808.203,1500.115z"/>
			<g>
				<path style="fill:transparent;" d="M1825.109,1590.025c-22.365-32.93-26.499-74.9-50.116-107.133      c-0.226-0.308-0.725,0.018-0.497,0.328c23.615,32.231,27.749,74.201,50.116,107.133      C1824.827,1590.67,1825.325,1590.343,1825.109,1590.025L1825.109,1590.025z"/>
			</g>
			<g>
				<path style="fill:transparent;" d="M1797.908,1532.047c7.16-4.008,13.442-11.731,15.675-19.649c0.104-0.37-0.478-0.494-0.582-0.127      c-2.189,7.763-8.406,15.352-15.421,19.278C1797.245,1531.736,1797.574,1532.233,1797.908,1532.047L1797.908,1532.047z"/>
			</g>
			<g>
				<path style="fill:transparent;" d="M1791.509,1514.441c-9.126-0.504-18.158-4.279-25.682-9.34c-0.318-0.214-0.587,0.318-0.272,0.53      c7.605,5.116,16.764,8.896,25.986,9.405C1791.924,1515.057,1791.889,1514.462,1791.509,1514.441L1791.509,1514.441z"/>
			</g>
			<g>
				<path style="fill:transparent;" d="M1810.348,1506.301c-3.373,7.76-8.324,14.55-14.676,20.136c-0.288,0.253,0.159,0.648,0.444,0.398      c6.394-5.623,11.369-12.454,14.762-20.262C1811.03,1506.223,1810.501,1505.949,1810.348,1506.301L1810.348,1506.301z"/>
			</g>
		</g>
		<g>
			<path style="fill:transparent;" d="M1723.35,1573.916c-23.054-20.225-33.601-18.952-42.634-9.917     c-9.034,9.034-11.817,22.545,1.603,38.403c32.465,38.364,87.75,63.087,93.823,57.014     C1780.555,1655.003,1755.443,1602.071,1723.35,1573.916z"/>
			<g>
				<path style="fill:transparent;" d="M1782.183,1663.047c-30.764-19.966-51.923-51.025-79.027-75.19      c-7.28-6.491-15.01-12.465-23.384-17.483c-0.385-0.231-0.7,0.39-0.318,0.619c31.464,18.857,52.921,49.902,79.453,74.5      c7.17,6.647,14.749,12.846,22.957,18.173C1782.241,1663.909,1782.555,1663.288,1782.183,1663.047L1782.183,1663.047z"/>
			</g>
			<g>
				<path style="fill:transparent;" d="M1726.679,1612.989c5.892-7.494,9.232-18.747,8.024-28.238c-0.056-0.442-0.751-0.407-0.694,0.038      c1.184,9.304-2.064,20.38-7.847,27.735C1725.885,1612.875,1726.402,1613.341,1726.679,1612.989L1726.679,1612.989z"/>
			</g>
			<g>
				<path style="fill:transparent;" d="M1711.899,1596.873c-10.013,3.595-21.517,3.637-31.868,1.584      c-0.439-0.087-0.588,0.593-0.148,0.68c10.49,2.08,22.091,2.039,32.237-1.604      C1712.541,1597.382,1712.322,1596.721,1711.899,1596.873L1711.899,1596.873z"/>
			</g>
			<g>
				<path style="fill:transparent;" d="M1728.457,1579.651c-0.113,9.849-2.366,19.368-6.673,28.226      c-0.196,0.403,0.423,0.721,0.619,0.318c4.356-8.959,6.635-18.619,6.749-28.582      C1729.157,1579.166,1728.462,1579.205,1728.457,1579.651L1728.457,1579.651z"/>
			</g>
		</g>
	</g>
	<g>
		<path style="fill:transparent;" d="M1007.603,1921.465H755.097c-9.905-12.359-20.239-20.775-35.694-20.149    c-48.902,1.976-77.68-18.897-92.09-47.395c-0.123-0.231-0.239-0.469-0.354-0.708c-3.318-6.703-5.854-13.817-7.674-21.145    c-0.058-0.23-0.115-0.469-0.173-0.7c-0.576-2.396-1.087-4.809-1.515-7.246c-7.485-42.241-111.794-50.121-78.544-100.184    c33.249-50.055,128.813-1.359,165.62-27.107c4.026-2.824,8.415-5.467,13.084-7.864c0.198-0.107,0.395-0.206,0.601-0.305    c37.918-19.235,93.712-22.191,125.017,27.708c4.735,7.559,9.436,13.323,14.171,17.786c5.443,5.138,10.943,8.555,16.625,11.025    c0.214,0.099,0.428,0.189,0.651,0.28c26.061,10.968,56.008,2.553,102.044,47.428    C1010.485,1825.661,1013.029,1878.228,1007.603,1921.465z"/>
		<g>
			<path style="fill:transparent;" d="M932.681,1921.465h-2.931c-16.872-18.485-34.624-36.172-53.233-52.838     c-8.465-7.584-17.168-14.863-26.102-21.853c-6.093-4.767-12.285-9.395-18.576-13.891c-0.198-0.14-0.404-0.288-0.601-0.428     c-6.159-4.389-12.409-8.646-18.749-12.763c0,0,0,0,0-0.008c-0.115-0.074-0.231-0.156-0.354-0.231     c-16.386-10.655-33.348-20.445-50.771-29.371c-39.812-20.404-81.953-36.328-125.297-47.387     c-7.304-1.861-14.657-3.607-22.043-5.196c-0.247-0.058-0.494-0.107-0.733-0.157c-24.315-5.212-49.042-8.819-73.859-9.864     c-1.392-0.058-1.392-2.215,0-2.157c3.269,0.14,6.538,0.321,9.807,0.552c34.517,2.437,68.779,9.28,102.044,18.683     c4.076,1.153,8.143,2.347,12.203,3.59c0.231,0.066,0.453,0.132,0.683,0.206c32.936,10.095,65.041,22.998,95.77,38.577     c0.239,0.124,0.477,0.239,0.725,0.371c5.945,3.014,11.832,6.142,17.67,9.362c1.194,0.659,2.38,1.318,3.565,1.984     c0.206,0.115,0.412,0.23,0.618,0.346c23.854,13.438,46.563,28.564,68.071,45.312c6.406,4.99,12.705,10.12,18.897,15.406     c0.173,0.14,0.354,0.288,0.527,0.436c6.653,5.69,13.183,11.544,19.589,17.555     C904.504,1891.699,918.881,1906.322,932.681,1921.465z"/>
		</g>
		<g>
			<path style="fill:transparent;" d="M717.431,1688.583c24.023,27.841,37.669,63.802,42.749,99.933     c0.059,0.421,0.698,0.242,0.639-0.176c-5.096-36.244-18.824-72.3-42.92-100.225     C717.62,1687.79,717.153,1688.261,717.431,1688.583L717.431,1688.583z"/>
		</g>
		<g>
			<path style="fill:transparent;" d="M739.568,1681.077c13.107,17.318,23.866,36.342,31.811,56.563     c7.75,19.724,14.017,40.878,10.323,62.227c-0.072,0.417,0.566,0.596,0.639,0.176c3.645-21.066-2.292-41.804-9.835-61.327     c-8.013-20.739-18.952-40.249-32.366-57.973C739.886,1680.407,739.31,1680.737,739.568,1681.077L739.568,1681.077z"/>
		</g>
		<g>
			<path style="fill:transparent;" d="M831.945,1832.067c-47.774,26.782-104.514,37.239-158.811,30.921     c-15.586-1.814-30.97-5.078-45.936-9.794c-0.408-0.129-0.582,0.511-0.176,0.639c52.759,16.623,111.048,15.118,163.344-2.568     c14.512-4.908,28.55-11.134,41.913-18.625C832.651,1832.431,832.318,1831.858,831.945,1832.067L831.945,1832.067z"/>
		</g>
		<g>
			<path style="fill:transparent;" d="M812.006,1819.493c-46.505,22.559-100.287,28.136-151.127,20.957     c-14.07-1.987-27.974-5.034-41.596-9.072c-0.41-0.121-0.585,0.518-0.176,0.639c49.469,14.663,103.595,16.438,153.523,2.879     c13.667-3.712,26.968-8.65,39.711-14.831C812.725,1819.88,812.389,1819.308,812.006,1819.493L812.006,1819.493z"/>
		</g>
		<g>
			<path style="fill:transparent;" d="M646.273,1704.354c10.485,12.337,15.954,29.09,17.328,45.053c0.036,0.422,0.699,0.426,0.663,0     c-1.39-16.143-6.916-33.042-17.522-45.521C646.465,1703.56,645.998,1704.031,646.273,1704.354L646.273,1704.354z"/>
		</g>
		<g>
			<path style="fill:transparent;" d="M614.326,1736.124c-15.359,18.451-37.586,30.271-61.482,32.639c-0.421,0.042-0.425,0.705,0,0.663     c24.07-2.385,46.473-14.239,61.951-32.833C615.066,1736.267,614.599,1735.796,614.326,1736.124L614.326,1736.124z"/>
		</g>
		<g>
			<path style="fill:transparent;" d="M874.147,1745.311c0.988,19.732,3.163,39.372,4.576,59.074     c1.359,18.935-0.067,38.509-9.312,55.465c-0.204,0.375,0.368,0.709,0.572,0.334c8.852-16.234,10.652-34.948,9.581-53.139     c-1.214-20.605-3.722-41.112-4.754-61.734C874.789,1744.886,874.126,1744.884,874.147,1745.311L874.147,1745.311z"/>
		</g>
	</g>
	<g style="opacity:0.4;">
		<path style="fill:transparent;" d="M1820.817,1868.303c0,0-8.93-97.115,43.775-126.31c52.705-29.195,66.153,4.245,98.526-25.541    s72.916-11.13,91.911,11.72c18.995,22.85,88.466,8.445,100.951,46.186c12.485,37.741-55.447,24.576-67.592,50.227    c-12.145,25.65-37.491,44.485-78.426,31.502C1969.029,1843.103,1957.856,1947.44,1820.817,1868.303z"/>
		<g>
			<path style="fill:transparent;" d="M2155.468,1775.164c-21.476-4.912-43.664-6.883-65.66-7.202     c-29.91-0.434-59.889,2.518-89.14,8.776c-30.246,6.471-59.616,16.557-87.239,30.485c-26.012,13.116-50.884,28.67-74.312,45.97     c-20.594,15.207-41.07,31.955-57.006,52.148c-1.522,1.929-2.987,3.901-4.399,5.912c-0.527,0.752,0.741,1.413,1.262,0.67     c14.286-20.358,34.072-37.024,53.657-52.063c22.78-17.493,47.078-33.159,72.417-46.682c26.715-14.258,54.884-25.11,84.299-32.371     c29.652-7.319,60.181-11.116,90.718-11.437c23.043-0.242,46.279,1.349,68.905,5.863c2.069,0.413,4.132,0.855,6.188,1.326     C2156.054,1776.764,2156.365,1775.37,2155.468,1775.164L2155.468,1775.164z"/>
		</g>
		<g>
			<path style="fill:transparent;" d="M1887.218,1733.066c-20.428,29.283-19.431,66.407-18.116,100.501     c0.011,0.282,0.449,0.261,0.438-0.022c-1.312-34.029-2.323-71.047,18.065-100.273     C1887.767,1733.04,1887.377,1732.838,1887.218,1733.066L1887.218,1733.066z"/>
		</g>
		<g>
			<path style="fill:transparent;" d="M1899.166,1815.635c17.475,19.425,42.623,31.284,67.146,39.082     c6.951,2.21,14.006,4.08,21.136,5.613c0.276,0.059,0.371-0.369,0.095-0.428c-25.479-5.475-51.118-15.01-72.288-30.471     c-5.715-4.174-11.055-8.852-15.791-14.117C1899.275,1815.104,1898.979,1815.427,1899.166,1815.635L1899.166,1815.635z"/>
		</g>
		<g>
			<path style="fill:transparent;" d="M2048.101,1720.31c-20.243,13.601-35.302,34.241-44.863,56.471     c-0.111,0.258,0.276,0.465,0.387,0.205c9.532-22.163,24.527-42.745,44.711-56.307     C2048.57,1720.522,2048.335,1720.152,2048.101,1720.31L2048.101,1720.31z"/>
		</g>
		<g>
			<path style="fill:transparent;" d="M2035.24,1711.694c-11.724,9.021-22.171,19.635-30.934,31.559     c-8.135,11.069-15.513,23.211-16.832,37.186c-0.026,0.277,0.401,0.376,0.428,0.095c1.336-14.151,8.909-26.462,17.2-37.624     c8.641-11.634,18.891-22.01,30.374-30.846C2035.697,1711.893,2035.464,1711.521,2035.24,1711.694L2035.24,1711.694z"/>
		</g>
		<g>
			<path style="fill:transparent;" d="M1949.926,1792.583c25.982,25.603,60.666,42.249,96.672,47.619     c10.127,1.51,20.376,2.092,30.609,1.695c0.281-0.011,0.26-0.449-0.022-0.438c-36.255,1.405-72.876-9.57-102.98-29.687     c-8.586-5.738-16.624-12.263-23.98-19.512C1950.022,1792.063,1949.725,1792.386,1949.926,1792.583L1949.926,1792.583z"/>
		</g>
		<g>
			<path style="fill:transparent;" d="M1964.841,1788.038c25.722,22.505,59.073,35.498,92.751,39.813     c9.438,1.209,18.955,1.714,28.469,1.508c0.282-0.006,0.26-0.444-0.022-0.438c-33.829,0.731-68.355-7.466-97.663-24.546     c-8.252-4.809-16.047-10.369-23.236-16.658C1964.927,1787.53,1964.629,1787.852,1964.841,1788.038L1964.841,1788.038z"/>
		</g>
		<g>
			<path style="fill:transparent;" d="M2090.755,1742.784c-8.943,6.095-15.424,15.947-19.113,25.996     c-0.097,0.264,0.332,0.356,0.428,0.095c3.649-9.938,10.08-19.695,18.921-25.721     C2091.224,1742.995,2090.989,1742.625,2090.755,1742.784L2090.755,1742.784z"/>
		</g>
		<g>
			<path style="fill:transparent;" d="M2105.427,1769.179c6.614,14.551,18.841,26.075,33.777,31.779c0.26,0.1,0.469-0.287,0.205-0.387     c-14.825-5.662-26.996-17.074-33.565-31.526C2105.729,1768.791,2105.31,1768.922,2105.427,1769.179L2105.427,1769.179z"/>
		</g>
		<g>
			<path style="fill:transparent;" d="M1938.008,1729.445c-4.196,12.804-9.247,25.299-13.621,38.039     c-3.972,11.567-6.199,24.021-3.328,36.103c0.065,0.274,0.483,0.14,0.418-0.134c-2.986-12.568-0.364-25.45,3.875-37.405     c4.32-12.185,9.058-24.22,13.085-36.508C1938.524,1729.272,1938.095,1729.179,1938.008,1729.445L1938.008,1729.445z"/>
		</g>
		<g>
			<path style="fill:transparent;" d="M1944.221,1890.549c-28.499-1.637-56.088-13.549-80.462-27.765     c-6.692-3.903-13.214-8.09-19.556-12.538c-0.231-0.162-0.433,0.227-0.205,0.387c23.361,16.384,49.636,30.117,77.492,36.873     c7.471,1.812,15.076,3.04,22.753,3.481C1944.524,1891.003,1944.501,1890.565,1944.221,1890.549L1944.221,1890.549z"/>
		</g>
	</g>
	<g>
		<g>
			<g>
				<g>
					<g>
						<g>
							<g>
								<g>
									<path style="fill:#fdbaa0;" d="M1298.819,1485.813c-4.805,20.79-68.262,62.211-73.773,80.863           c-0.51,1.716-0.53,3.236,0.029,4.531c1.216,2.805,2.256,5.531,3.128,8.188c0.098,0.255,0.167,0.5,0.235,0.735           c0.755,2.295,1.373,4.521,1.873,6.717c0.481,2.04,0.863,4.05,1.157,6.021c0.039,0.255,0.098,0.51,0.118,0.745           c0.863,18.387-3.334,33.479-9.826,45.668c-9.689,18.21-24.486,29.948-35.116,36.558           c-7.561,4.707-13.003,6.815-13.003,6.815c-3.589,10.208,9.1,175.905,30.282,238.813H934.485           c-8.09-196.813-18.122-257.17-18.122-257.17c-51.983-42.893-51.071-117.891-43.059-162.226c0-0.039,0-0.069,0.01-0.098           c0.382-2.128,0.932-4.011,1.638-5.697c0-0.02,0.01-0.02,0.01-0.029c8.375-20.103,38.804-13.729,80.882-68.791           c3.54-4.629,7.09-9.483,10.64-14.552c3.815-5.443,7.61-11.16,11.366-17.141c1.383-2.177,2.746-4.403,4.099-6.659           c0.235-0.363,0.451-0.716,0.657-1.079c1.805-2.971,3.579-6.011,5.335-9.12c2.02-3.511,3.991-7.1,5.962-10.767           c0.206-0.412,0.431-0.824,0.647-1.226c17.622-33.253,33.371-72.959,44.285-119.882c1.952-8.276,3.717-16.759,5.325-25.486           c2.559-13.905,21.103-4.776,47.1,16.906c14.778,12.327,31.978,28.693,50.022,47.188           c9.816,10.052,19.887,20.73,29.958,31.723c14.641,15.994,29.282,32.645,43.158,49.002           c18.259,21.515,35.185,42.53,49.022,60.848c0.696,0.912,1.363,1.814,2.03,2.697c0.128,0.167,0.255,0.343,0.363,0.49           C1286.943,1458.611,1300.182,1479.871,1298.819,1485.813z"/>
								</g>
							</g>
						</g>
					</g>
				</g>
			</g>
		</g>
		<g style="opacity:0.5;">
			<g>
				<g>
					<path style="fill:#F18E7B;" d="M1339.227,1362.805c-43.663-7.463-140.611,5.457-140.611,5.457l-0.024-0.034       c-9.165-14.057-18.575-31.292-28.111-52.543l24.061-15.724L1339.227,1362.805z"/>
				</g>
			</g>
		</g>
		<path style="opacity:0.4;fill:#F18E7B;" d="M1221.761,1639.282c-1.01-1.089-2-3.03-2.971-5.982    c-11.522-35.195-123.795-28.821-123.795-28.821l130.051-37.803c-0.51,1.716-0.53,3.236,0.029,4.531    c1.216,2.805,2.256,5.531,3.128,8.188c0.098,0.255,0.167,0.5,0.235,0.735c0.755,2.295,1.373,4.521,1.873,6.717    c0.481,2.04,0.863,4.05,1.157,6.021c0.039,0.255,0.098,0.51,0.118,0.745C1232.45,1612.001,1228.253,1627.093,1221.761,1639.282z"/>
		<g>
			<g>
				<g>
					<g>
						<path style="fill:#F18E7B;" d="M1260.543,1428.266c19.509,8.451,40.405,11.973,61.605,10.37        c1.343-0.102,1.164-2.186-0.18-2.084c-20.861,1.577-41.331-1.861-60.528-10.177        C1260.204,1425.84,1259.306,1427.73,1260.543,1428.266L1260.543,1428.266z"/>
					</g>
				</g>
			</g>
		</g>
		<g>
			<g>
				<path style="fill:#fcf8f8;" d="M1057.836,1601.705l388.294-33.468c27.784-2.395,48.366-26.859,45.971-54.643l-63.452-736.169      c-2.395-27.784-26.859-48.366-54.643-45.971l-388.294,33.468c-27.784,2.395-48.366,26.859-45.971,54.643l63.452,736.169      C1005.588,1583.518,1030.052,1604.1,1057.836,1601.705z"/>
			</g>
		</g>
		<g>
			<g>
				<g>
					<path style="fill:#2f2d2d;" d="M1498.923,1513.008l-18.058-209.535v-0.014l-18.72-217.135l-0.478-5.503v-0.014l-11.387-132.15       l-8.375-97.188l-6.432-74.626c-2.716-31.514-30.557-54.935-62.057-52.218l-388.287,33.47       c-15.3,1.323-28.685,8.558-38.115,19.269c-0.112,0.127-0.225,0.253-0.324,0.394c-9.782,11.302-15.159,26.377-13.78,42.394       l38.847,450.71l10.19,118.244l14.413,167.211c2.716,31.514,30.557,54.935,62.057,52.218l13.273-1.14l1.168-0.099       l158.724-13.681l90.474-7.812l1.323-0.113l123.339-10.627c15.764-1.365,29.487-9.008,38.945-20.254l0.211-0.253       C1495.193,1543.353,1500.275,1528.631,1498.923,1513.008z M986.297,771.747l388.302-33.47       c23.97-2.069,45.153,15.764,47.222,39.734l24.772,287.37l0.549,6.432l5.039,58.383v0.014l13.723,159.188v0.014l19.368,224.764       c1.013,11.781-2.759,22.872-9.712,31.373c-7.206,8.811-17.819,14.807-30.022,15.863l-123.086,10.613l-1.436,0.127       l-92.571,7.981l-154.276,13.287l-16.918,1.464c-23.984,2.069-45.167-15.764-47.236-39.734l-16.116-187.015l-8.91-103.339       l-38.425-445.812c-1.056-12.203,3.054-23.688,10.5-32.288C964.227,778.39,974.53,772.76,986.297,771.747z"/>
				</g>
			</g>
		</g>
		<g>
			<g>
				<g>
					<path style="fill:#2f2d2d;" d="M1499.599,1512.205l-17.946-208.156v-0.014l-18.959-219.908v-0.028l-0.211-2.491       l-11.204-130.053v-0.014l-8.755-101.579l-6.376-73.936c-2.716-31.5-30.543-54.921-62.057-52.204l-388.287,33.47       c-15.666,1.351-29.332,8.924-38.791,20.071c-0.112,0.127-0.225,0.253-0.324,0.394c-9.346,11.204-14.441,25.94-13.104,41.592       l38.889,451.161l10.134,117.512l14.441,167.493c2.716,31.5,30.543,54.921,62.057,52.204l12.752-1.098l1.112-0.098       l158.499-13.653l90.531-7.798l1.337-0.127l124.057-10.683c15.384-1.323,28.84-8.642,38.27-19.452l0.211-0.253       C1495.616,1543.255,1500.978,1528.209,1499.599,1512.205z M1446.226,1560.609l-123.832,10.669l-1.436,0.127l-92.754,7.995       l-154.009,13.273l-16.271,1.407c-23.97,2.055-45.167-15.764-47.222-39.734l-16.158-187.437l-8.825-102.424l-38.481-446.319       c-1.013-11.823,2.801-22.97,9.824-31.472c7.192-8.741,17.763-14.708,29.909-15.75l388.301-33.47       c23.97-2.069,45.167,15.75,47.222,39.734l24.913,289.059l0.338,3.899v0.014l4.955,57.384l14.033,162.82l19.226,222.99       c1.042,12.147-3.012,23.576-10.401,32.176C1468.381,1553.924,1458.05,1559.596,1446.226,1560.609z"/>
				</g>
			</g>
		</g>
		<g>
			<g>
				<path style="fill:#fdbaa0;" d="M873.319,1501.973c4.534-10.695,38.175-191.711,65.589-211.616      c46.99-34.119,116.292-49.917,154.558-52.055c21.021-1.174,44.762-6.582,55.493-10.413c6.208-2.216,11.107-1.319,14.529,4.315      c5.711,9.403,3.817,23.793-7.418,38.731c-26.391,35.092-87.265,42.694-87.265,42.694c-14.889,10.78-23.458,27.915-51.608,40.221      c-5.366,2.346,104.992,243.098,32.373,300.864C925.709,1753.24,871.832,1505.48,873.319,1501.973z"/>
			</g>
		</g>
		<g>
			<path style="fill:#9a1d71;" d="M1107.338,1236.797c0,0-0.487,13.965,11.711,13.965s42.266-12.865,42.271-21.469     C1161.326,1218.741,1123.7,1232.92,1107.338,1236.797z"/>
		</g>
		<g>
			<path style="fill:#F18E7B;" d="M883.609,1621.936c17.445,39.065,58.689,65.16,101.448,64.29c1.348-0.027,1.353-2.125,0-2.097     c-42.091,0.856-82.477-24.825-99.637-63.251C884.871,1619.647,883.063,1620.713,883.609,1621.936L883.609,1621.936z"/>
		</g>
		<g>
			<path style="fill:#F18E7B;" d="M1073.682,1619.528c-1.376,13.505-6.062,26.188-13.714,37.394     c-0.763,1.118,1.054,2.168,1.811,1.059c7.872-11.528,12.586-24.57,14-38.453     C1075.917,1618.186,1073.818,1618.196,1073.682,1619.528L1073.682,1619.528z"/>
		</g>
		<g>
			<path style="fill:#F18E7B;" d="M1137.542,1695.097c22.028-5.794,44.059-11.256,61.181-27.347c0.986-0.926-0.5-2.407-1.483-1.483     c-16.844,15.83-38.605,21.113-60.255,26.807C1135.68,1693.418,1136.233,1695.442,1137.542,1695.097L1137.542,1695.097z"/>
		</g>
		<g>
			<path style="fill:#F18E7B;" d="M1002.261,1358.46c30.418-5.311,55.57-27.843,71.943-53.06c0.737-1.135-1.078-2.188-1.811-1.059     c-16.096,24.792-40.796,46.877-70.689,52.096C1000.377,1356.669,1000.939,1358.691,1002.261,1358.46L1002.261,1358.46z"/>
		</g>
		<g>
			<path style="fill:#F18E7B;" d="M1014.626,1353.759c-1.9,4.122-4.188,8.004-6.873,11.663c-0.799,1.089,1.02,2.137,1.811,1.059     c2.685-3.659,4.973-7.541,6.873-11.663C1016.998,1353.6,1015.191,1352.533,1014.626,1353.759L1014.626,1353.759z"/>
		</g>
		<path style="opacity:0.2;fill:#F18E7B;" d="M1203.923,1921.468h-106.761c41.206-39.882,6.934-45.679,3.364-81.383    c-4.413-44.128,7.734-73.104,23.552-104.576c20.82-41.422,33.137-46.626,34.618-47.077l27.948-12.591    c-7.561,4.707-13.003,6.815-13.003,6.815C1170.052,1692.864,1182.742,1858.561,1203.923,1921.468z"/>
		<g>
			<path style="fill:#F18E7B;" d="M1059.635,1701.965c-3.764,20.213-4.679,40.745-2.678,61.21c0.13,1.331,2.229,1.345,2.098,0     c-1.983-20.277-1.127-40.621,2.603-60.653C1061.903,1701.203,1059.882,1700.637,1059.635,1701.965L1059.635,1701.965z"/>
		</g>
	</g>
	<path style="fill:#2f2d2d;" d="M949.456,615.451c0,0-38.433,15.157-26.609,52.138l13.905-1.742c0,0-6.153-23.492,19.577-36.916   L949.456,615.451z"/>
	<g>
		<path style="fill:#2f2d2d;" d="M1107.301,693.676c0,0-0.092,27.749-21.822,28.749l-20.209-6.907c0,0,24.406,6.286,22.518-19.939    L1107.301,693.676z"/>
		<path style="fill:#eeaad7;" d="M1039.296,696.889c0,0,6.747,34.926,50.381,24.915c0,0-24.633-6.667-25.609-31.286    L1039.296,696.889z"/>
	</g>
	<g>
		<path style="fill:#2f2d2d;" d="M1356.598,1058.112c-0.03,0.029-0.049,0.029-0.049,0.029c0,0.01,0,0.01-0.02,0.02    c-0.598,4.57-1.765,9.355-3.452,14.454c-5.688,17.22-17.367,38.078-33.675,66.693v0.029    c-13.337,23.378-15.121,45.599-14.552,59.093c0.343,7.825,1.451,12.709,1.579,13.209c0,0.02,0,0.03,0,0.03    s-10.846,72.459-134.532-2.148c-40.843-24.633-86.246-17.396-88.512-22.27c-5.805-12.552,26.908-49.737,47.315-66.418    c0.01-0.02,0.02-0.029,0.03-0.039c0,0,0,0,0-0.02c6.609-5.384,11.866-10.395,14.023-14.631c1.118-2.187,1.677-4.217,1.53-6.08    c-0.235-3.069-0.951-9.208-1.951-17.161c-0.157-1.157-0.304-2.354-0.461-3.579l-0.049-0.265    c-0.422-3.285-0.892-6.825-1.383-10.532c0-0.01,0-0.02,0-0.02c-4.933-37.107-12.758-91.571-12.758-91.571    c-17.22-151.174-6.923-159.99,5.844-158.558c20.27,2.275,22.594-1.834,20.917-5.737c10.473,12.63,35.901,43.167,48.767,57.416    c37.803,41.902,103.123,34.822,88.247,4.021c-17.367-35.95-30.576-70.635-30.576-70.635l27.732,24.947    c0,0,52.768,73.763,82.481,119.823C1403.413,995.214,1360.285,1009.414,1356.598,1058.112z"/>
		<g>
			<path style="fill:#fabba5;" d="M804.264,494.516c0,0,21.825,20.019,27.027,22.779s35.775-1.127,35.775-1.127l-6.606-8.562     c0,0-18.129,0.53-24.774-1.615C829.04,503.845,805.404,487.986,804.264,494.516z"/>
			<path style="fill:#fabba5;" d="M946.812,592.097c0,0-18.881-37.548-24.078-59.854c-5.197-22.306-26.767-30.614-39.772-27.636     c-13.005,2.978-35.526,12.14-49.878,5.018c-17.311-8.59-24.012,33.499-3.826,36.596c20.186,3.097,45.247-0.657,53.548,6.143     c8.301,6.8,35.161,71.192,35.161,71.192L946.812,592.097z"/>
			<path style="fill:#fabba5;" d="M892.287,535.513c10.05,0.587,15.948-11.248,9.381-18.879     c-5.966-6.933-12.92-12.893-18.706-12.027c-13.115,1.962-34.938-20.727-48.406-20.303c-13.468,0.424,23.584,26.862,25.157,40.295     C860.581,532.012,877.395,534.643,892.287,535.513z"/>
			<path style="fill:#fabba5;" d="M786.681,523.537c0,0,32.066,22.239,39.351,24.913c7.285,2.674,46.503-7.857,46.503-7.857     l-10.153-9.998c0,0-23.573,3.929-32.632,2.314C820.692,531.294,787.004,514.809,786.681,523.537z"/>
			<path style="fill:#fabba5;" d="M793.214,499.606c0,0,26.203,28.917,32.694,33.17c6.491,4.252,47.075,2.867,47.075,2.867     l-7.628-12.036c0,0-23.851-1.506-32.309-5.128S795.504,491.177,793.214,499.606z"/>
			<path style="fill:#fabba5;" d="M784.909,512.787c0,0,32.257,21.962,39.564,24.572c7.308,2.611,46.434-8.259,46.434-8.259     l-10.239-9.91c0,0-23.539,4.132-32.61,2.596C818.986,520.249,785.158,504.056,784.909,512.787z"/>
		</g>
		<path style="opacity:0.2;fill:#2f2d2d;" d="M1353.077,1072.615c-5.688,17.22-17.367,38.078-33.675,66.693v0.029    c-13.337,23.378-15.121,45.599-14.552,59.093c0.343,7.825,1.451,12.709,1.579,13.209c0,0.02,0,0.03,0,0.03    s-10.846,72.459-134.532-2.148c-40.843-24.633-86.246-17.396-88.512-22.27c-5.805-12.552,26.908-49.737,47.315-66.418    c0.01-0.02,0.02-0.029,0.03-0.039c0,0,0,0,0-0.02c6.609-5.384,11.866-10.395,14.023-14.631c1.118-2.187,1.677-4.217,1.53-6.08    c-0.235-3.069-0.951-9.208-1.951-17.161c3.609,12.562,13.866,30.007,42.638,37.999    C1234.627,1134.14,1321.981,1115.538,1353.077,1072.615z"/>
		<g>
			<path style="fill:#fabba5;" d="M1387.786,362.8c0,0-7.765,28.579-10.691,33.69c-2.926,5.111-30.851,18.147-30.851,18.147     l1.015-10.766c0,0,15.612-9.231,20.086-14.593C1371.818,383.917,1383.336,357.888,1387.786,362.8z"/>
			<path style="fill:#fabba5;" d="M1329.911,491.757c0,0-14.64-12.17-22.156-33.805c-7.515-21.635,6.288-40.177,18.874-44.602     c12.586-4.426,36.521-8.702,44.853-22.387c10.051-16.505,38.189,15.505,22.774,28.901     c-15.415,13.396-34.084,17.205-37.472,27.387c-3.388,10.182-6.886,44.507-6.886,44.507H1329.911z"/>
			<path style="fill:#fabba5;" d="M1335.246,444.461c-8.185,5.862-19.49-0.996-18.011-10.954c1.343-9.047,4.041-17.8,9.395-20.157     c12.138-5.343,18.475-36.179,30.09-43.011c11.615-6.832-5.599,35.305,0.242,47.502     C1360.186,424.573,1347.374,435.775,1335.246,444.461z"/>
			<path style="fill:#fabba5;" d="M1418.148,377.952c0,0-15.24,35.924-19.972,42.075c-4.732,6.15-43.516,18.184-43.516,18.184     l3.247-13.875c0,0,22.03-9.264,28.827-15.465C1393.531,402.669,1413.214,370.744,1418.148,377.952z"/>
			<path style="fill:#fabba5;" d="M1399.847,361.204c0,0-6.717,38.441-9.935,45.502c-3.218,7.061-38.274,27.558-38.274,27.558     l0.024-14.249c0,0,19.363-14.008,24.581-21.586C1381.46,390.85,1393.411,355.3,1399.847,361.204z"/>
			<path style="fill:#fabba5;" d="M1413.906,367.916c0,0-15.549,35.792-20.334,41.901c-4.785,6.109-43.672,17.808-43.672,17.808     l3.366-13.846c0,0,22.109-9.073,28.96-15.216C1389.076,392.42,1409.035,360.666,1413.906,367.916z"/>
		</g>
		<polygon style="fill:#755944;" points="1246.073,840.925 1113.601,849.498 1104.261,717.076 1237.5,708.453   "/>
		<path style="fill:#2f2d2d;" d="M1232.97,789.776c0,0,107.277-128.819,107.682-142.676c1.025-34.818-31.935-185.153-35.481-196.296    c-2.138-6.719,20.958,4.622,30.075-6.344c6.668-8.005,20.344-6.836,23.508-0.782c55.152,105.516,81.1,205.92,80.703,214.1    c-0.397,8.18-18.541,66.701-49.484,138.995c-30.668,71.647-86.318,97.764-86.67,164.697    C1303.131,997.715,1232.97,789.776,1232.97,789.776z"/>
		<path style="fill:#755944;" d="M1339.75,715.257c0,0-0.628,8.342-4.566,18.373c-6.93-9.271-19.435-24.12-33.415-31.953    c0.945,0.809,24.076,20.738,26.045,45.719c-6.18,8.619-15.449,33.555-41.492,35.625c-25.409,2.02-43.775,23.972-43.775,23.972    l-124.112-223.13c0,0,37.359-22.048,79.035-11.774c66.698,16.442,79.51,29.653,78.002,67.25    C1274.281,669.044,1312.055,672.72,1339.75,715.257z"/>
		<path style="fill:#fabba5;" d="M1148.521,815.926c0,0,107.8,160.317,148.187,76.128c12.284-25.608-58.202-48.419-51.754-97.208    c0.165-1.247,9.599-38.031,9.814-39.195c4.843-26.058-84.56,8.217-87.602,25.727    C1163.361,803.279,1148.521,815.926,1148.521,815.926z"/>
		<path style="fill:#2f2d2d;" d="M1156.441,812.641c-2.716-3.266-4.423-5.335-4.648-5.619    C1152.126,807.286,1155.265,809.915,1156.441,812.641z"/>
		<path style="fill:#ed938b;" d="M1185.04,766.78c1.955,3.101,3.408,3.434,5.137,7.226c24.646,14.255,55.249,15.826,55.976,15.769    c3.959-17.442,6.467-20.222,5.514-28.348C1230.886,760.954,1194.115,761.004,1185.04,766.78z"/>
		<path style="fill:#fabba5;" d="M1190.277,772.192c50.025,6.801,82.903-14.411,89.694-21.631    c6.793-7.228,2.733-14.751,3.539-40.904c0.552-18.027-4.642-31.697-11.187-40.444c-2.948-3.948-6.173-6.891-9.268-8.783    c-0.97-0.595-1.812-1.161-2.546-1.721c-6.864-5.174-4.754-9.281-11.035-21.508c-1.467-2.856-4.464-5.883-8.28-8.89    c-1.697-1.332-3.555-2.667-5.512-3.972c-14.498-9.677-34.449-18.085-34.449-18.085c-79.641-6.871-95.938,63.906-87.429,87.981    C1122.311,718.305,1140.256,765.388,1190.277,772.192z"/>
		<path style="fill:#755944;" d="M1160.667,677.544c0,0-2.227-18.548,29.794-26.727c19.037-4.863,20.825,4.321,10.658,8.383    C1190.952,663.261,1183.071,655.756,1160.667,677.544z"/>
		<path style="fill:#755944;" d="M1235.08,640.833c3.291-2.841,4.197-9.177,6.115-12.522c-1.219-2.206-2.952-4.206-5.512-3.972    c-1.161,0.699-2.339,1.773-3.509,3.32C1224.116,638.371,1229.59,645.594,1235.08,640.833z"/>
		<path style="fill:#8c6e66;" d="M1212.633,674.096c0,0-8.87-9.605-16.105-10.158c-7.236-0.553-23.78,9.008-24.944,14.118    c-1.164,5.111,1.15,11.457,1.15,11.457S1185.782,665.005,1212.633,674.096z"/>
		<path style="fill:#755944;" d="M1173.652,691.086c2.307,2.649,6.707-2.07,9.285-4.452c0.623-0.578,1.232-1.182,1.821-1.796    c1.845-1.92,3.589-3.941,5.644-5.632c1.773-1.463,3.765-2.633,5.89-3.494c6.338-2.573,13.815-2.423,19.911,0.724    c-0.367-0.249-13.141-10.769-28.344-3.955C1176.809,677.434,1171.982,689.171,1173.652,691.086z"/>
		<path style="fill:#8c6e66;" d="M1235.486,662.299c0,0-4.477-9.171-3.431-13.922c1.046-4.752,10.42-11.557,13.942-10.373    c3.522,1.184,7.167,5.017,7.167,5.017S1234.826,642.029,1235.486,662.299z"/>
		<path style="fill:#755944;" d="M1260.24,639.712c1.165,2.511-3.645,4.161-6.188,5.25c-0.616,0.263-1.247,0.506-1.877,0.733    c-1.975,0.71-3.99,1.316-5.866,2.251c-1.623,0.805-3.105,1.863-4.407,3.115c-3.888,3.733-6.184,9.162-5.879,14.559    c-0.061-0.344-3.525-12.917,6.264-21.666C1249.403,637.595,1259.4,637.894,1260.24,639.712z"/>
		<g style="opacity:0.2;">
			<path style="fill:#eeaad7;" d="M1171.055,713.602c2.709-5.782,8.57-10.455,15.228-12.14c3.651-0.924,7.302-1.848,10.953-2.772     c7.177-1.817,14.85-3.64,20.924-1.289c1.742,0.674,3.196,1.769,3.998,3.287c1.997,3.78-0.991,7.423-4.111,10.381     c-8.393,7.955-19.377,13.808-30.52,16.262c-1.778,0.392-3.592,0.687-5.391,0.859     C1172.836,729.08,1167.254,721.714,1171.055,713.602L1171.055,713.602z"/>
		</g>
		<g style="opacity:0.2;">
			<path style="fill:#eeaad7;" d="M1255.18,675.715c1.501,2.429,3.544,2.507,5.293,2.247c4.693-0.7,8.738-3.435,11.229-7.599     c0.222-0.365,0.428-0.747,0.621-1.151c-2.948-3.948-6.173-6.891-9.268-8.783c-0.97-0.595-1.812-1.161-2.546-1.721     c-0.218,0.231-0.415,0.485-0.596,0.756c-0.87,1.317-1.745,2.636-2.615,3.953c-1.714,2.583-3.492,5.398-3.153,9.141     C1254.247,673.633,1254.576,674.74,1255.18,675.715z"/>
		</g>
		<g>
			<path style="fill:#8c6e66;" d="M1230.381,647.196c-3.455,5.136-2.701,11.674,0.34,16.836c3.378,5.734,9.466,9.221,15.397,11.81     c4.037,1.762,12.368,3.266,12.88,8.813c0.225,2.442-1.443,4.687-2.783,6.555c-1.89,2.636-4.093,4.992-6.522,7.137     c-0.717,0.633-1.789-0.407-1.068-1.043c2.729-2.409,5.182-5.082,7.187-8.132c1.684-2.562,2.517-5.176-0.261-7.442     c-1.446-1.18-3.217-1.801-4.936-2.472c-5.468-2.136-10.951-4.393-15.558-8.12c-7.094-5.738-11.548-16.391-5.976-24.675     C1229.614,645.669,1230.917,646.399,1230.381,647.196L1230.381,647.196z"/>
		</g>
		<g style="opacity:0.2;">
			<path style="fill:#eeaad7;" d="M1273.89,732.192c-5.224,0.963-9.639,3.412-13.2,7.362c-1.289,1.43-3.42-0.662-2.137-2.086     c3.872-4.295,8.881-7.113,14.571-8.162C1275,728.961,1275.786,731.843,1273.89,732.192L1273.89,732.192z"/>
		</g>
		<g style="opacity:0.2;">
			<path style="fill:#eeaad7;" d="M1254.703,687.535c-3.319,2.687-6.107,5.793-8.368,9.421c-1.015,1.629-3.618,0.166-2.601-1.466     c2.39-3.836,5.317-7.195,8.832-10.041C1254.044,684.253,1256.194,686.328,1254.703,687.535L1254.703,687.535z"/>
		</g>
		<path style="fill:#755944;" d="M1185.04,590.763c-2.523,2.971,9.399,94.383-48.925,122.197    c-52.1,24.845-32.745,20.391-23.184,56.496s25.706,87.579-24.507,69.487c-50.213-18.092-5.585-40.254-28.115-30.712l3.737-86.495    l48.844-118.034l41.409-16.682l47.64,2.277L1185.04,590.763z"/>
		<path style="fill:#755944;" d="M1172.368,618.467c0,0,23.883-16.508,49.527-2.275c0,0-26.335-29.877-41.834-23.216    C1164.562,599.638,1172.368,618.467,1172.368,618.467z"/>
		<path style="fill:#755944;" d="M1164.569,584.534L1096.878,722.5c0,0,40.134,22.002-0.176,80.541    c-27.35,39.719,5.916,47.764-37.404,57.146c-14.277-20.675-13.846-59.373-13.846-59.373c-16.197,21.785-5.797,48.341,1.472,62.637    c-40.342,10.567-75.71,15.831-100.187-16.449c-26.42-34.849-0.121-64.653-0.121-64.653    c-19.294,15.437-25.527,54.502-25.527,54.502c-16.328-45.357,1.363-95.05,57.407-115.059    c56.044-20.009,19.737-69.421,68.627-128.417c60.178-72.617,144.822-29.796,144.822-29.796    c61.803-1.249,77.796,44.782,77.796,44.782L1164.569,584.534z"/>
		<g>
			<path style="fill:#755944;" d="M1170.806,563.098c-48.813-4.286-102.822,4.915-135.152,45.235     c-7.227,9.013-12.736,19.225-16.306,30.212c-4.046,12.449-5.289,25.399-8.258,38.083c-6.431,27.467-34.255,37.095-55.739,50.788     c-9.95,6.342-19.403,13.83-25.867,23.853c-7.64,11.847-10.302,25.902-10.986,39.777c-0.054,1.087,1.631,1.409,1.685,0.311     c0.637-12.926,2.936-26.007,9.584-37.306c5.965-10.137,15.135-17.764,24.86-24.131c17.214-11.269,41.002-19.55,52.289-37.756     c5.827-9.4,6.914-20.764,8.863-31.406c2.335-12.747,5.473-25.395,11.629-36.889c11.212-20.932,30.397-37.008,51.843-46.761     c28.478-12.951,60.457-15.027,91.245-12.324C1171.586,564.879,1171.904,563.194,1170.806,563.098L1170.806,563.098z"/>
		</g>
		<g>
			<path style="fill:#755944;" d="M1089.867,813.635c-4.001,8.524-2.818,20.079-0.689,28.984     c2.499,10.456,7.688,19.935,14.922,27.853c0.671,0.734,1.793-0.329,1.12-1.065c-6.604-7.227-11.479-15.755-14.049-25.231     c-2.379-8.77-4.004-21.177,0.01-29.728C1091.6,813.557,1090.29,812.735,1089.867,813.635L1089.867,813.635z"/>
		</g>
		<g>
			<path style="fill:#755944;" d="M1125.628,718.886c9.621,24.057,34.596,37.086,59.832,31.196c1.074-0.251,0.562-1.886-0.507-1.636     c-24.272,5.665-48.43-6.916-57.688-30.066C1126.858,717.362,1125.218,717.861,1125.628,718.886L1125.628,718.886z"/>
		</g>
		<g>
			<path style="fill:#755944;" d="M1176.925,579.053c7.214,26.522-12.506,49.23-33.788,61.91     c-20.811,12.399-44.833,18.865-64.453,33.358c-14.805,10.937-27.224,27.624-26.986,46.76     c0.242,19.419,12.588,35.798,21.62,52.077c6.899,12.435,11.937,25.281,11.101,39.75c-0.841,14.556-5.981,28.449-9.542,42.474     c-0.272,1.071,1.415,1.374,1.685,0.311c5.721-22.527,14.327-44.658,5.746-67.643c-7.635-20.448-24.255-37.383-28.146-59.251     c-4.488-25.232,13.283-46.109,33.521-58.434c21.235-12.933,45.966-19.391,66.033-34.367     c17.782-13.27,30.993-34.832,24.816-57.541C1178.242,577.394,1176.636,577.995,1176.925,579.053L1176.925,579.053z"/>
		</g>
		<g>
			<path style="fill:#755944;" d="M1165.727,575.237c-6.828,25.601-31.9,41.79-52.928,55.258     c-21.098,13.512-46.493,23.474-61.926,44.107c-6.398,8.553-10.093,18.174-10.901,28.819c-1.031,13.578-1.014,25.514-6.911,38.135     c-10.074,21.563-26.197,39.293-32.653,62.664c-6.357,23.013-2.768,49.159,15.752,65.622c0.826,0.734,1.926-0.579,1.102-1.312     c-20.407-18.141-21.534-47.252-12.771-71.481c7.787-21.53,23.961-38.506,32.238-59.706c4.327-11.084,4.038-21.969,4.928-33.613     c0.996-13.031,6.513-24.258,15.358-33.784c17.535-18.885,43.277-28.781,64.354-43.042c19.058-12.894,39.809-27.984,46.043-51.358     C1167.697,574.481,1166.009,574.179,1165.727,575.237L1165.727,575.237z"/>
		</g>
		<path style="fill:#755944;" d="M1146.224,575.055c1.846-1.412,0.798-4.647-1.274-5.701c-2.071-1.054-4.543-0.666-6.853-0.407    c-2.31,0.259-4.913,0.269-6.628-1.301c-1.07-0.98-1.6-2.42-2.566-3.503c-2.401-2.693-6.624-2.462-10.175-1.823    c-29.424,5.296-56.059,24.403-70.505,50.578c3.035-0.826,6.069-1.651,9.103-2.477c0.251,1.759,0.501,3.518,0.751,5.278    c6.221-2.31,12.442-4.62,18.664-6.93c0.809-0.301,1.719-0.6,2.51-0.255c2.106,0.918,0.513,4.047,0.51,6.345    c-0.003,2.64,2.736,4.622,5.373,4.751c2.637,0.13,5.135-1.079,7.482-2.29c20.876-10.776,40.536-24.204,56.922-41.04    L1146.224,575.055z"/>
		<path style="opacity:0.5;fill:#2f2d2d;" d="M1170.503,1137.324c-10.613-3.164-23.385-25.295-22.693-14.178    c0.68,11.117-1.503,43.626-6.529,30.432c-4.959-12.999-11.131-31.575-10.585-32.749c0.012-0.013,0.024-0.025,0.036-0.038    c0,0,0,0,0-0.012c6.608-5.388,11.863-10.403,14.017-14.639c1.119-2.187,1.685-4.214,1.536-6.079    c-0.268-3.519-1.173-11.046-2.418-20.742c1.585,9.999,6.902,34.121,22.272,45.724    C1185.804,1139.912,1181.116,1140.489,1170.503,1137.324z"/>
		<path style="fill:#2f2d2d;" d="M1175.554,820.339c0,0-6.933,265.123-20.525,231.527c-3.413-8.433-7.345-16.416-11.738-24.084    c-19.23-33.586-47.149-60.642-77.617-88.914c-7.237-6.717-14.621-13.503-22.074-20.466    c-11.013-10.297-22.162-20.976-33.175-32.361c-0.157-0.167-0.274-0.265-0.333-0.333l-0.029-0.02    c-16.632-17.23-32.969-36.117-48.051-57.798c-0.765-1.098-1.549-2.216-2.334-3.334c-11.866-16.779-26.094-35.107-35.224-49.738    c-0.02-0.01-0.02-0.01-0.02-0.01c-4.56-7.286-7.835-13.66-8.953-18.446c-1.824-7.982-21.496-82.275-33.773-199.087    c-1.353-12.876,16.935-1.775,28.34-2.981c9.581-1.01,20.064-19.877,23.456-11.915c53.239,124.766,34.852,122.186,59.887,165.668    c3.079,5.344,6.805,11.375,11.405,18.426c12.542,19.22,34.616,42.089,62.721,68.222c26.134,24.3,65.908,29.772,90.335,28.507    C1165.61,822.8,1171.818,821.711,1175.554,820.339z"/>
		<g>
			<path style="fill:#9a1d71;" d="M1234.243,719.942c3.238,3.107,15.005,12.849,29.654,6.507     c14.406-6.224,6.742-21.132,4.594-25.347c-0.438-0.841-0.743-1.333-0.743-1.333c-0.012,0.008-0.019-0.005-0.019-0.005     c-0.36-0.125-5.881-1.933-9.552-0.222c-1.448,0.665-2.616,1.887-3.053,3.968c-0.016,0.027-0.009,0.039-0.009,0.039     s-6.701-0.711-8.774,4.194c-1.847,4.333-6.441,9.672-11.118,10.993c-0.012,0.007-0.043,0.01-0.055,0.018     c-0.229,0.059-0.47,0.125-0.714,0.16c-0.039,0.124-0.067,0.241-0.082,0.35C1234.308,719.486,1234.273,719.724,1234.243,719.942z"/>
			<path style="fill:transparent;" d="M1254.31,722.265l0.366-0.296c2.292-0.406,4.619-0.823,6.705-1.855     c0.788-0.39,1.561-0.874,2.435-0.977s1.896,0.327,2.1,1.183c0.198,0.826-0.423,1.616-1.07,2.167     c-2.099,1.788-4.865,2.622-7.605,2.928c-1.02,0.114-2.185,0.111-2.903-0.623C1253.687,724.127,1253.674,722.944,1254.31,722.265z     "/>
			<path style="fill:transparent;" d="M1234.45,718.884c0.237-0.047,0.48-0.082,0.717-0.129c0.012-0.007,0.043-0.01,0.055-0.018     c15.776-3.104,32.506-18.972,32.506-18.972s3.366,9.769-4.725,16.993c-7.023,6.296-24.283,3.364-28.633,2.507     c0.015-0.109,0.043-0.226,0.082-0.35L1234.45,718.884z"/>
			<g>
				<path style="fill:transparent;" d="M1235.069,718.045c-0.479,1.357-0.666,2.813-0.64,4.248c0.008,0.452-0.694,0.472-0.702,0.018      c-0.028-1.491,0.16-3.017,0.658-4.427C1234.534,717.462,1235.22,717.619,1235.069,718.045L1235.069,718.045z"/>
			</g>
			<g>
				<path style="fill:transparent;" d="M1267.261,698.135c0.167,1.142,1.09,1.963,2.214,2.107c0.449,0.057,0.284,0.741-0.161,0.684      c-1.461-0.187-2.545-1.336-2.755-2.773C1266.494,697.707,1267.197,697.692,1267.261,698.135L1267.261,698.135z"/>
			</g>
		</g>
		<path style="opacity:0.5;fill:#2f2d2d;" d="M1187.302,1191.593c0,0,37.743,15.408,56.899,31.036    c19.156,15.628,42.369-7.176,46.475-15.786s-20.859,6.847-41.915-0.985C1227.705,1198.026,1182.683,1189.631,1187.302,1191.593z"/>
		<path style="opacity:0.5;fill:#2f2d2d;" d="M1212.966,1154.688c0,0,28.581,29.417,35.817,37.812    c7.236,8.396,20.938,4.266,22.406,1.83c1.467-2.436-14.427-4.203-26.544-18.05    C1232.528,1162.432,1211.472,1149.572,1212.966,1154.688z"/>
		<g>
			<path style="fill:#755944;" d="M1271.739,628.841c1.51,18.248,13.042,30.672,27.145,41.138     c7.08,5.254,14.685,9.972,21.091,16.071c7.719,7.348,17.076,19.116,16.877,30.255c-0.02,1.127,1.732,1.201,1.752,0.07     c0.298-16.635-16.074-31.46-28.421-40.42c-16.868-12.241-34.815-24.368-36.692-47.043     C1273.399,627.801,1271.646,627.717,1271.739,628.841L1271.739,628.841z"/>
		</g>
		<path style="fill:#755944;" d="M1155.363,854.17c0,0-8.139,0.873-19.142,0.402c8.041-6.354,28.987-25.967,27.801-56.955    c0,0-8.777,39.382-43.716,55.347c-17.857-2.971-36.784-10.659-41.432-29.478c-8.826-35.675-43.01-59.652-43.01-59.652    l71.439-26.526l60.142,23.937C1167.444,761.246,1191.509,826.056,1155.363,854.17z"/>
		<path style="fill:#755944;" d="M1133.785,720.696c0,0,5.865,25.147,33.659,34.692c27.794,9.545,37.473,63.619,27.322,86.594    c0,0-4.642,3.953-9.726,3.78c0,0,5.458-62.688-21.019-74.455c-26.477-11.768-45.586-45.838-45.586-45.838L1133.785,720.696z"/>
		<g>
			<path style="fill:#fabba5;" d="M1157.13,710.007c0,0-24.632-12.349-31.525,3.782c-6.894,16.131,15.321,25.547,23.75,29.213     c9.022,3.924,11.963,2.28,19.519-5.096C1176.43,730.53,1157.13,710.007,1157.13,710.007z"/>
			<g>
				<path style="fill:#8c6e66;" d="M1168.504,735.902c0.06,6.734-6.969,10.383-12.987,9.693c-3.77-0.432-7.265-2.11-10.578-3.865      c-3.99-2.114-7.949-4.366-11.504-7.167c-5.935-4.677-11.883-12.325-8.674-20.246c3.161-7.801,12.051-10.204,19.585-7.93      c0.985,0.298,0.582,1.847-0.407,1.548c-7.005-2.115-15.593,0.155-18.003,7.81c-2.422,7.695,4.398,14.697,10.104,18.785      c4.915,3.521,10.776,7.109,16.609,8.831c5.621,1.66,14.318-0.069,14.252-7.461      C1166.894,734.871,1168.495,734.869,1168.504,735.902L1168.504,735.902z"/>
			</g>
			<g>
				<path style="fill:#8c6e66;" d="M1136.115,712.96c2.551-0.368,5.22-0.381,7.545,0.9c2.704,1.49,3.237,3.555,3.927,6.306      c1.304,5.194,6.335,3.452,10.216,4.973c2.199,0.862,3.712,2.619,3.71,5.013c-0.001,1.03-1.602,1.032-1.601-0.001      c0.005-5.622-9.662-3.207-12.661-6.637c-1.246-1.424-1.011-3.021-1.488-4.731c-1.14-4.084-5.652-4.794-9.237-4.277      C1135.519,714.652,1135.094,713.107,1136.115,712.96L1136.115,712.96z"/>
			</g>
		</g>
		<path style="opacity:0.5;fill:#2f2d2d;" d="M1215.921,1008.013c0,0,28.349,9.364,62.344,0c0,0-7.355,13.874-33.832,15.33    C1217.956,1024.8,1204.888,1005.5,1215.921,1008.013z"/>
		<path style="opacity:0.5;fill:#2f2d2d;" d="M1331.322,886.279c0,0-15.793-10.106-9.909-31.568s8.762,8.767,18.337,8.284    c9.575-0.482,17.336-10.748,17.336-10.748L1331.322,886.279z"/>
		<g>
			<path style="fill:transparent;" d="M1339.041,652.947c10.571-11.622,26.717-11.55,41.082-9.092c0.772,0.132,1.103-1.049,0.326-1.182     c-14.808-2.534-31.393-2.556-42.274,9.407C1337.644,652.662,1338.508,653.532,1339.041,652.947L1339.041,652.947z"/>
		</g>
		<g>
			<path style="fill:transparent;" d="M1350.603,637.814c-5.858,3.295-9.169,8.775-12.525,14.39c-0.406,0.679,0.654,1.296,1.058,0.619     c3.242-5.425,6.415-10.76,12.085-13.95C1351.909,638.486,1351.292,637.427,1350.603,637.814L1350.603,637.814z"/>
		</g>
		<g>
			<path style="fill:transparent;" d="M1127.876,1004.157c4.855,5.206,8.742,11.071,11.664,17.559c0.323,0.718,1.38,0.096,1.058-0.619     c-2.966-6.584-6.933-12.528-11.856-17.807C1128.203,1002.712,1127.338,1003.58,1127.876,1004.157L1127.876,1004.157z"/>
		</g>
		<g>
			<path style="fill:transparent;" d="M1126.954,1003.674c4.587,2.102,9.173,4.204,13.76,6.306c0.712,0.326,1.336-0.73,0.619-1.058     c-4.587-2.102-9.173-4.204-13.76-6.306C1126.861,1002.289,1126.237,1003.345,1126.954,1003.674L1126.954,1003.674z"/>
		</g>
		<g>
			<path style="fill:transparent;" d="M1161.55,866.577c0.696,13.752,0.326,27.486-1.112,41.18c-0.082,0.784,1.144,0.778,1.226,0     c1.437-13.694,1.808-27.429,1.112-41.18C1162.735,865.792,1161.51,865.787,1161.55,866.577L1161.55,866.577z"/>
		</g>
		<g>
			<path style="fill:transparent;" d="M1155.687,877.609c-1.656,6.37-4.135,12.372-7.461,18.053c-0.399,0.682,0.66,1.3,1.058,0.619     c3.38-5.773,5.901-11.871,7.584-18.346C1157.068,877.17,1155.886,876.845,1155.687,877.609L1155.687,877.609z"/>
		</g>
	</g>
	<path style="fill:#eeaad7;" d="M1375.355,1430.61l-238.3,20.54c-30.638,2.641-57.616-20.055-60.257-50.694v0   c-2.641-30.638,20.055-57.616,50.694-60.257l238.3-20.54c30.638-2.641,57.616,20.056,60.257,50.694v0   C1428.689,1400.991,1405.993,1427.969,1375.355,1430.61z"/>
	<g>
		<g>
			<g>
				<g>
					<g>
						<path style="fill:#fdbaa0;" d="M1928.55,1921.468h-393.87c-8.708-6.757-18.053-14.357-28.105-22.927        c-0.01-0.01-0.029-0.01-0.039-0.02c-1.334-1.137-2.589-2.344-3.756-3.609c-31.723-33.94-6.502-109.919,16.484-113.047        c0.294-0.039,0.588-0.069,0.882-0.088c0.284-0.02,0.589-0.02,0.873-0.01h0.078c0.128,0.01,0.255,0.02,0.392,0.029        c0,0-0.814-1.422-2.324-4.128c-0.559-1.03-1.236-2.236-2.01-3.628v-0.01c-0.755-1.363-1.598-2.883-2.52-4.58        c-0.333-0.608-0.686-1.255-1.049-1.922c-0.02-0.02-0.029-0.049-0.039-0.069c-3.118-5.707-7.031-12.984-11.571-21.593        c-13.69-26.046-33.008-64.29-52.62-108.075c-19.828-44.295-33.812-80.578-49.581-114.822        c-15.111-32.831-29.419-63.319-44.54-93.395c-36.911-73.43,9.855-95.249,36.215-61.182        c42.51,54.954,107.134,181.083,131.601,211.179c2.618,3.226,4.785,5.344,6.403,6.158h0.01        c0.559,0.275,1.049,0.402,1.481,0.363c0.52-0.039,0.941-0.323,1.255-0.873c4.54-7.767-4.795-53.582,47.806-51.944        c20.76,0.647,33.636,23.702,41.294,31.978c1.902,2.049,3.471,3.197,4.766,2.873c0.559-0.128,1.069-0.53,1.52-1.236        c6.364-9.934-2.402-36.685,40.569-41.069c17.926-1.824,30.047,8.884,36.675,13.023c1.079,0.667,2.01,1.167,2.805,1.402h0.01        c0.598,0.186,1.118,0.225,1.55,0.069c0.284-0.088,0.53-0.275,0.745-0.539c14.268-17.896,30.429-17.141,44.168-9.13        c25.438,14.827,27.624,43.854,79.303,129.296c9.649,15.955,16.69,57.465,25.428,100.524        c8.021,39.5,17.465,80.314,31.655,103.898C1896.65,1874.594,1910.546,1895.364,1928.55,1921.468z"/>
					</g>
				</g>
			</g>
		</g>
		<g>
			<path style="fill:#9a1d71;" d="M1346.395,1371.057c0,0,6.409,29.588,17.894,34.699c11.485,5.111,30.477-6.695,30.694-12.462     s-16.956-33.392-20.527-34.833C1370.885,1357.019,1350.351,1364.032,1346.395,1371.057z"/>
		</g>
		<g>
			<g>
				<path style="fill:#F18E7B;" d="M1516.786,1775.27c12.098,17.81,22.534,36.605,31.256,56.29c0.481,1.086,2.075,0.146,1.597-0.933      c-8.722-19.685-19.158-38.479-31.256-56.289C1517.718,1773.358,1516.115,1774.282,1516.786,1775.27L1516.786,1775.27z"/>
			</g>
		</g>
		<path style="fill:#fdbaa0;" d="M1668.149,1921.465h-135.884c-8.651-7.189-17.288-14.932-25.693-22.922    c-0.008-0.008-0.023-0.015-0.031-0.023c-1.262-1.193-2.517-2.394-3.764-3.602c-24.069-23.245-45.944-48.053-60.484-66.634    c-35.214-44.989-42.149-57.928-49.092-87.654c-2.448-10.499-9.29-22.645-17.134-33.944c-13.993-20.205-31.15-37.785-31.981-38.624    l-0.023-0.031c-9.922-10.745,11.099-29.603,42.703-22.044c31.596,7.551,64.094,57.636,64.094,57.636    c12.285,9.321,37.662,41.741,44.32,54.003c1.847,3.402,8.821,7.112,19.266,11.746h0.008c0.062,0.031,0.123,0.054,0.185,0.085    c27.194,12.031,77.718,30.273,122.915,65.379C1669.295,1859.488,1676.816,1894.34,1668.149,1921.465z"/>
		<g>
			<path style="fill:#F18E7B;" d="M1502.078,1746.299c14.998,28.847,27.903,58.726,38.62,89.422     c0.347,0.993,1.936,0.566,1.586-0.437c-10.763-30.828-23.723-60.843-38.785-89.815     C1503.01,1744.53,1501.59,1745.36,1502.078,1746.299L1502.078,1746.299z"/>
		</g>
		<g>
			<path style="fill:#F18E7B;" d="M1449.328,1702.55c-4.895,0.167-9.545,1.228-14.043,3.165c-0.969,0.417-0.133,1.835,0.83,1.42     c4.221-1.818,8.619-2.784,13.213-2.94C1450.384,1704.159,1450.388,1702.514,1449.328,1702.55L1449.328,1702.55z"/>
		</g>
		<g>
			<path style="fill:#F18E7B;" d="M1447.437,1703.733c-1.951,1.555-3.709,3.308-5.269,5.255c-0.656,0.818,0.501,1.989,1.163,1.163     c1.561-1.947,3.319-3.699,5.27-5.255C1449.427,1704.237,1448.256,1703.08,1447.437,1703.733L1447.437,1703.733z"/>
		</g>
		<g>
			<path style="fill:#F18E7B;" d="M1502.159,1763.664c-2.889-2.015-6.125-3.156-9.628-3.475c-1.054-0.096-1.047,1.549,0,1.645     c3.216,0.293,6.154,1.407,8.798,3.251C1502.199,1765.691,1503.022,1764.266,1502.159,1763.664L1502.159,1763.664z"/>
		</g>
		<g>
			<path style="fill:#F18E7B;" d="M1523.223,1580.42c5.586,5.817,11.172,11.635,16.757,17.452c0.734,0.765,1.896-0.399,1.163-1.163     c-5.586-5.817-11.172-11.635-16.758-17.452C1523.651,1578.492,1522.49,1579.656,1523.223,1580.42L1523.223,1580.42z"/>
		</g>
		<g>
			<path style="fill:#F18E7B;" d="M1619.859,1566.21c3.967,3.067,8.441,5.042,13.405,5.8c1.035,0.158,1.482-1.426,0.437-1.586     c-4.662-0.712-8.941-2.487-12.679-5.377C1620.195,1564.407,1619.023,1565.563,1619.859,1566.21L1619.859,1566.21z"/>
		</g>
		<g>
			<path style="fill:#F18E7B;" d="M1703.254,1537.233c4.289,4.71,9.735,7.921,15.931,9.399c1.029,0.245,1.468-1.34,0.437-1.586     c-5.939-1.416-11.096-4.463-15.206-8.975C1703.703,1535.286,1702.542,1536.451,1703.254,1537.233L1703.254,1537.233z"/>
		</g>
		<path style="fill:#9a1d71;" d="M1383.988,1694.227c0.25,5.434-4.21,9.788-7.92,12.459c-21.476-19.526-32.733-36.941-31.982-38.626    l-0.026-0.026c0,0,5.723-10.643,13.182-5.381C1364.688,1667.915,1383.554,1685.018,1383.988,1694.227z"/>
		<g>
			<path style="fill:#F18E7B;" d="M1425.327,1517.286c7.27-5.6,15.591-9.212,24.648-10.695c1.042-0.171,0.6-1.755-0.437-1.586     c-9.19,1.505-17.662,5.177-25.041,10.861C1423.67,1516.502,1424.488,1517.932,1425.327,1517.286L1425.327,1517.286z"/>
		</g>
		<g>
			<path style="fill:#F18E7B;" d="M1436.847,1520.526c2.616-0.92,5.233-1.839,7.849-2.759c0.992-0.349,0.565-1.938-0.437-1.586     c-2.616,0.92-5.233,1.839-7.849,2.759C1435.418,1519.289,1435.845,1520.879,1436.847,1520.526L1436.847,1520.526z"/>
		</g>
	</g>
	<g>
		<polygon style="fill:#eeaad7;" points="1426.732,400.335 1399.245,406.523 1304.85,427.763 937.123,510.528 856.839,528.601     787.871,544.125 765.15,443.189 744.773,352.657 732.339,297.398 1371.199,153.609 1380.397,194.471 1400.294,282.855   "/>
		
			<rect x="726.881" y="225.22" transform="matrix(0.9756 -0.2196 0.2196 0.9756 -26.2589 237.2826)" style="fill:#eeaad7;" width="654.843" height="23.097"/>
		<polygon style="fill:#eeaad7;" points="1380.672,165.768 1321.805,179.017 1228.4,200.041 939.771,265.008 843.64,286.641     725.935,313.137 719.267,283.503 708.47,235.56 791.294,216.918 1100.908,147.234 1189.842,127.22 1317.99,98.38 1363.207,88.201     1377.671,152.451   "/>
		<g>
			<path style="fill:#2f2d2d;" d="M1038.295,159.475c-14.589,1.744-31.495,2.522-45.574-2.403     c-12.489-4.369-20.044-18.146-15.573-30.973c6.134-17.6,26.995-3.498,36.188,3.639c10.634,8.255,19.181,18.773,25.349,30.716     c1.459,2.824,6.441,0.84,5.227-2.204c-4.684-11.745-9.458-24.207-9.329-37.043c0.113-11.166,6.072-27.809,19.702-27.585     c17.664,0.291,9.249,22.31,5.144,31.455c-5.204,11.591-12.101,22.334-20.371,31.971c1.497,1.155,2.995,2.311,4.492,3.466     c6.681-10.041,14.805-19.027,24.224-26.571c4.534-3.631,9.524-7.523,14.978-9.671c5.679-2.236,13.937-2.22,13.979,5.865     c0.064,12.235-18.503,15.643-27.439,18.038c-10.906,2.923-21.941,5.79-31.137,12.645c-2.918,2.175-0.069,7.142,2.887,4.939     c12.802-9.542,28.931-10.751,43.486-16.24c9.95-3.752,23.042-13.699,16.391-25.963c-6.686-12.329-22.549-4.285-30.726,1.464     c-12.512,8.797-23.118,19.886-31.582,32.607c-1.78,2.675,2.366,5.943,4.492,3.466c10.603-12.354,19.063-26.335,24.765-41.603     c2.475-6.628,4.65-14.322,2.033-21.258c-2.188-5.797-7.497-9.378-13.521-10.147c-14.174-1.81-24.094,11.846-26.602,24.272     c-3.264,16.172,2.709,32.598,8.619,47.415c1.742-0.735,3.485-1.469,5.227-2.204c-5.96-11.54-14.134-21.893-24.142-30.195     c-8.759-7.265-20.994-16.337-33.027-15.577c-11.789,0.744-16.974,13.491-16.186,23.909c0.853,11.282,7.531,21.194,17.966,25.712     c15.004,6.496,34.201,5.675,50.059,3.78C1041.905,164.763,1041.948,159.038,1038.295,159.475L1038.295,159.475z"/>
		</g>
		<g>
			<path style="fill:#2f2d2d;" d="M1033.062,161.356c-13.115,4.72-27.13,9.868-35.944,21.293c-4.066,5.271-6.9,11.557-7.336,18.26     c-0.534,8.214,4.302,14.692,5.291,22.553c1.081,8.597-5.133,15.477-10.988,20.882c-5.339,4.929-10.79,9.509-14.825,15.633     c-7.648,11.609-9.982,25.976-7.02,39.479c0.789,3.594,6.304,2.073,5.516-1.521c-2.957-13.476,0.265-28.12,9.181-38.775     c8.142-9.731,21.158-16.399,23.652-29.916c1.205-6.531-1.327-12.134-3.415-18.168c-2.526-7.299-2.007-14.256,1.836-21.013     c7.404-13.018,22.248-18.396,35.573-23.191C1038.02,165.634,1036.537,160.105,1033.062,161.356L1033.062,161.356z"/>
		</g>
		<g>
			<path style="fill:#2f2d2d;" d="M1037.739,166.786c9.886-6.274,19.65,2.9,26.081,9.772c5.899,6.302,12.239,13.112,21.106,14.821     c8.684,1.674,17.115-1.679,25.471-3.517c10.417-2.291,20.359-0.081,27.852,7.771c2.546,2.668,6.587-1.38,4.045-4.044     c-6.376-6.682-15.234-10.69-24.543-10.468c-10.898,0.26-21.987,7.287-32.881,4.388c-10.653-2.835-16.549-13.968-24.773-20.425     c-7.198-5.651-17.021-8.456-25.245-3.237C1031.752,163.814,1034.618,168.767,1037.739,166.786L1037.739,166.786z"/>
		</g>
		<path style="opacity:0.3;fill:transparent;" d="M793.216,231.402c0,30.556-24.771,55.317-55.317,55.317    c-6.541,0-12.807-1.138-18.632-3.216L708.47,235.56l82.824-18.642C792.549,221.537,793.216,226.391,793.216,231.402z"/>
		<path style="opacity:0.3;fill:transparent;" d="M939.771,265.008l-96.131,21.633c-1.324-4.452-2.03-9.169-2.03-14.052    c0-27.262,22.103-49.365,49.375-49.365C915.667,223.223,936.123,241.346,939.771,265.008z"/>
		<path style="opacity:0.1;fill:transparent;" d="M940.35,492.946c0,6.197-1.137,12.12-3.226,17.583l-80.284,18.073    c-9.385-8.983-15.229-21.633-15.229-35.656c0-27.262,22.103-49.365,49.375-49.365C918.246,443.581,940.35,465.684,940.35,492.946z    "/>
		
			<ellipse transform="matrix(0.2298 -0.9732 0.9732 0.2298 584.473 1411.4211)" style="opacity:0.1;fill:transparent;" cx="1183.94" cy="336.454" rx="49.368" ry="49.368"/>
		<path style="opacity:0.1;fill:transparent;" d="M1399.245,406.523l-94.396,21.24c-2.775-6.168-4.315-13.013-4.315-20.211    c0-27.262,22.104-49.365,49.365-49.365C1376.818,358.188,1398.706,379.732,1399.245,406.523z"/>
		<path style="opacity:0.1;fill:transparent;" d="M1400.294,282.855c-8.159,5.972-18.22,9.492-29.105,9.492    c-27.261,0-49.365-22.103-49.365-49.365c0-27.271,22.104-49.375,49.365-49.375c3.148,0,6.227,0.294,9.208,0.863L1400.294,282.855z    "/>
		<path style="opacity:0.1;fill:transparent;" d="M820.821,394.216c0,27.262-22.103,49.365-49.375,49.365    c-2.138,0-4.236-0.137-6.296-0.392l-20.378-90.532c7.688-4.942,16.847-7.816,26.673-7.816    C798.717,344.841,820.821,366.944,820.821,394.216z"/>
		
			<ellipse transform="matrix(0.7071 -0.7071 0.7071 0.7071 11.931 798.5958)" style="opacity:0.1;fill:transparent;" cx="969.956" cy="384.896" rx="49.368" ry="49.368"/>
		<path style="opacity:0.3;fill:transparent;" d="M1198.912,155.736c0,27.271-22.103,49.375-49.375,49.375    c-27.261,0-49.365-22.104-49.365-49.375c0-2.903,0.245-5.737,0.735-8.502l88.933-20.015    C1195.549,135.271,1198.912,145.116,1198.912,155.736z"/>
		<path style="opacity:0.3;fill:transparent;" d="M1321.824,177.742c0,0.422-0.01,0.853-0.019,1.275l-93.405,21.025    c-3.403-6.698-5.315-14.278-5.315-22.299c0-27.262,22.104-49.365,49.365-49.365    C1299.721,128.377,1321.824,150.48,1321.824,177.742z"/>
		<path style="opacity:0.3;fill:transparent;" d="M1377.671,152.451c-3.432,0.755-7.002,1.157-10.66,1.157    c-27.262,0-49.365-22.103-49.365-49.375c0-1.981,0.118-3.932,0.343-5.854l45.217-10.179L1377.671,152.451z"/>
		
			<rect x="1065.47" y="157.648" transform="matrix(0.9756 -0.2196 0.2196 0.9756 -43.4101 243.2003)" style="fill:#2f2d2d;" width="13.727" height="318.466"/>
		
			<rect x="749.318" y="331.306" transform="matrix(0.9756 -0.2196 0.2196 0.9756 -47.6003 244.6427)" style="fill:#2f2d2d;" width="654.841" height="10.295"/>
	</g>
	<g>
		<path style="fill:#eeaad7;" d="M780.794,868.026c0,0,60.528-19.807,45.716-77.796l-21.557,1.409c0,0,7.318,36.714-33.503,55.017    L780.794,868.026z"/>
		<path style="fill:#eeaad7;" d="M530.415,566.454c0,0-37.38-51.562-88.054-19.715l7.939,20.092c0,0,32.712-18.203,62.63,15.059    L530.415,566.454z"/>
		<g>
			<path style="fill:#2f2d2d;" d="M690.326,758.147c0,0-8.887,41.843-41.992,36.502l-28.317-16.793c0,0,34.847,17.178,40.264-22.989     L690.326,758.147z"/>
			<path style="fill:#eeaad7;" d="M586.695,741.557c0,0-0.829,54.829,68.169,53.477c0,0-35.068-17.826-28.781-55.282     L586.695,741.557z"/>
		</g>
		<g>
			<path style="fill:#2f2d2d;" d="M860.748,1003.03c4.628,0.897,7.174,7.766,3.551,11.276c-1.902,1.843-5.297,1.983-7.692,2.997     c-2.127,0.902-4.034,2.26-5.298,4.228c-5.048,7.86,2.021,16.388,1.717,24.479c-0.225,5.996-7.495,4.524-11.707,5.108     c-4.505,0.625-8.286,3.045-8.983,7.836c-0.874,6.005,4.457,10.852,3.226,16.918c-1.303,6.421-7.894,11.934-14.555,10.869     c-4.071-0.651-5.824,5.58-1.719,6.236c10.022,1.602,19.704-4.953,22.349-14.789c1.573-5.849-0.811-9.718-2.321-15.169     c-1.278-4.614,0.844-5.41,4.806-5.663c2.388-0.153,4.837-0.092,7.173-0.696c9.348-2.413,8.724-11.673,6.704-19.16     c-0.907-3.36-3.196-8.547-1.537-11.974c1.997-4.126,9.833-3.641,13.04-7.339c6.03-6.955,2.089-19.624-7.037-21.393     C858.401,996.006,856.66,1002.237,860.748,1003.03L860.748,1003.03z"/>
		</g>
		<g>
			<path style="fill:#2f2d2d;" d="M426.773,957.256c9.646-7.614,12.833-21.306,9.136-32.82c-1.71-5.325-4.902-10.338-9.475-13.642     c-4.223-3.051-10.62-4.122-13.009,1.703c-4.673,11.391,7.64,22.372,17.458,24.878c12.494,3.188,24.259-3.404,30.244-14.437     c5.598-10.32,8.105-28.159-0.536-37.662c-3.638-4.001-9.881-5.595-14.712-2.674c-5.406,3.27-4.719,9.586-2.454,14.63     c5.615,12.508,19.393,21.414,33.234,20.164c13.257-1.198,25.483-11.63,27.636-24.961c0.998-6.181-0.61-14.392-7.425-16.507     c-5.267-1.634-11.779,1.24-11.893,7.324c-0.139,7.447,8.447,13.801,14.337,16.823c7.195,3.692,15.138,4.758,23.081,3.484     c3.389-0.544,1.951-5.698-1.422-5.158c-9.57,1.535-19.662-1.549-26.578-8.401c-1.834-1.817-5.645-5.777-3.118-8.199     c2.155-2.066,5.258-0.771,6.69,1.505c2.67,4.242,1.054,10.586-1.06,14.708c-9.377,18.284-34.243,17.799-45.726,2.003     c-2.379-3.273-7.294-11.387-1.281-13.343c5.536-1.801,8.811,4.602,9.857,8.867c2.038,8.31,0.66,17.851-3.562,25.273     c-4.107,7.22-11.363,12.62-19.948,12.038c-7.366-0.499-15.496-4.972-17.688-12.439c-0.573-1.952-1.453-6.667,1.749-6.854     c1.981-0.116,4.733,2.896,5.942,4.265c2.844,3.219,4.613,7.3,5.378,11.505c1.645,9.045-1.369,18.407-8.638,24.145     C420.291,955.606,424.099,959.367,426.773,957.256L426.773,957.256z"/>
		</g>
		<g>
			<path style="fill:#eeaad7;" d="M664.326,661.375c4.114-4.494,11.664-11.723,18.136-7.422c3.747,2.49,5.701,7.288,8.468,10.711     c5.811,7.187,13.39,6.021,19.002-0.709c2.562-3.073,5.417-8.626,8.304-2.955c2.141,4.206,4.122,7.643,8.887,9.24     c4.774,1.6,9.908,0.894,14.778,0.236c4.55-0.614,12.996-1.619,15.006,3.944c1.404,3.884,7.655,2.208,6.236-1.719     c-4.553-12.601-18.835-8.017-28.825-7.952c-3.602,0.023-6.914-0.562-8.974-3.791c-1.401-2.195-1.91-4.84-3.802-6.756     c-3.13-3.167-7.49-3.205-10.945-0.631c-3.315,2.469-5.689,8.974-9.976,9.752c-4.407,0.8-7.881-7.495-10.067-10.291     c-9.256-11.84-22.267-5.552-30.799,3.769C656.948,659.867,661.509,664.452,664.326,661.375L664.326,661.375z"/>
		</g>
		<path style="fill:#eeaad7;" d="M319.952,633.956c0,0,16.974-10.394,33.87-4.67l1.967,18.903c0,0-21.299-2.432-29.393,4.692    L319.952,633.956z"/>
		<path style="fill:#eeaad7;" d="M624.305,946.477c0,0,3.241,19.638-8.421,33.137l-18.254-5.292c0,0,10.27-18.818,6.716-28.997    L624.305,946.477z"/>
		<path style="fill:#2f2d2d;" d="M722.701,944.013c0,0,19.461-14.157,40.374-8.88l4.186,22.595c0,0-25.905-0.887-34.976,8.477    L722.701,944.013z"/>
		<path style="fill:#2f2d2d;" d="M430.745,725.926c0,0,20.836-43.805,50.009-51.524l14.326,20.295c0,0-24.612,19.64-36.938,45.505    L430.745,725.926z"/>
	</g>
	<g>
		<path style="fill:#eeaad7;" d="M1748.387,766.106c0,0,40.074-34.183,10.51-73.885l-16.047,7.856c0,0,17.142,25.783-8.33,52.62    L1748.387,766.106z"/>
		<path style="fill:#2f2d2d;" d="M1886.906,872.709c0,0,50.112,16.223,68.439-29.76l-15.099-9.552c0,0-12.979,28.11-49.184,20.475    L1886.906,872.709z"/>
		<g>
			<path style="fill:#2f2d2d;" d="M1609.978,950.903c0,0,24.298,25.715,5.104,45.733l-24.738,11.377c0,0,28.069-15.64,3.28-38.206     L1609.978,950.903z"/>
			<path style="fill:#eeaad7;" d="M1549.98,1013.629c0,0,36.923,26.335,68.433-21.255c0,0-28.614,15.486-51.149-6.398     L1549.98,1013.629z"/>
		</g>
		<g>
			<path style="fill:#2f2d2d;" d="M1882.87,1195.762c-1.871,4.346-8.936,5.551-11.775,1.303c-1.581-2.365-0.799-5.883-1.396-8.585     c-0.532-2.409-1.617-4.603-3.487-6.244c-7.071-6.204-16.619-0.382-24.422-3.239c-5.445-1.994-1.713-9.577-1.718-13.777     c-0.005-4.865-2.915-8.719-7.802-9.512c-5.985-0.971-11.315,2.719-16.98-0.922c-5.414-3.48-7.898-10.245-5.538-16.234     c1.526-3.873-4.725-5.553-6.236-1.719c-3.544,8.995,1.209,19.622,9.538,24.146c4.69,2.547,9.113,2.206,14.191,1.411     c4.169-0.653,6.72,0.169,6.182,4.732c-0.303,2.567-1.058,5.098-1.014,7.704c0.166,9.798,9.196,11.41,17.121,11.025     c3.464-0.168,9.068-1.309,12.079,0.97c3.806,2.88,1.513,10.599,4.691,14.599c5.559,6.998,18.511,6.055,22.149-2.396     C1890.082,1195.244,1884.513,1191.946,1882.87,1195.762L1882.87,1195.762z"/>
		</g>
		<g>
			<path style="fill:#2f2d2d;" d="M1872.267,983.515c11.449,4.106,24.574-0.175,32.461-9.214c3.773-4.323,6.459-9.762,6.891-15.539     c0.387-5.179-1.916-11.116-8.13-10.238c-11.295,1.596-14.698,16.328-12.708,25.563c2.714,12.594,13.694,20.292,26.314,20.503     c12.287,0.206,28.948-6.796,33.744-19.017c2.156-5.494,0.658-12.191-4.788-15.168c-5.932-3.242-11.156,1.174-14.3,6.032     c-7.448,11.508-7.357,27.936,1.219,38.822c7.936,10.073,22.63,14.786,34.746,10.032c5.951-2.335,12.564-7.981,10.816-15.148     c-1.431-5.865-8.057-9.731-13.316-5.826c-5.443,4.042-6.365,13.313-6.008,19.51c0.481,8.373,3.767,16.065,9.245,22.367     c2.262,2.602,6.032-1.194,3.782-3.782c-6.338-7.292-9.148-17.344-7.067-26.845c0.49-2.239,1.135-5.251,3.166-6.613     c4.709-3.158,5.591,3.96,3.92,6.648c-2.587,4.161-8.485,5.862-13.097,6.144c-19.803,1.213-31.985-18.931-25.705-36.693     c1.33-3.761,5.812-13.353,10.899-9.375c5.177,4.049,0.333,10.91-3.122,14.128c-6.556,6.105-15.875,9.789-24.853,9.424     c-8.437-0.343-16.091-4.73-19.297-12.718c-2.486-6.194-2.405-14.236,2.215-19.444c0.392-0.442,1.043-1.176,1.582-1.514     c0.904-1.08,2.001-1.25,3.292-0.509c1.779-0.322,2.51,0.333,2.194,1.963c0.49,1.815-0.551,4.633-1.186,6.385     c-1.368,3.767-3.823,7.093-6.814,9.734c-6.758,5.967-16.111,8.3-24.673,5.23C1870.443,977.194,1869.045,982.36,1872.267,983.515     L1872.267,983.515z"/>
		</g>
		<g>
			<path style="fill:#2f2d2d;" d="M1554.677,1154.397c8.464,8.614,21.779,10.571,32.829,6.111     c5.291-2.135,10.021-5.71,13.106-10.559c2.954-4.643,3.739-11.899-2.945-13.587c-11.645-2.941-20.892,9.807-22.472,19.711     c-2.006,12.57,5.316,23.527,16.684,28.554c11.02,4.872,29.125,5.509,38.052-4.032c3.725-3.982,4.676-10.306,1.412-14.889     c-3.836-5.386-10.441-3.873-15.336-0.898c-11.622,7.061-18.56,21.316-16.103,34.79c2.398,13.153,14.223,24.078,27.612,24.99     c6.055,0.412,13.785-1.816,15.677-8.349c1.583-5.467-1.898-12.189-8.111-11.855c-7.249,0.389-12.594,9.24-15.05,15.141     c-3.186,7.656-3.641,16.026-1.449,24.005c0.911,3.315,6.072,1.908,5.157-1.422c-2.612-9.507-0.797-19.87,5.407-27.644     c1.559-1.953,5.108-6.431,8.09-4.014c1.739,1.409,1.019,4.679-0.239,6.106c-3.278,3.719-9.837,3.069-14.057,1.814     c-20.101-5.977-23.219-31.333-9.224-45.035c2.842-2.782,10.329-9.138,13.578-4.042c3.281,5.146-3.112,9.765-7.189,11.282     c-8.137,3.027-17.887,2.726-25.835-0.723c-7.608-3.302-13.733-9.914-14.079-18.491c-0.29-7.2,3.047-15.533,9.915-18.723     c2.04-0.948,7.553-2.859,7.299,1.789c-0.11,2.015-2.558,4.525-3.892,5.899c-2.914,3.002-6.733,5.048-10.741,6.162     c-8.566,2.381-18.001,0.557-24.316-5.871C1556.043,1148.156,1552.262,1151.938,1554.677,1154.397L1554.677,1154.397z"/>
		</g>
		<path style="fill:#eeaad7;" d="M1673.168,1068.477c0,0,18.606,7.069,24.414,23.936l-13.75,13.12c0,0-11.106-18.337-21.693-20.381    L1673.168,1068.477z"/>
		<path style="fill:#eeaad7;" d="M2009.262,728.751c0,0,19.314-4.806,33.706,5.734l-3.81,18.619c0,0-19.581-8.726-29.443-4.367    L2009.262,728.751z"/>
		<path style="fill:#eeaad7;" d="M2077.498,1126.774c0,0,13.906,14.24,12.081,31.985l-17.993,6.119c0,0-2.363-21.307-11.107-27.615    L2077.498,1126.774z"/>
		<path style="fill:#eeaad7;" d="M1736.495,890.561c0,0,15.995-11.846,33.328-7.63l3.622,18.657c0,0-21.431-0.55-28.866,7.258    L1736.495,890.561z"/>
		<path style="fill:#eeaad7;" d="M1640.066,624.969c0,0,15.995-11.846,33.328-7.63l3.622,18.657c0,0-21.431-0.55-28.866,7.258    L1640.066,624.969z"/>
		<path style="fill:#2f2d2d;" d="M1556.35,863.664c0,0,20.708-43.865,49.858-51.67l14.385,20.253c0,0-24.554,19.712-36.805,45.612    L1556.35,863.664z"/>
		<path style="fill:#2f2d2d;" d="M2088.392,929.826c0,0,44.634,18.995,53.56,47.822l-19.681,15.158c0,0-20.647-23.773-47.002-35.013    L2088.392,929.826z"/>
		<path style="fill:#eeaad7;" d="M1751.922,997.019c0,0,46.258,14.601,57.923,42.432l-18.127,16.986c0,0-22.844-21.671-50.16-30.316    L1751.922,997.019z"/>
	</g>
	<path style="fill:#eeaad7;" d="M909.319,1921.465c0,0-16.436-65.432,20.825-87.325c0,0,44.125,30.08,123.557,15.37   c79.431-14.709,133.113-9.107,133.113-9.107s38.497,25.535,36.536,81.062H909.319z"/>
	<path style="opacity:0.2;fill:#F18E7B;" d="M1928.55,1921.468H1769.56c120.618,0,88.914-161.284,88.914-161.284l0.363,0.284   c8.021,39.5,17.465,80.314,31.655,103.898C1896.65,1874.594,1910.546,1895.364,1928.55,1921.468z"/>
</g>
</svg>